<?xml version="1.0" encoding="UTF-8" standalone="no"?>
<svg
   xmlns:dc="http://purl.org/dc/elements/1.1/"
   xmlns:cc="http://creativecommons.org/ns#"
   xmlns:rdf="http://www.w3.org/1999/02/22-rdf-syntax-ns#"
   xmlns:svg="http://www.w3.org/2000/svg"
   xmlns="http://www.w3.org/2000/svg"
   xmlns:sodipodi="http://sodipodi.sourceforge.net/DTD/sodipodi-0.dtd"
   xmlns:inkscape="http://www.inkscape.org/namespaces/inkscape"
   width="22"
   height="22"
   version="1.1"
   viewBox="0 0 22 22"
   id="svg67"
   sodipodi:docname="media.svg"
   inkscape:version="0.92.4 5da689c313, 2019-01-14">
  <metadata
     id="metadata71">
    <rdf:RDF>
      <cc:Work
         rdf:about="">
        <dc:format>image/svg+xml</dc:format>
        <dc:type
           rdf:resource="http://purl.org/dc/dcmitype/StillImage" />
        <dc:title />
      </cc:Work>
    </rdf:RDF>
  </metadata>
  <sodipodi:namedview
     pagecolor="#c8c8c8"
     bordercolor="#666666"
     borderopacity="1"
     objecttolerance="10"
     gridtolerance="10"
     guidetolerance="10"
     inkscape:pageopacity="0"
     inkscape:pageshadow="2"
     inkscape:window-width="1920"
     inkscape:window-height="1007"
     id="namedview69"
     showgrid="true"
     inkscape:zoom="5.3636364"
     inkscape:cx="12.306274"
     inkscape:cy="14.669013"
     inkscape:window-x="0"
     inkscape:window-y="0"
     inkscape:window-maximized="1"
     inkscape:current-layer="svg67">
    <inkscape:grid
       type="xygrid"
       id="grid878" />
  </sodipodi:namedview>
  <defs
     id="defs3">
    <style
       id="current-color-scheme"
       type="text/css">.ColorScheme-Text { color:#dedede; } .ColorScheme-Highlight { color:#5294e2; } .ColorScheme-ButtonBackground { color:#dedede; }</style>
  </defs>
  <g
     style="fill:#000000"
     transform="translate(22,-1030.4)"
     id="media-record">
    <rect
       style="opacity:0.00100002"
       x="0"
       id="rect5"
       height="22"
       width="22"
       y="1030.4" />
    <path
       inkscape:connector-curvature="0"
       style="color:#5294e2;fill:#ff3232;fill-opacity:1;enable-background:new"
       id="path7"
       d="m 11,1035.4 c -3.311,0 -6,2.6888 -6,6 0,3.311 2.689,6 6,6 3.311,0 6,-2.689 6,-6 0,-3.3112 -2.689,-6 -6,-6 z"
       class="ColorScheme-Highlight" />
  </g>
  <g
     style="fill:#000000"
     transform="translate(44,-1030.4)"
     id="media-playback-stop">
    <rect
       style="opacity:0.00100002"
       x="0"
       id="rect10"
       height="22"
       width="22"
       y="1030.4" />
    <path
       inkscape:connector-curvature="0"
       style="color:#dedede;fill:#323232;fill-opacity:1;enable-background:new"
       id="path12"
       d="m 5,1035.4 v 12 h 12 v -12 z"
       class="ColorScheme-Text" />
  </g>
  <g
     style="fill:#000000"
     transform="translate(66,-1030.4)"
     id="media-skip-forward">
    <rect
       style="opacity:0.00100002"
       x="0"
       id="rect15"
       height="22"
       width="22"
       y="1030.4" />
    <path
       inkscape:connector-curvature="0"
       style="color:#dedede;fill:#323232;fill-opacity:1;enable-background:new"
       id="path17"
       d="m 19,1037.4 v 8 h -2 v -8 z m -2,4 -7,4 v -8 z m -7,0 -7,4 v -8 z"
       class="ColorScheme-Text" />
  </g>
  <g
     style="fill:#000000"
     transform="matrix(-1,0,0,1,110,-1030.4)"
     id="media-skip-backward">
    <rect
       style="opacity:0.00100002"
       x="0"
       id="rect20"
       height="22"
       width="22"
       y="1030.4" />
    <path
       inkscape:connector-curvature="0"
       style="color:#dedede;fill:#323232;fill-opacity:1;enable-background:new"
       id="path22"
       d="m 19,1037.4 v 8 h -2 v -8 z m -2,4 -7,4 v -8 z m -7,0 -7,4 v -8 z"
       class="ColorScheme-Text" />
  </g>
  <g
     style="fill:#000000"
     transform="translate(110,-1030.4)"
     id="media-seek-forward">
    <rect
       style="opacity:0.00100002"
       x="0"
       id="rect25"
       height="22"
       width="22"
       y="1030.4" />
    <path
       inkscape:connector-curvature="0"
       style="color:#dedede;fill:#323232;fill-opacity:1;enable-background:new"
       id="path27"
       d="m 11,1037.4 7,4 -7,4 z m 0,4 -7,4 v -8 z"
       class="ColorScheme-Text" />
  </g>
  <g
     style="fill:#000000"
     transform="matrix(-1,0,0,1,154,-1030.4)"
     id="media-seek-backward">
    <rect
       style="opacity:0.00100002"
       x="0"
       id="rect30"
       height="22"
       width="22"
       y="1030.4" />
    <path
       inkscape:connector-curvature="0"
       style="color:#dedede;fill:#323232;fill-opacity:1;enable-background:new"
       id="path32"
       d="m 11,1037.4 7,4 -7,4 z m 0,4 -7,4 v -8 z"
       class="ColorScheme-Text" />
  </g>
  <g
     style="fill:#000000"
     transform="translate(-44,-1030.4)"
     id="media-eject">
    <rect
       style="opacity:0.00100002"
       x="0"
       id="rect35"
       height="22"
       width="22"
       y="1030.4" />
    <path
       inkscape:connector-curvature="0"
       style="color:#dedede;display:block;fill:#323232;fill-opacity:1"
       id="path37"
       display="block"
       d="m 11,1036.4 -5,5 v 1 h 10 v -1 z m -5,8 v 2 h 10 v -2 z"
       class="ColorScheme-Text" />
  </g>
  <g
     style="fill:#000000"
     transform="translate(-22,-1030.4)"
     id="media-playback-pause">
    <rect
       style="opacity:0.00100002"
       x="0"
       id="rect40"
       height="22"
       width="22"
       y="1030.4" />
    <path
       inkscape:connector-curvature="0"
       style="color:#dedede;fill:#323232;fill-opacity:1;enable-background:new"
       id="path42"
       d="m 5,1035.4 v 12 h 4 v -12 z m 8,0 v 12 h 4 v -12 z"
       class="ColorScheme-Text" />
  </g>
  <g
     style="fill:#000000"
     transform="translate(0,-1030.4)"
     id="media-playback-start">
    <rect
       style="opacity:0.00100002"
       x="0"
       id="rect45"
       height="22"
       width="22"
       y="1030.4" />
    <path
       inkscape:connector-curvature="0"
       style="color:#dedede;fill:#323232;fill-opacity:1;enable-background:new"
       id="path47"
       d="m 6,1035.4 v 12 l 11,-6 -9.8992,-5.3996 z"
       class="ColorScheme-Text" />
  </g>
  <g
     style="color:#dedede;fill:#000000"
     transform="matrix(1.5,0,0,1.5,-4.6412,-1522.6)"
     class="ColorScheme-Text"
     id="media-playback-paused">
    <rect
       style="opacity:0.01000001;fill:#ed1515;fill-opacity:0.00392163"
       id="rect50"
       height="14.667"
       width="14.667"
       y="1034"
       x="3.6666999" />
    <path
       inkscape:connector-curvature="0"
       style="color:#dedede;fill:#323232;fill-opacity:1"
       id="path52"
       d="m 11.667,1039.4 h 1.3334 v 4.0002 H 11.667 Z m -2.6668,0 h 1.3334 v 4.0002 H 9.0002 Z m 2.0001,-3.3334 c -2.9548,0 -5.3335,2.3787 -5.3335,5.3335 0,2.9548 2.3788,5.3335 5.3335,5.3335 2.9548,0 5.3335,-2.3787 5.3335,-5.3335 0,-2.9548 -2.3788,-5.3335 -5.3335,-5.3335 z"
       class="ColorScheme-Text" />
  </g>
  <g
     style="color:#dedede;fill:#000000"
     transform="matrix(1.5,0,0,1.5,19.358,-1522.6)"
     class="ColorScheme-Text"
     id="media-playback-playing">
    <rect
       style="opacity:0.01000001;fill:#ed1515;fill-opacity:0.00392163"
       id="rect55"
       height="14.667"
       width="14.667"
       y="1034"
       x="3.6670001" />
    <path
       inkscape:connector-curvature="0"
       style="color:#323232;fill:#323232;fill-opacity:1"
       id="path57"
       d="m 35.857,31.402 c -4.4324,0 -8,3.5676 -8,8 0,4.4324 3.5676,8 8,8 4.4324,0 8.002,-3.5676 8.002,-8 0,-4.4324 -3.5696,-8 -8.002,-8 z m -2,5 4,3 -4,3 z"
       transform="matrix(0.66668,0,0,0.66668,-12.906,1015.1)" />
  </g>
  <g
     style="color:#dedede;fill:#000000"
     transform="matrix(1.5,0,0,1.5,43.358,-1522.6)"
     class="ColorScheme-Text"
     id="media-playback-stopped">
    <rect
       style="opacity:0.01000001;fill:#ed1515;fill-opacity:0.00392163"
       id="rect60"
       height="14.667"
       width="14.667"
       y="1034"
       x="3.6673" />
    <path
       inkscape:connector-curvature="0"
       style="color:#dedede;fill:#323232;fill-opacity:1"
       id="path62"
       d="m 8.9999,1039.4 h 4.0002 v 4.0002 H 8.9999 Z M 11,1036.0666 c -2.9548,0 -5.3335,2.3787 -5.3335,5.3335 0,2.9548 2.3788,5.3335 5.3335,5.3335 2.9548,0 5.3335,-2.3787 5.3335,-5.3335 0,-2.9548 -2.3788,-5.3335 -5.3335,-5.3335 z"
       class="ColorScheme-Text" />
  </g>
</svg>
