<?xml version="1.0" encoding="UTF-8" standalone="no"?>
<svg
   xmlns:dc="http://purl.org/dc/elements/1.1/"
   xmlns:cc="http://creativecommons.org/ns#"
   xmlns:rdf="http://www.w3.org/1999/02/22-rdf-syntax-ns#"
   xmlns:svg="http://www.w3.org/2000/svg"
   xmlns="http://www.w3.org/2000/svg"
   xmlns:sodipodi="http://sodipodi.sourceforge.net/DTD/sodipodi-0.dtd"
   xmlns:inkscape="http://www.inkscape.org/namespaces/inkscape"
   viewBox="0 0 22 22"
   id="svg"
   version="1.1"
   width="100%"
   height="100%"
   sodipodi:docname="quassel.svg"
   inkscape:version="0.92.4 5da689c313, 2019-01-14">
  <metadata
     id="metadata16">
    <rdf:RDF>
      <cc:Work
         rdf:about="">
        <dc:format>image/svg+xml</dc:format>
        <dc:type
           rdf:resource="http://purl.org/dc/dcmitype/StillImage" />
        <dc:title />
      </cc:Work>
    </rdf:RDF>
  </metadata>
  <sodipodi:namedview
     pagecolor="#c8c8c8"
     bordercolor="#666666"
     borderopacity="1"
     objecttolerance="10"
     gridtolerance="10"
     guidetolerance="10"
     inkscape:pageopacity="0"
     inkscape:pageshadow="2"
     inkscape:window-width="1920"
     inkscape:window-height="1007"
     id="namedview14"
     showgrid="true"
     inkscape:zoom="10.727273"
     inkscape:cx="1.9159783"
     inkscape:cy="4.5192158"
     inkscape:window-x="0"
     inkscape:window-y="0"
     inkscape:window-maximized="1"
     inkscape:current-layer="svg">
    <inkscape:grid
       type="xygrid"
       id="grid821" />
  </sodipodi:namedview>
  <defs
     id="defs81">
    <style
       id="current-color-scheme"
       type="text/css">.ColorScheme-Text{color:#D3DAE3}</style>
  </defs>
  <g
     id="quassel"
     transform="translate(-1,-1)">
    <path
       style="fill:#ffffff;fill-opacity:0.01000001;stroke:none"
       inkscape:connector-curvature="0"
       id="rect3881"
       d="M 1,1 H 23 V 23 H 1 Z" />
    <path
       inkscape:connector-curvature="0"
       d="m 11,3 a 8,8 0 1 0 0,16 8,8 0 0 0 0,-16 z m 0,1 a 7,7 0 1 1 0,14 7,7 0 0 1 0,-14 z m 2,7 a 3,3 0 1 0 0,6 3,3 0 0 0 0,-6 z"
       transform="translate(1,1)"
       id="path2999"
       class="ColorScheme-Text"
       style="color:#d3dae3;fill:#323232;fill-opacity:1;stroke:none" />
  </g>
  <g
     transform="translate(-25,-1)"
     id="quassel_inactive">
    <path
       style="fill:#ffffff;fill-opacity:0.01000001;stroke:none"
       inkscape:connector-curvature="0"
       id="rect3777"
       d="M 1,1 H 23 V 23 H 1 Z" />
    <path
       inkscape:connector-curvature="0"
       class="ColorScheme-Text"
       id="path3779"
       transform="translate(1,1)"
       d="m 11,3 a 8,8 0 1 0 0,16 8,8 0 0 0 0,-16 z m 0,1 a 7,7 0 1 1 0,14 7,7 0 0 1 0,-14 z m 2,7 a 3,3 0 1 0 0,6 3,3 0 0 0 0,-6 z"
       style="color:#d3dae3;opacity:0.2;fill:#323232;fill-opacity:1;stroke:none" />
  </g>
  <g
     style="stroke:none"
     transform="translate(23,-1)"
     id="quassel_message">
    <path
       style="fill:#ffffff;fill-opacity:0.01000001"
       inkscape:connector-curvature="0"
       id="rect3785"
       d="M 1,1 H 23 V 23 H 1 Z" />
    <path
       inkscape:connector-curvature="0"
       id="path3787"
       transform="translate(1,1)"
       d="m 11,3 a 8,8 0 1 0 0,16 8,8 0 0 0 0,-16 z m 0,1 a 7,7 0 1 1 0,14 7,7 0 0 1 0,-14 z m 2,7 a 3,3 0 1 0 0,6 3,3 0 0 0 0,-6 z"
       style="color:#3daee6;fill:#3278ff;fill-opacity:1" />
  </g>
</svg>
