<?xml version="1.0" encoding="UTF-8" standalone="no"?>
<svg
   width="32"
   height="32"
   version="1.1"
   viewBox="0 0 32 32"
   id="svg33"
   sodipodi:docname="compass.svg"
   inkscape:version="1.1.1 (3bf5ae0d25, 2021-09-20, custom)"
   xmlns:inkscape="http://www.inkscape.org/namespaces/inkscape"
   xmlns:sodipodi="http://sodipodi.sourceforge.net/DTD/sodipodi-0.dtd"
   xmlns:xlink="http://www.w3.org/1999/xlink"
   xmlns="http://www.w3.org/2000/svg"
   xmlns:svg="http://www.w3.org/2000/svg">
  <sodipodi:namedview
     id="namedview35"
     pagecolor="#c8c8c8"
     bordercolor="#999999"
     borderopacity="1"
     inkscape:pageshadow="0"
     inkscape:pageopacity="0"
     inkscape:pagecheckerboard="0"
     showgrid="true"
     inkscape:zoom="8"
     inkscape:cx="-26.1875"
     inkscape:cy="8.75"
     inkscape:window-width="1920"
     inkscape:window-height="1005"
     inkscape:window-x="0"
     inkscape:window-y="0"
     inkscape:window-maximized="1"
     inkscape:current-layer="svg33"
     inkscape:snap-bbox="true"
     inkscape:snap-bbox-edge-midpoints="true"
     inkscape:bbox-nodes="true"
     inkscape:snap-nodes="true">
    <inkscape:grid
       type="xygrid"
       id="grid852" />
  </sodipodi:namedview>
  <defs
     id="defs16">
    <linearGradient
       id="linearGradient860">
      <stop
         stop-color="#4deb47"
         offset="0"
         id="stop2" />
      <stop
         stop-color="#ffa000"
         offset="1"
         id="stop4" />
    </linearGradient>
    <linearGradient
       id="linearGradient11">
      <stop
         stop-color="#5df240"
         offset="0"
         id="stop7" />
      <stop
         stop-color="#fff400"
         offset="1"
         id="stop9" />
    </linearGradient>
    <style
       id="current-color-scheme"
       type="text/css">.ColorScheme-Text { color:#565656; } .ColorScheme-Highlight { color:#5294e2; }</style>
    <linearGradient
       id="linearGradient848"
       x2="22"
       y1="11"
       y2="11"
       gradientTransform="matrix(1.27272,0,0,1.27272,2,2.0546)"
       gradientUnits="userSpaceOnUse"
       xlink:href="#linearGradient860" />
    <linearGradient
       id="linearGradient877"
       x1="3"
       x2="19"
       y1="11"
       y2="11"
       gradientUnits="userSpaceOnUse"
       xlink:href="#linearGradient860"
       gradientTransform="translate(-24,10)" />
  </defs>
  <g
     id="compass">
    <rect
       style="fill:#fbfbfb;fill-opacity:1;fill-rule:evenodd;stroke-width:1.94194;stroke-linecap:round;stroke-linejoin:round;paint-order:stroke fill markers;opacity:0.001"
       id="rect8020"
       width="32"
       height="32"
       x="0"
       y="0"
       ry="0.45714286" />
    <g
       id="g6318"
       transform="translate(-30,4)">
      <path
         style="color:#000000;fill:#fbfbfb;fill-opacity:1;-inkscape-stroke:none"
         d="M 37.035156,11 36.960938,11.410156 33,26 H 59 L 54.63672,11 Z m 0.835938,1 h 15.929688 l 4,13 H 34.199218 Z"
         id="path1988"
         sodipodi:nodetypes="ccccccccccc" />
      <path
         id="path4216"
         style="fill:#fbfbfb;fill-opacity:1;fill-rule:evenodd;stroke-width:2.36;stroke-linecap:round;stroke-linejoin:round;paint-order:stroke fill markers"
         d="m 45.835938,-2 a 5,5 0 0 0 -5,5 5,5 0 0 0 5,5 5,5 0 0 0 5,-5 5,5 0 0 0 -5,-5 z m 0,1 a 4,4 0 0 1 4,4 4,4 0 0 1 -4,4 4,4 0 0 1 -4,-4 4,4 0 0 1 4,-4 z" />
      <rect
         style="fill:#fbfbfb;fill-opacity:1;fill-rule:evenodd;stroke-width:1.96644;stroke-linecap:round;stroke-linejoin:round;paint-order:stroke fill markers"
         id="rect4985"
         width="1"
         height="12"
         x="45.335938"
         y="7"
         ry="0.5" />
    </g>
  </g>
  <g
     id="22-22-compass">
    <rect
       style="opacity:0.00100002;fill:#000000;fill-opacity:1;fill-rule:evenodd;stroke-width:0.175709;stroke-linecap:round;stroke-linejoin:round;paint-order:stroke fill markers"
       id="rect35320"
       width="22"
       height="22"
       x="-24"
       y="10"
       ry="0" />
    <g
       id="g7894"
       transform="translate(3,26)">
      <path
         style="color:#000000;fill:#fbfbfb;fill-opacity:1;-inkscape-stroke:none"
         d="m -22.765626,-5 -0.07422,0.410156 L -25,4 h 18 l -2.562498,-9 z m 0.835938,1 h 11.531252 l 2.199218,7 h -15.601564 z"
         id="path6320"
         sodipodi:nodetypes="ccccccccccc" />
      <rect
         style="fill:#fbfbfb;fill-opacity:1;fill-rule:evenodd;stroke-width:1.70299;stroke-linecap:round;stroke-linejoin:round;paint-order:stroke fill markers"
         id="rect6324"
         width="1"
         height="9"
         x="-16.5"
         y="-9"
         ry="0.5" />
      <path
         id="path6695"
         style="fill:#fbfbfb;fill-opacity:1;fill-rule:evenodd;stroke-width:1.2744;stroke-linecap:round;stroke-linejoin:round;paint-order:stroke fill markers"
         d="m -16,-14 a 3,3 0 0 0 -3,3 3,3 0 0 0 3,3 3,3 0 0 0 3,-3 3,3 0 0 0 -3,-3 z m 0,1 a 2,2 0 0 1 2,2 2,2 0 0 1 -2,2 2,2 0 0 1 -2,-2 2,2 0 0 1 2,-2 z" />
    </g>
  </g>
</svg>
