<?xml version="1.0" encoding="UTF-8" standalone="no"?>
<svg
   width="32"
   height="32"
   version="1.1"
   viewBox="0 0 32 32"
   id="svg33"
   sodipodi:docname="compass.svg"
   inkscape:version="1.1.1 (3bf5ae0d25, 2021-09-20, custom)"
   xmlns:inkscape="http://www.inkscape.org/namespaces/inkscape"
   xmlns:sodipodi="http://sodipodi.sourceforge.net/DTD/sodipodi-0.dtd"
   xmlns:xlink="http://www.w3.org/1999/xlink"
   xmlns="http://www.w3.org/2000/svg"
   xmlns:svg="http://www.w3.org/2000/svg">
  <sodipodi:namedview
     id="namedview35"
     pagecolor="#c8c8c8"
     bordercolor="#999999"
     borderopacity="1"
     inkscape:pageshadow="0"
     inkscape:pageopacity="0"
     inkscape:pagecheckerboard="0"
     showgrid="true"
     inkscape:zoom="9.2954545"
     inkscape:cx="-11.672372"
     inkscape:cy="16.244499"
     inkscape:window-width="1920"
     inkscape:window-height="965"
     inkscape:window-x="0"
     inkscape:window-y="40"
     inkscape:window-maximized="1"
     inkscape:current-layer="svg33"
     inkscape:snap-bbox="true"
     inkscape:snap-bbox-edge-midpoints="true"
     inkscape:bbox-nodes="true"
     inkscape:snap-nodes="true">
    <inkscape:grid
       type="xygrid"
       id="grid852" />
  </sodipodi:namedview>
  <defs
     id="defs16">
    <linearGradient
       id="linearGradient860">
      <stop
         stop-color="#4deb47"
         offset="0"
         id="stop2" />
      <stop
         stop-color="#ffa000"
         offset="1"
         id="stop4" />
    </linearGradient>
    <linearGradient
       id="linearGradient11">
      <stop
         stop-color="#5df240"
         offset="0"
         id="stop7" />
      <stop
         stop-color="#fff400"
         offset="1"
         id="stop9" />
    </linearGradient>
    <style
       id="current-color-scheme"
       type="text/css">.ColorScheme-Text { color:#565656; } .ColorScheme-Highlight { color:#5294e2; }</style>
    <linearGradient
       id="linearGradient848"
       x2="22"
       y1="11"
       y2="11"
       gradientTransform="matrix(1.27272,0,0,1.27272,2,2.0546)"
       gradientUnits="userSpaceOnUse"
       xlink:href="#linearGradient860" />
    <linearGradient
       id="linearGradient877"
       x1="3"
       x2="19"
       y1="11"
       y2="11"
       gradientUnits="userSpaceOnUse"
       xlink:href="#linearGradient860"
       gradientTransform="translate(-24,10)" />
  </defs>
  <g
     id="compass"
     transform="translate(-34)">
    <path
       style="fill:none;stroke:#fbfbfb;stroke-width:1px;stroke-linecap:butt;stroke-linejoin:miter;stroke-opacity:1"
       d="m 55.976327,22 c -12.976327,0 -12,-12 -12,-12 0,0 12,-1 12,12 z"
       id="path870"
       sodipodi:nodetypes="ccc" />
    <rect
       style="fill:#fbfbfb;fill-opacity:1;fill-rule:evenodd;stroke-width:0.326599;stroke-linecap:round;stroke-linejoin:round;paint-order:stroke fill markers"
       id="rect1362"
       width="1"
       height="4"
       x="50"
       y="2" />
    <rect
       style="fill:#fbfbfb;fill-opacity:1;fill-rule:evenodd;stroke-width:0.326599;stroke-linecap:round;stroke-linejoin:round;paint-order:stroke fill markers"
       id="rect1444"
       width="1"
       height="4"
       x="50"
       y="26" />
    <rect
       style="fill:#fbfbfb;fill-opacity:1;fill-rule:evenodd;stroke-width:0.346411;stroke-linecap:round;stroke-linejoin:round;paint-order:stroke fill markers"
       id="rect8396"
       width="1"
       height="4.5"
       x="16"
       y="-63.5"
       transform="rotate(90)" />
    <rect
       style="fill:#fbfbfb;fill-opacity:1;fill-rule:evenodd;stroke-width:0.326599;stroke-linecap:round;stroke-linejoin:round;paint-order:stroke fill markers"
       id="rect8398"
       width="1"
       height="4"
       x="16"
       y="-40"
       transform="rotate(90)" />
    <path
       id="path8426"
       style="fill:#fbfbfb;fill-opacity:1;fill-rule:evenodd;stroke:none;stroke-width:2.50025;stroke-linecap:round;stroke-linejoin:round;stroke-opacity:1;paint-order:stroke fill markers"
       d="M 50,2 A 14,14 0 0 0 36,16 14,14 0 0 0 50,30 14,14 0 0 0 64,16 14,14 0 0 0 50,2 Z m 0,1 A 13,13 0 0 1 63,16 13,13 0 0 1 50,29 13,13 0 0 1 37,16 13,13 0 0 1 50,3 Z" />
  </g>
  <g
     id="22-22-compass">
    <rect
       style="opacity:0.00100002;fill:#000000;fill-opacity:1;fill-rule:evenodd;stroke-width:0.175709;stroke-linecap:round;stroke-linejoin:round;paint-order:stroke fill markers"
       id="rect35320"
       width="22"
       height="22"
       x="-24"
       y="10"
       ry="0" />
    <path
       id="path8975"
       style="fill:#fbfbfb;fill-opacity:1;fill-rule:evenodd;stroke:none;stroke-width:0.4;stroke-linecap:round;stroke-linejoin:round;stroke-opacity:1;paint-order:stroke fill markers"
       d="m -13,12 a 9,9 0 0 0 -9,9 9,9 0 0 0 9,9 9,9 0 0 0 9,-9 9,9 0 0 0 -9,-9 z m 0,1 a 8,8 0 0 1 8,8 8,8 0 0 1 -8,8 8,8 0 0 1 -8,-8 8,8 0 0 1 8,-8 z" />
    <path
       style="fill:none;stroke:#fbfbfb;stroke-width:1px;stroke-linecap:butt;stroke-linejoin:miter;stroke-opacity:1"
       d="m -9,25 c -9,0 -8,-8 -8,-8 0,0 8,-1 8,8 z"
       id="path875"
       sodipodi:nodetypes="ccc" />
    <rect
       style="fill:#fbfbfb;fill-rule:evenodd;stroke:none;stroke-width:0.4;stroke-linecap:round;stroke-linejoin:round;paint-order:stroke fill markers"
       id="rect1034"
       width="1"
       height="3"
       x="-13"
       y="12" />
    <rect
       style="fill:#fbfbfb;fill-rule:evenodd;stroke:none;stroke-width:0.4;stroke-linecap:round;stroke-linejoin:round;paint-order:stroke fill markers"
       id="rect1138"
       width="1"
       height="3"
       x="-13"
       y="27" />
    <rect
       style="fill:#fbfbfb;fill-rule:evenodd;stroke:none;stroke-width:0.4;stroke-linecap:round;stroke-linejoin:round;paint-order:stroke fill markers"
       id="rect1140"
       width="1"
       height="3"
       x="21"
       y="4"
       transform="rotate(90)" />
    <rect
       style="fill:#fbfbfb;fill-rule:evenodd;stroke:none;stroke-width:0.4;stroke-linecap:round;stroke-linejoin:round;paint-order:stroke fill markers"
       id="rect1142"
       width="1"
       height="3"
       x="21"
       y="19"
       transform="rotate(90)" />
  </g>
</svg>
