<?xml version="1.0" encoding="UTF-8" standalone="no"?>
<svg
   xmlns:dc="http://purl.org/dc/elements/1.1/"
   xmlns:cc="http://creativecommons.org/ns#"
   xmlns:rdf="http://www.w3.org/1999/02/22-rdf-syntax-ns#"
   xmlns:svg="http://www.w3.org/2000/svg"
   xmlns="http://www.w3.org/2000/svg"
   xmlns:sodipodi="http://sodipodi.sourceforge.net/DTD/sodipodi-0.dtd"
   xmlns:inkscape="http://www.inkscape.org/namespaces/inkscape"
   id="svg19"
   viewBox="0 0 32 32"
   version="1.1"
   sodipodi:docname="kate.svg"
   inkscape:version="1.0.1 (3bc2e813f5, 2020-09-07)">
  <sodipodi:namedview
     pagecolor="#ffffff"
     bordercolor="#666666"
     borderopacity="1"
     objecttolerance="10"
     gridtolerance="10"
     guidetolerance="10"
     inkscape:pageopacity="0"
     inkscape:pageshadow="2"
     inkscape:window-width="1920"
     inkscape:window-height="935"
     id="namedview13"
     showgrid="true"
     inkscape:zoom="8.5626212"
     inkscape:cx="-6.1280473"
     inkscape:cy="21.905234"
     inkscape:window-x="0"
     inkscape:window-y="38"
     inkscape:window-maximized="1"
     inkscape:current-layer="svg19"
     inkscape:document-rotation="0">
    <inkscape:grid
       type="xygrid"
       id="grid838" />
  </sodipodi:namedview>
  <metadata
     id="metadata21">
    <rdf:RDF>
      <cc:Work
         rdf:about="">
        <dc:format>image/svg+xml</dc:format>
        <dc:type
           rdf:resource="http://purl.org/dc/dcmitype/StillImage" />
        <dc:title />
      </cc:Work>
    </rdf:RDF>
  </metadata>
  <defs
     id="defs5">
    <style
       type="text/css"
       id="current-color-scheme"> .ColorScheme-Text { color:#363636; } </style>
  </defs>
  <g
     id="22-22-kate">
    <path
       id="rect874"
       style="fill:#fbfbfb;fill-opacity:1;stroke-width:0.5;stroke-linecap:round;stroke-linejoin:round;paint-order:stroke fill markers"
       d="M 59.212891 8 C 58.065824 8.038667 56.771568 8.4003014 55.513672 9.328125 C 54.207742 10.291395 53.633446 10.55477 53 10.875 C 53.56439 10.91885 56.9416 10.429454 57.539062 12.449219 C 57.566882 12.440519 57.685308 12.404478 57.724609 12.392578 C 55.295542 13.080954 53.939904 14.665065 54.966797 16.863281 C 55.997358 19.069501 57.777974 19.121679 59.976562 20.619141 C 61.692971 21.788191 62.113199 22.383545 63.220703 24.003906 C 62.99039 21.76496 61.927064 18.878829 61.429688 17.607422 C 63.349938 18.776917 64.322724 19.038671 67 19.324219 C 63.525785 16.806039 62.86754 16.313899 60.878906 14.587891 C 59.544766 14.656371 59.691016 14.643501 58.904297 14.689453 C 59.94001 16.177667 60.348699 18.36447 58.455078 18.765625 C 56.6826 19.141098 54.973049 17.582712 55.458984 15.914062 C 55.986632 14.102149 58.26488 14.451081 60.654297 14.136719 C 63.043627 13.822412 65.225972 11.436036 66.539062 9.6699219 C 64.664141 10.321307 62.259489 11.064661 59.609375 11.837891 C 59.072627 10.770753 58.384454 8.7541435 62.025391 8.6132812 C 61.358478 8.2448162 60.359957 7.9613251 59.212891 8 z " />
    <path
       id="path7"
       fill="none"
       d="M 49,5 H 71 V 27 H 49 Z"
       style="color:#363636" />
  </g>
  <g
     id="kate">
    <rect
       id="rect12"
       fill="none"
       height="32"
       width="32"
       y="-1e-06"
       x="-2.8954e-08"
       style="color:#363636" />
    <path
       style="color:#363636;font-style:normal;font-variant:normal;font-weight:normal;font-stretch:normal;font-size:medium;line-height:normal;font-family:sans-serif;font-variant-ligatures:normal;font-variant-position:normal;font-variant-caps:normal;font-variant-numeric:normal;font-variant-alternates:normal;font-variant-east-asian:normal;font-feature-settings:normal;font-variation-settings:normal;text-indent:0;text-align:start;text-decoration:none;text-decoration-line:none;text-decoration-style:solid;text-decoration-color:#000000;letter-spacing:normal;word-spacing:normal;text-transform:none;writing-mode:lr-tb;direction:ltr;text-orientation:mixed;dominant-baseline:auto;baseline-shift:baseline;text-anchor:start;white-space:normal;shape-padding:0;shape-margin:0;inline-size:0;clip-rule:nonzero;display:inline;overflow:visible;visibility:visible;isolation:auto;mix-blend-mode:normal;color-interpolation:sRGB;color-interpolation-filters:linearRGB;solid-color:#000000;solid-opacity:1;vector-effect:none;fill:#fbfbfb;fill-opacity:1;fill-rule:nonzero;stroke:none;stroke-width:1.29716;stroke-linecap:butt;stroke-linejoin:miter;stroke-miterlimit:4;stroke-dasharray:none;stroke-dashoffset:0;stroke-opacity:1;color-rendering:auto;image-rendering:auto;shape-rendering:auto;text-rendering:auto;enable-background:accumulate;stop-color:#000000"
       d="M 15.260469,4.9999448 C 13.531342,5.055515 11.579985,5.5765567 9.6837903,6.9100134 7.7151864,8.2944138 6.8510177,8.6725933 5.8961402,9.1328247 6.7469198,9.195846 11.837366,8.4905584 12.738003,11.393339 c 0.04195,-0.01252 0.220176,-0.06202 0.27942,-0.07912 -3.6616587,0.989325 -5.7042514,3.264179 -4.1562782,6.423428 1.5535032,3.170753 4.2377712,3.246542 7.5519972,5.398676 2.587373,1.680144 3.220359,2.534915 4.889848,4.863678 -0.347182,-3.217785 -1.951226,-7.365235 -2.700988,-9.192485 2.894648,1.680783 4.362182,2.057302 8.397998,2.467689 -5.237148,-3.619098 -6.230863,-4.327147 -9.228596,-6.807743 -2.011127,0.09842 -1.790609,0.08089 -2.976537,0.146926 1.56127,2.138842 2.179248,5.281861 -0.675261,5.858395 C 11.447713,21.012408 8.8698207,18.771934 9.6023367,16.373772 10.39773,13.769713 13.831945,14.271226 17.433834,13.81943 21.03559,13.367711 24.325987,9.9379454 26.305387,7.3997081 23.479065,8.3358614 19.853216,9.404094 15.858344,10.515372 15.049233,8.9816934 14.013889,6.0839359 19.502362,5.8814903 18.497035,5.3519367 16.989769,4.9443361 15.260641,4.9999192 Z"
       id="path890" />
  </g>
</svg>
