<?xml version="1.0" encoding="UTF-8" standalone="no"?>
<svg
   xmlns:dc="http://purl.org/dc/elements/1.1/"
   xmlns:cc="http://creativecommons.org/ns#"
   xmlns:rdf="http://www.w3.org/1999/02/22-rdf-syntax-ns#"
   xmlns:svg="http://www.w3.org/2000/svg"
   xmlns="http://www.w3.org/2000/svg"
   xmlns:sodipodi="http://sodipodi.sourceforge.net/DTD/sodipodi-0.dtd"
   xmlns:inkscape="http://www.inkscape.org/namespaces/inkscape"
   id="svg19"
   viewBox="0 0 32 32"
   version="1.1"
   sodipodi:docname="kate.svg"
   inkscape:version="1.0.2 (e86c870879, 2021-01-15)">
  <sodipodi:namedview
     pagecolor="#c8c8c8"
     bordercolor="#666666"
     borderopacity="1"
     objecttolerance="10"
     gridtolerance="10"
     guidetolerance="10"
     inkscape:pageopacity="0"
     inkscape:pageshadow="2"
     inkscape:window-width="1920"
     inkscape:window-height="992"
     id="namedview13"
     showgrid="true"
     inkscape:zoom="32"
     inkscape:cx="51.339002"
     inkscape:cy="14.157015"
     inkscape:window-x="0"
     inkscape:window-y="0"
     inkscape:window-maximized="1"
     inkscape:current-layer="svg19"
     inkscape:document-rotation="0"
     inkscape:snap-smooth-nodes="true"
     inkscape:snap-bbox="true"
     inkscape:bbox-nodes="true"
     inkscape:snap-bbox-edge-midpoints="true"
     inkscape:snap-nodes="false">
    <inkscape:grid
       type="xygrid"
       id="grid838" />
  </sodipodi:namedview>
  <metadata
     id="metadata21">
    <rdf:RDF>
      <cc:Work
         rdf:about="">
        <dc:format>image/svg+xml</dc:format>
        <dc:type
           rdf:resource="http://purl.org/dc/dcmitype/StillImage" />
        <dc:title />
      </cc:Work>
    </rdf:RDF>
  </metadata>
  <defs
     id="defs5">
    <style
       type="text/css"
       id="current-color-scheme"> .ColorScheme-Text { color:#363636; } </style>
  </defs>
  <g
     id="kate">
    <rect
       id="rect12"
       fill="none"
       height="32"
       width="32"
       y="0"
       x="-1.7763568e-15"
       style="color:#363636" />
    <path
       style="color:#363636;font-style:normal;font-variant:normal;font-weight:normal;font-stretch:normal;font-size:medium;line-height:normal;font-family:sans-serif;font-variant-ligatures:normal;font-variant-position:normal;font-variant-caps:normal;font-variant-numeric:normal;font-variant-alternates:normal;font-variant-east-asian:normal;font-feature-settings:normal;font-variation-settings:normal;text-indent:0;text-align:start;text-decoration:none;text-decoration-line:none;text-decoration-style:solid;text-decoration-color:#000000;letter-spacing:normal;word-spacing:normal;text-transform:none;writing-mode:lr-tb;direction:ltr;text-orientation:mixed;dominant-baseline:auto;baseline-shift:baseline;text-anchor:start;white-space:normal;shape-padding:0;shape-margin:0;inline-size:0;clip-rule:nonzero;display:inline;overflow:visible;visibility:visible;isolation:auto;mix-blend-mode:normal;color-interpolation:sRGB;color-interpolation-filters:linearRGB;solid-color:#000000;solid-opacity:1;vector-effect:none;fill:none;fill-opacity:1;fill-rule:nonzero;stroke:#fbfbfb;stroke-width:1.00398;stroke-linecap:round;stroke-linejoin:miter;stroke-miterlimit:4;stroke-dasharray:none;stroke-dashoffset:0;stroke-opacity:1;color-rendering:auto;image-rendering:auto;shape-rendering:auto;text-rendering:auto;enable-background:accumulate;stop-color:#000000"
       d="M 14.740487,2.0285883 C 12.740155,2.0928741 10.482737,2.6956389 8.2891311,4.2382425 6.01176,5.8397799 5.0120502,6.2772751 3.9074041,6.8096917 4.8916256,6.8825977 10.780485,6.0666888 11.822384,9.4247581 8.7090737,11.30563 5.7375883,13.226977 7.3374565,16.764145 c 1.7971641,3.668071 4.9024485,3.755748 8.7364935,6.245433 2.993193,1.943668 3.725461,2.932506 5.656801,5.626525 -0.401637,-3.72248 -2.257267,-8.520439 -3.124627,-10.634285 3.348661,1.944406 6.026917,2.750009 9.715188,2.854735 -6.058573,-4.186738 -7.208146,-5.005841 -10.67606,-7.875507 -2.326564,0.113856 -2.071458,0.09357 -3.443394,0.16997 1.806148,2.474309 2.521053,6.110296 -0.781174,6.777259 C 10.329717,20.552537 7.3474931,17.960656 8.1949015,15.186352 9.115049,12.173858 13.087906,12.75403 17.254735,12.231373 21.421409,11.708804 25.227891,7.741095 27.517751,4.8047464 24.248134,5.8877283 20.053585,7.1235085 15.432138,8.4090854 14.49612,6.6348562 13.298386,3.2825984 19.647701,3.0484 18.484694,2.4357885 16.741021,1.9642574 14.740687,2.0285585 Z"
       id="path839"
       sodipodi:nodetypes="cccccsccccccccccccc" />
  </g>
  <g
     id="22-22-kate">
    <path
       id="path7"
       fill="none"
       d="m 48.004831,5.001218 h 22 v 22 h -22 z"
       style="color:#363636" />
    <path
       id="path857"
       style="fill:none;fill-opacity:1;stroke:#fbfbfb;stroke-width:1.01927;stroke-linecap:round;stroke-linejoin:miter;stroke-miterlimit:4;stroke-dasharray:none;stroke-opacity:1;paint-order:stroke fill markers"
       d="m 58.450375,7.5271189 c -1.205574,0.038222 -2.565846,0.3957004 -3.887901,1.3128591 -1.37254,0.9521985 -1.976129,1.212546 -2.641885,1.529095 0.593178,0.04334 4.142646,-0.4404252 4.770581,1.556125 -1.714404,1.040836 -3.544867,2.528085 -2.703465,4.363327 1.083126,2.18086 2.954562,2.232439 5.265292,3.712687 1.803957,1.155614 2.245618,1.744125 3.409612,3.34586 -0.04194,-1.980874 -1.359622,-5.066168 -1.882368,-6.322961 2.018195,1.156052 3.242215,0.657835 5.85443,1.697062 -4.417976,-6.848705 -13.873707,-1.434354 -0.484449,-9.5433257 -2.601963,0.058044 -4.497855,1.3787067 -7.28314,2.1430487 -0.564126,-1.054872 -1.287399,-3.048302 2.539247,-3.1875451 -0.70093,-0.3642297 -1.750382,-0.6444624 -2.955954,-0.606232 z"
       sodipodi:nodetypes="sscccsccccccs" />
  </g>
</svg>
