<?xml version="1.0" encoding="UTF-8" standalone="no"?>
<svg
   inkscape:version="1.1.1 (3bf5ae0d25, 2021-09-20, custom)"
   sodipodi:docname="media.svg"
   id="svg67"
   viewBox="0 0 22 22"
   version="1.1"
   height="22"
   width="22"
   xmlns:inkscape="http://www.inkscape.org/namespaces/inkscape"
   xmlns:sodipodi="http://sodipodi.sourceforge.net/DTD/sodipodi-0.dtd"
   xmlns="http://www.w3.org/2000/svg"
   xmlns:svg="http://www.w3.org/2000/svg"
   xmlns:rdf="http://www.w3.org/1999/02/22-rdf-syntax-ns#"
   xmlns:cc="http://creativecommons.org/ns#"
   xmlns:dc="http://purl.org/dc/elements/1.1/">
  <metadata
     id="metadata71">
    <rdf:RDF>
      <cc:Work
         rdf:about="">
        <dc:format>image/svg+xml</dc:format>
        <dc:type
           rdf:resource="http://purl.org/dc/dcmitype/StillImage" />
        <dc:title />
      </cc:Work>
    </rdf:RDF>
  </metadata>
  <sodipodi:namedview
     inkscape:bbox-nodes="true"
     inkscape:snap-bbox-edge-midpoints="true"
     inkscape:snap-bbox="true"
     inkscape:document-rotation="0"
     inkscape:current-layer="svg67"
     inkscape:window-maximized="1"
     inkscape:window-y="40"
     inkscape:window-x="0"
     inkscape:cy="42.911792"
     inkscape:cx="12.425304"
     inkscape:zoom="15.170655"
     showgrid="true"
     id="namedview69"
     inkscape:window-height="965"
     inkscape:window-width="1920"
     inkscape:pageshadow="2"
     inkscape:pageopacity="0"
     guidetolerance="10"
     gridtolerance="10"
     objecttolerance="10"
     borderopacity="1"
     bordercolor="#666666"
     pagecolor="#c8c8c8"
     inkscape:pagecheckerboard="0">
    <inkscape:grid
       id="grid878"
       type="xygrid" />
  </sodipodi:namedview>
  <defs
     id="defs3">
    <style
       type="text/css"
       id="current-color-scheme">.ColorScheme-Text { color:#dedede; } .ColorScheme-Highlight { color:#5294e2; } .ColorScheme-ButtonBackground { color:#dedede; }</style>
  </defs>
  <g
     id="media-record"
     transform="translate(22,-1030.4)"
     style="fill:#000000">
    <rect
       y="1030.4"
       width="22"
       height="22"
       opacity="0.00100002"
       id="rect5"
       x="0" />
    <path
       class="ColorScheme-Highlight"
       d="m 11,1035.4 c -3.311,0 -6,2.6888 -6,6 0,3.311 2.689,6 6,6 3.311,0 6,-2.689 6,-6 0,-3.3112 -2.689,-6 -6,-6 z"
       enable-background="new"
       fill="#f96060"
       id="path7"
       style="fill:#ff3232;fill-opacity:1" />
  </g>
  <g
     id="media-playback-stop"
     transform="translate(44,-1030.4)"
     style="fill:#000000">
    <rect
       y="1030.4"
       width="22"
       height="22"
       opacity="0.00100002"
       id="rect10"
       x="0" />
    <path
       id="path12"
       style="fill:#fefefe;fill-opacity:1"
       class="ColorScheme-Text"
       d="M 49 5 L 49 17 L 61 17 L 61 5 L 49 5 z "
       transform="translate(-44,1030.4)" />
  </g>
  <g
     id="media-skip-forward"
     transform="translate(66,-1030.4)"
     style="fill:#000000">
    <rect
       y="1030.4"
       width="22"
       height="22"
       opacity="0.00100002"
       id="rect15"
       x="0" />
    <path
       id="path17"
       style="fill:#fefefe;fill-opacity:1"
       class="ColorScheme-Text"
       d="M 69 7 L 69 15 L 76 11 L 69 7 z M 76 11 L 76 15 L 83 11 L 76 7 L 76 11 z M 83 11 L 83 15 L 85 15 L 85 7 L 83 7 L 83 11 z "
       transform="translate(-66,1030.4)" />
  </g>
  <g
     id="media-skip-backward"
     transform="matrix(-1,0,0,1,110,-1030.4)"
     style="fill:#000000">
    <rect
       y="1030.4"
       width="22"
       height="22"
       opacity="0.00100002"
       id="rect20"
       x="0" />
    <path
       id="path22"
       style="fill:#fefefe;fill-opacity:1"
       class="ColorScheme-Text"
       d="M 91 7 L 91 15 L 93 15 L 93 11 L 93 7 L 91 7 z M 93 11 L 100 15 L 100 11 L 100 7 L 93 11 z M 100 11 L 107 15 L 107 7 L 100 11 z "
       transform="matrix(-1,0,0,1,110,1030.4)" />
  </g>
  <g
     id="media-seek-forward"
     transform="translate(110,-1030.4)"
     style="fill:#000000">
    <rect
       y="1030.4"
       width="22"
       height="22"
       opacity="0.00100002"
       id="rect25"
       x="0" />
    <path
       id="path27"
       style="fill:#fefefe;fill-opacity:1"
       class="ColorScheme-Text"
       d="M 114 7 L 114 15 L 121 11 L 114 7 z M 121 11 L 121 15 L 128 11 L 121 7 L 121 11 z "
       transform="translate(-110,1030.4)" />
  </g>
  <g
     id="media-seek-backward"
     transform="matrix(-1,0,0,1,154,-1030.4)"
     style="fill:#000000">
    <rect
       y="1030.4"
       width="22"
       height="22"
       opacity="0.00100002"
       id="rect30"
       x="0" />
    <path
       id="path32"
       style="fill:#fefefe;fill-opacity:1"
       class="ColorScheme-Text"
       d="M 143 7 L 136 11 L 143 15 L 143 11 L 143 7 z M 143 11 L 150 15 L 150 7 L 143 11 z "
       transform="matrix(-1,0,0,1,154,1030.4)" />
  </g>
  <g
     id="media-eject"
     transform="translate(-44,-1030.4)"
     style="fill:#000000">
    <rect
       y="1030.4"
       width="22"
       height="22"
       opacity="0.00100002"
       id="rect35"
       x="0" />
    <path
       id="path37"
       style="fill:#fefefe;fill-opacity:1"
       class="ColorScheme-Text"
       d="M -33 5 L -38 11 L -38 13 L -28 13 L -28 11 L -33 5 z M -38 15 L -38 17 L -28 17 L -28 15 L -38 15 z "
       transform="translate(44,1030.4)" />
  </g>
  <g
     id="media-playback-pause"
     transform="translate(-22,-1030.4)"
     style="fill:#000000">
    <rect
       y="1030.4"
       width="22"
       height="22"
       opacity="0.00100002"
       id="rect40"
       x="0" />
    <path
       id="path42"
       style="fill:#fefefe;fill-opacity:1"
       class="ColorScheme-Text"
       d="M -17 5 L -17 17 L -13 17 L -13 5 L -17 5 z M -9 5 L -9 17 L -5 17 L -5 5 L -9 5 z "
       transform="translate(22,1030.4)" />
  </g>
  <g
     id="media-playback-start"
     transform="translate(0,-1030.4)"
     style="fill:#000000">
    <rect
       y="1030.4"
       width="22"
       height="22"
       opacity="0.00100002"
       id="rect45"
       x="0" />
    <path
       id="path47"
       style="fill:#fefefe;fill-opacity:1"
       class="ColorScheme-Text"
       d="M 6 5 L 6 17 L 17 11 L 7.1015625 5.5996094 L 6 5 z "
       transform="translate(0,1030.4)" />
  </g>
  <g
     id="media-playback-paused">
    <rect
       style="color:#dedede;stroke-width:1.5"
       x="0.99975014"
       y="32.999752"
       width="22.0005"
       height="22.0005"
       fill="#ed1515"
       fill-opacity="0.00392163"
       opacity="0.01"
       id="rect50" />
    <path
       sodipodi:nodetypes="cccccccccc"
       d="m 9,41 v 6 h 2 v -6 z m 4,0 v 6 h 2 v -6 z"
       style="fill:#fefefe;fill-opacity:1;stroke:none;stroke-width:1;stroke-linecap:round;stroke-miterlimit:4;stroke-dasharray:none;stroke-opacity:1"
       id="rect946" />
    <path
       id="path989"
       style="fill:#fefefe;fill-opacity:1;fill-rule:evenodd;stroke-width:2;stroke-linecap:round;stroke-linejoin:round;paint-order:stroke fill markers"
       d="M 12 34 A 10 10 0 0 0 2 44 A 10 10 0 0 0 12 54 A 10 10 0 0 0 22 44 A 10 10 0 0 0 12 34 z M 12 35 A 9 9 0 0 1 21 44 A 9 9 0 0 1 12 53 A 9 9 0 0 1 3 44 A 9 9 0 0 1 12 35 z " />
  </g>
  <g
     id="media-playback-playing">
    <rect
       style="color:#dedede;stroke-width:1.5"
       x="24.99975"
       y="32.999752"
       width="22.0005"
       height="22.0005"
       fill="#ed1515"
       fill-opacity="0.00392163"
       opacity="0.01"
       id="rect55" />
    <path
       sodipodi:nodetypes="cccc"
       d="m 34,40.25 v 7.5 L 39,44 Z"
       style="fill:#fefefe;fill-opacity:1;stroke:none;stroke-width:1.25;stroke-linecap:round;stroke-miterlimit:4;stroke-dasharray:none;stroke-opacity:1"
       id="rect932" />
    <path
       id="path5844"
       style="fill:#fefefe;fill-opacity:1;fill-rule:evenodd;stroke-width:2;stroke-linecap:round;stroke-linejoin:round;paint-order:stroke fill markers"
       d="M 36 34 A 10 10 0 0 0 26 44 A 10 10 0 0 0 36 54 A 10 10 0 0 0 46 44 A 10 10 0 0 0 36 34 z M 36 35 A 9 9 0 0 1 45 44 A 9 9 0 0 1 36 53 A 9 9 0 0 1 27 44 A 9 9 0 0 1 36 35 z " />
  </g>
  <g
     id="media-playback-stopped">
    <rect
       style="color:#dedede;stroke-width:1.5"
       x="48.999752"
       y="32.999752"
       width="22.0005"
       height="22.0005"
       fill="#ed1515"
       fill-opacity="0.00392163"
       opacity="0.01"
       id="rect60" />
    <path
       sodipodi:nodetypes="ccccc"
       d="m 57,41 v 6 h 6 v -6 z"
       style="fill:#fefefe;fill-opacity:1;stroke:none;stroke-width:1;stroke-linecap:round;stroke-miterlimit:4;stroke-dasharray:none;stroke-opacity:1"
       id="rect914" />
    <path
       id="path5937"
       style="fill:#fefefe;fill-opacity:1;fill-rule:evenodd;stroke-width:2;stroke-linecap:round;stroke-linejoin:round;paint-order:stroke fill markers"
       d="M 60 34 A 10 10 0 0 0 50 44 A 10 10 0 0 0 60 54 A 10 10 0 0 0 70 44 A 10 10 0 0 0 60 34 z M 60 35 A 9 9 0 0 1 69 44 A 9 9 0 0 1 60 53 A 9 9 0 0 1 51 44 A 9 9 0 0 1 60 35 z " />
  </g>
</svg>
