<?xml version="1.0" encoding="UTF-8" standalone="no"?>
<svg
   style="enable-background:new"
   width="32"
   height="32"
   version="1.1"
   id="svg36"
   sodipodi:docname="qbittorrent.svg"
   inkscape:version="1.2.2 (b0a8486541, 2022-12-01)"
   xmlns:inkscape="http://www.inkscape.org/namespaces/inkscape"
   xmlns:sodipodi="http://sodipodi.sourceforge.net/DTD/sodipodi-0.dtd"
   xmlns:xlink="http://www.w3.org/1999/xlink"
   xmlns="http://www.w3.org/2000/svg"
   xmlns:svg="http://www.w3.org/2000/svg"
   xmlns:rdf="http://www.w3.org/1999/02/22-rdf-syntax-ns#"
   xmlns:cc="http://creativecommons.org/ns#"
   xmlns:dc="http://purl.org/dc/elements/1.1/">
  <metadata
     id="metadata40">
    <rdf:RDF>
      <cc:Work
         rdf:about="">
        <dc:format>image/svg+xml</dc:format>
        <dc:type
           rdf:resource="http://purl.org/dc/dcmitype/StillImage" />
      </cc:Work>
    </rdf:RDF>
  </metadata>
  <sodipodi:namedview
     pagecolor="#c8c8c8"
     bordercolor="#666666"
     borderopacity="1"
     objecttolerance="10"
     gridtolerance="10"
     guidetolerance="10"
     inkscape:pageopacity="0"
     inkscape:pageshadow="2"
     inkscape:window-width="1920"
     inkscape:window-height="1002"
     id="namedview38"
     showgrid="true"
     inkscape:zoom="10.429825"
     inkscape:cx="15.100925"
     inkscape:cy="25.407905"
     inkscape:window-x="0"
     inkscape:window-y="0"
     inkscape:window-maximized="1"
     inkscape:current-layer="22-22-qbittorrent"
     inkscape:lockguides="true"
     inkscape:document-rotation="0"
     inkscape:showpageshadow="0"
     inkscape:pagecheckerboard="0"
     inkscape:deskcolor="#d1d1d1">
    <inkscape:grid
       type="xygrid"
       id="grid3899" />
  </sodipodi:namedview>
  <defs
     id="defs4">
    <linearGradient
       id="linearGradient5606"
       inkscape:swatch="solid">
      <stop
         id="stop5608"
         offset="0"
         style="stop-color:#000000" />
    </linearGradient>
    <linearGradient
       id="linearGradient994"
       x1="35.424999"
       x2="35.424999"
       y1="-94.008003"
       y2="-35.154999"
       gradientTransform="translate(-30.7663,35.718065)"
       gradientUnits="userSpaceOnUse">
      <stop
         stop-color="#d6efff"
         offset="0"
         id="stop3186" />
      <stop
         stop-color="#daeffe"
         offset="1"
         id="stop3188" />
    </linearGradient>
    <linearGradient
       id="linearGradient11351"
       x1="35.424999"
       x2="35.424999"
       y1="-94.008003"
       y2="-35.154999"
       gradientTransform="matrix(0.91667,0,0,0.91667,-28.0358,30.389065)"
       gradientUnits="userSpaceOnUse">
      <stop
         stop-color="#6faae6"
         offset="0"
         id="stop3191" />
      <stop
         stop-color="#396ebb"
         offset="1"
         id="stop3193" />
    </linearGradient>
    <linearGradient
       id="linearGradient22229"
       x1="-51.775002"
       x2="-12.7"
       y1="-91.068001"
       y2="-91.068001"
       gradientUnits="userSpaceOnUse"
       xlink:href="#linearGradient22227" />
    <linearGradient
       id="linearGradient22227">
      <stop
         stop-color="#bbe3ff"
         offset="0"
         id="stop3181" />
      <stop
         stop-color="#fcffff"
         offset="1"
         id="stop3183" />
    </linearGradient>
    <linearGradient
       id="linearGradient32180"
       x1="-51.775002"
       x2="-21.577999"
       y1="-91.068001"
       y2="-91.068001"
       gradientUnits="userSpaceOnUse"
       xlink:href="#linearGradient22227" />
  </defs>
  <g
     id="22-22-qbittorrent"
     transform="translate(32,10)">
    <path
       style="opacity:0"
       d="M 0,0 H 22 V 22 H 0 Z"
       id="path6" />
    <path
       id="path8"
       style="fill:#fbfbfb;fill-opacity:1"
       d="M 12 4 L 12 15 L 14 15 L 14 14.458984 C 14.607484 14.81219 15.297299 14.998156 16 15 C 18.209137 15 20 13.209137 20 11 C 20 8.790863 18.209137 7 16 7 C 15.297481 7.00125 14.607678 7.1865559 14 7.5390625 L 14 4 L 12 4 z M 16 9 C 17.104568 9 18 9.8954319 18 11 C 18 12.104568 17.104568 13 16 13 C 14.895432 13 14 12.104568 14 11 C 14 9.8954319 14.895432 9 16 9 z " />
    <path
       id="path10"
       style="opacity:1;fill:#fbfbfb;fill-opacity:1"
       d="M 6 7 C 3.7908632 7 2 8.790863 2 11 C 2 13.209137 3.7908632 15 6 15 C 6.7025223 14.9987 7.3923256 14.811505 8 14.458984 L 8 18 L 10 18 L 10 7 L 8 7 L 8 7.5410156 C 7.3925156 7.1878097 6.7027013 7.0018543 6 7 z M 6 9 C 7.1045689 9 8 9.8954319 8 11 C 8 12.104568 7.1045689 13 6 13 C 4.8954321 13 4 12.104568 4 11 C 4 9.8954319 4.8954321 9 6 9 z " />
  </g>
  <g
     id="qbittorrent">
    <rect
       width="32"
       height="32"
       x="0"
       y="0"
       style="opacity:0.00100002"
       id="rect13" />
    <g
       id="g4806"
       transform="translate(17,-1)">
      <path
         id="rect3953"
         style="opacity:1;fill:#fbfbfb;fill-opacity:1;fill-rule:evenodd;stroke-width:0.107227;stroke-linecap:round;stroke-linejoin:round;paint-order:stroke fill markers"
         d="M -7.078125 11.421875 A 4.9736842 4.9736842 0 0 0 -12.052734 16.394531 A 4.9736842 4.9736842 0 0 0 -7.078125 21.369141 A 4.9736842 4.9736842 0 0 0 -4.3164062 20.523438 L -4.3164062 26.894531 C -4.3164062 26.930169 -4.3138128 26.965245 -4.3105469 27 L -2.1113281 27 C -2.1080622 26.965245 -2.1054688 26.930169 -2.1054688 26.894531 L -2.1054688 16.394531 L -2.1054688 11.421875 L -4.3164062 11.421875 L -4.3164062 12.257812 A 4.9736842 4.9736842 0 0 0 -7.078125 11.421875 z M -7.078125 13.630859 A 2.7631579 2.7631579 0 0 1 -4.3164062 16.394531 A 2.7631579 2.7631579 0 0 1 -7.078125 19.158203 A 2.7631579 2.7631579 0 0 1 -9.8417969 16.394531 A 2.7631579 2.7631579 0 0 1 -7.078125 13.630859 z " />
      <path
         id="path4802"
         style="opacity:1;fill:#fbfbfb;fill-opacity:1;fill-rule:evenodd;stroke-width:0.107227;stroke-linecap:round;stroke-linejoin:round;paint-order:stroke fill markers"
         d="M 0.11132812 8 C 0.10806218 8.034755 0.10546875 8.0698314 0.10546875 8.1054688 L 0.10546875 18.605469 L 0.10546875 23.578125 L 2.3164062 23.578125 L 2.3164062 22.742188 A 4.9736842 4.9736842 0 0 0 5.078125 23.578125 A 4.9736842 4.9736842 0 0 0 10.052734 18.605469 A 4.9736842 4.9736842 0 0 0 5.078125 13.630859 A 4.9736842 4.9736842 0 0 0 2.3164062 14.476562 L 2.3164062 8.1054688 C 2.3164062 8.0698314 2.3138128 8.034755 2.3105469 8 L 0.11132812 8 z M 5.078125 15.841797 A 2.7631579 2.7631579 0 0 1 7.8417969 18.605469 A 2.7631579 2.7631579 0 0 1 5.078125 21.369141 A 2.7631579 2.7631579 0 0 1 2.3164062 18.605469 A 2.7631579 2.7631579 0 0 1 5.078125 15.841797 z " />
    </g>
  </g>
</svg>
