<?xml version="1.0" encoding="UTF-8" standalone="no"?>
<svg
   version="1.1"
   width="24"
   height="24"
   id="svg3013"
   inkscape:version="1.2.2 (b0a8486541, 2022-12-01)"
   sodipodi:docname="skype.svg"
   xmlns:inkscape="http://www.inkscape.org/namespaces/inkscape"
   xmlns:sodipodi="http://sodipodi.sourceforge.net/DTD/sodipodi-0.dtd"
   xmlns:xlink="http://www.w3.org/1999/xlink"
   xmlns="http://www.w3.org/2000/svg"
   xmlns:svg="http://www.w3.org/2000/svg"
   xmlns:rdf="http://www.w3.org/1999/02/22-rdf-syntax-ns#"
   xmlns:cc="http://creativecommons.org/ns#"
   xmlns:dc="http://purl.org/dc/elements/1.1/">
  <sodipodi:namedview
     pagecolor="#c8c8c8"
     bordercolor="#666666"
     borderopacity="1"
     objecttolerance="10"
     gridtolerance="10"
     guidetolerance="10"
     inkscape:pageopacity="0"
     inkscape:pageshadow="2"
     inkscape:window-width="1920"
     inkscape:window-height="962"
     id="namedview66"
     showgrid="true"
     inkscape:zoom="19.666667"
     inkscape:cx="2.6694915"
     inkscape:cy="14.491525"
     inkscape:window-x="0"
     inkscape:window-y="40"
     inkscape:window-maximized="1"
     inkscape:current-layer="layer1"
     inkscape:lockguides="true"
     inkscape:document-rotation="0"
     inkscape:showpageshadow="0"
     inkscape:pagecheckerboard="0"
     inkscape:deskcolor="#d1d1d1">
    <inkscape:grid
       type="xygrid"
       id="grid903" />
  </sodipodi:namedview>
  <defs
     id="defs3015">
    <linearGradient
       id="linearGradient5009">
      <stop
         id="stop5011"
         style="stop-color:#000000;stop-opacity:1"
         offset="0" />
      <stop
         id="stop5013"
         style="stop-color:#000000;stop-opacity:0"
         offset="1" />
    </linearGradient>
    <linearGradient
       id="linearGradient4249">
      <stop
         id="stop4251"
         style="stop-color:#ffffff;stop-opacity:1"
         offset="0" />
      <stop
         id="stop4253"
         style="stop-color:#ffffff;stop-opacity:0.78431374"
         offset="0.47000003" />
      <stop
         id="stop4255"
         style="stop-color:#ffffff;stop-opacity:0.51724136"
         offset="0.75125003" />
      <stop
         id="stop4257"
         style="stop-color:#ffffff;stop-opacity:1"
         offset="1" />
    </linearGradient>
    <linearGradient
       id="linearGradient3289">
      <stop
         id="stop3291"
         style="stop-color:#ffffff;stop-opacity:1"
         offset="0" />
      <stop
         id="stop3294"
         style="stop-color:#ffffff;stop-opacity:1"
         offset="1" />
    </linearGradient>
    <linearGradient
       id="linearGradient2916">
      <stop
         id="stop2918"
         style="stop-color:#ffffff;stop-opacity:1"
         offset="0" />
      <stop
         id="stop2920"
         style="stop-color:#ffffff;stop-opacity:0"
         offset="1" />
    </linearGradient>
    <linearGradient
       id="linearGradient3140">
      <stop
         id="stop3142"
         style="stop-color:#ffffff;stop-opacity:1"
         offset="0" />
      <stop
         id="stop3144"
         style="stop-color:#ffffff;stop-opacity:0"
         offset="1" />
    </linearGradient>
    <linearGradient
       id="linearGradient2895">
      <stop
         id="stop2897"
         style="stop-color:#ffffff;stop-opacity:1"
         offset="0" />
      <stop
         id="stop2899"
         style="stop-color:#ffffff;stop-opacity:0"
         offset="1" />
    </linearGradient>
    <linearGradient
       x1="38.875084"
       y1="67.528122"
       x2="90.409752"
       y2="67.528122"
       id="linearGradient6228"
       xlink:href="#linearGradient2916"
       gradientUnits="userSpaceOnUse"
       gradientTransform="matrix(0.511504,0,0,1.80649,68.030435,-6.0981568)" />
    <linearGradient
       x1="38.875084"
       y1="67.528122"
       x2="90.409752"
       y2="67.528122"
       id="linearGradient6233"
       xlink:href="#linearGradient2916"
       gradientUnits="userSpaceOnUse"
       gradientTransform="matrix(0.511504,0,0,0.96108,67.773305,4.8320565)" />
    <linearGradient
       x1="11.543377"
       y1="3.4375"
       x2="10.88339"
       y2="5.9006019"
       id="linearGradient6238"
       xlink:href="#linearGradient2895"
       gradientUnits="userSpaceOnUse"
       gradientTransform="matrix(5.467529,0,0,5.820575,24.290213,-2.0656323)" />
    <linearGradient
       x1="38.875084"
       y1="67.528122"
       x2="90.409752"
       y2="67.528122"
       id="linearGradient6243"
       xlink:href="#linearGradient2916"
       gradientUnits="userSpaceOnUse"
       gradientTransform="matrix(0.511504,0,0,0.77135,67.773305,6.6291413)" />
    <radialGradient
       cx="68.000046"
       cy="-117.34602"
       r="27.999956"
       fx="68.000046"
       fy="-117.34602"
       id="radialGradient9168"
       xlink:href="#linearGradient3140"
       gradientUnits="userSpaceOnUse"
       gradientTransform="matrix(0.990365,0,0,1.664158,16.251985,75.514833)" />
    <linearGradient
       x1="18.01074"
       y1="65.760353"
       x2="72.498932"
       y2="65.760353"
       id="linearGradient2867"
       xlink:href="#linearGradient3289"
       gradientUnits="userSpaceOnUse"
       gradientTransform="matrix(1.017716,0,0,0.960169,5.524222,-18.774756)" />
    <linearGradient
       id="linearGradient4046-1-38">
      <stop
         id="stop4048-6-5"
         style="stop-color:#ffffff;stop-opacity:0"
         offset="0" />
      <stop
         id="stop4051-4-0"
         style="stop-color:#ffffff;stop-opacity:0.72661871"
         offset="1" />
    </linearGradient>
    <linearGradient
       id="linearGradient16006-3-9">
      <stop
         id="stop16008-5-6"
         style="stop-color:#ffffff;stop-opacity:0.58823532"
         offset="0" />
      <stop
         id="stop16016-1-7"
         style="stop-color:#ffffff;stop-opacity:0.8705036"
         offset="0.25" />
      <stop
         id="stop16014-1-2"
         style="stop-color:#ffffff;stop-opacity:0.58823532"
         offset="0.5" />
      <stop
         id="stop3998"
         style="stop-color:#ffffff;stop-opacity:0.8561151"
         offset="0.75" />
      <stop
         id="stop16010-4-1"
         style="stop-color:#ffffff;stop-opacity:0.58823532"
         offset="1" />
    </linearGradient>
    <linearGradient
       id="linearGradient4124">
      <stop
         id="stop4126"
         style="stop-color:#ffffff;stop-opacity:0.70503598"
         offset="0" />
      <stop
         id="stop4128"
         style="stop-color:#ffffff;stop-opacity:0.6978417"
         offset="0.185378" />
      <stop
         id="stop4130"
         style="stop-color:#ffffff;stop-opacity:0.80575538"
         offset="0.44680852" />
      <stop
         id="stop4132"
         style="stop-color:#ffffff;stop-opacity:0.77697843"
         offset="0.76861703" />
      <stop
         id="stop4134"
         style="stop-color:#ffffff;stop-opacity:0.74100721"
         offset="1" />
    </linearGradient>
    <linearGradient
       x1="3.0267859"
       y1="1040.4602"
       x2="21.776787"
       y2="1040.4602"
       id="linearGradient4717"
       xlink:href="#linearGradient4124"
       gradientUnits="userSpaceOnUse" />
    <linearGradient
       x1="12.580358"
       y1="1031.4336"
       x2="12.580358"
       y2="1049.4011"
       id="linearGradient4727"
       xlink:href="#linearGradient4124"
       gradientUnits="userSpaceOnUse" />
    <linearGradient
       x1="12"
       y1="1031.3356"
       x2="12.178572"
       y2="1049.2603"
       id="linearGradient4929"
       xlink:href="#linearGradient4249"
       gradientUnits="userSpaceOnUse" />
    <linearGradient
       x1="12"
       y1="1031.3356"
       x2="12.178572"
       y2="1049.2603"
       id="linearGradient4991"
       xlink:href="#linearGradient4249"
       gradientUnits="userSpaceOnUse"
       gradientTransform="translate(24,0)" />
    <linearGradient
       x1="12"
       y1="1031.3356"
       x2="12.178572"
       y2="1049.2603"
       id="linearGradient4993"
       xlink:href="#linearGradient4249"
       gradientUnits="userSpaceOnUse"
       gradientTransform="translate(24,0)" />
    <linearGradient
       x1="12"
       y1="1031.3356"
       x2="12.178572"
       y2="1049.2603"
       id="linearGradient4995"
       xlink:href="#linearGradient4249"
       gradientUnits="userSpaceOnUse"
       gradientTransform="translate(24,0)" />
    <linearGradient
       x1="12"
       y1="1031.3356"
       x2="12.178572"
       y2="1049.2603"
       id="linearGradient4997"
       xlink:href="#linearGradient4249"
       gradientUnits="userSpaceOnUse"
       gradientTransform="translate(24,0)" />
    <linearGradient
       x1="12"
       y1="1031.3356"
       x2="12.178572"
       y2="1049.2603"
       id="linearGradient4999"
       xlink:href="#linearGradient4249"
       gradientUnits="userSpaceOnUse"
       gradientTransform="translate(24,0)" />
    <linearGradient
       x1="12"
       y1="1031.3356"
       x2="12.178572"
       y2="1049.2603"
       id="linearGradient5001"
       xlink:href="#linearGradient4249"
       gradientUnits="userSpaceOnUse"
       gradientTransform="translate(24,0)" />
    <linearGradient
       x1="12"
       y1="1031.3356"
       x2="12.178572"
       y2="1049.2603"
       id="linearGradient5003"
       xlink:href="#linearGradient4249"
       gradientUnits="userSpaceOnUse"
       gradientTransform="translate(24,0)" />
    <linearGradient
       x1="12"
       y1="1031.3356"
       x2="12.178572"
       y2="1049.2603"
       id="linearGradient5005"
       xlink:href="#linearGradient4249"
       gradientUnits="userSpaceOnUse"
       gradientTransform="translate(24,0)" />
    <linearGradient
       x1="4.2426405"
       y1="11.71402"
       x2="19.975765"
       y2="11.71402"
       id="linearGradient5015"
       xlink:href="#linearGradient5009"
       gradientUnits="userSpaceOnUse"
       gradientTransform="translate(0,1028.3622)" />
    <radialGradient
       cx="12.00001"
       cy="11.987168"
       r="9.5000095"
       fx="12.00001"
       fy="11.987168"
       id="radialGradient3937"
       xlink:href="#linearGradient2895"
       gradientUnits="userSpaceOnUse"
       gradientTransform="matrix(2.4034553,0,0,2.408755,-16.841477,-16.886983)" />
  </defs>
  <metadata
     id="metadata3018">
    <rdf:RDF>
      <cc:Work
         rdf:about="">
        <dc:format>image/svg+xml</dc:format>
        <dc:type
           rdf:resource="http://purl.org/dc/dcmitype/StillImage" />
      </cc:Work>
    </rdf:RDF>
  </metadata>
  <g
     transform="translate(0,-1028.3622)"
     id="layer1">
    <g
       id="skype">
      <rect
         width="24"
         height="24"
         x="0"
         y="1028.3622"
         id="rect5017"
         style="opacity:0;fill:#000000;fill-opacity:0.392157;stroke:none" />
      <g
         id="g3939">
        <g
           id="g907"
           transform="translate(0.49888002,0.5028167)">
          <path
             d="m 7.5370806,1030.8621 c -0.2061667,0.01 -0.4162632,0.014 -0.6428164,0.053 -2.4814506,0.4258 -4.3648707,2.6048 -4.3657944,5.0889 -2.213e-4,0.595 0.103173,1.1817 0.3214081,1.8481 v 0.027 l 0.1339201,0.4285 v 1.2053 c 0.00276,1.1565 0.037165,1.5107 0.107136,1.8481 0.8140609,3.9253 3.8321403,6.7072 7.74058,7.0442 0.418001,0.041 0.800761,0.036 1.446337,0 l 0.696385,-0.053 0.267839,0.1071 c 0.552244,0.1965 0.878932,0.2965 1.178497,0.3482 0.476056,0.078 1.038659,0.059 1.526689,0 1.129208,-0.1381 2.220269,-0.6666 3.053378,-1.4999 0.712076,-0.7122 1.172262,-1.6011 1.392769,-2.6249 0.07284,-0.3382 0.08074,-0.6584 0.08035,-1.0713 -6.05e-4,-0.668 -0.08624,-1.1009 -0.348192,-1.8749 h 0.02678 l -0.13392,-0.4018 0.02678,-0.9106 c 0.02892,-1.2249 -0.03048,-1.8046 -0.241056,-2.6517 -0.736247,-2.9612 -2.997685,-5.279 -5.972835,-6.1335 -0.771147,-0.2213 -0.985597,-0.2396 -2.571266,-0.2678 l -1.3927687,-0.027 -0.3214082,-0.1072 c -0.7030341,-0.2461 -1.3363763,-0.3996 -2.0088011,-0.3749 z m 0.026784,0.8302 c 0.5354189,-0.02 1.0624596,0.093 1.714177,0.3215 l 0.4553282,0.1606 1.4999042,0.027 c 1.58816,0.028 1.590914,0.022 2.356994,0.241 2.698939,0.7753 4.746299,2.8733 5.410371,5.5443 0.201548,0.8107 0.242636,1.2091 0.214272,2.4106 l -0.02678,1.0713 0.160704,0.509 c 0.262409,0.769 0.294036,0.9835 0.294624,1.6338 3.79e-4,0.4047 -0.0053,0.66 -0.05357,0.8839 -0.191517,0.8891 -0.580319,1.6247 -1.178496,2.223 -0.693268,0.6934 -1.637667,1.1447 -2.571266,1.2589 -0.373425,0.045 -1.013168,0.044 -1.285633,0 -0.263397,-0.046 -0.517662,-0.1072 -1.044577,-0.2947 l -0.455328,-0.1606 -0.830304,0.054 c -0.631292,0.035 -0.93938,0.036 -1.312417,0 -3.5650459,-0.3074 -6.269187,-2.7667 -7.0174116,-6.3746 -0.05614,-0.2707 -0.077618,-0.541 -0.080352,-1.6874 v -1.366 l -0.1607041,-0.5357 c -0.2069971,-0.6255 -0.2948127,-1.1001 -0.2946242,-1.607 7.638e-4,-2.0537 1.5915663,-3.9021 3.6694101,-4.2586 0.1856432,-0.032 0.3572074,-0.047 0.5356803,-0.054 z"
             id="path3872"
             inkscape:connector-curvature="0"
             style="fill:#fbfbfb;fill-opacity:1;stroke-width:0.857088" />
          <path
             d="m 11.47433,1034.2368 c -2.6895198,0.01 -4.3413058,1.3426 -4.2050896,3.4016 0.072552,1.0967 0.5650313,1.8158 1.6070409,2.3034 0.2801393,0.1312 1.3114297,0.452 2.2766417,0.6964 0.96521,0.2445 1.872761,0.5053 2.008801,0.5893 0.30692,0.1886 0.428544,0.4777 0.428544,0.9374 0,0.2859 -0.0575,0.4032 -0.26784,0.6428 -0.474161,0.5401 -1.380526,0.7742 -2.276641,0.5892 -0.705211,-0.1455 -0.997501,-0.3359 -1.6070414,-1.0177 -0.7265299,-0.8127 -1.1038983,-0.9606 -1.6606089,-0.6964 -0.3370629,0.1599 -0.5378659,0.4787 -0.5356803,0.9106 0.00608,1.2092 1.4231406,2.2982 3.3747856,2.5713 0.668222,0.093 2.062664,0.017 2.705186,-0.1339 1.135123,-0.2674 2.029186,-0.9111 2.464129,-1.7946 0.242099,-0.4917 0.241457,-0.5658 0.241056,-1.3123 -3.75e-4,-0.7019 -0.0024,-0.8633 -0.187488,-1.2589 -0.488644,-1.0444 -1.302563,-1.5126 -3.508705,-2.0088 -0.795481,-0.1789 -1.554302,-0.3564 -1.714178,-0.4018 -0.449079,-0.1269 -0.8154792,-0.4027 -0.9374403,-0.7232 -0.1001139,-0.2629 -0.095103,-0.3335 0.053568,-0.6695 0.2296423,-0.5192 0.7348313,-0.7767 1.6070403,-0.7767 0.940101,0 1.3515,0.1672 2.089154,0.857 0.658629,0.6163 0.878062,0.7174 1.3392,0.6429 0.856176,-0.139 1.123692,-0.9498 0.589249,-1.741 -0.644176,-0.9537 -2.224474,-1.6071 -3.883683,-1.6071 z"
             id="rect3906"
             inkscape:connector-curvature="0"
             style="fill:#fbfbfb;fill-opacity:1;stroke-width:0.857088" />
        </g>
        <path
           d="M 7.40625,2.46875 C 7.1980184,2.4763641 6.9978475,2.494075 6.78125,2.53125 4.356945,2.94735 2.500891,5.1039 2.5,7.5 2.49978,8.0915 2.602238,8.6451 2.84375,9.375 L 3.03125,10 v 1.59375 C 3.03444,12.93135 3.0595,13.2467 3.125,13.5625 3.997984,17.772 7.1530155,20.6414 11.3125,21 c 0.435237,0.042 0.794696,0.041 1.53125,0 l 0.96875,-0.0625 0.53125,0.1875 c 0.614772,0.2187 0.911434,0.29075 1.21875,0.34375 0.317896,0.052 1.064309,0.053 1.5,0 1.089268,-0.1332 2.191136,-0.65975 3,-1.46875 0.697918,-0.6981 1.151549,-1.55635 1.375,-2.59375 0.05626,-0.2612 0.06294,-0.55905 0.0625,-1.03125 -6.87e-4,-0.7587 -0.03759,-1.00895 -0.34375,-1.90625 L 20.96875,13.875 21,12.625 C 21.033094,11.2231 20.985154,10.7584 20.75,9.8125 19.9752,6.6961 17.586462,4.24825 14.4375,3.34375 13.543684,3.08725 13.540471,3.0955 11.6875,3.0625 L 9.9375,3.03125 9.40625,2.84375 c -0.7603852,-0.2661 -1.3753051,-0.3978422 -2,-0.375 z m 4.5625,2.96875 c 1.935866,0 3.779664,0.7623 4.53125,1.875 0.623557,0.9232 0.311435,1.86915 -0.6875,2.03125 -0.538029,0.087 -0.794051,-0.0309 -1.5625,-0.75 -0.860651,-0.8049 -1.340646,-1.0014 -2.4375,-1 -1.017643,0 -1.607067,0.30055 -1.875,0.90625 -0.1734598,0.3921 -0.1793071,0.47435 -0.0625,0.78125 0.142297,0.3739 0.569791,0.69565 1.09375,0.84375 0.186533,0.053 1.071881,0.26005 2,0.46875 2.573997,0.5789 3.523629,1.12525 4.09375,2.34375 0.215953,0.4616 0.218312,0.64985 0.21875,1.46875 4.68e-4,0.871 0.0012,0.95745 -0.28125,1.53125 -0.507465,1.0308 -1.550605,1.78175 -2.875,2.09375 -0.749657,0.1766 -2.376608,0.26525 -3.15625,0.15625 -2.2770643,-0.3186 -3.9303707,-1.5893 -3.9375,-3 -0.00255,-0.5039 0.2317348,-0.8759 0.625,-1.0625 0.6495374,-0.3082 1.0898276,-0.1357 1.9375,0.8125 0.711175,0.7955 1.052202,1.0177 1.875,1.1875 1.045535,0.2158 2.103027,-0.0573 2.65625,-0.6875 0.24541,-0.2795 0.3125,-0.4164 0.3125,-0.75 0,-0.5364 -0.141903,-0.87365 -0.5,-1.09375 -0.158723,-0.098 -1.217599,-0.4023 -2.34375,-0.6875 -1.126151,-0.2852 -2.3293997,-0.6595 -2.65625,-0.8125 -1.2157547,-0.5689 -1.7903528,-1.408 -1.875,-2.6875 C 6.9035706,7.00385 8.8307774,5.4429 11.96875,5.4375 Z"
           transform="translate(0,1028.3622)"
           id="path3859"
           style="fill:url(#radialGradient3937);fill-opacity:0;stroke:none"
           inkscape:connector-curvature="0" />
      </g>
    </g>
  </g>
</svg>
