<?xml version="1.0" encoding="UTF-8" standalone="no"?>
<svg
   xmlns:dc="http://purl.org/dc/elements/1.1/"
   xmlns:cc="http://creativecommons.org/ns#"
   xmlns:rdf="http://www.w3.org/1999/02/22-rdf-syntax-ns#"
   xmlns:svg="http://www.w3.org/2000/svg"
   xmlns="http://www.w3.org/2000/svg"
   xmlns:sodipodi="http://sodipodi.sourceforge.net/DTD/sodipodi-0.dtd"
   xmlns:inkscape="http://www.inkscape.org/namespaces/inkscape"
   inkscape:version="1.0.1 (3bc2e813f5, 2020-09-07, custom)"
   sodipodi:docname="media.svg"
   id="svg67"
   viewBox="0 0 22 22"
   version="1.1"
   height="22"
   width="22">
  <metadata
     id="metadata71">
    <rdf:RDF>
      <cc:Work
         rdf:about="">
        <dc:format>image/svg+xml</dc:format>
        <dc:type
           rdf:resource="http://purl.org/dc/dcmitype/StillImage" />
        <dc:title />
      </cc:Work>
    </rdf:RDF>
  </metadata>
  <sodipodi:namedview
     inkscape:bbox-nodes="true"
     inkscape:snap-bbox-edge-midpoints="true"
     inkscape:snap-bbox="true"
     inkscape:document-rotation="0"
     inkscape:current-layer="svg67"
     inkscape:window-maximized="1"
     inkscape:window-y="38"
     inkscape:window-x="0"
     inkscape:cy="15.621735"
     inkscape:cx="93.498926"
     inkscape:zoom="7.5853273"
     showgrid="true"
     id="namedview69"
     inkscape:window-height="935"
     inkscape:window-width="1920"
     inkscape:pageshadow="2"
     inkscape:pageopacity="0"
     guidetolerance="10"
     gridtolerance="10"
     objecttolerance="10"
     borderopacity="1"
     bordercolor="#666666"
     pagecolor="#c8c8c8">
    <inkscape:grid
       id="grid878"
       type="xygrid" />
  </sodipodi:namedview>
  <defs
     id="defs3">
    <style
       type="text/css"
       id="current-color-scheme">.ColorScheme-Text { color:#dedede; } .ColorScheme-Highlight { color:#5294e2; } .ColorScheme-ButtonBackground { color:#dedede; }</style>
  </defs>
  <g
     id="media-eject">
    <rect
       y="2.4414063e-05"
       width="22"
       height="22"
       opacity="0.00100002"
       id="rect35"
       x="-44"
       style="fill:#000000" />
    <path
       id="rect875"
       style="opacity:1;fill:#000000;stroke-width:50;stroke-linecap:round;stroke-linejoin:round;stroke-opacity:0;paint-order:stroke fill markers;fill-opacity:1"
       d="M -33 6 L -38 11 L -38 12 L -28 12 L -28 11 L -33 6 z M -38 14 L -38 16 L -28 16 L -28 14 L -38 14 z " />
  </g>
  <g
     id="media-playback-pause">
    <rect
       y="2.4414063e-05"
       width="22"
       height="22"
       opacity="0.00100002"
       id="rect40"
       x="-22"
       style="fill:#000000" />
    <path
       id="rect877"
       style="opacity:1;fill:#000000;stroke-width:50;stroke-linecap:round;stroke-linejoin:round;stroke-opacity:0;paint-order:stroke fill markers;fill-opacity:1"
       d="M -17 5 L -17 17 L -13 17 L -13 5 L -17 5 z M -9 5 L -9 17 L -5 17 L -5 5 L -9 5 z " />
  </g>
  <g
     id="media-playback-start">
    <rect
       y="2.4414063e-05"
       width="22"
       height="22"
       opacity="0.00100002"
       id="rect45"
       x="0"
       style="fill:#000000" />
    <path
       id="rect879"
       style="opacity:1;fill:#000000;stroke-width:50;stroke-linecap:round;stroke-linejoin:round;stroke-opacity:0;paint-order:stroke fill markers;fill-opacity:1"
       d="M 6 5 L 6 17 L 17 11 L 7.1015625 5.5996094 L 6 5 z " />
  </g>
  <g
     id="media-playback-stop">
    <rect
       y="2.4414063e-05"
       width="22"
       height="22"
       opacity="0.00100002"
       id="rect10"
       x="44"
       style="fill:#000000" />
    <path
       id="rect881"
       style="opacity:1;fill:#000000;stroke-width:50;stroke-linecap:round;stroke-linejoin:round;stroke-opacity:0;paint-order:stroke fill markers;fill-opacity:1"
       d="M 49 5 L 49 17 L 61 17 L 61 5 L 49 5 z " />
  </g>
  <g
     id="media-skip-forward">
    <rect
       y="2.4414063e-05"
       width="22"
       height="22"
       opacity="0.00100002"
       id="rect15"
       x="66"
       style="fill:#000000" />
    <path
       id="rect883"
       style="opacity:1;fill:#000000;stroke-width:50;stroke-linecap:round;stroke-linejoin:round;stroke-opacity:0;paint-order:stroke fill markers;fill-opacity:1"
       d="M 69 7 L 69 15 L 76 11 L 69 7 z M 76 11 L 76 15 L 83 11 L 76 7 L 76 11 z M 83 11 L 83 15 L 85 15 L 85 7 L 83 7 L 83 11 z " />
  </g>
  <g
     id="media-skip-backward">
    <rect
       y="2.4414063e-05"
       width="22"
       height="22"
       opacity="0.00100002"
       id="rect20"
       x="-110"
       style="fill:#000000"
       transform="scale(-1,1)" />
    <path
       id="rect885"
       style="opacity:1;fill:#000000;stroke-width:50;stroke-linecap:round;stroke-linejoin:round;stroke-opacity:0;paint-order:stroke fill markers;fill-opacity:1"
       d="M 91 7 L 91 15 L 93 15 L 93 11 L 93 7 L 91 7 z M 93 11 L 100 15 L 100 11 L 100 7 L 93 11 z M 100 11 L 107 15 L 107 7 L 100 11 z " />
  </g>
  <g
     id="media-seek-forward">
    <rect
       y="2.4414063e-05"
       width="22"
       height="22"
       opacity="0.00100002"
       id="rect25"
       x="110"
       style="fill:#000000" />
    <path
       id="rect887"
       style="opacity:1;fill:#000000;stroke-width:50;stroke-linecap:round;stroke-linejoin:round;stroke-opacity:0;paint-order:stroke fill markers;fill-opacity:1"
       d="M 114 7 L 114 15 L 121 11 L 114 7 z M 121 11 L 121 15 L 128 11 L 121 7 L 121 11 z " />
  </g>
  <g
     id="media-seek-backward">
    <rect
       y="2.4414063e-05"
       width="22"
       height="22"
       opacity="0.00100002"
       id="rect30"
       x="-154"
       style="fill:#000000"
       transform="scale(-1,1)" />
    <path
       id="rect889"
       style="opacity:1;fill:#000000;stroke-width:50;stroke-linecap:round;stroke-linejoin:round;stroke-opacity:0;paint-order:stroke fill markers;fill-opacity:1"
       d="M 143 7 L 136 11 L 143 15 L 143 11 L 143 7 z M 143 11 L 150 15 L 150 7 L 143 11 z " />
  </g>
  <g
     id="media-record">
    <rect
       y="2.4414063e-05"
       width="22"
       height="22"
       opacity="0.00100002"
       id="rect5"
       x="22"
       style="fill:#000000" />
    <path
       class="ColorScheme-Highlight"
       d="m 33,5 c -3.311,0 -6,2.6888 -6,6 0,3.311 2.689,6 6,6 3.311,0 6,-2.689 6,-6 0,-3.3112 -2.689,-6 -6,-6 z"
       enable-background="new"
       fill="#f96060"
       id="path7"
       style="fill:#ff3232;fill-opacity:1" />
  </g>
  <g
     transform="translate(0.1407986,4.5997507)"
     id="media-playback-stopped">
    <rect
       style="color:#dedede;stroke-width:1.5"
       x="48.858952"
       y="28.4"
       width="22.0005"
       height="22.0005"
       fill="#ed1515"
       fill-opacity="0.00392163"
       opacity="0.01"
       id="rect60" />
    <g
       id="g960"
       transform="translate(-1.1407986,-18.599751)">
      <circle
         r="8.4375"
         cy="58"
         cx="61"
         id="path904"
         style="opacity:1;fill:none;stroke:#000000;stroke-width:1.125;stroke-linecap:round;stroke-miterlimit:4;stroke-dasharray:none;stroke-opacity:1" />
      <path
         sodipodi:nodetypes="ccccc"
         d="m 58,55 v 6 h 6 v -6 z"
         style="opacity:1;fill:#000000;fill-opacity:1;stroke:none;stroke-width:1;stroke-linecap:round;stroke-miterlimit:4;stroke-dasharray:none;stroke-opacity:1"
         id="rect914" />
    </g>
  </g>
  <g
     transform="translate(0.1412506,4.5997507)"
     id="media-playback-playing">
    <rect
       style="color:#dedede;stroke-width:1.5"
       x="24.8585"
       y="28.4"
       width="22.0005"
       height="22.0005"
       fill="#ed1515"
       fill-opacity="0.00392163"
       opacity="0.01"
       id="rect55" />
    <g
       id="g956"
       transform="translate(-1.1412506,-18.599751)">
      <circle
         style="opacity:1;fill:none;stroke:#000000;stroke-width:1.125;stroke-linecap:round;stroke-miterlimit:4;stroke-dasharray:none;stroke-opacity:1"
         id="circle922"
         cx="37"
         cy="58"
         r="8.4375" />
      <path
         sodipodi:nodetypes="cccc"
         d="m 35,55 v 6 l 4,-3 z"
         style="opacity:1;fill:#000000;fill-opacity:1;stroke:none;stroke-width:1;stroke-linecap:round;stroke-miterlimit:4;stroke-dasharray:none;stroke-opacity:1"
         id="rect932" />
    </g>
  </g>
  <g
     transform="translate(0.14090031,4.5997507)"
     id="media-playback-paused">
    <rect
       style="color:#dedede;stroke-width:1.5"
       x="0.85884982"
       y="28.4"
       width="22.0005"
       height="22.0005"
       fill="#ed1515"
       fill-opacity="0.00392163"
       opacity="0.01"
       id="rect50" />
    <g
       id="g952"
       transform="translate(-0.14090031,-18.599751)">
      <circle
         r="8.4375"
         cy="58"
         cx="12"
         id="circle936"
         style="opacity:1;fill:none;stroke:#000000;stroke-width:1.125;stroke-linecap:round;stroke-miterlimit:4;stroke-dasharray:none;stroke-opacity:1" />
      <path
         sodipodi:nodetypes="cccccccccc"
         d="m 9,55 v 6 h 2 v -6 z m 4,0 v 6 h 2 v -6 z"
         style="opacity:1;fill:#000000;fill-opacity:1;stroke:none;stroke-width:1;stroke-linecap:round;stroke-miterlimit:4;stroke-dasharray:none;stroke-opacity:1"
         id="rect946" />
    </g>
  </g>
</svg>
