<?xml version="1.0" encoding="UTF-8" standalone="no"?>
<svg
   xmlns:dc="http://purl.org/dc/elements/1.1/"
   xmlns:cc="http://creativecommons.org/ns#"
   xmlns:rdf="http://www.w3.org/1999/02/22-rdf-syntax-ns#"
   xmlns:svg="http://www.w3.org/2000/svg"
   xmlns="http://www.w3.org/2000/svg"
   xmlns:sodipodi="http://sodipodi.sourceforge.net/DTD/sodipodi-0.dtd"
   xmlns:inkscape="http://www.inkscape.org/namespaces/inkscape"
   width="124"
   height="52"
   version="1.1"
   viewBox="0 0 32.808 13.758"
   id="svg133"
   sodipodi:docname="configuration-icons.svg"
   inkscape:version="0.92.4 5da689c313, 2019-01-14">
  <metadata
     id="metadata137">
    <rdf:RDF>
      <cc:Work
         rdf:about="">
        <dc:format>image/svg+xml</dc:format>
        <dc:type
           rdf:resource="http://purl.org/dc/dcmitype/StillImage" />
      </cc:Work>
    </rdf:RDF>
  </metadata>
  <sodipodi:namedview
     pagecolor="#ffffff"
     bordercolor="#666666"
     borderopacity="1"
     objecttolerance="10"
     gridtolerance="10"
     guidetolerance="10"
     inkscape:pageopacity="0"
     inkscape:pageshadow="2"
     inkscape:window-width="1920"
     inkscape:window-height="1019"
     id="namedview135"
     showgrid="false"
     inkscape:zoom="5.5"
     inkscape:cx="17.471081"
     inkscape:cy="25.800433"
     inkscape:window-x="0"
     inkscape:window-y="36"
     inkscape:window-maximized="1"
     inkscape:current-layer="svg133" />
  <defs
     id="defs3">
    <style
       id="current-color-scheme"
       type="text/css">.ColorScheme-Text {
        color:#31363b;
        stop-color:#31363b;
      }
      .ColorScheme-Background {
        color:#eff0f1;
        stop-color:#eff0f1;
      }
      .ColorScheme-Highlight {
        color:#3daee9;
        stop-color:#3daee9;
      }
      .ColorScheme-ViewText {
        color:#31363b;
        stop-color:#31363b;
      }
      .ColorScheme-ViewBackground {
        color:#fcfcfc;
        stop-color:#fcfcfc;
      }
      .ColorScheme-ViewHover {
        color:#93cee9;
        stop-color:#93cee9;
      }
      .ColorScheme-ViewFocus{
        color:#3daee9;
        stop-color:#3daee9;
      }
      .ColorScheme-ButtonText {
        color:#31363b;
        stop-color:#31363b;
      }
      .ColorScheme-ButtonBackground {
        color:#eff0f1;
        stop-color:#eff0f1;
      }
      .ColorScheme-ButtonHover {
        color:#93cee9;
        stop-color:#93cee9;
      }
      .ColorScheme-ButtonFocus{
        color:#3daee9;
        stop-color:#3daee9;
      }</style>
  </defs>
  <g
     id="menu"
     transform="translate(0.52917,-249.37)">
    <rect
       style="fill:none"
       id="rect5"
       height="4.2333002"
       width="4.2333002"
       y="249.37"
       x="-0.52916998" />
    <rect
       style="fill:none"
       id="rect7"
       height="3.175"
       width="3.175"
       y="249.89999"
       x="-1.0174e-06" />
    <path
       inkscape:connector-curvature="0"
       style="color:#31363b;fill:#323232;fill-opacity:1"
       id="path9"
       d="m 4.5328e-8,250.17 v 0.52917 H 3.175 V 250.17 Z m 0,1.0583 v 0.52917 H 3.175 v -0.52917 z m 0,1.0583 v 0.52916 H 3.175 v -0.52916 z"
       class="ColorScheme-Text" />
  </g>
  <g
     id="collapse"
     transform="translate(0.52917,-249.37)">
    <rect
       style="fill:none"
       id="rect12"
       height="4.2333002"
       width="4.2333002"
       y="254.14"
       x="23.283001" />
    <rect
       style="fill:none"
       id="rect14"
       height="3.175"
       width="3.175"
       y="254.67"
       x="23.813" />
    <path
       inkscape:connector-curvature="0"
       style="color:#31363b;fill:#323232;fill-opacity:1"
       id="path16"
       d="m 24.606,254.67 0.79375,0.79375 0.79375,-0.79375 z m -1.0583,1.3229 v 0.52917 h 3.7042 v -0.52917 z m 1.8521,1.0583 -0.79375,0.79375 h 1.5875 z"
       class="ColorScheme-Text" />
  </g>
  <g
     transform="translate(0.52917007,-249.63454)"
     id="return-to-source">
    <rect
       style="fill:none"
       id="rect19"
       height="4.2333002"
       width="4.2333002"
       y="254.14"
       x="18.521" />
    <path
       inkscape:connector-curvature="0"
       style="color:#31363b;fill:#323232;fill-opacity:1"
       id="path21"
       d="m 74,19 c -0.554,0 -1,0.44599 -1,1 v 12 c 0,0.55401 0.446,1 1,1 h 12 c 0.554,0 1,-0.44599 1,-1 V 20 c 0,-0.55401 -0.446,-1 -1,-1 z m 4,2 h 4 l -2,2 z m -3,4 h 10 v 2 H 75 Z m 5,4 2,2 h -4 z"
       transform="matrix(0.26458,0,0,0.26458,-0.52917,249.37)" />
  </g>
  <g
     id="restore"
     transform="translate(0.52917,-249.37)">
    <rect
       style="fill:none"
       id="rect24"
       height="4.2333002"
       width="4.2333002"
       y="254.14"
       x="28.046" />
    <rect
       style="fill:none"
       id="rect26"
       height="3.175"
       width="3.175"
       y="254.67"
       x="28.575001" />
    <path
       inkscape:connector-curvature="0"
       style="color:#31363b;fill:#323232;fill-opacity:1"
       id="path28"
       d="m 29.369,255.46 0.79376,-0.79375 0.79374,0.79375 z m -1.0583,0.52917 v 0.52917 h 3.7042 v -0.52917 z m 1.8521,1.8521 -0.79376,-0.79375 h 1.5875 z"
       class="ColorScheme-Text" />
  </g>
  <g
     style="enable-background:new"
     transform="matrix(0.26458,0,0,0.26458,-123.81083,-26.64)"
     id="configure">
    <path
       inkscape:connector-curvature="0"
       style="fill:#323232;fill-opacity:1;enable-background:new"
       id="path31"
       d="m 491.19,101.72 -0.1543,1.8438 a 5.5,5.5 0 0 0 -1.6074,0.92969 l -1.6758,-0.78906 -1.75,3.0312 1.5215,1.0566 a 5.5,5.5 0 0 0 -0.084,0.92773 5.5,5.5 0 0 0 0.0801,0.93164 l -1.5176,1.0527 1.75,3.0312 1.6719,-0.7871 a 5.5,5.5 0 0 0 1.6113,0.92382 l 0.1543,1.8477 h 3.5 l 0.1543,-1.8438 a 5.5,5.5 0 0 0 1.6074,-0.92969 l 1.6758,0.78906 1.75,-3.0312 -1.5215,-1.0566 a 5.5,5.5 0 0 0 0.084,-0.92773 5.5,5.5 0 0 0 -0.0801,-0.93164 l 1.5176,-1.0527 -1.75,-3.0312 -1.6719,0.7871 a 5.5,5.5 0 0 0 -1.6113,-0.92382 L 494.69,101.72 Z m 1.75,5 a 2,2 0 0 1 2,2 2,2 0 0 1 -2,2 2,2 0 0 1 -2,-2 2,2 0 0 1 2,-2 z" />
    <rect
       style="color:#bebebe;fill:none;enable-background:accumulate"
       id="rect33"
       height="16"
       width="16"
       y="100.72"
       x="484.94" />
  </g>
  <g
     style="enable-background:new"
     transform="matrix(0.26458,0,0,0.26458,-102.39083,10.33)"
     id="rotate">
    <path
       inkscape:connector-curvature="0"
       style="fill:#323232;fill-opacity:1"
       id="path36"
       d="m 192,435 c -3.866,0 -7,3.134 -7,7 0,3.866 3.134,7 7,7 3.1748,0 5.8615,-2.1032 6.7188,-5 h -2.1562 c -0.77427,1.7595 -2.5168,3 -4.5625,3 -2.7614,0 -5,-2.2386 -5,-5 0,-2.7614 2.2386,-5 5,-5 2.0457,0 3.7882,1.2405 4.5625,3 h 2.1562 c -0.85721,-2.8968 -3.5439,-5 -6.7188,-5 z"
       transform="translate(241,-473)" />
    <rect
       style="color:#bebebe;fill:none"
       id="rect38"
       height="16"
       width="16"
       y="23.016001"
       x="-441"
       transform="scale(-1)" />
    <path
       inkscape:connector-curvature="0"
       style="fill:#323232;fill-opacity:1"
       id="path40"
       d="m 193,441 6,-6 v 6 z"
       transform="translate(241,-473)" />
  </g>
  <g
     style="enable-background:new"
     transform="matrix(0.26458,0,0,0.26458,-49.47783,5.3)"
     id="move">
    <path
       inkscape:connector-curvature="0"
       style="fill:#323232;fill-opacity:1"
       id="path43"
       d="M 253,-4.5 250,-8 h 2 v -2 h 2 v 2 h 2 z" />
    <rect
       style="color:#bebebe;fill:none;enable-background:new"
       id="rect45"
       height="16"
       width="16"
       y="245"
       x="-20.018999"
       transform="matrix(0,1,1,0,0,0)" />
    <g
       style="fill:#323232;fill-opacity:1"
       id="g53">
      <path
         inkscape:connector-curvature="0"
         style="fill:#323232;fill-opacity:1"
         id="path47"
         d="m 253,-19.5 -3,3.5 h 2 v 2 h 2 v -2 h 2 z" />
      <path
         inkscape:connector-curvature="0"
         style="fill:#323232;fill-opacity:1"
         id="path49"
         d="m 260.5,-12 -3.5,-3 v 2 h -2 v 2 h 2 l -4e-5,2 z" />
      <path
         inkscape:connector-curvature="0"
         style="fill:#323232;fill-opacity:1"
         id="path51"
         d="m 245.5,-12 3.5,-3 v 2 h 2 v 2 h -2 l -4e-5,2 z" />
    </g>
  </g>
  <g
     style="enable-background:new"
     transform="matrix(0.26458,0,0,0.26458,-49.21283,-208.488)"
     id="size-vertical">
    <path
       inkscape:connector-curvature="0"
       style="fill:#323232;fill-opacity:1"
       id="path56"
       d="m 252,474 -3,5 h 2 v 6 h -2 l 3,5 3,-5 h -2 v -6 h 2 z"
       transform="translate(17,313)" />
    <rect
       style="color:#bebebe;fill:none"
       id="rect58"
       height="16"
       width="16"
       y="-803"
       x="-277"
       transform="scale(-1)" />
  </g>
  <g
     style="enable-background:new"
     transform="matrix(0.26458,0,0,0.26458,-39.15783,-209.017)"
     id="size-horizontal">
    <path
       inkscape:connector-curvature="0"
       style="fill:#323232;fill-opacity:1"
       id="path61"
       d="m 229,479 -5,3 5,3 v -2 h 6 v 2 l 5,-3 -5,-3 v 2 h -6 z"
       transform="translate(17,313)" />
    <rect
       style="color:#bebebe;fill:none"
       id="rect63"
       height="16"
       width="16"
       y="-803"
       x="-257"
       transform="scale(-1)" />
  </g>
  <g
     style="enable-background:new"
     transform="matrix(0.26458,0,0,0.26458,-77.25783,-7.67)"
     id="size-diagonal-tr2bl">
    <path
       inkscape:connector-curvature="0"
       style="color:#bebebe;fill:#323232;fill-opacity:1"
       id="path66"
       d="m 403,31.003 c -1,0 -1,1 -1,1 v 4 h 2 v -3 h 3 v -2 z m 8,0 v 2 h 3 v 3 h 2 v -4 c 0,-1 -1,-1 -1,-1 z m -9,7 v 4 c 0,1 1,1 1,1 h 4 v -2 h -3 v -3 z m 12,0 v 3 h -3 v 2 h 4 c 0,0 1,0 1,-1 v -4 z" />
    <rect
       style="fill:none"
       id="rect68"
       ry="0"
       rx="0"
       height="16"
       width="15.982"
       y="29"
       x="401" />
  </g>
  <g
     style="enable-background:new"
     transform="matrix(0.26458,0,0,0.26458,-105.83083,-3.17)"
     id="size-diagonal-tl2br">
    <path
       inkscape:connector-curvature="0"
       style="color:#bebebe;fill:#323232;fill-opacity:1"
       id="path71"
       d="m 403,31.003 c -1,0 -1,1 -1,1 v 4 h 2 v -3 h 3 v -2 z m 8,0 v 2 h 3 v 3 h 2 v -4 c 0,-1 -1,-1 -1,-1 z m -9,7 v 4 c 0,1 1,1 1,1 h 4 v -2 h -3 v -3 z m 12,0 v 3 h -3 v 2 h 4 c 0,0 1,0 1,-1 v -4 z" />
    <rect
       style="fill:none"
       id="rect73"
       ry="0"
       rx="0"
       height="16"
       width="15.982"
       y="29"
       x="401" />
  </g>
  <g
     style="enable-background:new"
     transform="matrix(0.26458,0,0,0.26458,-101.07083,-2.91)"
     id="maximize">
    <path
       inkscape:connector-curvature="0"
       style="color:#bebebe;fill:#323232;fill-opacity:1"
       id="path76"
       d="m 403,31.003 c -1,0 -1,1 -1,1 v 4 h 2 v -3 h 3 v -2 z m 8,0 v 2 h 3 v 3 h 2 v -4 c 0,-1 -1,-1 -1,-1 z m -9,7 v 4 c 0,1 1,1 1,1 h 4 v -2 h -3 v -3 z m 12,0 v 3 h -3 v 2 h 4 c 0,0 1,0 1,-1 v -4 z" />
    <rect
       style="fill:none"
       id="rect78"
       ry="0"
       rx="0"
       height="16"
       width="15.982"
       y="29"
       x="401" />
  </g>
  <g
     style="enable-background:new"
     transform="matrix(0.26458,0,0,0.26458,-96.04183,-3.43)"
     id="unmaximize">
    <path
       inkscape:connector-curvature="0"
       style="color:#bebebe;fill:#323232;fill-opacity:1"
       id="path81"
       d="m 412,38.003 c 0,0 -1,0 -1,1 v 4 h 2 v -3 h 3 v -2 z m -10,0 v 2 h 3 v 3 h 2 v -4 c 0,0 0,-1 -1,-1 z m 9,-7 v 4 c 0,0 0,1 1,1 h 4 v -2 h -3 v -3 z m -6,0 v 3 h -3 v 2 h 4 c 1,0 1,-1 1,-1 v -4 z" />
    <rect
       style="fill:none"
       id="rect83"
       ry="0"
       rx="0"
       height="16"
       width="15.982"
       y="29"
       x="401" />
  </g>
  <g
     style="enable-background:new"
     transform="matrix(-0.26458,0,0,0.26458,88.90017,35.72)"
     id="status">
    <rect
       style="color:#bebebe;opacity:0;stroke-width:3;enable-background:accumulate"
       id="rect86"
       height="16"
       width="16"
       y="103.03"
       x="265"
       transform="scale(1,-1)" />
    <path
       inkscape:connector-curvature="0"
       style="fill:#323232;fill-opacity:1"
       id="path88"
       d="m 146,600 c -0.554,0 -1,0.446 -1,1 v 10 c 0,0.554 0.446,1 1,1 h 12 c 0.554,0 1,-0.446 1,-1 v -10 c 0,-0.554 -0.446,-1 -1,-1 z m 1,8 h 10 v 2 h -10 z"
       transform="matrix(-1,0,0,1,425,-717)" />
  </g>
  <g
     style="enable-background:new"
     transform="matrix(0.26458,0,0,0.26458,-112.18083,-57.68)"
     id="delete">
    <rect
       style="color:#000000;fill:none;enable-background:new"
       id="rect91"
       height="16"
       width="16"
       y="255.00999"
       x="441" />
    <path
       inkscape:connector-curvature="0"
       id="path93"
       style="color:#000000;text-indent:0;text-decoration:none;text-decoration-line:none;text-transform:none;fill:#323232;fill-opacity:1;enable-background:accumulate"
       d="m 429,86 v 9 c 5e-5,0.52358 0.47642,0.99995 1,1 h 8 1 c 0.52358,-5e-5 0.99995,-0.47642 1,-1 v -9 z"
       transform="translate(14,174)" />
    <path
       inkscape:connector-curvature="0"
       id="path95"
       style="color:#000000;text-indent:0;text-decoration:none;text-decoration-line:none;text-transform:none;fill:#323232;fill-opacity:1;enable-background:accumulate"
       d="m 442,258 v 1 l 13,-0.003 -2e-4,-0.99664 c 0,-1 -0.9998,-1.0034 -0.9998,-1.0034 h -3 c 0,0 0,-1 -1,-1 h -3 c -1,0 -1,1 -1,1 h -3 c 0,0 -1.0002,0.003 -1.0002,1.0034 z" />
  </g>
  <g
     style="enable-background:new"
     transform="matrix(0.26458,0,0,0.26458,-6.35013,-214.308)"
     id="add">
    <rect
       style="color:#bebebe;fill:none"
       id="rect98"
       height="16"
       width="16"
       y="847"
       x="61" />
    <path
       inkscape:connector-curvature="0"
       style="color:#bebebe;fill:#323232;fill-opacity:1"
       id="path100"
       d="m 68,850 v 4 h -4 v 2 h 4 v 4 h 2 v -4 h 4 v -2 h -4 v -4 z" />
  </g>
  <g
     style="enable-background:new"
     transform="matrix(0.26458,0,0,0.26458,9.26047,-63.76)"
     id="remove">
    <rect
       style="color:#bebebe;fill:none"
       id="rect103"
       height="16"
       width="16"
       y="276"
       x="20" />
    <rect
       style="color:#bebebe;fill:#323232;fill-opacity:1"
       id="rect105"
       height="2.0002"
       width="9.9996004"
       y="283"
       x="23" />
  </g>
  <g
     transform="translate(-0.26465,-248.84082)"
     id="filter">
    <rect
       style="fill:none"
       id="rect108"
       height="4.2329998"
       width="4.2329998"
       y="258.89999"
       x="18.52" />
    <rect
       style="fill:none"
       id="rect110"
       height="3.175"
       width="3.175"
       y="259.42999"
       x="19.049999" />
    <path
       inkscape:connector-curvature="0"
       style="fill:#323232;fill-opacity:1"
       id="path112"
       d="m 76.305,57.787 -1,1 v 1 l 3,5.2598 v 2.7422 l 3,1.9961 v 0.002 h 1 v -4.7402 l 3,-5.2598 v -1 l -1,-1 h -8 z m 1,2 h 3 l -1,1 v 1 z"
       transform="matrix(0.26458,0,0,0.26458,-0.60971,244.14)" />
  </g>
  <g
     transform="translate(-0.26466,-248.84082)"
     id="help">
    <rect
       style="opacity:0"
       id="rect115"
       height="4.2329998"
       width="4.2329998"
       y="258.89999"
       x="-0.52999997" />
    <g
       id="g119"
       transform="matrix(0.26458,0,0,0.26458,-118,149.89)">
      <path
         inkscape:connector-curvature="0"
         style="fill:#323232;fill-opacity:1"
         id="path117"
         d="m 453,427 h -2 v -2 h 2 z m 2.07,-7.75 -0.9,0.92 C 453.45,420.9 453,421.5 453,423 h -2 v -0.5 c 0,-1.1 0.45,-2.1 1.17,-2.83 l 1.24,-1.26 c 0.37,-0.36 0.59,-0.86 0.59,-1.41 0,-1.1 -0.9,-2 -2,-2 -1.1,0 -2,0.9 -2,2 h -2 c 0,-2.21 1.79,-4 4,-4 2.21,0 4,1.79 4,4 0,0.88 -0.36,1.68 -0.93,2.25 z" />
    </g>
  </g>
  <g
     transform="matrix(0.26458,0,0,0.26458,-11.37683,-4.76)"
     id="close">
    <rect
       style="opacity:0.00100002"
       id="rect122"
       height="16"
       width="16"
       y="55.990002"
       x="130" />
    <g
       style="enable-background:new"
       id="g128"
       transform="matrix(1.4994,0,0,1.5,36.042,-724.98)">
      <g
         id="g126"
         transform="translate(19,-242)">
        <path
           inkscape:connector-curvature="0"
           style="fill:#323232;fill-opacity:1"
           id="path124"
           d="m 45,764 h 1 c 0.01037,-1.2e-4 0.02079,-4.6e-4 0.03125,0 0.25495,0.0112 0.50987,0.12858 0.6875,0.3125 l 2.2812,2.2812 2.3125,-2.2812 c 0.26562,-0.2305 0.44667,-0.3055 0.6875,-0.3125 h 1 v 1 c 0,0.28647 -0.03434,0.55065 -0.25,0.75 l -2.2812,2.2812 2.25,2.25 c 0.18819,0.18817 0.28124,0.45345 0.28125,0.71875 v 1 h -1 c -0.2653,-10e-6 -0.53059,-0.0931 -0.71875,-0.28125 l -2.2812,-2.2812 -2.2812,2.2812 c -0.18816,0.18819 -0.45346,0.28125 -0.71875,0.28125 h -1 v -1 c -3e-6,-0.26529 0.09306,-0.53058 0.28125,-0.71875 l 2.2812,-2.25 -2.2812,-2.2812 C 45.07061,765.55537 44.97819,765.28075 45.0001,765 Z" />
      </g>
    </g>
  </g>
</svg>
