<?xml version="1.0" encoding="UTF-8" standalone="no"?>
<svg
   xmlns:dc="http://purl.org/dc/elements/1.1/"
   xmlns:cc="http://creativecommons.org/ns#"
   xmlns:rdf="http://www.w3.org/1999/02/22-rdf-syntax-ns#"
   xmlns:svg="http://www.w3.org/2000/svg"
   xmlns="http://www.w3.org/2000/svg"
   xmlns:sodipodi="http://sodipodi.sourceforge.net/DTD/sodipodi-0.dtd"
   xmlns:inkscape="http://www.inkscape.org/namespaces/inkscape"
   width="17"
   height="17"
   version="1.0"
   id="svg17"
   sodipodi:docname="toolbar.svg"
   inkscape:version="0.92.4 5da689c313, 2019-01-14">
  <metadata
     id="metadata21">
    <rdf:RDF>
      <cc:Work
         rdf:about="">
        <dc:format>image/svg+xml</dc:format>
        <dc:type
           rdf:resource="http://purl.org/dc/dcmitype/StillImage" />
        <dc:title></dc:title>
      </cc:Work>
    </rdf:RDF>
  </metadata>
  <sodipodi:namedview
     pagecolor="#c8c8c8"
     bordercolor="#666666"
     borderopacity="1"
     objecttolerance="10"
     gridtolerance="10"
     guidetolerance="10"
     inkscape:pageopacity="0"
     inkscape:pageshadow="2"
     inkscape:window-width="1920"
     inkscape:window-height="1019"
     id="namedview19"
     showgrid="false"
     inkscape:zoom="8.2807015"
     inkscape:cx="-27.266425"
     inkscape:cy="39.699717"
     inkscape:window-x="0"
     inkscape:window-y="36"
     inkscape:window-maximized="1"
     inkscape:current-layer="svg17" />
  <defs
     id="defs3">
    <style
       id="current-color-scheme"
       type="text/css">.ColorScheme-Text {
        color:#31363b;
        stop-color:#31363b;
      }
      .ColorScheme-Background {
        color:#eff0f1;
        stop-color:#eff0f1;
      }
      .ColorScheme-Highlight {
        color:#3daee9;
        stop-color:#3daee9;
      }
      .ColorScheme-ViewText {
        color:#31363b;
        stop-color:#31363b;
      }
      .ColorScheme-ViewBackground {
        color:#fcfcfc;
        stop-color:#fcfcfc;
      }
      .ColorScheme-ViewHover {
        color:#93cee9;
        stop-color:#93cee9;
      }
      .ColorScheme-ViewFocus{
        color:#3daee9;
        stop-color:#3daee9;
      }
      .ColorScheme-ButtonText {
        color:#31363b;
        stop-color:#31363b;
      }
      .ColorScheme-ButtonBackground {
        color:#eff0f1;
        stop-color:#eff0f1;
      }
      .ColorScheme-ButtonHover {
        color:#93cee9;
        stop-color:#93cee9;
      }
      .ColorScheme-ButtonFocus{
        color:#3daee9;
        stop-color:#3daee9;
      }</style>
  </defs>
  <rect
     id="hint-tile-center"
     x="-2.3777118"
     y="-4.1456828"
     width="2.0329001"
     height="2.0771"
     rx="0"
     ry="2.0771"
     style="fill:#4e9a06" />
  <path
     style="color:#fcfcfc;opacity:0.5;fill:#969696;fill-opacity:1"
     inkscape:connector-curvature="0"
     d="M 3.3619881,3.1949164 V 14.194916 H 14.361988 V 3.1949164 Z"
     class="ColorScheme-ViewBackground"
     id="center" />
  <path
     style="color:#fcfcfc;opacity:0.5;fill:#969696;fill-opacity:1"
     inkscape:connector-curvature="0"
     d="M 14.362288,3.1949164 V 14.194916 h 2 c 6.68e-4,-0.0183 0,-0.0344 0,-0.0529 V 3.2480164 c 0,-0.0185 6.68e-4,-0.03453 0,-0.05288 h -2 z"
     class="ColorScheme-ViewBackground"
     id="right" />
  <path
     style="color:#fcfcfc;opacity:0.5;fill:#969696;fill-opacity:1"
     inkscape:connector-curvature="0"
     d="m 3.3619881,1.1949164 v 2 H 14.361988 v -2 c -0.0041,-6.7e-4 0.0042,0 10e-7,0 H 3.3739891 c -0.004,0 -0.008,-6.7e-4 -0.0119,0 z"
     class="ColorScheme-ViewBackground"
     id="top" />
  <path
     style="color:#fcfcfc;opacity:0.5;fill:#969696;fill-opacity:1"
     inkscape:connector-curvature="0"
     d="m 1.3622881,3.1949164 c -6.7e-4,0.01835 0,0.03439 0,0.05288 V 14.141796 c 0,0.0185 -6.7e-4,0.0345 0,0.0529 h 2 V 3.1946964 h -2 z"
     class="ColorScheme-ViewBackground"
     id="left" />
  <path
     style="color:#fcfcfc;opacity:0.5;fill:#969696;fill-opacity:1"
     inkscape:connector-curvature="0"
     d="m 3.3619881,14.194916 v 2 H 14.361988 v -1.9997 z"
     class="ColorScheme-ViewBackground"
     id="bottom" />
  <path
     style="color:#fcfcfc;opacity:0.5;fill:#969696;fill-opacity:1"
     inkscape:connector-curvature="0"
     d="m 1.3619581,1.1949164 v 2 h 1.9998 v -2 c -7.46e-4,-6.7e-4 7.63e-4,0 0,0 h -1.9976 c -7.28e-4,0 -0.0015,-6.7e-4 -0.0022,0 z"
     class="ColorScheme-ViewBackground"
     id="topleft" />
  <path
     style="color:#fcfcfc;opacity:0.5;fill:#969696;fill-opacity:1"
     inkscape:connector-curvature="0"
     d="m 14.362288,1.1952164 v 1.9997 h 1.9998 v -1.9997 c -7.46e-4,-6.7e-4 7.63e-4,0 0,0 h -1.9976 c -7.28e-4,0 -0.0015,-6.7e-4 -0.0022,0 z"
     class="ColorScheme-ViewBackground"
     id="topright" />
  <path
     style="color:#fcfcfc;opacity:0.5;fill:#969696;fill-opacity:1"
     inkscape:connector-curvature="0"
     d="m 14.362288,14.194916 v 1.9997 h 1.9998 v -1.9997 c -7.46e-4,-6.7e-4 7.63e-4,0 0,0 h -1.9976 c -7.28e-4,0 -0.0015,-6.7e-4 -0.0022,0 z"
     class="ColorScheme-ViewBackground"
     id="bottomright" />
  <path
     style="color:#fcfcfc;opacity:0.5;fill:#969696;fill-opacity:1"
     inkscape:connector-curvature="0"
     d="m 1.3619981,14.194916 v 1.9997 h 1.9998 v -1.9997 c -7.46e-4,-6.7e-4 7.63e-4,0 0,0 h -1.9976 c -7.28e-4,0 -0.0015,-6.7e-4 -0.0022,0 z"
     class="ColorScheme-ViewBackground"
     id="bottomleft" />
</svg>
