<?xml version="1.0" encoding="UTF-8" standalone="no"?>
<svg
   xmlns:dc="http://purl.org/dc/elements/1.1/"
   xmlns:cc="http://creativecommons.org/ns#"
   xmlns:rdf="http://www.w3.org/1999/02/22-rdf-syntax-ns#"
   xmlns:svg="http://www.w3.org/2000/svg"
   xmlns="http://www.w3.org/2000/svg"
   xmlns:sodipodi="http://sodipodi.sourceforge.net/DTD/sodipodi-0.dtd"
   xmlns:inkscape="http://www.inkscape.org/namespaces/inkscape"
   version="1.1"
   viewBox="0 0 32 32"
   id="svg15"
   sodipodi:docname="akonadi.svg"
   inkscape:version="0.92.4 5da689c313, 2019-01-14"
   width="32"
   height="32">
  <metadata
     id="metadata19">
    <rdf:RDF>
      <cc:Work
         rdf:about="">
        <dc:format>image/svg+xml</dc:format>
        <dc:type
           rdf:resource="http://purl.org/dc/dcmitype/StillImage" />
        <dc:title></dc:title>
      </cc:Work>
    </rdf:RDF>
  </metadata>
  <sodipodi:namedview
     pagecolor="#c8c8c8"
     bordercolor="#666666"
     borderopacity="1"
     objecttolerance="10"
     gridtolerance="10"
     guidetolerance="10"
     inkscape:pageopacity="0"
     inkscape:pageshadow="2"
     inkscape:window-width="1920"
     inkscape:window-height="1019"
     id="namedview17"
     showgrid="false"
     inkscape:zoom="8.4590922"
     inkscape:cx="-16.504834"
     inkscape:cy="21.100998"
     inkscape:window-x="0"
     inkscape:window-y="36"
     inkscape:window-maximized="1"
     inkscape:current-layer="svg15" />
  <defs
     id="defs3">
    <style
       id="current-color-scheme"
       type="text/css">.ColorScheme-Text{color:#dfdfdf}</style>
  </defs>
  <g
     id="22-22-akonadi">
    <path
       class="ColorScheme-Text"
       d="m -18.237492,13 c -4.418,0 -8,0.895 -8,2 v 12 c 0,1.105 3.582,2 8,2 4.418,0 8,-0.895 8,-2 V 15 c 0,-1.105 -3.582,-2 -8,-2 z m 0,1 c 3.866,0 7,0.448 7,1 0,0.552 -3.134,1 -7,1 -3.866,0 -7,-0.448 -7,-1 0,-0.552 3.134,-1 7,-1 z"
       id="path5"
       style="color:#dfdfdf;fill:#323232;fill-opacity:1"
       inkscape:connector-curvature="0" />
    <path
       d="m -29.237492,10 v 22 h 22 V 10 Z"
       id="path7"
       inkscape:connector-curvature="0"
       style="fill:none" />
  </g>
  <g
     id="akonadi">
    <path
       class="ColorScheme-Text"
       d="M 16,4 C 9.3726,4 4,5.3431 4,7 v 18 c 0,1.6569 5.3726,3 12,3 6.6274,0 12,-1.3431 12,-3 V 7 C 28,5.3431 22.6274,4 16,4 Z m 0,1 C 22.0751,5 27,5.89543 27,7 27,8.10457 22.0751,9 16,9 9.9249,9 5,8.10457 5,7 5,5.89543 9.9249,5 16,5 Z"
       id="path10"
       style="color:#dfdfdf;fill:#323232;fill-opacity:1"
       inkscape:connector-curvature="0" />
    <path
       d="M 0,0 V 32 H 32 V 0 Z"
       id="path12"
       inkscape:connector-curvature="0"
       style="fill:none" />
  </g>
</svg>
