<?xml version="1.0" encoding="UTF-8" standalone="no"?>
<svg
   xmlns:dc="http://purl.org/dc/elements/1.1/"
   xmlns:cc="http://creativecommons.org/ns#"
   xmlns:rdf="http://www.w3.org/1999/02/22-rdf-syntax-ns#"
   xmlns:svg="http://www.w3.org/2000/svg"
   xmlns="http://www.w3.org/2000/svg"
   xmlns:sodipodi="http://sodipodi.sourceforge.net/DTD/sodipodi-0.dtd"
   xmlns:inkscape="http://www.inkscape.org/namespaces/inkscape"
   version="1.1"
   id="svg2"
   viewBox="0 0 32 32"
   sodipodi:docname="akregator.svg"
   inkscape:version="0.92.4 5da689c313, 2019-01-14"
   width="32"
   height="32">
  <metadata
     id="metadata13">
    <rdf:RDF>
      <cc:Work
         rdf:about="">
        <dc:format>image/svg+xml</dc:format>
        <dc:type
           rdf:resource="http://purl.org/dc/dcmitype/StillImage" />
        <dc:title></dc:title>
      </cc:Work>
    </rdf:RDF>
  </metadata>
  <sodipodi:namedview
     pagecolor="#c8c8c8"
     bordercolor="#666666"
     borderopacity="1"
     objecttolerance="10"
     gridtolerance="10"
     guidetolerance="10"
     inkscape:pageopacity="0"
     inkscape:pageshadow="2"
     inkscape:window-width="1920"
     inkscape:window-height="1019"
     id="namedview11"
     showgrid="false"
     inkscape:zoom="4.2295461"
     inkscape:cx="-4.0899497"
     inkscape:cy="20.559925"
     inkscape:window-x="0"
     inkscape:window-y="36"
     inkscape:window-maximized="1"
     inkscape:current-layer="svg2" />
  <defs
     id="defs3051">
    <style
       type="text/css"
       id="current-color-scheme">.ColorScheme-Text{color:#dfdfdf}</style>
  </defs>
  <g
     id="22-22-akregator">
    <path
       id="path7"
       d="m -33.573342,10 v 22 h 22 V 10 Z"
       inkscape:connector-curvature="0"
       style="opacity:1;fill:none" />
    <path
       id="path9"
       d="m -30.573342,13 v 3 a 13,13 0 0 1 13,13 h 3 a 16,16 0 0 0 -16,-16 z m 0,6 v 3 a 7,7 0 0 1 7,7 h 3 a 10,10 0 0 0 -10,-10 z m 2,6 a 2,2 0 0 0 -2,2 2,2 0 0 0 2,2 2,2 0 0 0 2,-2 2,2 0 0 0 -2,-2 z"
       class="ColorScheme-Text"
       style="color:#dfdfdf;fill:#323232;fill-opacity:1;stroke:none"
       inkscape:connector-curvature="0" />
  </g>
  <g
     id="akregator">
    <path
       id="path12"
       d="m 4,4 v 4 a 20,20 0 0 1 20,20 h 4 A 24,24 0 0 0 4,4 Z m 0,8 v 4 a 12,12 0 0 1 12,12 h 4 A 16,16 0 0 0 4,12 Z m 3.5,9 A 3.5,3.5 0 0 0 4,24.5 3.5,3.5 0 0 0 7.5,28 3.5,3.5 0 0 0 11,24.5 3.5,3.5 0 0 0 7.5,21 Z"
       class="ColorScheme-Text"
       style="color:#dfdfdf;fill:#323232;fill-opacity:1;stroke:none"
       inkscape:connector-curvature="0" />
    <path
       id="path14"
       d="M 0,0 V 32 H 32 V 0 Z"
       inkscape:connector-curvature="0"
       style="opacity:1;fill:none" />
  </g>
</svg>
