<?xml version="1.0" encoding="UTF-8" standalone="no"?>
<svg
   xmlns:dc="http://purl.org/dc/elements/1.1/"
   xmlns:cc="http://creativecommons.org/ns#"
   xmlns:rdf="http://www.w3.org/1999/02/22-rdf-syntax-ns#"
   xmlns:svg="http://www.w3.org/2000/svg"
   xmlns="http://www.w3.org/2000/svg"
   xmlns:sodipodi="http://sodipodi.sourceforge.net/DTD/sodipodi-0.dtd"
   xmlns:inkscape="http://www.inkscape.org/namespaces/inkscape"
   width="32"
   height="32"
   version="1.1"
   viewBox="0 0 32 32"
   id="svg19"
   sodipodi:docname="applications.svg"
   inkscape:version="0.92.4 5da689c313, 2019-01-14">
  <metadata
     id="metadata23">
    <rdf:RDF>
      <cc:Work
         rdf:about="">
        <dc:format>image/svg+xml</dc:format>
        <dc:type
           rdf:resource="http://purl.org/dc/dcmitype/StillImage" />
        <dc:title />
      </cc:Work>
    </rdf:RDF>
  </metadata>
  <sodipodi:namedview
     pagecolor="#c8c8c8"
     bordercolor="#666666"
     borderopacity="1"
     objecttolerance="10"
     gridtolerance="10"
     guidetolerance="10"
     inkscape:pageopacity="0"
     inkscape:pageshadow="2"
     inkscape:window-width="1920"
     inkscape:window-height="1011"
     id="namedview21"
     showgrid="true"
     inkscape:snap-bbox="true"
     inkscape:bbox-nodes="true"
     inkscape:object-paths="true"
     inkscape:snap-intersection-paths="true"
     inkscape:snap-bbox-edge-midpoints="true"
     inkscape:zoom="10.429825"
     inkscape:cx="-8.470253"
     inkscape:cy="19.806874"
     inkscape:window-x="0"
     inkscape:window-y="0"
     inkscape:window-maximized="1"
     inkscape:current-layer="svg19">
    <inkscape:grid
       type="xygrid"
       id="grid848" />
  </sodipodi:namedview>
  <defs
     id="defs6">
    <style
       id="current-color-scheme"
       type="text/css">.ColorScheme-Text { color:#dedede; } .ColorScheme-Highlight { color:#5294e2; } .ColorScheme-ButtonBackground { color:#dedede; }</style>
    <filter
       id="a"
       x="-.036"
       y="-.036"
       width="1.072"
       height="1.072"
       color-interpolation-filters="sRGB">
      <feGaussianBlur
         stdDeviation="0.43506"
         id="feGaussianBlur3" />
    </filter>
    <style
       id="style834"
       type="text/css" />
    <style
       id="style825"
       type="text/css" />
    <style
       id="style823"
       type="text/css" />
  </defs>
  <g
     id="applications-other">
    <rect
       x="0"
       y="-3.5527137e-15"
       width="32"
       height="32"
       rx="0"
       ry="0"
       style="opacity:0;stroke-width:2;paint-order:fill markers stroke"
       id="rect8" />
    <path
       id="path846"
       p-id="37099"
       d="m 27.497499,20.60526 c 0,-0.06266 -0.06267,-0.18797 -0.06267,-0.250626 -0.814542,-4.197995 -5.952382,-7.393483 -7.205515,-8.395989 -0.689225,-0.56391 -1.190475,-1.315789 -1.378442,-2.255639 0,-0.18797 -0.06267,-0.3759397 -0.06267,-0.5012531 0,-1.6290725 1.190476,-3.007518 2.819549,-3.2581447 0.187967,0 0.313284,-0.062658 0.50125,-0.062658 0.689225,0 1.315792,0.1879699 1.8797,0.5639099 0.626566,0.4385957 1.378441,1.2531322 1.817041,1.8170422 1.378441,1.6917287 2.380949,4.1353367 2.568925,6.7042587 0,0.313284 0.06267,0.563911 0.06267,0.877193 0,2.443609 -0.751884,4.385964 -0.939851,4.761904 z M 12.459901,11.206765 c -0.125307,0.18797 -0.250625,0.375939 -0.37594,0.501253 -0.56391,0.689222 -1.315784,1.253133 -2.2556337,1.378446 -0.1879749,0 -0.3759422,0.06266 -0.5012586,0.06266 -0.4385913,0 -0.8145336,-0.06266 -1.1904739,-0.250627 C 7.1340853,12.459901 6.3195527,11.582708 6.1315863,10.392232 6.0689133,10.204261 6.0689133,10.016292 6.0689133,9.828321 v 0 c 0,-0.6892231 0.1879663,-1.3157884 0.5639077,-1.8170417 C 7.0087671,7.3847139 7.8859583,6.6328349 8.3872083,6.1942383 10.078941,4.8157918 12.459891,3.7506304 15.028815,3.5626597 15.404757,3.500002 15.71804,3.500002 16.031324,3.500002 h 0.06267 c 2.3183,0 4.198,0.6892232 4.573941,0.8771932 -3.947374,0.6265665 -6.95489,5.0125301 -8.208022,6.8295728 z m -0.814532,8.709272 c 0.689225,0.563909 1.190475,1.253131 1.378442,2.19298 0.06267,0.187971 0.06267,0.37594 0.06267,0.563911 0,1.566417 -1.127816,2.944862 -2.694233,3.195488 -0.187966,0.06266 -0.375941,0.06266 -0.5639083,0.06266 v 0 c -0.6265672,0 -1.2531325,-0.18797 -1.7543911,-0.56391 C 7.4473853,24.991229 6.6955104,24.176693 6.2569105,23.612782 4.8784693,21.921054 3.8133021,19.60276 3.6253358,17.033837 3.5626627,16.657897 3.5626627,16.344615 3.5626627,15.968676 v 0 c 0,-2.255639 0.6892249,-4.072682 0.8771922,-4.448621 0.6265653,4.26065 5.8897231,7.393481 7.2055151,8.395987 z m 8.333331,0.18797 c 0.125309,-0.125313 0.250625,-0.250627 0.375942,-0.37594 0.50125,-0.438597 1.127816,-0.814537 1.817041,-0.877192 0.187967,0 0.375942,-0.06266 0.501249,-0.06266 1.629075,0 3.007516,1.190477 3.320799,2.819549 0,0.18797 0.06267,0.313282 0.06267,0.501251 v 0.06266 c 0,0.689222 -0.187967,1.315788 -0.563909,1.879699 -0.4386,0.626566 -1.253133,1.378446 -1.817039,1.817041 -1.754385,1.378446 -4.135342,2.380951 -6.766916,2.568923 -0.250625,0 -0.563908,0.06266 -0.814542,0.06266 0,0 0,0 0,0 -2.443609,0 -4.448617,-0.75188 -4.824558,-0.939849 1.253133,-0.18797 2.380949,-0.751879 3.446116,-1.503758 2.568925,-1.942355 4.511273,-5.012532 5.263158,-5.95238 z"
       inkscape:connector-curvature="0"
       style="opacity:0.8;fill:#191919;fill-opacity:1;stroke-width:0.02937029" />
  </g>
  <g
     id="22-22-applications-other">
    <rect
       id="rect822"
       style="opacity:0;stroke-width:2;paint-order:fill markers stroke"
       ry="0"
       rx="0"
       height="32"
       width="32"
       y="-3.5527137e-15"
       x="-42" />
    <path
       style="opacity:0.8;fill:#191919;fill-opacity:1;stroke-width:0.02937029"
       inkscape:connector-curvature="0"
       d="m -14.502503,20.60526 c 0,-0.06266 -0.06267,-0.18797 -0.06267,-0.250626 -0.814542,-4.197995 -5.952382,-7.393483 -7.205515,-8.395989 -0.689225,-0.56391 -1.190475,-1.315789 -1.378442,-2.2556388 0,-0.18797 -0.06267,-0.37594 -0.06267,-0.501253 0,-1.6290726 1.190476,-3.0075181 2.819549,-3.2581448 0.187967,0 0.313284,-0.062658 0.50125,-0.062658 0.689225,0 1.315792,0.1879699 1.8797,0.5639099 0.626566,0.4385957 1.378441,1.2531322 1.817041,1.8170422 1.378441,1.6917287 2.380949,4.1353365 2.568925,6.7042585 0,0.313284 0.06267,0.563911 0.06267,0.877193 0,2.443609 -0.751884,4.385964 -0.939851,4.761904 z m -15.037598,-9.398495 c -0.125307,0.18797 -0.250625,0.375939 -0.37594,0.501253 -0.56391,0.689222 -1.315784,1.253133 -2.255634,1.378446 -0.187975,0 -0.375942,0.06266 -0.501258,0.06266 -0.438592,0 -0.814534,-0.06266 -1.190474,-0.250627 -1.00251,-0.438596 -1.817042,-1.315789 -2.005009,-2.506265 -0.06267,-0.187971 -0.06267,-0.37594 -0.06267,-0.5639108 v 0 c 0,-0.689223 0.187967,-1.3157884 0.563908,-1.8170417 0.375946,-0.6265654 1.253137,-1.3784444 1.754387,-1.817041 1.691733,-1.3784465 4.072683,-2.4436079 6.641607,-2.6315786 0.375942,-0.062658 0.689225,-0.062658 1.002509,-0.062658 h 0.06267 c 2.3183,0 4.198,0.6892232 4.573941,0.8771932 -3.947374,0.6265665 -6.95489,5.0125301 -8.208022,6.8295729 z m -0.814532,8.709272 c 0.689225,0.563909 1.190475,1.253131 1.378442,2.19298 0.06267,0.187971 0.06267,0.37594 0.06267,0.563911 0,1.566417 -1.127816,2.944862 -2.694233,3.195488 -0.187966,0.06266 -0.375941,0.06266 -0.563908,0.06266 v 0 c -0.626567,0 -1.253133,-0.18797 -1.754391,-0.56391 -0.626564,-0.375937 -1.378439,-1.190473 -1.817037,-1.754384 -1.378442,-1.691728 -2.44361,-4.010022 -2.631575,-6.578945 -0.06267,-0.37594 -0.06267,-0.689222 -0.06267,-1.065161 v 0 c 0,-2.255639 0.689225,-4.072682 0.877192,-4.448621 0.626565,4.26065 5.889723,7.393481 7.205515,8.395987 z m 8.333331,0.18797 c 0.125309,-0.125313 0.250625,-0.250627 0.375942,-0.37594 0.50125,-0.438597 1.127816,-0.814537 1.817041,-0.877192 0.187967,0 0.375942,-0.06266 0.501249,-0.06266 1.629075,0 3.007516,1.190477 3.320799,2.819549 0,0.18797 0.06267,0.313282 0.06267,0.501251 v 0.06266 c 0,0.689222 -0.187967,1.315788 -0.563909,1.879699 -0.4386,0.626566 -1.253133,1.378446 -1.817039,1.817041 -1.754385,1.378446 -4.135342,2.380951 -6.766916,2.568923 -0.250625,0 -0.563908,0.06266 -0.814542,0.06266 0,0 0,0 0,0 -2.443609,0 -4.448617,-0.75188 -4.824558,-0.939849 1.253133,-0.18797 2.380949,-0.751879 3.446116,-1.503758 2.568925,-1.942355 4.511273,-5.012532 5.263158,-5.95238 z"
       p-id="37099"
       id="path862" />
  </g>
</svg>
