<?xml version="1.0" encoding="UTF-8" standalone="no"?>
<svg
   xmlns:dc="http://purl.org/dc/elements/1.1/"
   xmlns:cc="http://creativecommons.org/ns#"
   xmlns:rdf="http://www.w3.org/1999/02/22-rdf-syntax-ns#"
   xmlns:svg="http://www.w3.org/2000/svg"
   xmlns="http://www.w3.org/2000/svg"
   xmlns:xlink="http://www.w3.org/1999/xlink"
   xmlns:sodipodi="http://sodipodi.sourceforge.net/DTD/sodipodi-0.dtd"
   xmlns:inkscape="http://www.inkscape.org/namespaces/inkscape"
   width="32"
   height="32"
   version="1.1"
   viewBox="0 0 32 32"
   id="svg19"
   sodipodi:docname="applications.svg"
   inkscape:version="0.92.4 5da689c313, 2019-01-14">
  <metadata
     id="metadata23">
    <rdf:RDF>
      <cc:Work
         rdf:about="">
        <dc:format>image/svg+xml</dc:format>
        <dc:type
           rdf:resource="http://purl.org/dc/dcmitype/StillImage" />
        <dc:title />
      </cc:Work>
    </rdf:RDF>
  </metadata>
  <sodipodi:namedview
     pagecolor="#c8c8c8"
     bordercolor="#666666"
     borderopacity="1"
     objecttolerance="10"
     gridtolerance="10"
     guidetolerance="10"
     inkscape:pageopacity="0"
     inkscape:pageshadow="2"
     inkscape:window-width="1920"
     inkscape:window-height="1019"
     id="namedview21"
     showgrid="true"
     inkscape:snap-bbox="true"
     inkscape:bbox-nodes="true"
     inkscape:object-paths="true"
     inkscape:snap-intersection-paths="true"
     inkscape:snap-bbox-edge-midpoints="true"
     inkscape:zoom="7.375"
     inkscape:cx="-45.505505"
     inkscape:cy="24.279994"
     inkscape:window-x="0"
     inkscape:window-y="36"
     inkscape:window-maximized="1"
     inkscape:current-layer="svg19">
    <inkscape:grid
       type="xygrid"
       id="grid848" />
  </sodipodi:namedview>
  <defs
     id="defs6">
    <linearGradient
       inkscape:collect="always"
       id="linearGradient841">
      <stop
         style="stop-color:#7346ff;stop-opacity:1"
         offset="0"
         id="stop837" />
      <stop
         style="stop-color:#4187ff;stop-opacity:1"
         offset="1"
         id="stop839" />
    </linearGradient>
    <style
       id="current-color-scheme"
       type="text/css">.ColorScheme-Text { color:#dedede; } .ColorScheme-Highlight { color:#5294e2; } .ColorScheme-ButtonBackground { color:#dedede; }</style>
    <filter
       id="a"
       x="-.036"
       y="-.036"
       width="1.072"
       height="1.072"
       color-interpolation-filters="sRGB">
      <feGaussianBlur
         stdDeviation="0.43506"
         id="feGaussianBlur3" />
    </filter>
    <style
       id="style834"
       type="text/css" />
    <style
       id="style825"
       type="text/css" />
    <style
       id="style823"
       type="text/css" />
    <linearGradient
       inkscape:collect="always"
       xlink:href="#linearGradient841"
       id="linearGradient843"
       x1="42.66917"
       y1="33.578949"
       x2="72.518791"
       y2="3.5789449"
       gradientUnits="userSpaceOnUse"
       gradientTransform="translate(-41.59398,-2.578947)" />
    <linearGradient
       inkscape:collect="always"
       xlink:href="#linearGradient841"
       id="linearGradient849"
       gradientUnits="userSpaceOnUse"
       gradientTransform="translate(-41.59398,-2.578947)"
       x1="42.66917"
       y1="33.578949"
       x2="72.518791"
       y2="3.5789449" />
  </defs>
  <g
     id="applications-other">
    <rect
       x="-2.7562999e-07"
       y="-1.2834001e-09"
       width="32"
       height="32"
       rx="0"
       ry="0"
       style="opacity:0;stroke-width:2;paint-order:fill markers stroke"
       id="rect8" />
    <path
       style="fill:url(#linearGradient843);fill-opacity:1;stroke-width:0.03524436"
       inkscape:connector-curvature="0"
       d="m 29.797,21.526315 c 0,-0.07519 -0.0752,-0.225564 -0.0752,-0.300751 -0.97745,-5.037595 -7.14286,-8.872181 -8.64662,-10.075189 -0.82707,-0.676692 -1.42857,-1.578947 -1.65413,-2.706767 0,-0.225564 -0.0752,-0.451128 -0.0752,-0.601504 0,-1.954887 1.42857,-3.609022 3.38346,-3.909774 0.22556,0 0.37594,-0.07519 0.6015,-0.07519 0.82707,0 1.57895,0.225564 2.25564,0.676692 0.75188,0.526315 1.65413,1.503759 2.18045,2.180451 1.65413,2.030075 2.85714,4.962406 3.08271,8.045113 0,0.37594 0.0752,0.676692 0.0752,1.052631 0,2.932332 -0.90226,5.263158 -1.12782,5.714286 z M 11.75188,10.248119 c -0.15037,0.225564 -0.30075,0.451127 -0.45113,0.601504 -0.67669,0.827067 -1.57894,1.50376 -2.70676,1.654136 -0.22557,0 -0.45113,0.07519 -0.60151,0.07519 -0.52631,0 -0.97744,-0.07519 -1.42857,-0.300753 C 5.3609,11.75188 4.38346,10.699249 4.1579,9.270677 4.0827,9.045113 4.0827,8.819549 4.0827,8.593985 v 0 c 0,-0.827068 0.22556,-1.578947 0.67669,-2.180451 0.45113,-0.75188 1.50376,-1.654135 2.10526,-2.180451 2.03008,-1.654136 4.88722,-2.93233 7.96993,-3.157895 0.45113,-0.07519 0.82707,-0.07519 1.20301,-0.07519 h 0.0752 c 2.78196,0 5.0376,0.827068 5.48873,1.052632 -4.73685,0.75188 -8.34587,6.015037 -9.84963,8.195488 z m -0.97744,10.451129 c 0.82707,0.676691 1.42857,1.503758 1.65413,2.631578 0.0752,0.225564 0.0752,0.451127 0.0752,0.676692 0,1.8797 -1.35338,3.533835 -3.23308,3.834586 -0.22556,0.07519 -0.45113,0.07519 -0.67669,0.07519 v 0 c -0.75188,0 -1.50376,-0.225564 -2.10527,-0.676692 C 5.73685,26.789474 4.8346,25.81203 4.30828,25.135338 2.65415,23.105263 1.37595,20.323309 1.15039,17.240601 1.07519,16.789473 1.07519,16.413534 1.07519,15.962406 v 0 c 0,-2.706767 0.82707,-4.887218 1.05263,-5.338346 0.75188,5.112782 7.06767,8.87218 8.64662,10.075188 z m 10,0.225563 c 0.15037,-0.150375 0.30075,-0.300752 0.45113,-0.451127 0.6015,-0.526317 1.35338,-0.977445 2.18045,-1.052631 0.22556,0 0.45113,-0.07519 0.6015,-0.07519 1.95489,0 3.60902,1.428572 3.98496,3.383459 0,0.225564 0.0752,0.375939 0.0752,0.601503 v 0.07519 c 0,0.827067 -0.22556,1.578947 -0.67669,2.255639 -0.52632,0.75188 -1.50376,1.654136 -2.18045,2.18045 -2.10526,1.654136 -4.96241,2.857144 -8.1203,3.082708 -0.30075,0 -0.67669,0.07519 -0.97745,0.07519 0,0 0,0 0,0 -2.93233,0 -5.33834,-0.902256 -5.78947,-1.12782 1.50376,-0.225563 2.85714,-0.902255 4.13534,-1.804511 3.08271,-2.330826 5.41353,-6.015037 6.31579,-7.142857 z"
       p-id="37099"
       id="path827" />
  </g>
  <g
     id="22-22-applications-other"
     transform="translate(-42)">
    <rect
       id="rect822"
       style="opacity:0;stroke-width:2;paint-order:fill markers stroke"
       ry="0"
       rx="0"
       height="32"
       width="32"
       y="-3.5527137e-15"
       x="0" />
    <path
       id="path847"
       p-id="37099"
       d="m 29.797,21.526315 c 0,-0.07519 -0.0752,-0.225564 -0.0752,-0.300751 -0.97745,-5.037595 -7.14286,-8.872181 -8.64662,-10.075189 -0.82707,-0.676692 -1.42857,-1.578947 -1.65413,-2.706767 0,-0.225564 -0.0752,-0.451128 -0.0752,-0.601504 0,-1.954887 1.42857,-3.609022 3.38346,-3.909774 0.22556,0 0.37594,-0.07519 0.6015,-0.07519 0.82707,0 1.57895,0.225564 2.25564,0.676692 0.75188,0.526315 1.65413,1.503759 2.18045,2.180451 1.65413,2.030075 2.85714,4.962406 3.08271,8.045113 0,0.37594 0.0752,0.676692 0.0752,1.052631 0,2.932332 -0.90226,5.263158 -1.12782,5.714286 z M 11.75188,10.248119 c -0.15037,0.225564 -0.30075,0.451127 -0.45113,0.601504 -0.67669,0.827067 -1.57894,1.50376 -2.70676,1.654136 -0.22557,0 -0.45113,0.07519 -0.60151,0.07519 -0.52631,0 -0.97744,-0.07519 -1.42857,-0.300753 C 5.3609,11.75188 4.38346,10.699249 4.1579,9.270677 4.0827,9.045113 4.0827,8.819549 4.0827,8.593985 v 0 c 0,-0.827068 0.22556,-1.578947 0.67669,-2.180451 0.45113,-0.75188 1.50376,-1.654135 2.10526,-2.180451 2.03008,-1.654136 4.88722,-2.93233 7.96993,-3.157895 0.45113,-0.07519 0.82707,-0.07519 1.20301,-0.07519 h 0.0752 c 2.78196,0 5.0376,0.827068 5.48873,1.052632 -4.73685,0.75188 -8.34587,6.015037 -9.84963,8.195488 z m -0.97744,10.451129 c 0.82707,0.676691 1.42857,1.503758 1.65413,2.631578 0.0752,0.225564 0.0752,0.451127 0.0752,0.676692 0,1.8797 -1.35338,3.533835 -3.23308,3.834586 -0.22556,0.07519 -0.45113,0.07519 -0.67669,0.07519 v 0 c -0.75188,0 -1.50376,-0.225564 -2.10527,-0.676692 C 5.73685,26.789474 4.8346,25.81203 4.30828,25.135338 2.65415,23.105263 1.37595,20.323309 1.15039,17.240601 1.07519,16.789473 1.07519,16.413534 1.07519,15.962406 v 0 c 0,-2.706767 0.82707,-4.887218 1.05263,-5.338346 0.75188,5.112782 7.06767,8.87218 8.64662,10.075188 z m 10,0.225563 c 0.15037,-0.150375 0.30075,-0.300752 0.45113,-0.451127 0.6015,-0.526317 1.35338,-0.977445 2.18045,-1.052631 0.22556,0 0.45113,-0.07519 0.6015,-0.07519 1.95489,0 3.60902,1.428572 3.98496,3.383459 0,0.225564 0.0752,0.375939 0.0752,0.601503 v 0.07519 c 0,0.827067 -0.22556,1.578947 -0.67669,2.255639 -0.52632,0.75188 -1.50376,1.654136 -2.18045,2.18045 -2.10526,1.654136 -4.96241,2.857144 -8.1203,3.082708 -0.30075,0 -0.67669,0.07519 -0.97745,0.07519 0,0 0,0 0,0 -2.93233,0 -5.33834,-0.902256 -5.78947,-1.12782 1.50376,-0.225563 2.85714,-0.902255 4.13534,-1.804511 3.08271,-2.330826 5.41353,-6.015037 6.31579,-7.142857 z"
       inkscape:connector-curvature="0"
       style="fill:url(#linearGradient849);fill-opacity:1;stroke-width:0.03524436" />
  </g>
</svg>
