<?xml version="1.0" encoding="UTF-8" standalone="no"?>
<svg
   xmlns:dc="http://purl.org/dc/elements/1.1/"
   xmlns:cc="http://creativecommons.org/ns#"
   xmlns:rdf="http://www.w3.org/1999/02/22-rdf-syntax-ns#"
   xmlns:svg="http://www.w3.org/2000/svg"
   xmlns="http://www.w3.org/2000/svg"
   xmlns:xlink="http://www.w3.org/1999/xlink"
   xmlns:sodipodi="http://sodipodi.sourceforge.net/DTD/sodipodi-0.dtd"
   xmlns:inkscape="http://www.inkscape.org/namespaces/inkscape"
   width="32"
   height="32"
   version="1.1"
   id="svg19"
   sodipodi:docname="bookmarks.svg"
   inkscape:version="0.92.4 5da689c313, 2019-01-14">
  <metadata
     id="metadata23">
    <rdf:RDF>
      <cc:Work
         rdf:about="">
        <dc:format>image/svg+xml</dc:format>
        <dc:type
           rdf:resource="http://purl.org/dc/dcmitype/StillImage" />
        <dc:title />
      </cc:Work>
    </rdf:RDF>
  </metadata>
  <sodipodi:namedview
     pagecolor="#c8c8c8"
     bordercolor="#666666"
     borderopacity="1"
     objecttolerance="10"
     gridtolerance="10"
     guidetolerance="10"
     inkscape:pageopacity="0"
     inkscape:pageshadow="2"
     inkscape:window-width="1920"
     inkscape:window-height="1011"
     id="namedview21"
     showgrid="true"
     inkscape:zoom="11.313709"
     inkscape:cx="9.6230098"
     inkscape:cy="18.423827"
     inkscape:window-x="0"
     inkscape:window-y="0"
     inkscape:window-maximized="1"
     inkscape:current-layer="svg19"
     inkscape:snap-bbox="true"
     inkscape:snap-bbox-edge-midpoints="true"
     inkscape:bbox-nodes="true">
    <inkscape:grid
       type="xygrid"
       id="grid819" />
  </sodipodi:namedview>
  <defs
     id="defs6">
    <linearGradient
       inkscape:collect="always"
       id="linearGradient4560">
      <stop
         style="stop-color:#7346ff;stop-opacity:1"
         offset="0"
         id="stop4556" />
      <stop
         style="stop-color:#4187ff;stop-opacity:1"
         offset="1"
         id="stop4558" />
    </linearGradient>
    <style
       id="current-color-scheme"
       type="text/css">.ColorScheme-Text { color:#dedede; } .ColorScheme-Highlight { color:#5294e2; } .ColorScheme-ButtonBackground { color:#dedede; }</style>
    <filter
       id="a"
       x="-.036"
       y="-.036"
       width="1.072"
       height="1.072"
       color-interpolation-filters="sRGB">
      <feGaussianBlur
         stdDeviation="0.43506"
         id="feGaussianBlur3" />
    </filter>
    <style
       id="style835"
       type="text/css" />
    <style
       id="style822"
       type="text/css" />
    <linearGradient
       inkscape:collect="always"
       xlink:href="#linearGradient4560"
       id="linearGradient4562"
       x1="127.14817"
       y1="888.43866"
       x2="931.03821"
       y2="128.24437"
       gradientUnits="userSpaceOnUse" />
    <linearGradient
       inkscape:collect="always"
       xlink:href="#linearGradient4560"
       id="linearGradient830"
       gradientUnits="userSpaceOnUse"
       x1="127.14817"
       y1="888.43866"
       x2="931.03821"
       y2="128.24437" />
  </defs>
  <g
     id="bookmarks">
    <rect
       x="0"
       y="0"
       width="32"
       height="32"
       rx="0"
       ry="0"
       style="opacity:0;stroke-width:2;paint-order:fill markers stroke"
       id="rect8" />
    <g
       style="fill-opacity:1;fill:url(#linearGradient4562)"
       transform="matrix(0.03731854,0,0,0.03731854,-3.7449842,-3.1552344)"
       id="g839">
      <g
         id="g828"
         style="fill:url(#linearGradient830)"
         transform="translate(66.990885,-64.174318)">
        <path
           id="path826"
           p-id="1166"
           d="M 760.94127,466.556 598.69129,425.88934 c -3,-0.75 -5.58333,-2.66666 -7.25,-5.25 L 502.6913,278.9727 c -3.83333,-6.08334 -9,-11.25 -15.08333,-15.08334 -22.33333,-13.99999 -51.83332,-7.24999 -65.83332,15.08334 l -88.91666,141.74998 c -1.66666,2.58333 -4.25,4.5 -7.25,5.25 l -162.24997,40.66666 c -7,1.75 -13.5,5.08333 -19.08334,9.75 -20.24999,16.91666 -22.91666,47.08332 -5.99999,67.33332 l 27.99999,33.5 35.5,3.16666 c 167.99997,15 316.16662,119.66665 386.66661,273.24997 l 15.75,34.24999 17.5,7 c 6.66666,2.66667 13.91666,3.83333 21.16666,3.33333 26.33333,-1.83333 46.16666,-24.58333 44.41666,-50.91666 l -11.5,-166.83331 c -0.25,-3.08333 0.75,-6.08333 2.75,-8.5 L 785.85793,543.72266 c 4.66667,-5.5 7.91667,-12.08333 9.75,-19.08333 6.41667,-25.75 -9.08333,-51.66666 -34.66666,-58.08333 z"
           inkscape:connector-curvature="0"
           style="opacity:0.8;fill:#191919;fill-opacity:1;stroke-width:0.83333319" />
        <path
           id="path828"
           p-id="1167"
           d="m 302.52466,894.80595 155.16665,-62.49999 c 1.41667,-0.58334 2.91667,-0.83334 4.5,-0.83334 1.5,0 3,0.25 4.5,0.83334 l 89.58332,36.08332 C 492.52464,729.47264 357.94132,629.88932 198.85801,615.72265 l 46.99999,56.16666 c 2,2.33333 3,5.41667 2.75,8.5 l -11.58333,166.74998 c -0.5,7.16666 0.66667,14.41666 3.33333,21.16666 7.5,18.58333 25.41667,29.91666 44.33333,29.91666 6,0 12,-1.08333 17.83333,-3.41666 z"
           inkscape:connector-curvature="0"
           style="opacity:0.8;fill:#505050;fill-opacity:1;stroke-width:0.83333319" />
      </g>
    </g>
  </g>
</svg>
