<?xml version="1.0" encoding="UTF-8" standalone="no"?>
<svg
   xmlns:dc="http://purl.org/dc/elements/1.1/"
   xmlns:cc="http://creativecommons.org/ns#"
   xmlns:rdf="http://www.w3.org/1999/02/22-rdf-syntax-ns#"
   xmlns:svg="http://www.w3.org/2000/svg"
   xmlns="http://www.w3.org/2000/svg"
   xmlns:xlink="http://www.w3.org/1999/xlink"
   xmlns:sodipodi="http://sodipodi.sourceforge.net/DTD/sodipodi-0.dtd"
   xmlns:inkscape="http://www.inkscape.org/namespaces/inkscape"
   width="32"
   height="32"
   version="1.1"
   id="svg19"
   sodipodi:docname="bookmarks.svg"
   inkscape:version="0.92.4 5da689c313, 2019-01-14">
  <metadata
     id="metadata23">
    <rdf:RDF>
      <cc:Work
         rdf:about="">
        <dc:format>image/svg+xml</dc:format>
        <dc:type
           rdf:resource="http://purl.org/dc/dcmitype/StillImage" />
        <dc:title></dc:title>
      </cc:Work>
    </rdf:RDF>
  </metadata>
  <sodipodi:namedview
     pagecolor="#c8c8c8"
     bordercolor="#666666"
     borderopacity="1"
     objecttolerance="10"
     gridtolerance="10"
     guidetolerance="10"
     inkscape:pageopacity="0"
     inkscape:pageshadow="2"
     inkscape:window-width="1920"
     inkscape:window-height="1019"
     id="namedview21"
     showgrid="true"
     inkscape:zoom="4.0000002"
     inkscape:cx="-10.017604"
     inkscape:cy="22.763213"
     inkscape:window-x="0"
     inkscape:window-y="36"
     inkscape:window-maximized="1"
     inkscape:current-layer="svg19"
     inkscape:snap-bbox="true"
     inkscape:snap-bbox-edge-midpoints="true"
     inkscape:bbox-nodes="true">
    <inkscape:grid
       type="xygrid"
       id="grid819" />
  </sodipodi:namedview>
  <defs
     id="defs6">
    <linearGradient
       inkscape:collect="always"
       id="linearGradient4560">
      <stop
         style="stop-color:#7346ff;stop-opacity:1"
         offset="0"
         id="stop4556" />
      <stop
         style="stop-color:#4187ff;stop-opacity:1"
         offset="1"
         id="stop4558" />
    </linearGradient>
    <style
       id="current-color-scheme"
       type="text/css">.ColorScheme-Text { color:#dedede; } .ColorScheme-Highlight { color:#5294e2; } .ColorScheme-ButtonBackground { color:#dedede; }</style>
    <filter
       id="a"
       x="-.036"
       y="-.036"
       width="1.072"
       height="1.072"
       color-interpolation-filters="sRGB">
      <feGaussianBlur
         stdDeviation="0.43506"
         id="feGaussianBlur3" />
    </filter>
    <style
       id="style835"
       type="text/css" />
    <style
       id="style822"
       type="text/css" />
    <linearGradient
       inkscape:collect="always"
       xlink:href="#linearGradient4560"
       id="linearGradient4562"
       x1="127.14817"
       y1="888.43866"
       x2="931.03821"
       y2="128.24437"
       gradientUnits="userSpaceOnUse" />
  </defs>
  <g
     id="bookmarks">
    <rect
       x="0"
       y="0"
       width="32"
       height="32"
       rx="0"
       ry="0"
       style="opacity:0;stroke-width:2;paint-order:fill markers stroke"
       id="rect8" />
    <g
       style="fill-opacity:1;fill:url(#linearGradient4562)"
       transform="matrix(0.03731854,0,0,0.03731854,-3.7449842,-3.1552344)"
       id="g839">
      <path
         style="fill:url(#linearGradient4562);fill-opacity:1"
         inkscape:connector-curvature="0"
         d="M 887.7,380.2 693,331.4 c -3.6,-0.9 -6.7,-3.2 -8.7,-6.3 l -106.5,-170 c -4.6,-7.3 -10.8,-13.5 -18.1,-18.1 -26.8,-16.8 -62.2,-8.7 -79,18.1 L 374,325.2 c -2,3.1 -5.1,5.4 -8.7,6.3 l -194.7,48.8 c -8.4,2.1 -16.2,6.1 -22.9,11.7 -24.3,20.3 -27.5,56.5 -7.2,80.8 l 33.6,40.2 42.6,3.8 c 201.6,18 379.4,143.6 464,327.9 l 18.9,41.1 21,8.4 c 8,3.2 16.7,4.6 25.4,4 31.6,-2.2 55.4,-29.5 53.3,-61.1 L 785.5,636.9 c -0.3,-3.7 0.9,-7.3 3.3,-10.2 L 917.6,472.8 c 5.6,-6.6 9.5,-14.5 11.7,-22.9 7.7,-30.9 -10.9,-62 -41.6,-69.7 z"
         p-id="1166"
         id="path826" />
      <path
         style="fill:url(#linearGradient4562);fill-opacity:1"
         inkscape:connector-curvature="0"
         d="m 337.6,894.1 186.2,-75 c 1.7,-0.7 3.5,-1 5.4,-1 1.8,0 3.6,0.3 5.4,1 l 107.5,43.3 C 565.6,695.7 404.1,576.2 213.2,559.2 l 56.4,67.4 c 2.4,2.8 3.6,6.5 3.3,10.2 L 259,836.9 c -0.6,8.6 0.8,17.3 4,25.4 9,22.3 30.5,35.9 53.2,35.9 7.2,0 14.4,-1.3 21.4,-4.1 z"
         p-id="1167"
         id="path828" />
    </g>
  </g>
</svg>
