<?xml version="1.0" encoding="UTF-8" standalone="no"?>
<svg
   xmlns:dc="http://purl.org/dc/elements/1.1/"
   xmlns:cc="http://creativecommons.org/ns#"
   xmlns:rdf="http://www.w3.org/1999/02/22-rdf-syntax-ns#"
   xmlns:svg="http://www.w3.org/2000/svg"
   xmlns="http://www.w3.org/2000/svg"
   xmlns:sodipodi="http://sodipodi.sourceforge.net/DTD/sodipodi-0.dtd"
   xmlns:inkscape="http://www.inkscape.org/namespaces/inkscape"
   version="1.1"
   viewBox="0 0 32 32"
   id="svg15"
   sodipodi:docname="cantata.svg"
   inkscape:version="0.92.4 5da689c313, 2019-01-14"
   width="32"
   height="32">
  <metadata
     id="metadata19">
    <rdf:RDF>
      <cc:Work
         rdf:about="">
        <dc:format>image/svg+xml</dc:format>
        <dc:type
           rdf:resource="http://purl.org/dc/dcmitype/StillImage" />
        <dc:title></dc:title>
      </cc:Work>
    </rdf:RDF>
  </metadata>
  <sodipodi:namedview
     pagecolor="#c8c8c8"
     bordercolor="#666666"
     borderopacity="1"
     objecttolerance="10"
     gridtolerance="10"
     guidetolerance="10"
     inkscape:pageopacity="0"
     inkscape:pageshadow="2"
     inkscape:window-width="1920"
     inkscape:window-height="1019"
     id="namedview17"
     showgrid="false"
     inkscape:zoom="8.4590922"
     inkscape:cx="4.9733195"
     inkscape:cy="14.842439"
     inkscape:window-x="0"
     inkscape:window-y="36"
     inkscape:window-maximized="1"
     inkscape:current-layer="svg15" />
  <defs
     id="defs3">
    <style
       id="current-color-scheme"
       type="text/css">.ColorScheme-Text{color:#dfdfdf}</style>
  </defs>
  <g
     id="22-22-cantata">
    <path
       d="m -15.598599,13 c -4.4183,0 -8,3.5817 -8,8 0,4.4183 3.5817,8 8,8 4.4183,0 8,-3.5817 8,-8 0,-4.4183 -3.5817,-8 -8,-8 z m 0,1.6602 1,0.33984 c 0,0 0.3932,1.2057 0.70898,1.5215 0.49894,0.49895 2.4492,1.6358 2.4492,4.1621 0,1.8947 -1.2629,3.1581 -2.8418,4.1055 1.5789,-1.5789 2.2109,-2.2107 2.2109,-4.1055 0,-2.5263 -2.5273,-2.8418 -2.5273,-2.8418 v 6.877 c 0,0.70263 -0.6614,1.8699 -1.7422,2.3184 -1.3697,0.56763 -2.8056,0.24249 -3.2051,-0.72461 -0.40105,-0.96631 0.38496,-2.2105 1.7539,-2.7773 0.81789,-0.33947 1.6026,-0.3692 2.1934,-0.13086 v -8.7441 z"
       id="path5"
       style="color:#dfdfdf;fill:#323232;fill-opacity:1"
       inkscape:connector-curvature="0" />
    <path
       d="m -26.598599,10 v 22 h 22 V 10 Z"
       id="path7"
       inkscape:connector-curvature="0"
       style="fill:none" />
  </g>
  <g
     id="cantata">
    <path
       d="M 16,4 C 9.3726,4 4,9.3726 4,16 4,22.6274 9.3726,28 16,28 22.6274,28 28,22.6274 28,16 28,9.3726 22.6274,4 16,4 Z m 0,1.8789 1.2695,0.69727 c 0,0 0.58609,1.7951 1.0566,2.2656 0.74347,0.74347 3.6484,2.4364 3.6484,6.1992 0,2.8217 -1.8035,4.5473 -4.1562,5.959 2.3528,-2.3512 3.2168,-3.1365 3.2168,-5.959 0,-3.7629 -4.0352,-4.1621 -4.0352,-4.1621 v 10 c 0.0024,1.0462 -0.71805,2.9568 -2.3281,3.625 -2.0414,0.84464 -3.9215,0.38716 -4.5176,-1.0527 -0.5961,-1.43986 0.10195,-3.4171 2.1426,-4.2617 1.2187,-0.50506 2.7031,-0.62015 3.7031,-0.31055 v -13 z"
       id="path10"
       style="color:#dfdfdf;fill:#323232;fill-opacity:1"
       inkscape:connector-curvature="0" />
    <path
       d="M 0,0 V 32 H 32 V 0 Z"
       id="path12"
       inkscape:connector-curvature="0"
       style="fill:none" />
  </g>
</svg>
