<?xml version="1.0" encoding="UTF-8" standalone="no"?>
<svg
   xmlns:dc="http://purl.org/dc/elements/1.1/"
   xmlns:cc="http://creativecommons.org/ns#"
   xmlns:rdf="http://www.w3.org/1999/02/22-rdf-syntax-ns#"
   xmlns:svg="http://www.w3.org/2000/svg"
   xmlns="http://www.w3.org/2000/svg"
   xmlns:xlink="http://www.w3.org/1999/xlink"
   xmlns:sodipodi="http://sodipodi.sourceforge.net/DTD/sodipodi-0.dtd"
   xmlns:inkscape="http://www.inkscape.org/namespaces/inkscape"
   width="32"
   height="32"
   version="1.1"
   id="svg60"
   sodipodi:docname="computer.svg"
   inkscape:version="0.92.4 5da689c313, 2019-01-14">
  <metadata
     id="metadata64">
    <rdf:RDF>
      <cc:Work
         rdf:about="">
        <dc:format>image/svg+xml</dc:format>
        <dc:type
           rdf:resource="http://purl.org/dc/dcmitype/StillImage" />
        <dc:title></dc:title>
      </cc:Work>
    </rdf:RDF>
  </metadata>
  <sodipodi:namedview
     pagecolor="#c8c8c8"
     bordercolor="#666666"
     borderopacity="1"
     objecttolerance="10"
     gridtolerance="10"
     guidetolerance="10"
     inkscape:pageopacity="0"
     inkscape:pageshadow="2"
     inkscape:window-width="1920"
     inkscape:window-height="1019"
     id="namedview62"
     showgrid="true"
     inkscape:snap-bbox="true"
     inkscape:bbox-nodes="true"
     inkscape:snap-bbox-edge-midpoints="true"
     inkscape:snap-nodes="true"
     inkscape:object-paths="true"
     inkscape:zoom="3.7926638"
     inkscape:cx="19.752176"
     inkscape:cy="-21.32879"
     inkscape:window-x="0"
     inkscape:window-y="36"
     inkscape:window-maximized="1"
     inkscape:current-layer="svg60"
     inkscape:snap-intersection-paths="true"
     inkscape:snap-bbox-midpoints="true"
     inkscape:snap-smooth-nodes="true"
     inkscape:snap-midpoints="true">
    <inkscape:grid
       type="xygrid"
       id="grid879" />
  </sodipodi:namedview>
  <defs
     id="defs6">
    <linearGradient
       inkscape:collect="always"
       id="linearGradient1034">
      <stop
         style="stop-color:#734bff;stop-opacity:1"
         offset="0"
         id="stop1030" />
      <stop
         style="stop-color:#4187ff;stop-opacity:1"
         offset="1"
         id="stop1032" />
    </linearGradient>
    <linearGradient
       inkscape:collect="always"
       id="linearGradient871">
      <stop
         style="stop-color:#734bff;stop-opacity:1"
         offset="0"
         id="stop867" />
      <stop
         style="stop-color:#4187ff;stop-opacity:1"
         offset="1"
         id="stop869" />
    </linearGradient>
    <style
       id="current-color-scheme"
       type="text/css">.ColorScheme-Text { color:#dedede; } .ColorScheme-Highlight { color:#5294e2; } .ColorScheme-ButtonBackground { color:#dedede; }</style>
    <filter
       id="a"
       x="-0.035999998"
       y="-0.035999998"
       width="1.072"
       height="1.072"
       style="color-interpolation-filters:sRGB">
      <feGaussianBlur
         stdDeviation="0.435"
         id="feGaussianBlur3" />
    </filter>
    <style
       id="style883"
       type="text/css" />
    <linearGradient
       inkscape:collect="always"
       xlink:href="#linearGradient871"
       id="linearGradient873"
       x1="-35"
       y1="33"
       x2="-5"
       y2="4"
       gradientUnits="userSpaceOnUse" />
    <linearGradient
       inkscape:collect="always"
       xlink:href="#linearGradient871"
       id="linearGradient875"
       gradientUnits="userSpaceOnUse"
       x1="-35"
       y1="33"
       x2="-5"
       y2="4"
       gradientTransform="translate(36,-2.5)" />
    <linearGradient
       inkscape:collect="always"
       xlink:href="#linearGradient871"
       id="linearGradient877"
       gradientUnits="userSpaceOnUse"
       x1="-35"
       y1="33"
       x2="-5"
       y2="4" />
    <linearGradient
       inkscape:collect="always"
       xlink:href="#linearGradient871"
       id="linearGradient879"
       gradientUnits="userSpaceOnUse"
       x1="-35"
       y1="33"
       x2="-5"
       y2="4" />
    <linearGradient
       inkscape:collect="always"
       xlink:href="#linearGradient871"
       id="linearGradient943"
       gradientUnits="userSpaceOnUse"
       x1="-35"
       y1="33"
       x2="-5"
       y2="4"
       gradientTransform="matrix(0.66666667,0,0,0.65517241,27.333333,35.87931)" />
    <linearGradient
       inkscape:collect="always"
       xlink:href="#linearGradient871"
       id="linearGradient945"
       gradientUnits="userSpaceOnUse"
       x1="-35"
       y1="33"
       x2="-5"
       y2="4" />
    <linearGradient
       inkscape:collect="always"
       xlink:href="#linearGradient871"
       id="linearGradient947"
       gradientUnits="userSpaceOnUse"
       x1="-35"
       y1="33"
       x2="-5"
       y2="4" />
    <linearGradient
       inkscape:collect="always"
       xlink:href="#linearGradient871"
       id="linearGradient949"
       gradientUnits="userSpaceOnUse"
       x1="-35"
       y1="33"
       x2="-5"
       y2="4" />
    <linearGradient
       inkscape:collect="always"
       xlink:href="#linearGradient871"
       id="linearGradient967"
       gradientUnits="userSpaceOnUse"
       x1="-35"
       y1="33"
       x2="-5"
       y2="4"
       gradientTransform="matrix(0.53333333,0,0,0.51724138,23.916667,63.681034)" />
    <linearGradient
       inkscape:collect="always"
       xlink:href="#linearGradient871"
       id="linearGradient969"
       gradientUnits="userSpaceOnUse"
       x1="-35"
       y1="33"
       x2="-5"
       y2="4" />
    <linearGradient
       inkscape:collect="always"
       xlink:href="#linearGradient871"
       id="linearGradient971"
       gradientUnits="userSpaceOnUse"
       x1="-35"
       y1="33"
       x2="-5"
       y2="4" />
    <linearGradient
       inkscape:collect="always"
       xlink:href="#linearGradient871"
       id="linearGradient973"
       gradientUnits="userSpaceOnUse"
       x1="-35"
       y1="33"
       x2="-5"
       y2="4" />
    <style
       id="style1016"
       type="text/css" />
    <linearGradient
       inkscape:collect="always"
       xlink:href="#linearGradient1034"
       id="linearGradient1036"
       x1="78.999977"
       y1="27.302088"
       x2="108.99998"
       y2="5.3020864"
       gradientUnits="userSpaceOnUse"
       gradientTransform="translate(-32.61427,-0.28513805)" />
    <linearGradient
       inkscape:collect="always"
       xlink:href="#linearGradient1034"
       id="linearGradient1050"
       gradientUnits="userSpaceOnUse"
       gradientTransform="matrix(0.66666667,0,0,0.68181868,2.3329315,36.884932)"
       x1="78.999977"
       y1="27.302088"
       x2="108.99998"
       y2="5.3020864" />
    <linearGradient
       inkscape:collect="always"
       xlink:href="#linearGradient1034"
       id="linearGradient1056"
       gradientUnits="userSpaceOnUse"
       gradientTransform="matrix(0.53333324,0,0,0.54545457,12.105728,64.107953)"
       x1="78.999977"
       y1="27.302088"
       x2="108.99998"
       y2="5.3020864" />
  </defs>
  <g
     id="computer">
    <rect
       x="0"
       y="0.0169487"
       width="32"
       height="32"
       rx="0"
       ry="0"
       style="opacity:0;stroke-width:2;paint-order:fill markers stroke"
       id="rect38" />
    <g
       transform="translate(36,-2.5)"
       style="fill:url(#linearGradient873);fill-opacity:1"
       id="g865">
      <path
         style="opacity:1;fill:url(#linearGradient875);fill-opacity:1;fill-rule:evenodd;stroke:none;stroke-width:0.30331504;stroke-linecap:round;stroke-linejoin:miter;stroke-miterlimit:4;stroke-dasharray:none;stroke-dashoffset:3;stroke-opacity:1;paint-order:stroke fill markers"
         d="M 4 1.5 C 2.338 1.5 1 2.838 1 4.5 L 1 21.5 C 1 23.162 2.338 24.5 4 24.5 L 28 24.5 C 29.662 24.5 31 23.162 31 21.5 L 31 4.5 C 31 2.838 29.662 1.5 28 1.5 L 4 1.5 z M 5.1171875 3.5 L 26.882812 3.5 C 28.055989 3.5 29 4.444011 29 5.6171875 L 29 19.382812 C 29 20.555989 28.055989 21.5 26.882812 21.5 L 5.1171875 21.5 C 3.944011 21.5 3 20.555989 3 19.382812 L 3 5.6171875 C 3 4.444011 3.944011 3.5 5.1171875 3.5 z "
         transform="translate(-36,2.5)"
         id="rect849" />
      <rect
         style="opacity:1;fill:url(#linearGradient877);fill-opacity:1;fill-rule:evenodd;stroke:none;stroke-width:0.33166248;stroke-linecap:round;stroke-linejoin:miter;stroke-miterlimit:4;stroke-dasharray:none;stroke-dashoffset:3;stroke-opacity:1;paint-order:stroke fill markers"
         id="rect851"
         width="11"
         height="2"
         x="-25.5"
         y="31"
         ry="0" />
      <path
         style="opacity:1;fill:url(#linearGradient879);fill-opacity:1;fill-rule:evenodd;stroke:none;stroke-width:0.37416571;stroke-linecap:round;stroke-linejoin:miter;stroke-miterlimit:4;stroke-dasharray:none;stroke-dashoffset:3;stroke-opacity:1;paint-order:stroke fill markers"
         d="m -23.5,27 h 7 l 0.5,4 h -8 z"
         id="rect853"
         inkscape:connector-curvature="0"
         sodipodi:nodetypes="ccccc" />
    </g>
  </g>
  <g
     id="22-22-computer">
    <rect
       style="color:#bebebe;opacity:0;stroke-width:2"
       y="37"
       id="rect23"
       transform="scale(-1,1)"
       x="-25"
       width="22"
       height="22" />
    <g
       id="g939"
       style="fill:url(#linearGradient949);fill-opacity:1"
       transform="matrix(0.66666667,0,0,0.65517241,27.333333,35.87931)">
      <path
         style="opacity:1;fill:url(#linearGradient943);fill-opacity:1;fill-rule:evenodd;stroke:none;stroke-width:0.20045926;stroke-linecap:round;stroke-linejoin:miter;stroke-miterlimit:4;stroke-dasharray:none;stroke-dashoffset:3;stroke-opacity:1;paint-order:stroke fill markers"
         d="M 6 38.5 C 4.892 38.5 4 39.375947 4 40.464844 L 4 51.603516 C 4 52.692412 4.892 53.568359 6 53.568359 L 22 53.568359 C 23.108 53.568359 24 52.692412 24 51.603516 L 24 40.464844 C 24 39.375947 23.108 38.5 22 38.5 L 6 38.5 z M 6.7441406 39.810547 L 21.255859 39.810547 C 22.037977 39.810547 22.666016 40.428633 22.666016 41.197266 L 22.666016 50.216797 C 22.666016 50.98543 22.037977 51.603516 21.255859 51.603516 L 6.7441406 51.603516 C 5.9620229 51.603516 5.3339844 50.98543 5.3339844 50.216797 L 5.3339844 41.197266 C 5.3339844 40.428633 5.9620229 39.810547 6.7441406 39.810547 z "
         transform="matrix(1.5,0,0,1.5263158,-40.999999,-54.763158)"
         id="rect931" />
      <rect
         ry="0"
         y="31"
         x="-25.5"
         height="2"
         width="11"
         id="rect933"
         style="opacity:1;fill:url(#linearGradient945);fill-opacity:1;fill-rule:evenodd;stroke:none;stroke-width:0.33166248;stroke-linecap:round;stroke-linejoin:miter;stroke-miterlimit:4;stroke-dasharray:none;stroke-dashoffset:3;stroke-opacity:1;paint-order:stroke fill markers" />
      <path
         sodipodi:nodetypes="ccccc"
         inkscape:connector-curvature="0"
         id="path935"
         d="m -23.5,27 h 7 l 0.5,4 h -8 z"
         style="opacity:1;fill:url(#linearGradient947);fill-opacity:1;fill-rule:evenodd;stroke:none;stroke-width:0.37416571;stroke-linecap:round;stroke-linejoin:miter;stroke-miterlimit:4;stroke-dasharray:none;stroke-dashoffset:3;stroke-opacity:1;paint-order:stroke fill markers" />
    </g>
  </g>
  <g
     id="16-16-computer">
    <rect
       style="color:#bebebe;fill:none"
       id="rect16"
       transform="scale(-1,1)"
       x="-21.25"
       y="65.25"
       width="16"
       height="16" />
    <rect
       style="color:#bebebe;opacity:0;stroke-width:3"
       id="rect18"
       transform="scale(-1,1)"
       x="-21.25"
       y="65.25"
       width="16"
       height="16" />
    <g
       transform="matrix(0.53333333,0,0,0.51724138,23.916667,63.681034)"
       style="fill:url(#linearGradient973);fill-opacity:1"
       id="g965">
      <path
         style="opacity:1;fill:url(#linearGradient967);fill-opacity:1;fill-rule:evenodd;stroke:none;stroke-width:0.15930887;stroke-linecap:round;stroke-linejoin:miter;stroke-miterlimit:4;stroke-dasharray:none;stroke-dashoffset:3;stroke-opacity:1;paint-order:stroke fill markers"
         d="M 6.8496094 65.75 C 5.9632094 65.75 5.25 66.441126 5.25 67.300781 L 5.25 76.095703 C 5.25 76.955358 5.9632094 77.646484 6.8496094 77.646484 L 19.650391 77.646484 C 20.536791 77.646484 21.25 76.955358 21.25 76.095703 L 21.25 67.300781 C 21.25 66.441126 20.536791 65.75 19.650391 65.75 L 6.8496094 65.75 z M 7.4453125 66.785156 L 19.054688 66.785156 C 19.680382 66.785156 20.183594 67.272091 20.183594 67.878906 L 20.183594 75 C 20.183594 75.606815 19.680382 76.095703 19.054688 76.095703 L 7.4453125 76.095703 C 6.8196184 76.095703 6.3164062 75.606815 6.3164062 75 L 6.3164062 67.878906 C 6.3164062 67.272091 6.8196184 66.785156 7.4453125 66.785156 z "
         transform="matrix(1.875,0,0,1.9333333,-44.843751,-123.11667)"
         id="rect957" />
      <rect
         style="opacity:1;fill:url(#linearGradient969);fill-opacity:1;fill-rule:evenodd;stroke:none;stroke-width:0.33166248;stroke-linecap:round;stroke-linejoin:miter;stroke-miterlimit:4;stroke-dasharray:none;stroke-dashoffset:3;stroke-opacity:1;paint-order:stroke fill markers"
         id="rect959"
         width="11"
         height="2"
         x="-25.5"
         y="31"
         ry="0" />
      <path
         style="opacity:1;fill:url(#linearGradient971);fill-opacity:1;fill-rule:evenodd;stroke:none;stroke-width:0.37416571;stroke-linecap:round;stroke-linejoin:miter;stroke-miterlimit:4;stroke-dasharray:none;stroke-dashoffset:3;stroke-opacity:1;paint-order:stroke fill markers"
         d="m -23.5,27 h 7 l 0.5,4 h -8 z"
         id="path961"
         inkscape:connector-curvature="0"
         sodipodi:nodetypes="ccccc" />
    </g>
  </g>
  <g
     id="computer-laptop">
    <rect
       id="rect928"
       style="opacity:0;stroke-width:2;paint-order:fill markers stroke"
       ry="0"
       rx="0"
       height="32"
       width="32"
       y="0.0169487"
       x="45.385712" />
    <path
       style="fill:url(#linearGradient1036);fill-opacity:1;stroke-width:0.0290247"
       inkscape:connector-curvature="0"
       d="M 74.01475,21.46302 H 48.75671 l -1.87196,3.580604 h 29.00442 z m -15.78874,2.720902 0.77656,-1.44988 h 4.84418 l 0.69864,1.44988 z m 15.353,-3.548398 c 0,-0.02146 -0.005,-0.04412 -0.007,-0.06559 0.002,-0.02261 0.007,-0.04407 0.007,-0.06553 V 5.6989982 c 0,-0.3767912 -0.30914,-0.6820498 -0.6913,-0.6820498 H 49.88378 c -0.37976,0 -0.69133,0.3052302 -0.69133,0.6820498 V 20.504381 c 0,0.02146 0.005,0.04292 0.007,0.06553 -0.002,0.02146 -0.007,0.04412 -0.007,0.06559 l -0.005,0.0096 h 24.39873 z m -1.73078,-1.14945 H 50.9232 V 6.7148619 H 71.84826 V 19.486074 Z m 4.46691,6.373067 H 46.45631 l -0.0706,0.137146 c 0,0.375556 0.31158,1.020662 0.69133,1.020662 h 28.61739 c 0.3846,0 0.69128,-0.645106 0.69128,-1.020662 z"
       p-id="85457"
       id="path1020" />
  </g>
  <g
     id="22-22-computer-laptop">
    <rect
       style="color:#bebebe;opacity:0;stroke-width:2"
       y="37"
       id="rect893"
       transform="scale(-1,1)"
       x="-75.99958"
       width="22"
       height="22" />
    <path
       id="path1046"
       p-id="85457"
       d="M 73.418945,51.713235 H 56.580252 l -1.247974,2.441323 h 19.336276 z m -10.52583,1.855161 0.51771,-0.988554 h 3.22945 l 0.46576,0.988554 z m 10.23534,-2.419364 c 0,-0.01463 -0.003,-0.03008 -0.005,-0.04472 10e-4,-0.01541 0.005,-0.03004 0.005,-0.04468 V 40.965037 c 0,-0.256903 -0.2061,-0.465035 -0.46087,-0.465035 H 57.331632 c -0.253174,0 -0.460887,0.208112 -0.460887,0.465035 v 10.094586 c 0,0.01464 0.0033,0.02926 0.0047,0.04468 -0.0013,0.01464 -0.0047,0.03007 -0.0047,0.04472 l -0.0033,0.0065 h 16.26582 z m -1.15386,-0.783716 h -13.95002 v -8.707652 h 13.95004 v 8.707652 z m 2.97794,4.345276 H 55.046652 l -0.04707,0.0935 c 0,0.256061 0.207719,0.695906 0.460887,0.695906 h 19.078266 c 0.2564,0 0.460849,-0.439845 0.460849,-0.695906 z"
       inkscape:connector-curvature="0"
       style="fill:url(#linearGradient1050);fill-opacity:1;stroke-width:0.01956846" />
  </g>
  <g
     id="16-16-computer-laptop">
    <rect
       style="color:#bebebe;fill:none"
       id="rect922"
       transform="scale(-1,1)"
       x="-70.239052"
       y="65"
       width="16"
       height="16" />
    <rect
       style="color:#bebebe;opacity:0;stroke-width:3"
       id="rect924"
       transform="scale(-1,1)"
       x="-70.239052"
       y="65"
       width="16"
       height="16" />
    <path
       style="fill:url(#linearGradient1056);fill-opacity:1;stroke-width:0.01565476"
       inkscape:connector-curvature="0"
       d="M 68.974533,75.970584 H 55.503577 l -0.998378,1.953057 h 15.469024 z m -8.420664,1.484129 0.41417,-0.790844 h 2.58356 l 0.37261,0.790844 z m 8.188274,-1.93549 c 0,-0.01171 -0.003,-0.02406 -0.004,-0.03578 0.001,-0.01233 0.004,-0.02403 0.004,-0.03574 V 67.372027 C 68.742143,67.166505 68.577263,67 68.373453,67 H 56.104681 c -0.202539,0 -0.368709,0.16649 -0.368709,0.372027 v 8.075664 c 0,0.01171 0.0027,0.02341 0.0037,0.03574 -0.0011,0.01171 -0.0037,0.02406 -0.0037,0.03578 l -0.0027,0.0052 H 68.745933 Z M 67.819063,74.89225 H 56.659038 v -6.966116 h 11.160035 v 6.966116 z m 2.38235,3.476219 H 54.276697 l -0.03765,0.0748 C 54.239044,78.648124 54.40522,79 54.607753,79 h 15.26261 c 0.20512,0 0.36869,-0.351876 0.36869,-0.556725 z"
       p-id="85457"
       id="path1054" />
  </g>
</svg>
