<?xml version="1.0" encoding="UTF-8" standalone="no"?>
<svg
   xmlns:dc="http://purl.org/dc/elements/1.1/"
   xmlns:cc="http://creativecommons.org/ns#"
   xmlns:rdf="http://www.w3.org/1999/02/22-rdf-syntax-ns#"
   xmlns:svg="http://www.w3.org/2000/svg"
   xmlns="http://www.w3.org/2000/svg"
   xmlns:sodipodi="http://sodipodi.sourceforge.net/DTD/sodipodi-0.dtd"
   xmlns:inkscape="http://www.inkscape.org/namespaces/inkscape"
   id="svg"
   inkscape:version="0.92.4 5da689c313, 2019-01-14"
   sodipodi:docname="configure.svg"
   version="1.1"
   viewBox="0 0 22 22">
  <metadata
     id="metadata15">
    <rdf:RDF>
      <cc:Work
         rdf:about="">
        <dc:format>image/svg+xml</dc:format>
        <dc:type
           rdf:resource="http://purl.org/dc/dcmitype/StillImage" />
        <dc:title></dc:title>
      </cc:Work>
    </rdf:RDF>
  </metadata>
  <sodipodi:namedview
     id="namedview20"
     bordercolor="#666666"
     borderopacity="1"
     gridtolerance="10"
     guidetolerance="10"
     inkscape:current-layer="svg"
     inkscape:cx="-8.5949521"
     inkscape:cy="17.351016"
     inkscape:pageopacity="0"
     inkscape:pageshadow="2"
     inkscape:window-height="1019"
     inkscape:window-maximized="1"
     inkscape:window-width="1920"
     inkscape:window-x="0"
     inkscape:window-y="36"
     inkscape:zoom="10.727273"
     objecttolerance="10"
     pagecolor="#c8c8c8"
     showgrid="false" />
  <defs
     id="defs3">
    <style
       id="current-color-scheme"
       type="text/css">.ColorScheme-Text { color:#dedede; } .ColorScheme-Highlight { color:#5294e2; } .ColorScheme-ButtonBackground { color:#dedede; }</style>
  </defs>
  <g
     id="configure">
    <rect
       id="rect12"
       x="-0.0025018062"
       y="-0.0030508079"
       width="21.999714"
       height="21.999714"
       style="opacity:0;stroke-width:0.67690849" />
    <g
       id="g830">
      <path
         style="fill:#323232;stroke-width:0.99998009;fill-opacity:1"
         inkscape:connector-curvature="0"
         d="M 10.995545,1.9959321 A 8.999821,8.999821 0 0 0 9.7611692,2.0916302 4.9999006,4.9999006 0 0 1 7.4956143,4.9333737 4.9999006,4.9999006 0 0 1 3.9018857,5.4763329 8.999821,8.999821 0 0 0 2.6636104,7.6071905 a 4.9999006,4.9999006 0 0 1 1.3319735,3.3886325 4.9999006,4.9999006 0 0 1 -1.3319735,3.390533 8.999821,8.999821 0 0 0 1.2284755,2.130857 4.9999006,4.9999006 0 0 1 0.8671728,-0.123047 4.9999006,4.9999006 0 0 1 2.7362456,0.664047 4.9999006,4.9999006 0 0 1 2.2694548,2.841743 8.999821,8.999821 0 0 0 1.2304759,0.0957 8.999821,8.999821 0 0 0 1.232375,-0.0937 4.9999006,4.9999006 0 0 1 2.267555,-2.843743 4.9999006,4.9999006 0 0 1 2.382753,-0.667957 4.9999006,4.9999006 0 0 1 1.212876,0.124997 8.999821,8.999821 0 0 0 1.236275,-2.130857 A 4.9999006,4.9999006 0 0 1 17.995295,10.995763 4.9999006,4.9999006 0 0 1 19.327269,7.6052305 8.999821,8.999821 0 0 0 18.096793,5.4743729 4.9999006,4.9999006 0 0 1 14.495265,4.9333637 4.9999006,4.9999006 0 0 1 12.22581,2.0916202 8.999821,8.999821 0 0 0 10.995335,1.9958221 Z m 0,3.9999204 a 4.9999006,4.9999006 0 0 1 4.9999,4.9999005 4.9999006,4.9999006 0 0 1 -4.9999,4.999901 4.9999006,4.9999006 0 0 1 -4.9999009,-4.999901 4.9999006,4.9999006 0 0 1 4.9999009,-4.9999005 z"
         id="path14" />
      <circle
         style="fill:#323232;stroke-width:3.77950001;fill-opacity:1"
         r="2.9999781"
         cy="10.999071"
         cx="10.99962"
         id="circle16" />
    </g>
  </g>
  <g
     id="16-16-configure">
    <rect
       id="rect33"
       x="2.7796559"
       y="-19.864246"
       width="16.000181"
       height="16.000181"
       style="color:#bebebe;fill:none;stroke-width:1.00000656" />
    <g
       id="g1059"
       transform="matrix(3.7796,0,0,3.7796,-17.220829,7.1365568)"
       style="fill:#323232;fill-opacity:1">
      <path
         style="fill:#323232;fill-opacity:1"
         id="path1031"
         d="m 5.8081,-6.4096 a 2.1166,2.1166 0 0 0 -0.39715,0.68876 0.79374,0.79374 45 0 1 0.40997,0.69356 0.79374,0.79374 45 0 1 -0.41065,0.69536 2.1166,2.1166 0 0 0 0.16487,0.36308 2.1166,2.1166 0 0 0 0.23245,0.32406 0.79374,0.79374 45 0 1 0.80707,-0.0077 0.79374,0.79374 45 0 1 0.39643,0.70317 2.1166,2.1166 0 0 0 0.79518,-0.00143 0.79374,0.79374 45 0 1 0.39569,-0.70163 0.79374,0.79374 45 0 1 0.80637,0.00763 2.1166,2.1166 0 0 0 0.39715,-0.68876 0.79374,0.79374 45 0 1 -0.40997,-0.69356 0.79374,0.79374 45 0 1 0.36507,-0.66785 0.79374,0.79374 45 0 1 0.045837,-0.027061 2.1166,2.1166 0 0 0 -0.16513,-0.36353 2.1166,2.1166 0 0 0 -0.23296,-0.32496 0.79374,0.79374 45 0 1 -0.80655,0.00859 0.79374,0.79374 45 0 1 -0.39643,-0.70317 2.1166,2.1166 0 0 0 -0.79518,0.00143 0.79374,0.79374 45 0 1 -0.39569,0.70163 0.79374,0.79374 45 0 1 -0.80637,-0.00763 z m 1.071,0.46589 a 1.0583,1.0583 0 0 1 1.4457,0.38737 1.0583,1.0583 0 0 1 -0.38737,1.4457 1.0583,1.0583 0 0 1 -1.4457,-0.38737 1.0583,1.0583 0 0 1 0.38737,-1.4457 z"
         inkscape:connector-curvature="0" />
      <circle
         style="fill:#323232;fill-opacity:1"
         id="circle1035"
         cx="7.4082999"
         cy="-5.0271001"
         r="0.52916002" />
    </g>
  </g>
</svg>
