<?xml version="1.0" encoding="UTF-8" standalone="no"?>
<svg
   xmlns:dc="http://purl.org/dc/elements/1.1/"
   xmlns:cc="http://creativecommons.org/ns#"
   xmlns:rdf="http://www.w3.org/1999/02/22-rdf-syntax-ns#"
   xmlns:svg="http://www.w3.org/2000/svg"
   xmlns="http://www.w3.org/2000/svg"
   xmlns:sodipodi="http://sodipodi.sourceforge.net/DTD/sodipodi-0.dtd"
   xmlns:inkscape="http://www.inkscape.org/namespaces/inkscape"
   id="svg"
   inkscape:version="0.92.4 5da689c313, 2019-01-14"
   sodipodi:docname="device.svg"
   version="1.1"
   viewBox="0 0 22 22">
  <metadata
     id="metadata28">
    <rdf:RDF>
      <cc:Work
         rdf:about="">
        <dc:format>image/svg+xml</dc:format>
        <dc:type
           rdf:resource="http://purl.org/dc/dcmitype/StillImage" />
        <dc:title />
      </cc:Work>
    </rdf:RDF>
  </metadata>
  <sodipodi:namedview
     id="namedview33"
     bordercolor="#666666"
     borderopacity="1"
     gridtolerance="10"
     guidetolerance="10"
     inkscape:bbox-nodes="true"
     inkscape:current-layer="svg"
     inkscape:cx="2.198854"
     inkscape:cy="-7.265467"
     inkscape:object-nodes="true"
     inkscape:object-paths="true"
     inkscape:pageopacity="0"
     inkscape:pageshadow="2"
     inkscape:snap-bbox="true"
     inkscape:snap-bbox-edge-midpoints="true"
     inkscape:snap-intersection-paths="true"
     inkscape:snap-midpoints="true"
     inkscape:snap-nodes="true"
     inkscape:snap-smooth-nodes="true"
     inkscape:window-height="1019"
     inkscape:window-maximized="1"
     inkscape:window-width="1920"
     inkscape:window-x="0"
     inkscape:window-y="36"
     inkscape:zoom="15.170654"
     objecttolerance="10"
     pagecolor="#c8c8c8"
     showgrid="true"
     showguides="false">
    <inkscape:grid
       id="grid842"
       type="xygrid" />
  </sodipodi:namedview>
  <defs
     id="defs3">
    <style
       id="current-color-scheme"
       type="text/css">.ColorScheme-Text { color:#dedede; } .ColorScheme-Highlight { color:#5294e2; } .ColorScheme-ButtonBackground { color:#dedede; }</style>
  </defs>
  <g
     id="22-22-device-notifier">
    <rect
       id="rect12"
       class="ColorScheme-Text"
       width="22"
       height="22"
       x="0"
       y="0"
       style="color:#dedede;fill-opacity:0" />
    <rect
       id="rect14"
       width="22"
       height="22"
       x="0"
       y="0"
       style="opacity:0" />
    <rect
       id="rect16"
       class="ColorScheme-Text"
       width="22"
       height="22"
       x="0"
       y="0"
       style="color:#dedede;fill-opacity:0" />
    <g
       id="g841">
      <path
         inkscape:connector-curvature="0"
         style="fill:#323232;fill-opacity:1"
         d="M 10,2 C 7.23,2 5,4.23 5,7 v 3 6 H 17 V 10 7 C 17,4.23 14.77,2 12,2 Z m 1,1 a 1,1 0 0 1 1,1 1,1 0 0 1 -1,1 1,1 0 0 1 -1,-1 1,1 0 0 1 1,-1 z"
         id="rect849" />
      <path
         inkscape:connector-curvature="0"
         style="color:#dedede;fill:#323232;fill-opacity:1;stroke-width:1.41419995;filter:url(#filter7554);enable-background:new"
         d="m 7,17 v 3 h 8 v -3 z m 1,1 h 2 v 1 H 8 Z m 4,0 h 2 v 1 h -2 z"
         id="path20" />
    </g>
  </g>
  <g
     id="16-16-device-notifier">
    <rect
       id="rect5"
       x="-4.9999999e-05"
       y="25.993"
       width="16"
       height="16"
       style="opacity:0" />
    <rect
       id="rect7"
       class="ColorScheme-Text"
       x="-4.9999999e-05"
       y="25.993"
       width="16"
       height="16"
       style="color:#dedede;fill-opacity:0" />
    <g
       id="g878">
      <path
         style="color:#dedede;fill:#323232;fill-opacity:1;filter:url(#filter7554);enable-background:new"
         sodipodi:nodetypes="ccccc"
         inkscape:connector-curvature="0"
         d="m 5,38.994 v 1.999 h 6 v -1.999 z"
         class="ColorScheme-Text"
         id="path9" />
      <path
         inkscape:connector-curvature="0"
         style="fill:#323232;fill-opacity:1"
         d="m 6,27 c -1.662,0 -3,1.338 -3,3 v 2 3 3 h 3 4 3 v -3 -3 -2 c 0,-1.662 -1.338,-3 -3,-3 z"
         id="rect853" />
    </g>
  </g>
  <g
     id="device-notifier">
    <rect
       id="rect23"
       y="-34"
       width="32"
       height="32"
       x="0"
       style="opacity:0" />
    <rect
       id="rect25"
       class="ColorScheme-Text"
       y="-34"
       width="32"
       height="32"
       x="0"
       style="color:#dedede;fill-opacity:0" />
    <g
       id="g861">
      <path
         inkscape:connector-curvature="0"
         style="color:#dedede;fill:#323232;fill-opacity:1;filter:url(#filter7554);enable-background:new"
         d="m 11,-9 v 4 h 10 v -4 z m 2,1 h 2 v 2 h -2 z m 4,0 h 2 v 2 h -2 z"
         id="path29" />
      <g
         style="fill:#dedede"
         id="g24">
        <path
           inkscape:connector-curvature="0"
           style="fill:#323232;fill-opacity:1"
           d="m 14,-32 c -3.878,0 -7,3.122 -7,7 v 5 c 0,3.878 3.122,7 7,7 h 4 c 3.878,0 7,-3.122 7,-7 v -5 c 0,-3.878 -3.122,-7 -7,-7 z m -1,2 h 6 c 0.554,0 1,0.446 1,1 0,0.554 -0.446,1 -1,1 h -6 c -0.554,0 -1,-0.446 -1,-1 0,-0.554 0.446,-1 1,-1 z"
           id="rect871" />
        <rect
           style="fill:#323232;fill-opacity:1"
           ry="2"
           height="13"
           width="18"
           y="-24"
           x="7"
           id="rect873" />
      </g>
    </g>
  </g>
</svg>
