<?xml version="1.0" encoding="UTF-8" standalone="no"?>
<svg
   xmlns:dc="http://purl.org/dc/elements/1.1/"
   xmlns:cc="http://creativecommons.org/ns#"
   xmlns:rdf="http://www.w3.org/1999/02/22-rdf-syntax-ns#"
   xmlns:svg="http://www.w3.org/2000/svg"
   xmlns="http://www.w3.org/2000/svg"
   xmlns:sodipodi="http://sodipodi.sourceforge.net/DTD/sodipodi-0.dtd"
   xmlns:inkscape="http://www.inkscape.org/namespaces/inkscape"
   id="svg7384"
   width="22"
   height="22"
   enable-background="new"
   inkscape:version="0.92.4 5da689c313, 2019-01-14"
   sodipodi:docname="disk.svg"
   version="1.1">
  <metadata
     id="metadata32">
    <rdf:RDF>
      <cc:Work
         rdf:about="">
        <dc:format>image/svg+xml</dc:format>
        <dc:type
           rdf:resource="http://purl.org/dc/dcmitype/StillImage" />
        <dc:title></dc:title>
      </cc:Work>
    </rdf:RDF>
  </metadata>
  <sodipodi:namedview
     id="namedview10"
     bordercolor="#666666"
     borderopacity="1"
     gridtolerance="10"
     guidetolerance="10"
     inkscape:bbox-nodes="true"
     inkscape:current-layer="svg7384"
     inkscape:cx="30.346413"
     inkscape:cy="-1.3041788"
     inkscape:pageopacity="0"
     inkscape:pageshadow="2"
     inkscape:snap-bbox="true"
     inkscape:snap-bbox-edge-midpoints="true"
     inkscape:window-height="1019"
     inkscape:window-maximized="1"
     inkscape:window-width="1920"
     inkscape:window-x="0"
     inkscape:window-y="36"
     inkscape:zoom="5.269354"
     objecttolerance="10"
     pagecolor="#c8c8c8"
     showgrid="true">
    <inkscape:grid
       id="grid39"
       type="xygrid" />
  </sodipodi:namedview>
  <defs
     id="defs7386">
    <style
       id="current-color-scheme"
       type="text/css">.ColorScheme-Text { color:#dedede; } .ColorScheme-Highlight { color:#5294e2; } .ColorScheme-ButtonBackground { color:#dedede; }</style>
  </defs>
  <g
     id="disk-quota">
    <path
       id="path15"
       d="M 6,2 C 4.892,2 4,2.892 4,4 v 14 c 0,1.108 0.892,2 2,2 h 10 c 1.108,0 2,-0.892 2,-2 V 4 C 18,2.892 17.108,2 16,2 Z M 6,4 H 7 V 6 H 6 Z M 8,4 H 9 V 6 H 8 Z m 2,0 h 1 v 2 h -1 z m 2,0 h 1 v 2 h -1 z m 2,1 h 1 v 1 h -1 z m -3,2 a 5,5 0 0 1 5,5 5,5 0 0 1 -5,5 5,5 0 0 1 -5,-5 5,5 0 0 1 5,-5 z m 5,10 a 1,1 0 0 1 1,1 1,1 0 0 1 -1,1 1,1 0 0 1 -1,-1 1,1 0 0 1 1,-1 z"
       inkscape:connector-curvature="0"
       style="fill:#323232;fill-opacity:1" />
    <path
       id="path17"
       d="m 11,7 a 5,5 0 0 0 -5,5 5,5 0 0 0 5,5 5,5 0 0 0 5,-5 h -5 z"
       inkscape:connector-curvature="0"
       style="opacity:0.3;fill:#969696;fill-opacity:1" />
    <path
       id="path19"
       d="M 0,0 H 22 V 22 H 0 Z"
       inkscape:connector-curvature="0"
       style="opacity:0" />
    <g
       id="g23"
       style="fill:#323232;fill-opacity:1">
      <circle
         style="fill:#323232;fill-opacity:1"
         id="circle21"
         cx="11"
         cy="12"
         r="2" />
    </g>
  </g>
  <g
     id="disk-quota-low">
    <path
       id="path53"
       d="m 38,2 c -1.108,0 -2,0.892 -2,2 v 14 c 0,1.108 0.892,2 2,2 h 10 c 1.108,0 2,-0.892 2,-2 V 4 C 50,2.892 49.108,2 48,2 Z m 0,2 h 1 v 2 h -1 z m 2,0 h 1 v 2 h -1 z m 2,0 h 1 v 2 h -1 z m 2,0 h 1 v 2 h -1 z m 2,1 h 1 v 1 h -1 z m -3,2 a 5,5 0 0 1 5,5 5,5 0 0 1 -5,5 5,5 0 0 1 -5,-5 5,5 0 0 1 5,-5 z m 5,10 a 1,1 0 0 1 1,1 1,1 0 0 1 -1,1 1,1 0 0 1 -1,-1 1,1 0 0 1 1,-1 z"
       inkscape:connector-curvature="0"
       style="fill:#323232;fill-opacity:1" />
    <path
       id="path55"
       d="m 43,7 a 5,5 0 0 0 -5,5 5,5 0 0 0 5,5 5,5 0 0 0 5,-5 h -5 z"
       inkscape:connector-curvature="0"
       style="fill:#dc6e2e" />
    <path
       id="path57"
       d="M 32,0 H 54 V 22 H 32 Z"
       inkscape:connector-curvature="0"
       style="opacity:0" />
    <g
       transform="translate(32)"
       id="g61"
       style="fill:#323232;fill-opacity:1">
      <circle
         style="fill:#323232;fill-opacity:1"
         id="circle59"
         cx="11"
         cy="12"
         r="2" />
    </g>
  </g>
  <g
     id="disk-quota-high">
    <path
       id="path65"
       d="m 65,2 c -1.108,0 -2,0.892 -2,2 v 14 c 0,1.108 0.892,2 2,2 h 10 c 1.108,0 2,-0.892 2,-2 V 4 C 77,2.892 76.108,2 75,2 Z m 0,2 h 1 v 2 h -1 z m 2,0 h 1 v 2 h -1 z m 2,0 h 1 v 2 h -1 z m 2,0 h 1 v 2 h -1 z m 2,1 h 1 v 1 h -1 z m -3,2 a 5,5 0 0 1 5,5 5,5 0 0 1 -5,5 5,5 0 0 1 -5,-5 5,5 0 0 1 5,-5 z m 5,10 a 1,1 0 0 1 1,1 1,1 0 0 1 -1,1 1,1 0 0 1 -1,-1 1,1 0 0 1 1,-1 z"
       inkscape:connector-curvature="0"
       style="fill:#323232;fill-opacity:1" />
    <path
       id="path67"
       d="m 70,7 a 5,5 0 0 0 -5,5 5,5 0 0 0 5,5 5,5 0 0 0 5,-5 h -5 z"
       inkscape:connector-curvature="0"
       style="fill:#eb5555" />
    <path
       id="path69"
       d="M 59,0 H 81 V 22 H 59 Z"
       inkscape:connector-curvature="0"
       style="opacity:0" />
    <g
       transform="translate(59)"
       id="g73"
       style="fill:#323232;fill-opacity:1">
      <circle
         style="fill:#323232;fill-opacity:1"
         id="circle71"
         cx="11"
         cy="12"
         r="2" />
    </g>
  </g>
  <g
     id="disk-quota-critical">
    <path
       id="path77"
       d="m 92,2 c -1.108,0 -2,0.892 -2,2 v 14 c 0,1.108 0.892,2 2,2 h 10 c 1.108,0 2,-0.892 2,-2 V 4 c 0,-1.108 -0.892,-2 -2,-2 z m 0,2 h 1 v 2 h -1 z m 2,0 h 1 v 2 h -1 z m 2,0 h 1 v 2 h -1 z m 2,0 h 1 v 2 h -1 z m 2,1 h 1 v 1 h -1 z m -3,2 a 5,5 0 0 1 5,5 5,5 0 0 1 -5,5 5,5 0 0 1 -5,-5 5,5 0 0 1 5,-5 z m 5,10 a 1,1 0 0 1 1,1 1,1 0 0 1 -1,1 1,1 0 0 1 -1,-1 1,1 0 0 1 1,-1 z"
       inkscape:connector-curvature="0"
       style="fill:#323232;fill-opacity:1" />
    <path
       id="path79"
       d="m 97,7 a 5,5 0 0 0 -5,5 5,5 0 0 0 5,5 5,5 0 0 0 5,-5 h -5 z"
       inkscape:connector-curvature="0"
       style="fill:#eb5555" />
    <path
       id="path81"
       d="m 86,0 h 22 V 22 H 86 Z"
       inkscape:connector-curvature="0"
       style="opacity:0" />
    <g
       id="g85"
       transform="translate(86)"
       style="fill:#323232;fill-opacity:1">
      <circle
         style="fill:#323232;fill-opacity:1"
         id="circle83"
         cx="11"
         cy="12"
         r="2" />
    </g>
    <path
       id="path24"
       d="m 105,11 v 5 h 2 v -5 z m 0,6 v 2 h 2 v -2 z"
       inkscape:connector-curvature="0"
       style="fill:#dc6e2e" />
  </g>
</svg>
