<?xml version="1.0" encoding="UTF-8" standalone="no"?>
<svg
   xmlns:dc="http://purl.org/dc/elements/1.1/"
   xmlns:cc="http://creativecommons.org/ns#"
   xmlns:rdf="http://www.w3.org/1999/02/22-rdf-syntax-ns#"
   xmlns:svg="http://www.w3.org/2000/svg"
   xmlns="http://www.w3.org/2000/svg"
   xmlns:sodipodi="http://sodipodi.sourceforge.net/DTD/sodipodi-0.dtd"
   xmlns:inkscape="http://www.inkscape.org/namespaces/inkscape"
   id="svg7384"
   width="22"
   height="22"
   enable-background="new"
   inkscape:version="0.92.4 5da689c313, 2019-01-14"
   sodipodi:docname="document.svg"
   version="1.1">
  <metadata
     id="metadata47">
    <rdf:RDF>
      <cc:Work
         rdf:about="">
        <dc:format>image/svg+xml</dc:format>
        <dc:type
           rdf:resource="http://purl.org/dc/dcmitype/StillImage" />
        <dc:title></dc:title>
      </cc:Work>
    </rdf:RDF>
  </metadata>
  <sodipodi:namedview
     id="namedview26"
     bordercolor="#666666"
     borderopacity="1"
     gridtolerance="10"
     guidetolerance="10"
     inkscape:current-layer="svg7384"
     inkscape:cx="-32.211532"
     inkscape:cy="10.696266"
     inkscape:pageopacity="0"
     inkscape:pageshadow="2"
     inkscape:window-height="1019"
     inkscape:window-maximized="1"
     inkscape:window-width="1920"
     inkscape:window-x="0"
     inkscape:window-y="36"
     inkscape:zoom="2.6346769"
     objecttolerance="10"
     pagecolor="#c8c8c8"
     showgrid="true">
    <inkscape:grid
       id="grid58"
       type="xygrid" />
  </sodipodi:namedview>
  <defs
     id="defs7386">
    <style
       id="current-color-scheme"
       type="text/css">.ColorScheme-Text { color:#dedede; } .ColorScheme-Highlight { color:#5294e2; } .ColorScheme-ButtonBackground { color:#dedede; }</style>
  </defs>
  <g
     id="22-22-document-open-recent">
    <rect
       id="rect4214"
       x="102.35"
       y="-0.15625"
       width="22"
       height="22"
       style="opacity:0" />
    <path
       style="fill:#323232;fill-opacity:1"
       inkscape:connector-curvature="0"
       d="m 113.35,3.85 a 7,7 0 0 0 -7,7 7,7 0 0 0 7,7 7,7 0 0 0 7,-7 7,7 0 0 0 -7,-7 z m 0,2 a 5,5 0 0 1 5,5 5,5 0 0 1 -5,5 5,5 0 0 1 -5,-5 5,5 0 0 1 5,-5 z"
       id="path7722-2" />
    <rect
       style="color:#000000;fill:none;enable-background:new"
       height="16"
       width="16"
       y="2.8499999"
       x="105.35"
       id="rect7713-2" />
    <path
       style="color:#bebebe;fill:#323232;enable-background:accumulate;fill-opacity:1"
       sodipodi:nodetypes="ccccccccccc"
       inkscape:connector-curvature="0"
       d="m 115.76,8.03 c -0.0964,0.0256 -0.18476,0.0808 -0.25,0.15625 l -2.1562,2.1562 -1.6562,-1.6562 c -0.15718,-0.25698 -0.56824,-0.30673 -0.78125,-0.0937 -0.21301,0.21301 -0.16326,0.62407 0.0937,0.78125 l 2,2 c 0.1835,0.1737 0.504,0.1737 0.6875,0 l 2.5,-2.5 c 0.29287,-0.29845 -0.0248,-0.91114 -0.4375,-0.84375 z"
       id="path7715-3" />
  </g>
  <g
     id="document-open-recent">
    <path
       id="path114"
       d="m 80.2,-6.37 a 14,14 0 0 0 -14,14 14,14 0 0 0 14,14 14,14 0 0 0 14,-14 14,14 0 0 0 -14,-14 z m 0,4 a 10,10 0 0 1 10,10 10,10 0 0 1 -10,10 10,10 0 0 1 -10,-10 10,10 0 0 1 10,-10 z"
       inkscape:connector-curvature="0"
       style="fill:#323232;stroke-width:1;fill-opacity:1" />
    <rect
       id="rect116"
       x="64.199997"
       y="-8.3699999"
       width="32"
       height="32"
       style="color:#000000;fill:none;stroke-width:1;enable-background:new" />
    <path
       id="path118"
       d="m 85.02,1.99 c -0.1928,0.0512 -0.36952,0.1616 -0.5,0.3125 L 80.2076,6.6149 76.8952,3.3025 C 76.58084,2.78854 75.75872,2.68904 75.3327,3.1151 74.90668,3.54112 75.00618,4.36324 75.5201,4.6776 l 4,4 c 0.367,0.3474 1.008,0.3474 1.375,0 l 5,-5 C 86.48084,3.0807 85.8455,1.85532 85.0201,1.9901 Z"
       inkscape:connector-curvature="0"
       sodipodi:nodetypes="ccccccccccc"
       style="color:#bebebe;fill:#323232;stroke-width:1;enable-background:accumulate;fill-opacity:1" />
  </g>
  <g
     id="document-encrypt">
    <rect
       id="rect4192-3"
       x="-4.2691999e-11"
       y="-2.6673001e-11"
       width="22"
       height="22"
       style="opacity:0" />
    <path
       id="rect836"
       d="M 5,8 C 3.892,8 3,8.892 3,10 v 7 c 0,1.108 0.892,2 2,2 h 12 c 1.108,0 2,-0.892 2,-2 V 10 C 19,8.892 18.108,8 17,8 H 7 Z m 6,2 a 2.0032,2.0032 0 0 1 0.1582,0.0078 2.0032,2.0032 0 0 1 0.13477,0.01563 2.0032,2.0032 0 0 1 0.06836,0.0098 2.0032,2.0032 0 0 1 0.09961,0.02344 2.0032,2.0032 0 0 1 0.11719,0.0293 2.0032,2.0032 0 0 1 0.05664,0.01953 2.0032,2.0032 0 0 1 0.11914,0.04297 2.0032,2.0032 0 0 1 0.10352,0.04687 2.0032,2.0032 0 0 1 0.06641,0.03125 2.0032,2.0032 0 0 1 0.11523,0.06641 2.0032,2.0032 0 0 1 0.06836,0.04297 2.0032,2.0032 0 0 1 0.06836,0.04883 2.0032,2.0032 0 0 1 0.0957,0.07031 2.0032,2.0032 0 0 1 0.07031,0.0625 2.0032,2.0032 0 0 1 0.07422,0.07031 2.0032,2.0032 0 0 1 0.07031,0.07422 2.0032,2.0032 0 0 1 0.0625,0.07031 2.0032,2.0032 0 0 1 0.07031,0.0957 2.0032,2.0032 0 0 1 0.04883,0.06836 2.0032,2.0032 0 0 1 0.04297,0.06836 2.0032,2.0032 0 0 1 0.06641,0.11523 2.0032,2.0032 0 0 1 0.03125,0.06641 2.0032,2.0032 0 0 1 0.04687,0.10352 2.0032,2.0032 0 0 1 0.04297,0.11914 2.0032,2.0032 0 0 1 0.01953,0.05664 2.0032,2.0032 0 0 1 0.0293,0.11719 2.0032,2.0032 0 0 1 0.02344,0.09961 2.0032,2.0032 0 0 1 0.0098,0.06836 2.0032,2.0032 0 0 1 0.01563,0.13476 2.0032,2.0032 0 0 1 0.0078,0.1582 2.0032,2.0032 0 0 1 -0.0078,0.14844 2.0032,2.0032 0 0 1 -0.0078,0.09375 2.0032,2.0032 0 0 1 -0.01758,0.10742 2.0032,2.0032 0 0 1 -0.02344,0.11133 2.0032,2.0032 0 0 1 -0.0059,0.02734 2.0032,2.0032 0 0 1 -0.0078,0.02148 2.0032,2.0032 0 0 1 -0.04297,0.14453 2.0032,2.0032 0 0 1 -0.02734,0.07422 2.0032,2.0032 0 0 1 -0.0332,0.07813 2.0032,2.0032 0 0 1 -0.05664,0.11914 2.0032,2.0032 0 0 1 -0.03516,0.06445 2.0032,2.0032 0 0 1 -0.0625,0.10156 2.0032,2.0032 0 0 1 -0.04883,0.07227 2.0032,2.0032 0 0 1 -0.06641,0.08789 2.0032,2.0032 0 0 1 -0.06055,0.07227 2.0032,2.0032 0 0 1 -0.06445,0.06836 2.0032,2.0032 0 0 1 -0.08008,0.07617 2.0032,2.0032 0 0 1 -0.06836,0.06055 2.0032,2.0032 0 0 1 -0.09375,0.07422 2.0032,2.0032 0 0 1 -0.05859,0.04102 A 2.0032,2.0032 0 0 1 12,13.736319 v 2.2637 c 0,0.554 -0.446,1 -1,1 -0.1385,0 -0.27091,-0.02766 -0.39062,-0.07813 C 10.25022,16.770489 10,16.415519 10,16.000019 v -2.2617 a 2.0032,2.0032 0 0 1 -0.14648,-0.0957 2.0032,2.0032 0 0 1 -0.044922,-0.0332 2.0032,2.0032 0 0 1 -0.087891,-0.06836 2.0032,2.0032 0 0 1 -0.09375,-0.08203 2.0032,2.0032 0 0 1 -0.044922,-0.04492 2.0032,2.0032 0 0 1 -0.083984,-0.08984 2.0032,2.0032 0 0 1 -0.054687,-0.0625 2.0032,2.0032 0 0 1 -0.082031,-0.10742 2.0032,2.0032 0 0 1 -0.027344,-0.04102 2.0032,2.0032 0 0 1 -0.074219,-0.11914 2.0032,2.0032 0 0 1 -0.035156,-0.06641 2.0032,2.0032 0 0 1 -0.050781,-0.10352 2.0032,2.0032 0 0 1 -0.042969,-0.10547 2.0032,2.0032 0 0 1 -0.021484,-0.05859 2.0032,2.0032 0 0 1 -0.041016,-0.13476 2.0032,2.0032 0 0 1 -0.017578,-0.07031 2.0032,2.0032 0 0 1 -0.019531,-0.09375 2.0032,2.0032 0 0 1 -0.019531,-0.11914 2.0032,2.0032 0 0 1 -0.00781,-0.08594 2.0032,2.0032 0 0 1 -0.00781,-0.15234 2.0032,2.0032 0 0 1 0.00781,-0.1582 2.0032,2.0032 0 0 1 0.015625,-0.13476 2.0032,2.0032 0 0 1 0.00977,-0.06836 2.0032,2.0032 0 0 1 0.023437,-0.09961 2.0032,2.0032 0 0 1 0.029297,-0.11719 2.0032,2.0032 0 0 1 0.019531,-0.05664 2.0032,2.0032 0 0 1 0.042969,-0.11914 2.0032,2.0032 0 0 1 0.046875,-0.10352 2.0032,2.0032 0 0 1 0.03125,-0.06641 2.0032,2.0032 0 0 1 0.066406,-0.11523 2.0032,2.0032 0 0 1 0.042969,-0.06836 2.0032,2.0032 0 0 1 0.048828,-0.06836 2.0032,2.0032 0 0 1 0.070312,-0.0957 2.0032,2.0032 0 0 1 0.0625,-0.07031 2.0032,2.0032 0 0 1 0.070312,-0.07422 2.0032,2.0032 0 0 1 0.074219,-0.07031 2.0032,2.0032 0 0 1 0.070312,-0.0625 2.0032,2.0032 0 0 1 0.095703,-0.07031 2.0032,2.0032 0 0 1 0.068359,-0.04883 2.0032,2.0032 0 0 1 0.068359,-0.04297 2.0032,2.0032 0 0 1 0.11523,-0.06641 2.0032,2.0032 0 0 1 0.06641,-0.03125 2.0032,2.0032 0 0 1 0.10352,-0.04687 2.0032,2.0032 0 0 1 0.11914,-0.04297 2.0032,2.0032 0 0 1 0.05664,-0.01953 2.0032,2.0032 0 0 1 0.11719,-0.0293 2.0032,2.0032 0 0 1 0.09961,-0.02344 2.0032,2.0032 0 0 1 0.06836,-0.0098 2.0032,2.0032 0 0 1 0.13477,-0.01563 2.0032,2.0032 0 0 1 0.15819,-0.0078 z"
       inkscape:connector-curvature="0"
       style="fill:#323232;fill-opacity:1" />
    <path
       id="path832"
       d="M 11,10 A 2.0032,2.0032 0 0 0 8.9961,12.0039 2.0032,2.0032 0 0 0 10,13.7383 V 16 c 0,0.554 0.446,1 1,1 0.554,0 1,-0.446 1,-1 V 13.7363 A 2.0032,2.0032 0 0 0 13.0039,12.0039 2.0032,2.0032 0 0 0 11,10 Z"
       inkscape:connector-curvature="0"
       style="opacity:0.35;fill:#dedede" />
    <rect
       id="rect5737-9-6"
       transform="rotate(-90)"
       x="-18.997"
       y="2.9976001"
       width="16"
       height="16"
       style="color:#bebebe;fill:none" />
    <circle
       id="circle843"
       cx="11"
       cy="12.003"
       r="1.0032001"
       style="fill:#323232;fill-opacity:1" />
    <path
       id="rect858"
       d="M 11,2 C 8.23,2 6,4.23 6,7 v 3 H 8 V 7 c 0,-1.662 1.338,-3 3,-3 1.662,0 3,1.338 3,3 v 3 h 2 V 7 C 16,4.23 13.77,2 11,2 Z"
       inkscape:connector-curvature="0"
       style="opacity:0.75;fill:#323232;fill-opacity:1" />
  </g>
  <g
     id="document-decrypt">
    <path
       id="path857"
       d="m 5,40 c -1.108,0 -2,0.892 -2,2 v 7 c 0,1.108 0.892,2 2,2 h 12 c 1.108,0 2,-0.892 2,-2 v -7 c 0,-1.108 -0.892,-2 -2,-2 H 7 Z m 6,2 a 2.0032,2.0032 0 0 1 0.1582,0.0078 2.0032,2.0032 0 0 1 0.13477,0.01563 2.0032,2.0032 0 0 1 0.06836,0.0098 2.0032,2.0032 0 0 1 0.09961,0.02344 2.0032,2.0032 0 0 1 0.11719,0.0293 2.0032,2.0032 0 0 1 0.05664,0.01953 2.0032,2.0032 0 0 1 0.11914,0.04297 2.0032,2.0032 0 0 1 0.10352,0.04687 2.0032,2.0032 0 0 1 0.06641,0.03125 2.0032,2.0032 0 0 1 0.11523,0.06641 2.0032,2.0032 0 0 1 0.06836,0.04297 2.0032,2.0032 0 0 1 0.06836,0.04883 2.0032,2.0032 0 0 1 0.0957,0.07031 2.0032,2.0032 0 0 1 0.07031,0.0625 2.0032,2.0032 0 0 1 0.07422,0.07031 2.0032,2.0032 0 0 1 0.07031,0.07422 2.0032,2.0032 0 0 1 0.0625,0.07031 2.0032,2.0032 0 0 1 0.07031,0.0957 2.0032,2.0032 0 0 1 0.04883,0.06836 2.0032,2.0032 0 0 1 0.04297,0.06836 2.0032,2.0032 0 0 1 0.06641,0.11523 2.0032,2.0032 0 0 1 0.03125,0.06641 2.0032,2.0032 0 0 1 0.04687,0.10352 2.0032,2.0032 0 0 1 0.04297,0.11914 2.0032,2.0032 0 0 1 0.01953,0.05664 2.0032,2.0032 0 0 1 0.0293,0.11719 2.0032,2.0032 0 0 1 0.02344,0.09961 2.0032,2.0032 0 0 1 0.0098,0.06836 2.0032,2.0032 0 0 1 0.01563,0.13476 2.0032,2.0032 0 0 1 0.0078,0.1582 2.0032,2.0032 0 0 1 -0.0078,0.14844 2.0032,2.0032 0 0 1 -0.0078,0.09375 2.0032,2.0032 0 0 1 -0.01758,0.10742 2.0032,2.0032 0 0 1 -0.02344,0.11133 2.0032,2.0032 0 0 1 -0.0059,0.02734 2.0032,2.0032 0 0 1 -0.0078,0.02148 2.0032,2.0032 0 0 1 -0.04297,0.14453 2.0032,2.0032 0 0 1 -0.02734,0.07422 2.0032,2.0032 0 0 1 -0.0332,0.07813 2.0032,2.0032 0 0 1 -0.05664,0.11914 2.0032,2.0032 0 0 1 -0.03516,0.06445 2.0032,2.0032 0 0 1 -0.0625,0.10156 2.0032,2.0032 0 0 1 -0.04883,0.07227 2.0032,2.0032 0 0 1 -0.06641,0.08789 2.0032,2.0032 0 0 1 -0.06055,0.07227 2.0032,2.0032 0 0 1 -0.06445,0.06836 2.0032,2.0032 0 0 1 -0.08008,0.07617 2.0032,2.0032 0 0 1 -0.06836,0.06055 2.0032,2.0032 0 0 1 -0.09375,0.07422 2.0032,2.0032 0 0 1 -0.05859,0.04102 A 2.0032,2.0032 0 0 1 12,45.736319 v 2.2637 c 0,0.554 -0.446,1 -1,1 -0.1385,0 -0.27091,-0.02766 -0.39062,-0.07813 C 10.25022,48.770489 10,48.415519 10,48.000019 v -2.2617 a 2.0032,2.0032 0 0 1 -0.14648,-0.0957 2.0032,2.0032 0 0 1 -0.044922,-0.0332 2.0032,2.0032 0 0 1 -0.087891,-0.06836 2.0032,2.0032 0 0 1 -0.09375,-0.08203 2.0032,2.0032 0 0 1 -0.044922,-0.04492 2.0032,2.0032 0 0 1 -0.083984,-0.08984 2.0032,2.0032 0 0 1 -0.054687,-0.0625 2.0032,2.0032 0 0 1 -0.082031,-0.10742 2.0032,2.0032 0 0 1 -0.027344,-0.04102 2.0032,2.0032 0 0 1 -0.074219,-0.11914 2.0032,2.0032 0 0 1 -0.035156,-0.06641 2.0032,2.0032 0 0 1 -0.050781,-0.10352 2.0032,2.0032 0 0 1 -0.042969,-0.10547 2.0032,2.0032 0 0 1 -0.021484,-0.05859 2.0032,2.0032 0 0 1 -0.041016,-0.13476 2.0032,2.0032 0 0 1 -0.017578,-0.07031 2.0032,2.0032 0 0 1 -0.019531,-0.09375 2.0032,2.0032 0 0 1 -0.019531,-0.11914 2.0032,2.0032 0 0 1 -0.00781,-0.08594 2.0032,2.0032 0 0 1 -0.00781,-0.15234 2.0032,2.0032 0 0 1 0.00781,-0.1582 2.0032,2.0032 0 0 1 0.015625,-0.13476 2.0032,2.0032 0 0 1 0.00977,-0.06836 2.0032,2.0032 0 0 1 0.023437,-0.09961 2.0032,2.0032 0 0 1 0.029297,-0.11719 2.0032,2.0032 0 0 1 0.019531,-0.05664 2.0032,2.0032 0 0 1 0.042969,-0.11914 2.0032,2.0032 0 0 1 0.046875,-0.10352 2.0032,2.0032 0 0 1 0.03125,-0.06641 2.0032,2.0032 0 0 1 0.066406,-0.11523 2.0032,2.0032 0 0 1 0.042969,-0.06836 2.0032,2.0032 0 0 1 0.048828,-0.06836 2.0032,2.0032 0 0 1 0.070312,-0.0957 2.0032,2.0032 0 0 1 0.0625,-0.07031 2.0032,2.0032 0 0 1 0.070312,-0.07422 2.0032,2.0032 0 0 1 0.074219,-0.07031 2.0032,2.0032 0 0 1 0.070312,-0.0625 2.0032,2.0032 0 0 1 0.095703,-0.07031 2.0032,2.0032 0 0 1 0.068359,-0.04883 2.0032,2.0032 0 0 1 0.068359,-0.04297 2.0032,2.0032 0 0 1 0.11523,-0.06641 2.0032,2.0032 0 0 1 0.06641,-0.03125 2.0032,2.0032 0 0 1 0.10352,-0.04687 2.0032,2.0032 0 0 1 0.11914,-0.04297 2.0032,2.0032 0 0 1 0.05664,-0.01953 2.0032,2.0032 0 0 1 0.11719,-0.0293 2.0032,2.0032 0 0 1 0.09961,-0.02344 2.0032,2.0032 0 0 1 0.06836,-0.0098 2.0032,2.0032 0 0 1 0.13477,-0.01563 2.0032,2.0032 0 0 1 0.15819,-0.0078 z"
       inkscape:connector-curvature="0"
       style="fill:#323232;fill-opacity:1" />
    <path
       id="path859"
       d="M 11,42 A 2.0032,2.0032 0 0 0 8.9961,44.0039 2.0032,2.0032 0 0 0 10,45.7383 V 48 c 0,0.554 0.446,1 1,1 0.554,0 1,-0.446 1,-1 V 45.7363 A 2.0032,2.0032 0 0 0 13.0039,44.0039 2.0032,2.0032 0 0 0 11,42 Z"
       inkscape:connector-curvature="0"
       style="opacity:0.35;fill:#dedede" />
    <rect
       id="rect861"
       x="-4.2691999e-11"
       y="32"
       width="22"
       height="22"
       style="opacity:0" />
    <rect
       id="rect863"
       transform="rotate(-90)"
       x="-50.997002"
       y="2.9976001"
       width="16"
       height="16"
       style="color:#bebebe;fill:none" />
    <circle
       id="circle865"
       cx="11"
       cy="44.002998"
       r="1.0032001"
       style="fill:#323232;fill-opacity:1" />
    <path
       id="path867"
       d="m 11,34 c -2.4272,0 -4.4394,1.7126 -4.9004,4 h 2.082 C 8.59316,36.8353 9.6909,36 11,36 c 1.662,0 3,1.338 3,3 v 3 h 2 v -3 c 0,-2.77 -2.23,-5 -5,-5 z m -5,6 v 2 h 2 v -2 z"
       inkscape:connector-curvature="0"
       style="opacity:0.75;fill:#323232;fill-opacity:1" />
  </g>
  <g
     id="16-16-document-encrypt">
    <path
       id="path65-7"
       d="m 34,-28 c -2.216,0 -4,1.8216 -4,4.0625 V -22 h 2 v -2 c 0,-1.108 0.892,-2 2,-2 1.108,0 2,0.892 2,2 v 2 h 2 v -1.9375 C 38,-26.1775 36.216,-28 34,-28 Z"
       inkscape:connector-curvature="0"
       style="color:#000000;opacity:0.75;fill:#323232;enable-background:accumulate;fill-opacity:1" />
    <rect
       id="rect67-5"
       transform="rotate(-90)"
       x="13.003"
       y="25.997002"
       width="16"
       height="16"
       style="color:#bebebe;fill:none" />
    <g
       transform="translate(-8,-32)"
       id="g35"
       style="fill:#323232;fill-opacity:1">
      <circle
         id="path883"
         cx="42"
         cy="14"
         r="2"
         style="opacity:0.35;fill:#323232;fill-opacity:1" />
      <circle
         style="fill:#323232;fill-opacity:1"
         id="circle885"
         cx="42"
         cy="14"
         r="1" />
      <path
         id="path892"
         d="m 36,10 c -0.554,0 -1,0.446 -1,1 v 6 c 0,0.554 0.446,1 1,1 h 12 c 0.554,0 1,-0.446 1,-1 v -6 c 0,-0.554 -0.446,-1 -1,-1 h -2 -2 -4 -2 z m 6,2 a 2,2 0 0 1 2,2 2,2 0 0 1 -2,2 2,2 0 0 1 -2,-2 2,2 0 0 1 2,-2 z"
         inkscape:connector-curvature="0"
         style="color:#000000;enable-background:accumulate;fill:#323232;fill-opacity:1" />
    </g>
  </g>
  <g
     id="16-16-document-decrypt">
    <path
       id="path890"
       d="m 11,-28 c -2.1949,0 -3.9605,1.7886 -3.9941,4 H 9 c 0,-1.108 0.892,-2 2,-2 1.108,0 2,0.892 2,2 v 2 h 2 v -1.9375 C 15,-26.1775 13.216,-28 11,-28 Z"
       inkscape:connector-curvature="0"
       style="color:#000000;opacity:0.75;fill:#323232;enable-background:accumulate;fill-opacity:1" />
    <rect
       id="rect892"
       transform="rotate(-90)"
       x="13.003"
       y="2.9970016"
       width="16"
       height="16"
       style="color:#bebebe;fill:none" />
    <g
       transform="translate(-31,-32)"
       id="g43"
       style="fill:#323232;fill-opacity:1">
      <circle
         id="circle894"
         cx="42"
         cy="14"
         r="2"
         style="opacity:0.35;fill:#323232;fill-opacity:1" />
      <circle
         style="fill:#323232;fill-opacity:1"
         id="circle896"
         cx="42"
         cy="14"
         r="1" />
      <path
         id="path898"
         d="m 36,10 c -0.554,0 -1,0.446 -1,1 v 6 c 0,0.554 0.446,1 1,1 h 12 c 0.554,0 1,-0.446 1,-1 v -6 c 0,-0.554 -0.446,-1 -1,-1 h -2 -2 -4 -2 z m 6,2 a 2,2 0 0 1 2,2 2,2 0 0 1 -2,2 2,2 0 0 1 -2,-2 2,2 0 0 1 2,-2 z"
         inkscape:connector-curvature="0"
         style="color:#000000;enable-background:accumulate;fill:#323232;fill-opacity:1" />
    </g>
  </g>
</svg>
