<?xml version="1.0" encoding="UTF-8" standalone="no"?>
<svg
   xmlns:dc="http://purl.org/dc/elements/1.1/"
   xmlns:cc="http://creativecommons.org/ns#"
   xmlns:rdf="http://www.w3.org/1999/02/22-rdf-syntax-ns#"
   xmlns:svg="http://www.w3.org/2000/svg"
   xmlns="http://www.w3.org/2000/svg"
   xmlns:sodipodi="http://sodipodi.sourceforge.net/DTD/sodipodi-0.dtd"
   xmlns:inkscape="http://www.inkscape.org/namespaces/inkscape"
   id="svg2"
   width="22"
   height="22"
   inkscape:version="0.92.4 5da689c313, 2019-01-14"
   sodipodi:docname="drive.svg"
   version="1.1">
  <metadata
     id="metadata15">
    <rdf:RDF>
      <cc:Work
         rdf:about="">
        <dc:format>image/svg+xml</dc:format>
        <dc:type
           rdf:resource="http://purl.org/dc/dcmitype/StillImage" />
        <dc:title></dc:title>
      </cc:Work>
    </rdf:RDF>
  </metadata>
  <sodipodi:namedview
     id="namedview12"
     bordercolor="#666666"
     borderopacity="1"
     gridtolerance="10"
     guidetolerance="10"
     inkscape:current-layer="svg2"
     inkscape:cx="-4.5482715"
     inkscape:cy="9.7784741"
     inkscape:pageopacity="0"
     inkscape:pageshadow="2"
     inkscape:window-height="1019"
     inkscape:window-maximized="1"
     inkscape:window-width="1920"
     inkscape:window-x="0"
     inkscape:window-y="36"
     inkscape:zoom="15.170655"
     objecttolerance="10"
     pagecolor="#c8c8c8"
     showgrid="false" />
  <defs
     id="defs4">
    <style
       id="current-color-scheme"
       type="text/css">.ColorScheme-Text { color:#dedede; } .ColorScheme-Highlight { color:#5294e2; } .ColorScheme-ButtonBackground { color:#dedede; }</style>
  </defs>
  <rect
     id="rect3018"
     class="ColorScheme-Text"
     x="-20.43"
     y="-19.39"
     width="16"
     height="16"
     ry="0"
     opacity="0" />
  <g
     id="16-16-drive-harddisk">
    <rect
       id="rect3835"
       x="-20"
       y="6"
       width="16"
       height="16"
       ry="0"
       style="opacity:0" />
    <path
       id="rect8476"
       class="ColorScheme-Text"
       d="m -17,7 c -1,0 -1,1 -1,1 v 12 c 0,0 0,1 1,1 h 10 c 0,0 1,0 1,-1 V 8 c 0,0 0,-1 -1,-1 z m 5,2 c 2.2091,0 4,1.7909 4,4 0,2.2091 -1.7909,4 -4,4 h -4 v -4 c 0,-2.2091 1.7909,-4 4,-4 z m 0,2 c -1.1046,0 -2,0.89543 -2,2 0,1.10457 0.89543,2 2,2 1.10457,0 2,-0.89543 2,-2 0,-1.10457 -0.89543,-2 -2,-2 z"
       inkscape:connector-curvature="0"
       style="color:#dedede;fill:#323232;fill-opacity:1" />
  </g>
  <g
     id="drive-harddisk">
    <path
       id="rect41"
       d="M 6,2 C 4.892,2 4,2.892 4,4 v 14 c 0,1.108 0.892,2 2,2 h 10 c 1.108,0 2,-0.892 2,-2 V 4 C 18,2.892 17.108,2 16,2 Z M 6,4 H 7 V 6 H 6 Z M 8,4 H 9 V 6 H 8 Z m 2,0 h 1 v 2 h -1 z m 2,0 h 1 v 2 h -1 z m 2,1 h 1 v 1 h -1 z m -3,2 a 5,5 0 0 1 5,5 5,5 0 0 1 -5,5 5,5 0 0 1 -5,-5 5,5 0 0 1 5,-5 z m 5,10 a 1,1 0 0 1 1,1 1,1 0 0 1 -1,1 1,1 0 0 1 -1,-1 1,1 0 0 1 1,-1 z"
       inkscape:connector-curvature="0"
       style="fill:#323232;fill-opacity:1" />
    <path
       id="rect4148"
       d="M 0,0 H 22 V 22 H 0 Z"
       inkscape:connector-curvature="0"
       style="opacity:0" />
    <g
       id="g13"
       style="fill:#323232;fill-opacity:1">
      <circle
         style="fill:#323232;fill-opacity:1"
         id="circle57"
         cx="11"
         cy="12"
         r="2" />
    </g>
  </g>
</svg>
