<?xml version="1.0" encoding="UTF-8" standalone="no"?>
<svg
   xmlns:dc="http://purl.org/dc/elements/1.1/"
   xmlns:cc="http://creativecommons.org/ns#"
   xmlns:rdf="http://www.w3.org/1999/02/22-rdf-syntax-ns#"
   xmlns:svg="http://www.w3.org/2000/svg"
   xmlns="http://www.w3.org/2000/svg"
   xmlns:sodipodi="http://sodipodi.sourceforge.net/DTD/sodipodi-0.dtd"
   xmlns:inkscape="http://www.inkscape.org/namespaces/inkscape"
   width="242"
   height="154"
   version="1.1"
   id="svg209"
   sodipodi:docname="fcitx.svg"
   inkscape:version="0.92.4 5da689c313, 2019-01-14">
  <metadata
     id="metadata213">
    <rdf:RDF>
      <cc:Work
         rdf:about="">
        <dc:format>image/svg+xml</dc:format>
        <dc:type
           rdf:resource="http://purl.org/dc/dcmitype/StillImage" />
      </cc:Work>
    </rdf:RDF>
  </metadata>
  <sodipodi:namedview
     pagecolor="#ffffff"
     bordercolor="#666666"
     borderopacity="1"
     objecttolerance="10"
     gridtolerance="10"
     guidetolerance="10"
     inkscape:pageopacity="0"
     inkscape:pageshadow="2"
     inkscape:window-width="1920"
     inkscape:window-height="1019"
     id="namedview211"
     showgrid="false"
     inkscape:zoom="1.9075016"
     inkscape:cx="83.290192"
     inkscape:cy="17.804953"
     inkscape:window-x="0"
     inkscape:window-y="36"
     inkscape:window-maximized="1"
     inkscape:current-layer="svg209" />
  <defs
     id="defs5">
    <style
       id="current-color-scheme"
       type="text/css">.ColorScheme-Text{color:#dfdfdf}</style>
    <style
       type="text/css"
       id="style3" />
  </defs>
  <g
     id="fcitx-bopomofo-libpinyin">
    <path
       inkscape:connector-curvature="0"
       d="m 70,25 c -0.554,0 -1,0.446 -1,1 v 14 c 0,0.554 0.446,1 1,1 h 14 c 0.554,0 1,-0.446 1,-1 V 26 c 0,-0.554 -0.446,-1 -1,-1 z m 7.3008,1.5996 2,1.5 -0.60156,0.80078 -2,-1.5 z m -5.9473,0.04687 2,2 -0.70703,0.70703 -2,-2 z M 74,28.99997 h 9 v 1 h -4 v 3 h 3 v 1 h -3 v 4 h 4 v 1 h -9 v -1 h 4 v -4 h -3 v -1 h 3 v -3 h -4 z m -2.6465,0.64648 2,2 -0.70703,0.70703 -2,-2 z m 1.1719,3.1953 0.94922,0.31641 -2,6 -0.94922,-0.31641 z"
       style="fill:#323232;fill-opacity:1;fill-rule:evenodd;paint-order:fill markers stroke"
       id="path7" />
    <path
       style="fill:none"
       inkscape:connector-curvature="0"
       d="M 66,22 H 88 V 44 H 66 Z"
       id="path9" />
  </g>
  <g
     id="fcitx-pinyin">
    <path
       d="M 3.9902,3.002 C 3.44102,3.0075271 2.99997,3.44951 2.99997,4.00005 v 14 c 0,0.554 0.446,1 1,1 h 14 c 0.554,0 1,-0.446 1,-1 v -14 c 0,-0.55054 -0.44105,-0.99252 -0.99023,-0.99805 z m 6.9102,1.6992 -0.80078,0.59961 1.2754,1.6992 h -1.375 v 1 h 1 v 3 H 9.11722 L 9.22269,10.94728 8.77738,10.05275 8.00004,10.43947 v -2.4395 h 1 v -1 h -1 v -2 h -1 v 2 h -2 v 1 h 2 v 2.9414 l -2.2227,1.1113 0.44531,0.89453 1.7773,-0.88672 v 3.9395 h -2 v 1 h 3 v -5.4414 l 1,-0.5 v 0.94141 h 1.9609 c -0.088,0.895 -0.39097,1.6116 -0.79297,2.3066 -0.497,0.86 -1.5098,1.8301 -1.5098,1.8301 l 0.68359,0.72852 c 0,0 1.0704,-0.98359 1.6914,-2.0586 0.449,-0.778 0.82978,-1.6876 0.92578,-2.8066 h 2.041 v 5 h 1 v -5 h 2 v -1 h -2 v -3 h 2 v -1 h -2.375 l 1.2754,-1.6992 -0.80078,-0.59961 -1.5,2 0.39844,0.29883 h -1.9961 L 12.40025,6.7012 Z M 12,8 h 2 v 3 h -2 z"
       style="fill:#323232;fill-opacity:1;fill-rule:evenodd;paint-order:fill markers stroke"
       id="path12"
       inkscape:connector-curvature="0" />
    <path
       d="M 0,0 H 22 V 22 H 0 Z"
       id="path14"
       inkscape:connector-curvature="0"
       style="fill:none" />
  </g>
  <g
     id="fcitx-shuangpin">
    <path
       inkscape:connector-curvature="0"
       d="m 48,3.002 c -0.554,0 -1,0.446 -1,1 v 14 c 0,0.55054 0.44105,0.99252 0.99023,0.99805 h 14.02 c 0.54918,-0.0055 0.99023,-0.44751 0.99023,-0.99805 v -14 c 0,-0.554 -0.446,-1 -1,-1 z M 49,5 v 1 h 4.4277 c -0.071,0.643 -0.31714,2.7366 -0.86914,4.6426 -0.694,-0.963 -1.487,-1.9801 -2.668,-3.4551 l -0.78125,0.62695 c 1.418,1.77 2.2867,2.8842 3.0527,3.9902 -1.293,3.343 -3.2637,4.6562 -3.2637,4.6562 l 0.55664,0.83203 c 0,0 1.9702,-1.3633 3.3652,-4.4883 0.437,0.686 0.88288,1.421 1.4219,2.375 l 0.86914,-0.49024 c -0.57371,-1.0271 -1.1868,-2.0318 -1.8379,-3.0117 0.897,-2.608 1.2246,-6.1289 1.2246,-6.1289 l 0.05078,-0.54883 z m 6,0 v 1 h 0.58984 c 0.102,0.592 0.55255,3.1368 1.3105,5.0938 0.266,0.685 0.54972,1.3432 0.88672,1.9922 -1.288,2.042 -3.0684,3.1426 -3.0684,3.1426 l 0.51758,0.85547 c 0,0 1.7095,-1.0501 3.1035,-3.0371 0.656,1.024 1.5207,2.0305 2.8027,3.0645 l 0.62695,-0.7793 c -1.384,-1.117 -2.2198,-2.1475 -2.8438,-3.2305 0.125,-0.228 0.25619,-0.44736 0.36719,-0.69336 0.874,-1.94 1.707,-4.7612 1.707,-6.9082 v -0.5 z m 1.6074,1 h 3.3164 c -0.109,1.853 -0.78597,4.318 -1.543,5.998 l -0.0078,0.01563 c -0.19192,-0.42182 -0.37168,-0.84906 -0.53906,-1.2812 -0.65801,-1.699 -1.0866,-3.9674 -1.2266,-4.7324 z"
       style="fill:#323232;fill-opacity:1;fill-rule:evenodd;paint-order:fill markers stroke"
       id="path17" />
    <path
       style="fill:none"
       inkscape:connector-curvature="0"
       d="M 44,0 H 66 V 22 H 44 Z"
       id="path19" />
  </g>
  <g
     id="fcitx-wubi">
    <path
       inkscape:connector-curvature="0"
       d="m 157.99,3.002 c -0.54918,0.00553 -0.99023,0.44751 -0.99023,0.99805 v 14 c 0,0.554 0.446,1 1,1 h 14 c 0.554,0 1,-0.446 1,-1 v -14 c 0,-0.55054 -0.44105,-0.99252 -0.99023,-0.99805 z M 159.9998,6 v 1 h 3.877 l -0.66601,3 h -2.2109 v 1 h 1.9883 l -0.88867,4 h -2.0996 v 1 h 10 v -1 h -2 v -5 h -3.7637 l 0.66601,-3 h 4.0977 V 6 Z m 4.0137,5 h 2.9863 v 4 h -3.877 z"
       style="fill:#323232;fill-opacity:1;fill-rule:evenodd;paint-order:fill markers stroke"
       id="path22" />
    <path
       style="fill:none"
       inkscape:connector-curvature="0"
       d="m 154,0 h 22 v 22 h -22 z"
       id="path24" />
  </g>
  <g
     id="fcitx-googlepinyin">
    <path
       inkscape:connector-curvature="0"
       d="m 3.9902,47.002 c -0.54918,0.0055 -0.99023,0.44751 -0.99023,0.99805 v 14 c 0,0.554 0.446,1 1,1 h 14 c 0.554,0 1,-0.446 1,-1 v -14 c 0,-0.55054 -0.44105,-0.99252 -0.99023,-0.99805 z m 7.0176,2.5 c -0.03646,3.04e-4 -0.07292,9.7e-4 -0.10937,0.002 -1.3323,0.02228 -2.611,0.52833 -3.5977,1.4238 -2.0354,1.8563 -2.3881,4.9301 -0.82617,7.1992 1.5697,2.2635 4.5695,3.0207 7.0254,1.7734 2.19,-1.117 3.3324,-3.5454 2.8984,-5.9004 h -2.0566 l 0.002,0.0078 h -3.3438 v 2 h 3.3359 c -0.26652,0.91416 -0.8982,1.678 -1.7461,2.1113 -1.57,0.8 -3.4707,0.32109 -4.4707,-1.1289 -1.0023,-1.4424 -0.77642,-3.405 0.52734,-4.582 1.2962,-1.1846 3.2709,-1.2205 4.6094,-0.08398 l 1.291,-1.5293 c -0.99032,-0.83486 -2.2438,-1.2928 -3.5391,-1.293 z"
       style="fill:#323232;fill-opacity:1;fill-rule:evenodd;paint-order:fill markers stroke"
       id="path27" />
    <path
       style="fill:none"
       inkscape:connector-curvature="0"
       d="M 0,44 H 22 V 66 H 0 Z"
       id="path29" />
  </g>
  <g
     id="fcitx-pinyin-libpinyin">
    <path
       inkscape:connector-curvature="0"
       d="m 4,25 c -0.554,0 -1,0.446 -1,1 v 14 c 0,0.554 0.446,1 1,1 h 14 c 0.554,0 1,-0.446 1,-1 V 26 c 0,-0.554 -0.446,-1 -1,-1 z m 6.9004,1.7012 1.5,2 -0.39844,0.29883 h 1.9961 l -0.39844,-0.29883 1.5,-2 0.80078,0.59961 -1.2754,1.6992 H 17 v 1 h -2 v 3 h 2 v 1 h -2 v 5 h -1 v -5 h -2.041 c -0.096,1.119 -0.47678,2.0296 -0.92578,2.8066 -0.62,1.075 -1.6914,2.0586 -1.6914,2.0586 L 8.65823,38.13669 c 0,0 1.0128,-0.97008 1.5098,-1.8301 0.401,-0.695 0.70397,-1.4116 0.79297,-2.3066 H 9.0001 v -0.94141 l -1,0.5 v 5.4414 h -3 v -1 h 2 v -3.9414 l -1.7773,0.88867 -0.44531,-0.89453 2.2227,-1.1133 v -2.9395 h -2 v -1 h 2 v -2 h 1 v 2 h 1 v 1 h -1 v 2.4414 l 0.77734,-0.38867 0.44531,0.89453 -0.10547,0.05273 h 1.8828 v -3 h -1 v -1 h 1.375 l -1.2754,-1.6992 z M 12,30 v 3 h 2 v -3 z"
       id="path32"
       style="fill:#323232;fill-opacity:1" />
    <path
       style="fill:none"
       inkscape:connector-curvature="0"
       d="M 0,22 H 22 V 44 H 0 Z"
       id="path34" />
  </g>
  <g
     id="fcitx-shuangpin-libpinyin">
    <path
       inkscape:connector-curvature="0"
       d="m 48,25 c -0.554,0 -1,0.446 -1,1 v 14 c 0,0.554 0.446,1 1,1 h 14 c 0.554,0 1,-0.446 1,-1 V 26 c 0,-0.554 -0.446,-1 -1,-1 z m 1,2 h 5.5488 l -0.05078,0.54883 c 0,0 -0.32761,3.5199 -1.2246,6.1289 a 45.785,45.785 0 0 1 1.8379,3.0117 l -0.86914,0.49024 a 51.03,51.03 0 0 0 -1.4219,-2.375 c -1.394,3.125 -3.3652,4.4883 -3.3652,4.4883 l -0.55664,-0.83203 c 0,0 1.9697,-1.3142 3.2637,-4.6562 -0.766,-1.107 -1.6347,-2.2222 -3.0527,-3.9902 l 0.78125,-0.62695 c 1.18,1.475 1.973,2.4921 2.668,3.4551 0.55,-1.906 0.79814,-3.9996 0.86914,-4.6426 h -4.4277 z m 6,0 h 6 v 0.5 c 0,2.147 -0.83303,4.9682 -1.707,6.9082 -0.111,0.247 -0.24219,0.46536 -0.36719,0.69336 0.624,1.083 1.4598,2.1135 2.8438,3.2305 l -0.62695,0.7793 c -1.282,-1.035 -2.1467,-2.0415 -2.8027,-3.0645 -1.393,1.987 -3.1035,3.0371 -3.1035,3.0371 l -0.51758,-0.85547 c 0,0 1.7804,-1.1006 3.0684,-3.1426 a 19.584,19.584 0 0 1 -0.88672,-1.9922 c -0.758,-1.957 -1.2085,-4.5018 -1.3105,-5.0938 h -0.58984 z m 1.6074,1 c 0.14,0.765 0.56856,3.0334 1.2266,4.7324 0.173,0.448 0.35106,0.86725 0.53906,1.2812 0.003,-0.006 0.0048,-0.0056 0.0078,-0.01563 0.757,-1.68 1.434,-4.145 1.543,-5.998 z"
       style="fill:#323232;fill-opacity:1;fill-rule:evenodd;paint-order:fill markers stroke"
       id="path37" />
    <path
       style="fill:none"
       inkscape:connector-curvature="0"
       d="M 44,22 H 66 V 44 H 44 Z"
       id="path39" />
  </g>
  <g
     id="fcitx-sunpinyin"
     transform="translate(22,44)">
    <path
       inkscape:connector-curvature="0"
       class="ColorScheme-Text"
       d="m 11,1.514 c -0.256,0 -0.511,0.099 -0.707,0.295 L 8.102,4 H 5 C 4.446,4 4,4.446 4,5 v 3.1 l -2.193,2.193 a 0.998,0.998 0 0 0 0,1.414 L 4,13.9 V 17 c 0,0.554 0.446,1 1,1 h 3.1 l 2.193,2.193 a 0.998,0.998 0 0 0 1.414,0 L 13.9,18 H 17 c 0.554,0 1,-0.446 1,-1 v -3.102 l 2.191,-2.191 a 0.998,0.998 0 0 0 0,-1.414 L 18,8.102 V 5 C 18,4.446 17.554,4 17,4 H 13.898 L 11.707,1.809 A 0.998,0.998 0 0 0 11,1.514 Z m -0.1,3.186 1.5,2 -0.398,0.299 h 1.996 L 13.6,6.7 15.1,4.7 15.9,5.3 14.625,7 H 17 v 1 h -2 v 3 h 2 v 1 h -2 v 5 h -1 v -5 h -2.041 c -0.096,1.119 -0.477,2.03 -0.926,2.807 -0.62,1.075 -1.691,2.058 -1.691,2.058 L 8.658,16.137 c 0,0 1.013,-0.97 1.51,-1.83 0.401,-0.695 0.704,-1.412 0.793,-2.307 H 9 v -0.941 l -1,0.5 V 17 H 5 V 16 H 7 V 12.059 L 5.223,12.947 4.777,12.053 7,10.94 V 8 H 5 V 7 H 7 V 5 H 8 V 7 H 9 V 8 H 8 v 2.441 L 8.777,10.053 9.223,10.947 9.117,11 H 11 V 8 H 10 V 7 h 1.375 L 10.1,5.3 10.9,4.701 Z M 12,8 v 3 h 2 V 8 Z"
       id="path42"
       style="fill:#323232;fill-opacity:1" />
    <path
       style="fill:none"
       inkscape:connector-curvature="0"
       d="M 0,0 H 22 V 22 H 0 Z"
       id="path44" />
  </g>
  <g
     id="fcitx-emoji"
     transform="translate(0,-38)">
    <path
       style="fill:none"
       inkscape:connector-curvature="0"
       d="m 0,170 h 22 v 22 H 0 Z"
       id="path47" />
    <path
       inkscape:connector-curvature="0"
       class="ColorScheme-Text"
       transform="translate(0,26)"
       d="m 3.223,150.053 -0.446,0.894 4,2 0.446,-0.894 z m 15.554,0 -4,2 0.446,0.894 4,-2 z M 4,153 a 1,1 0 0 0 -1,1 1,1 0 0 0 1,1 1,1 0 0 0 1,-1 1,1 0 0 0 -1,-1 z m 14,0 a 1,1 0 0 0 -1,1 1,1 0 0 0 1,1 1,1 0 0 0 1,-1 1,1 0 0 0 -1,-1 z m -9.9,1.7 c -0.81,1.08 -1.235,2.288 -1.16,3.335 0.037,0.524 0.21,1.022 0.568,1.39 C 7.866,159.795 8.396,160 9,160 c 0.961,0 1.639,-0.68 2,-1.457 0.361,0.776 1.039,1.457 2,1.457 0.604,0 1.134,-0.205 1.492,-0.574 0.359,-0.37 0.531,-0.867 0.569,-1.39 0.074,-1.048 -0.35,-2.257 -1.16,-3.337 l -0.801,0.602 c 0.69,0.92 1.015,1.961 0.964,2.664 -0.025,0.351 -0.133,0.603 -0.29,0.765 C 13.616,158.893 13.396,159 13,159 12.472,159 12.16,158.693 11.893,158.105 11.625,157.518 11.5,156.695 11.5,156 h -1 c 0,0.694 -0.125,1.518 -0.393,2.105 C 9.84,158.693 9.527,159 9,159 8.604,159 8.384,158.893 8.227,158.73 8.069,158.568 7.961,158.316 7.936,157.965 7.886,157.262 8.21,156.221 8.9,155.301 l -0.8,-0.602 z"
       id="path49"
       style="fill:#323232;fill-opacity:1" />
  </g>
  <g
     id="fcitx-erbi">
    <path
       inkscape:connector-curvature="0"
       d="m 136,3 c -0.554,0 -1,0.446 -1,1 v 14 c 0,0.554 0.446,1 1,1 h 14 c 0.554,0 1,-0.446 1,-1 V 4 c 0,-0.554 -0.446,-1 -1,-1 z m 2,4 v 1 h 10 V 7 Z m -1,7 v 1 h 12 v -1 z"
       style="fill:#323232;fill-opacity:1;fill-rule:evenodd;paint-order:fill markers stroke"
       id="path52" />
    <path
       style="fill:none"
       inkscape:connector-curvature="0"
       d="m 132,0 h 22 v 22 h -22 z"
       id="path54" />
  </g>
  <g
     id="fcitx-ziranma">
    <path
       inkscape:connector-curvature="0"
       d="m 202,3 c -0.554,0 -1,0.446 -1,1 v 14 c 0,0.554 0.446,1 1,1 h 14 c 0.554,0 1,-0.446 1,-1 V 4 c 0,-0.554 -0.446,-1 -1,-1 z M 207.6797,4.6152 204.8184,7 h -0.81836 v 10 h 10 V 7 h -7.6172 l 1.9375,-1.6152 z M 205,8 h 8 v 8 h -8 v -2 h 6 v -1 h -6 v -2 h 6 v -1 h -6 z"
       style="fill:#323232;fill-opacity:1;fill-rule:evenodd;paint-order:fill markers stroke"
       id="path57" />
    <path
       style="fill:none"
       inkscape:connector-curvature="0"
       d="m 198,0 h 22 v 22 h -22 z"
       id="path59" />
  </g>
  <g
     id="fcitx-quanpin">
    <path
       inkscape:connector-curvature="0"
       d="m 26,3 c -0.554,0 -1,0.446 -1,1 v 14 c 0,0.554 0.446,1 1,1 h 14 c 0.554,0 1,-0.446 1,-1 V 4 C 41,3.446 40.554,3 40,3 Z m 6.5098,1.9023 c -0.186,0.93 -1.5474,2.0606 -2.9434,2.8496 -1.395,0.788 -2.7363,1.2773 -2.7363,1.2773 l 0.33984,0.94141 c 0,0 0.80008,-0.29392 1.8301,-0.79492 v 0.82422 h 3.5 v 2 h -2.5 v 1 h 2.5 v 3 h -4.5 v 1 h 10 v -1 h -4.5 v -3 h 2.5 v -1 h -2.5 v -2 h 3.5 V 9.13077 c 1.016,0.517 1.8242,0.83789 1.8242,0.83789 l 0.35156,-0.9375 c 0,0 -3.8554,-1.4981 -5.7324,-3.7871 0.013,-0.05 0.03688,-0.096484 0.04687,-0.14648 z m 0.49023,1.3301 c 1.116,1.215 2.5434,2.1376 3.7344,2.7676 h -7.3965 c 0.237,-0.121 0.4737,-0.23695 0.7207,-0.37695 1.096,-0.619 2.2734,-1.3946 2.9414,-2.3906 z"
       style="fill:#323232;fill-opacity:1;fill-rule:evenodd;paint-order:fill markers stroke"
       id="path62" />
    <path
       style="fill:none"
       inkscape:connector-curvature="0"
       d="M 22,0 H 44 V 22 H 22 Z"
       id="path64" />
  </g>
  <g
     id="fcitx-cangjie">
    <path
       inkscape:connector-curvature="0"
       d="m 224,3 c -0.554,0 -1,0.446 -1,1 v 14 c 0,0.554 0.446,1 1,1 h 14 c 0.554,0 1,-0.446 1,-1 V 4 c 0,-0.554 -0.446,-1 -1,-1 z m 6.584,1.7227 c -1.844,2.765 -5.6465,3.2812 -5.6465,3.2812 l 0.125,0.99219 c 0,0 0.8335,-0.12416 1.9375,-0.53516 v 4.0391 c 0,0.833 -0.45359,1.913 -0.93359,2.752 -0.48,0.84 -0.95703,1.4355 -0.95703,1.4355 l 0.78124,0.625 c 0,0 0.52197,-0.65345 1.043,-1.5645 0.022,-0.039 0.0444,-0.085 0.0664,-0.125 v 1.377 h 8 v -3 h -7.2754 c 0.10555,-0.32546 0.17946,-0.66034 0.2207,-1 h 7.0547 v -4.5391 c 1.104,0.412 1.9375,0.53516 1.9375,0.53516 l 0.125,-0.99219 c 0,0 -3.8025,-0.51625 -5.6465,-3.2812 z m 0.41602,0.98047 c 0.859,1.07 1.9326,1.7989 2.9336,2.2969 h -2.4336 l 0.27734,-0.41602 -1.5,-1 -0.55468,0.83203 0.875,0.58398 h -2.5312 c 1,-0.498 2.0746,-1.2269 2.9336,-2.2969 z m -3,3.2969 h 6 v 3 h -6 v -1 h 5 v -1 h -5 z m 0,6 h 6 v 1 h -6 z"
       style="fill:#323232;fill-opacity:1;fill-rule:evenodd;paint-order:fill markers stroke"
       id="path67" />
    <path
       style="fill:none"
       inkscape:connector-curvature="0"
       d="m 220,0 h 22 v 22 h -22 z"
       id="path69" />
  </g>
  <g
     id="fcitx-wbpy">
    <path
       inkscape:connector-curvature="0"
       d="m 179.99,3.002 c -0.54918,0.00553 -0.99023,0.44751 -0.99023,0.99805 v 14 c 0,0.554 0.446,1 1,1 h 8 c 0,0.554 0.446,1 1,1 h 6 c 0.554,0 1,-0.446 1,-1 v -8 c 0,-0.554 -0.446,-1 -1,-1 v -6 c 0,-0.55054 -0.44105,-0.99252 -0.99023,-0.99805 z M 181,5 h 12 v 5 l -6.7639,5e-5 0.66601,-3 h 4.0977 v -1 h -9 v 1 h 3.877 l -0.66601,3 h -2.2109 v 1 h 1.9883 l -0.88867,4 h -2.0996 v 1 h 6 l 1e-4,0.99995 h -7 z m 5.0135,6 h 1.9863 v 4 h -2.877 z m 3.9863,1 h 0.5 c 0.75,0 1.5327,-0.01711 2.2207,0.21289 0.345,0.115 0.67602,0.30528 0.91602,0.61328 0.24,0.308 0.36328,0.71583 0.36328,1.1738 0,0.45797 -0.12428,0.86583 -0.36328,1.1738 -0.24,0.308 -0.57202,0.49828 -0.91602,0.61328 -0.534,0.178 -1.1337,0.16006 -1.7207,0.16406 v 2.0488 h -1 z m 1,1.043 v 1.9141 c 0.528,-0.012 1.0833,-0.01114 1.4043,-0.11914 0.218,-0.072 0.35436,-0.16434 0.44336,-0.27734 0.088,-0.114 0.15234,-0.26955 0.15234,-0.56055 0,-0.292 -0.0643,-0.44755 -0.15234,-0.56055 -0.089,-0.114 -0.22536,-0.20434 -0.44336,-0.27734 -0.321,-0.107 -0.8763,-0.10714 -1.4043,-0.11914 z"
       style="fill:#323232;fill-opacity:1;fill-rule:evenodd;paint-order:fill markers stroke"
       id="path72" />
    <path
       style="fill:none"
       inkscape:connector-curvature="0"
       d="m 176,0 h 22 v 22 h -22 z"
       id="path74" />
  </g>
  <g
     id="fcitx-quanpin-libpinyin">
    <path
       inkscape:connector-curvature="0"
       d="m 26,25 c -0.554,0 -1,0.446 -1,1 v 14 c 0,0.554 0.446,1 1,1 h 14 c 0.554,0 1,-0.446 1,-1 V 26 c 0,-0.554 -0.446,-1 -1,-1 z m 6.5098,1.9023 0.98047,0.19531 c -0.01,0.05 -0.03388,0.09648 -0.04687,0.14648 1.877,2.29 5.7324,3.7871 5.7324,3.7871 l -0.35156,0.9375 c 0,0 -0.80822,-0.32189 -1.8242,-0.83789 v 0.86914 h -3.5 v 2 h 2.5 v 1 h -2.5 v 3 h 4.5 v 1 h -10 v -1 h 4.5 v -3 h -2.5 v -1 h 2.5 v -2 h -3.5 v -0.82422 c -1.029,0.501 -1.8301,0.79492 -1.8301,0.79492 L 26.8301,31.02923 c 0,0 1.3413,-0.48934 2.7363,-1.2773 1.396,-0.789 2.7574,-1.9196 2.9434,-2.8496 z m 0.49023,1.3301 c -0.668,0.997 -1.8464,1.7716 -2.9414,2.3906 -0.248,0.14 -0.4837,0.25595 -0.7207,0.37695 h 7.3965 c -1.191,-0.63 -2.6184,-1.5526 -3.7344,-2.7676 z"
       style="fill:#323232;fill-opacity:1;fill-rule:evenodd;paint-order:fill markers stroke"
       id="path77" />
    <path
       style="fill:none"
       inkscape:connector-curvature="0"
       d="M 22,22 H 44 V 44 H 22 Z"
       id="path79" />
  </g>
  <g
     id="fcitx-bopomofo">
    <path
       inkscape:connector-curvature="0"
       d="m 70,3 c -0.554,0 -1,0.446 -1,1 v 14 c 0,0.554 0.446,1 1,1 h 14 c 0.554,0 1,-0.446 1,-1 V 4 C 85,3.446 84.554,3 84,3 Z m 7.3008,1.5996 -0.60156,0.80078 2,1.5 0.60156,-0.80078 z m -5.9473,0.046875 -0.70703,0.70703 2,2 0.70703,-0.70703 z M 74,6.999975 v 1 h 4 v 3 h -3 v 1 h 3 v 4 h -4 v 1 h 9 v -1 h -4 v -4 h 3 v -1 h -3 v -3 h 4 v -1 z m -2.6465,0.64648 -0.70703,0.70703 2,2 0.70703,-0.70703 z m 1.1719,3.1953 -2,6 0.94922,0.31641 2,-6 z"
       style="fill:#323232;fill-opacity:1;fill-rule:evenodd;paint-order:fill markers stroke"
       id="path82" />
    <path
       style="fill:none"
       inkscape:connector-curvature="0"
       d="M 66,0 H 88 V 22 H 66 Z"
       id="path84" />
  </g>
  <g
     id="fcitx-chewing">
    <path
       inkscape:connector-curvature="0"
       d="m 92,3 c -0.554,0 -1,0.446 -1,1 v 14 c 0,0.554 0.446,1 1,1 h 14 c 0.554,0 1,-0.446 1,-1 V 4 c 0,-0.554 -0.446,-1 -1,-1 z m 1,2 v 1 h 1 v 3 h -1 v 8 h 6 V 9 H 97 V 6 h 2 V 5 Z m 6,4 0.40039,0.30078 c 0,0 0.39888,-0.51078 0.79688,-1.3008 h 1.8027 v 2 h -2 v 1 h 5 v -1 h -2 v -2 h 2 v -1 h -2 v -2 h -1 v 2 h -1.3828 c 0.218,-0.611 0.38281,-1.291 0.38281,-2 h -1 c 0,1.75 -1.4004,3.6992 -1.4004,3.6992 z M 95,6 h 1 v 3 h -1 z m 0,4 h 1 v 3 h 1 v -3 h 1 v 6 h -4 v -1 h 3 v -1 h -3 v -1 h 1 z m 5,2 v 5 h 5 v -5 z m 1,1 h 3 v 3 h -3 z"
       style="fill:#323232;fill-opacity:1;fill-rule:evenodd;paint-order:fill markers stroke"
       id="path87" />
    <path
       style="fill:none"
       inkscape:connector-curvature="0"
       d="m 88,0 h 22 V 22 H 88 Z"
       id="path89" />
  </g>
  <g
     id="fcitx-chewing-libpinyin">
    <path
       inkscape:connector-curvature="0"
       d="m 92,25 c -0.554,0 -1,0.446 -1,1 v 14 c 0,0.554 0.446,1 1,1 h 14 c 0.554,0 1,-0.446 1,-1 V 26 c 0,-0.554 -0.446,-1 -1,-1 z m 1,2 h 6 v 1 h -2 v 3 h 2 l -0.40039,-0.30078 c 0,0 1.4004,-1.9492 1.4004,-3.6992 h 1 c 0,0.709 -0.16481,1.389 -0.38281,2 H 102 v -2 h 1 v 2 h 2 v 1 h -2 v 2 h 2 v 1 h -5 v -1 h 2 v -2 h -1.8027 c -0.398,0.79 -0.79688,1.3008 -0.79688,1.3008 l -0.40039,-0.30078 v 8 h -6 v -8 h 1 v -3 h -1 z m 2,1 v 3 h 1 v -3 z m 0,4 v 3 h -1 v 1 h 3 v 1 h -3 v 1 h 4 v -6 h -1 v 3 h -1 v -3 z m 5,2 h 5 v 5 h -5 z m 1,1 v 3 h 3 v -3 z"
       style="fill:#323232;fill-opacity:1;fill-rule:evenodd;paint-order:fill markers stroke"
       id="path92" />
    <path
       style="fill:none"
       inkscape:connector-curvature="0"
       d="m 88,22 h 22 V 44 H 88 Z"
       id="path94" />
  </g>
  <g
     id="fcitx-rime">
    <path
       inkscape:connector-curvature="0"
       d="m 114,3 c -0.554,0 -1,0.446 -1,1 v 14 c 0,0.554 0.446,1 1,1 h 14 c 0.554,0 1,-0.446 1,-1 V 4 c 0,-0.554 -0.446,-1 -1,-1 z m 6,2 v 6.9824 c -1.811,-0.081 -2.7197,-0.60619 -3.2617,-1.4922 C 116.1483,9.5252 116.00002,7.98 116.00002,6 h -1 c 0,2.02 0.10172,3.7248 0.88672,5.0098 0.726,1.189 2.0633,1.8747 4.1133,1.9707 V 16 h -5 v 1 h 11 v -1 h -5 v -3.0195 c 2.05,-0.096 3.3873,-0.7817 4.1133,-1.9707 0.785,-1.285 0.88672,-2.9898 0.88672,-5.0098 h -1 c 0,1.98 -0.14828,3.5252 -0.73828,4.4902 -0.541,0.886 -1.4507,1.4102 -3.2617,1.4922 V 5 Z"
       style="fill:#323232;fill-opacity:1;fill-rule:evenodd;paint-order:fill markers stroke"
       id="path97" />
    <path
       style="fill:none"
       inkscape:connector-curvature="0"
       d="m 110,0 h 22 v 22 h -22 z"
       id="path99" />
  </g>
  <g
     id="fcitx-unikey"
     transform="translate(0,-60)">
    <path
       style="fill:none"
       inkscape:connector-curvature="0"
       d="m 0,170 h 22 v 22 H 0 Z"
       id="path102" />
    <path
       inkscape:connector-curvature="0"
       transform="translate(0,60)"
       d="m 4,114 v 8 h 3 v 7 h 8 v -7 h 3 v -8 h -7 z m 2,2 h 1 v 1.5 c 0,0.694 0.12662,1.077 0.26562,1.25 C 7.40362,118.923 7.583,119 8,119 8.417,119 8.59638,118.923 8.73438,118.75 8.87338,118.577 9,118.194 9,117.5 V 116 h 1 v 1.5 c 0,0.805 -0.12338,1.423 -0.48438,1.875 -0.362,0.452 -0.93262,0.625 -1.5156,0.625 -0.58298,0 -1.1536,-0.173 -1.5156,-0.625 -0.361,-0.452 -0.48438,-1.069 -0.48438,-1.875 V 116 Z m 8,0 h 1 v 4 h -1 z m -5,7 h 1 l 2,2.498 V 123 h 1 v 4 h -1 l -2,-2.498 V 127 H 9 Z"
       id="path104"
       style="fill:#323232;fill-opacity:1" />
  </g>
  <g
     id="fcitx-anthy"
     transform="translate(0,-104)">
    <path
       style="fill:none"
       inkscape:connector-curvature="0"
       d="m 0,170 h 22 v 22 H 0 Z"
       id="path107" />
    <path
       inkscape:connector-curvature="0"
       class="ColorScheme-Text"
       d="m 11,173 c -1.099,0 -2,0.901 -2,2 v 0.002 c 10e-4,0.609 0.333,1.122 0.795,1.496 -0.145,0.976 -0.373,2.233 -0.77,3.256 -0.211,0.546 -0.467,1.014 -0.734,1.316 -0.267,0.302 -0.507,0.43 -0.791,0.43 -0.298,0 -0.54,-0.111 -0.793,-0.348 -0.253,-0.236 -0.495,-0.6 -0.701,-1.037 C 5.626,179.311 5.398,178.3 5.244,177.471 5.684,177.096 6,176.591 6,176 c 0,-1.099 -0.901,-2 -2,-2 -1.099,0 -2,0.901 -2,2 10e-4,0.821 0.564,1.455 1.299,1.758 L 5.08,188 h 11.84 l 1.781,-10.24 c 0.736,-0.303 1.3,-0.938 1.299,-1.76 0,-1.099 -0.901,-2 -2,-2 -1.099,0 -2,0.901 -2,2 0,0.592 0.316,1.096 0.756,1.47 -0.154,0.83 -0.382,1.841 -0.762,2.645 -0.206,0.436 -0.448,0.801 -0.701,1.037 -0.254,0.237 -0.495,0.348 -0.793,0.348 -0.284,0 -0.524,-0.128 -0.791,-0.43 -0.267,-0.301 -0.523,-0.77 -0.734,-1.316 -0.397,-1.022 -0.625,-2.278 -0.77,-3.254 0.462,-0.374 0.795,-0.89 0.795,-1.5 0,-1.099 -0.901,-2 -2,-2 z m 0,1 c 0.558,0 1,0.442 1,1 0,0.384 -0.218,0.73 -0.563,0.898 l -0.326,0.159 -0.222,-0.002 -0.326,-0.159 C 10.21974,175.72923 10.00132,175.38163 10,175 v -0.002 c -0.00337,-0.55335 0.44666,-1.0025 1,-0.998 z m -7,1 c 0.558,0 1,0.442 1,1 6.06e-4,0.37382 -0.20836,0.71643 -0.541,0.887 l -0.293,0.152 -0.328,-0.055 C 3.35422,176.90755 2.99844,176.48978 3,176 c 0,-0.558 0.442,-1 1,-1 z m 14,0 c 0.558,0 1,0.442 1,1 0,0.493 -0.35,0.907 -0.838,0.986 l -0.326,0.055 -0.295,-0.154 C 17.20836,176.71643 16.99939,176.37382 17,176 c 0,-0.558 0.442,-1 1,-1 z"
       id="path109"
       style="color:#dfdfdf;fill:#323232;fill-opacity:1" />
  </g>
  <g
     id="fcitx-libkkc">
    <path
       inkscape:connector-curvature="0"
       d="m 26,69 c -0.554,0 -1,0.446 -1,1 v 14 c 0,0.554 0.446,1 1,1 h 14 c 0.554,0 1,-0.446 1,-1 V 70 c 0,-0.554 -0.446,-1 -1,-1 z m 1,4 v 8 h 1 V 78.707 L 30.293,81 H 32 V 78.707 L 34.293,81 h 1.4141 l -3,-3 3,-3 H 34.293 L 32,77.293 V 73 h -1 v 2 h -0.70703 l -2.293,2.293 V 73 Z m 10,2 c -0.583,0 -1.1095,0.15448 -1.4785,0.52148 -0.367,0.368 -0.52148,0.89552 -0.52148,1.4785 v 2 c 0,0.583 0.15448,1.1095 0.52148,1.4785 0.368,0.367 0.89552,0.52148 1.4785,0.52148 0.58298,0 1.1095,-0.15448 1.4785,-0.52148 0.367,-0.368 0.52148,-0.89552 0.52148,-1.4785 h -1 c 0,0.417 -0.09552,0.64048 -0.22852,0.77148 -0.132,0.133 -0.35448,0.22852 -0.77148,0.22852 -0.417,0 -0.64048,-0.09552 -0.77148,-0.22852 -0.133,-0.131 -0.22852,-0.35448 -0.22852,-0.77148 v -2 c 0,-0.417 0.09552,-0.64048 0.22852,-0.77148 0.132,-0.133 0.35448,-0.22852 0.77148,-0.22852 0.417,0 0.64048,0.09552 0.77148,0.22852 0.133,0.132 0.22852,0.35448 0.22852,0.77148 h 1 c 0,-0.583 -0.15448,-1.1095 -0.52148,-1.4785 C 38.1095,75.15448 37.58298,75 37,75 Z m -6,0.70703 v 4.5859 l -2.293,-2.293 z"
       style="fill:#323232;fill-opacity:1;fill-rule:evenodd;paint-order:fill markers stroke"
       id="path112" />
    <path
       style="fill:none"
       inkscape:connector-curvature="0"
       d="M 22,66 H 44 V 88 H 22 Z"
       id="path114" />
  </g>
  <g
     id="fcitx-libskk">
    <path
       inkscape:connector-curvature="0"
       d="m 47.893,69.021 c -0.46364,0.05151 -0.81958,0.40746 -0.87109,0.87109 v 14.215 c 0.05562,0.5006 0.4626,0.89258 0.97852,0.89258 h 14 c 0.554,0 1,-0.446 1,-1 v -14 c 0,-0.51591 -0.39198,-0.92289 -0.89258,-0.97852 z m 5.1074,3.9785 v 8 h 1 v -2.293 l 2.293,2.293 h 1.707 v -2.293 l 2.293,2.293 h 1.4141 l -3,-3 3,-3 h -1.4141 l -2.293,2.293 v -4.293 h -1 v 2 h -0.70703 l -2.293,2.293 v -4.293 z m 0,6 c 0,-0.583 -0.15448,-1.1095 -0.52148,-1.4785 -0.369,-0.367 -0.89552,-0.52148 -1.4785,-0.52148 -0.417,0 -0.64048,-0.09552 -0.77148,-0.22852 -0.133,-0.131 -0.22852,-0.35448 -0.22852,-0.77148 0,-0.417 0.09552,-0.64048 0.22852,-0.77148 0.132,-0.133 0.35448,-0.22852 0.77148,-0.22852 0.417,0 0.64048,0.09552 0.77148,0.22852 0.133,0.132 0.22852,0.35448 0.22852,0.77148 h 1 c 0,-0.583 -0.15448,-1.1095 -0.52148,-1.4785 -0.369,-0.367 -0.89552,-0.52148 -1.4785,-0.52148 -0.58298,0 -1.1095,0.15448 -1.4785,0.52148 -0.367,0.368 -0.52148,0.89552 -0.52148,1.4785 0,0.58298 0.15448,1.1095 0.52148,1.4785 0.368,0.367 0.89552,0.52148 1.4785,0.52148 0.417,0 0.64048,0.09552 0.77148,0.22852 0.133,0.132 0.22852,0.35448 0.22852,0.77148 0,0.417 -0.09552,0.64048 -0.22852,0.77148 -0.132,0.133 -0.35448,0.22852 -0.77148,0.22852 -0.417,0 -0.64048,-0.09552 -0.77148,-0.22852 -0.133,-0.131 -0.22852,-0.35448 -0.22852,-0.77148 h -1 c 0,0.583 0.15448,1.1095 0.52148,1.4785 0.368,0.367 0.89552,0.52148 1.4785,0.52148 0.58298,0 1.1095,-0.15448 1.4785,-0.52148 0.367,-0.368 0.52148,-0.89552 0.52148,-1.4785 z m 4,-3.293 v 4.5859 l -2.293,-2.293 z"
       style="fill:#323232;fill-opacity:1;fill-rule:evenodd;paint-order:fill markers stroke"
       id="path117" />
    <path
       style="fill:none"
       inkscape:connector-curvature="0"
       d="m 44.021,66.021 h 22 v 22 h -22 z"
       id="path119" />
  </g>
  <g
     id="fcitx-hangul">
    <path
       inkscape:connector-curvature="0"
       d="m 4,91 c -0.554,0 -1,0.446 -1,1 v 14 c 0,0.554 0.446,1 1,1 h 14 c 0.554,0 1,-0.446 1,-1 V 92 c 0,-0.554 -0.446,-1 -1,-1 z m 4,2 v 1 h 2 v -1 z m 6,1 v 8 h 1 v -4 h 2 v -1 h -2 v -3 z m -8,1 v 1 h 6 v -1 z m 3,2 c -1.597,0 -3,1.058 -3,2.5 0,1.442 1.403,2.5 3,2.5 1.597,0 3,-1.058 3,-2.5 C 12,98.058 10.597,97 9,97 Z m 0,1 c 1.165,0 2,0.733 2,1.5 0,0.767 -0.835,1.5 -2,1.5 C 7.835,101 7,100.267 7,99.5 7,98.733 7.835,98 9,98 Z m -1,5 v 2 h 8 v -1 H 9 v -1 z"
       style="fill:#323232;fill-opacity:1;fill-rule:evenodd;paint-order:fill markers stroke"
       id="path122" />
    <path
       style="fill:none"
       inkscape:connector-curvature="0"
       d="m 0,88 h 22 v 22 H 0 Z"
       id="path124" />
  </g>
  <g
     id="fcitx-fullwidth-active"
     transform="translate(132,-82)">
    <path
       style="fill:none"
       inkscape:connector-curvature="0"
       d="m 0,170 h 22 v 22 H 0 Z"
       id="path127" />
    <circle
       r="8"
       class="ColorScheme-Text"
       cx="11"
       cy="181"
       id="ellipse129"
       style="fill:#323232;fill-opacity:1" />
  </g>
  <g
     id="fcitx-fullwidth-inactive"
     transform="translate(154,-82)">
    <path
       style="fill:none"
       inkscape:connector-curvature="0"
       d="m 0,170 h 22 v 22 H 0 Z"
       id="path132" />
    <path
       inkscape:connector-curvature="0"
       class="ColorScheme-Text"
       transform="translate(-154,82)"
       d="M 167.566,91.432 A 8,8 0 0 1 168,94 a 8,8 0 0 1 -8,8 8,8 0 0 1 -2.566,-0.432 8,8 0 0 0 7.566,5.432 8,8 0 0 0 8,-8 8,8 0 0 0 -5.434,-7.568 z"
       id="path134"
       style="fill:#323232;fill-opacity:1" />
  </g>
  <g
     id="fcitx-punc-inactive"
     transform="translate(154,-60)">
    <path
       style="fill:none"
       inkscape:connector-curvature="0"
       d="m 0,170 h 22 v 22 H 0 Z"
       id="path137" />
    <circle
       class="ColorScheme-Text"
       cx="7.5"
       cy="180.5"
       r="1.5"
       id="circle139"
       style="fill:#323232;fill-opacity:1" />
    <path
       inkscape:connector-curvature="0"
       class="ColorScheme-Text"
       d="m 14.5,179 a 1.5,1.5 0 0 0 -1.5,1.5 1.5,1.5 0 0 0 1.5,1.5 1.5,1.5 0 0 0 0.047,-0.002 c -0.533,0.94 -1.348,1.602 -1.348,1.602 l 0.602,0.8 c 0,0 1.967,-1.426 2.162,-3.572 A 1.5,1.5 0 0 0 16,180.5 1.5,1.5 0 0 0 14.5,179 Z"
       id="path141"
       style="fill:#323232;fill-opacity:1" />
  </g>
  <g
     id="fcitx-punc-active"
     transform="translate(132,-60)">
    <path
       inkscape:connector-curvature="0"
       class="ColorScheme-Text"
       d="M 7.5,178 A 2.508,2.508 0 0 0 5,180.5 c 0,1.375 1.125,2.5 2.5,2.5 1.375,0 2.5,-1.125 2.5,-2.5 0,-1.375 -1.125,-2.5 -2.5,-2.5 z m 0,1 C 8.334,179 9,179.666 9,180.5 9,181.334 8.334,182 7.5,182 6.666,182 6,181.334 6,180.5 6,179.666 6.666,179 7.5,179 Z"
       id="path144"
       style="fill:#323232;fill-opacity:1" />
    <path
       style="fill:none"
       inkscape:connector-curvature="0"
       d="m 0,170 h 22 v 22 H 0 Z"
       id="path146" />
    <path
       inkscape:connector-curvature="0"
       class="ColorScheme-Text"
       transform="translate(-198,82)"
       d="m 212.5,96 a 2.508,2.508 0 0 0 -2.5,2.5 c 0,1.375 1.125,2.5 2.5,2.5 0.365,0 0.71,-0.084 1.023,-0.227 a 3.874,3.874 0 0 1 -1.306,1.502 c -0.895,0.616 -1.78,0.729 -1.78,0.729 l 0.125,0.992 c 0,0 1.116,-0.137 2.221,-0.896 1.105,-0.76 2.217,-2.202 2.217,-4.6 0,-1.375 -1.125,-2.5 -2.5,-2.5 z m 0,1 c 0.834,0 1.5,0.666 1.5,1.5 0,0.834 -0.666,1.5 -1.5,1.5 -0.834,0 -1.5,-0.666 -1.5,-1.5 0,-0.834 0.666,-1.5 1.5,-1.5 z"
       id="path148"
       style="fill:#323232;fill-opacity:1" />
  </g>
  <g
     id="fcitx-chttrans-inactive"
     transform="translate(132,-38)">
    <path
       style="fill:none"
       inkscape:connector-curvature="0"
       d="m 0,170 h 22 v 22 H 0 Z"
       id="path151" />
    <path
       inkscape:connector-curvature="0"
       class="ColorScheme-Text"
       transform="translate(-132,60)"
       d="m 138.81,113.406 c -0.507,1.367 -1.347,2.598 -2.519,3.692 l 0.996,0.761 c 0.195,-0.039 0.742,-0.722 1.64,-2.05 h 0.762 c 0.43,0.625 0.801,1.27 1.114,1.933 l 1.172,-0.644 -0.938,-1.29 h 2.05 v -1.113 h -3.632 l 0.469,-0.937 -1.113,-0.352 z m 6.036,0 c -0.47,1.328 -1.27,2.54 -2.403,3.633 l 0.996,0.762 c 0.665,-0.625 1.172,-1.29 1.524,-1.992 h 0.996 c 0.43,0.586 0.8,1.21 1.113,1.875 l 1.055,-0.645 c -0.273,-0.43 -0.566,-0.84 -0.879,-1.23 h 2.461 v -1.114 h -4.16 c 0.156,-0.312 0.293,-0.625 0.41,-0.937 z m -5.45,4.102 -0.996,0.586 c 0.547,0.547 0.957,1.094 1.23,1.64 l 1.114,-0.586 a 7.528,7.528 0 0 0 -1.348,-1.64 z m 1.993,0.527 v 0.996 h 6.386 v 6.035 c 0,0.547 -0.136,0.82 -0.41,0.82 -0.39,0 -0.898,-0.019 -1.523,-0.058 l 0.293,1.113 c 0.547,0.04 1.015,0.059 1.406,0.059 0.469,0 0.82,-0.137 1.055,-0.41 0.234,-0.274 0.351,-0.664 0.351,-1.172 v -7.383 z m -3.985,1.582 V 127 h 1.172 v -7.383 z m 2.871,0.645 v 5.039 h 5.391 v -5.04 h -5.39 z m 1.114,0.996 h 3.164 v 0.996 h -3.164 z m 0,1.933 h 3.164 v 1.114 h -3.164 z M 135,128 v 1 h 16 v -1 z"
       id="path153"
       style="fill:#323232;fill-opacity:1" />
  </g>
  <g
     id="fcitx-chttrans-active"
     transform="translate(154,-38)">
    <path
       style="fill:none"
       inkscape:connector-curvature="0"
       d="m 0,170 h 22 v 22 H 0 Z"
       id="path156" />
    <path
       inkscape:connector-curvature="0"
       class="ColorScheme-Text"
       transform="translate(-154,60)"
       d="m 160.02,113.465 c -0.313,0.703 -0.899,1.387 -1.758,2.05 l 0.82,0.645 c 0.39,-0.273 0.762,-0.644 1.113,-1.113 h 5.45 v -0.879 h -4.864 c 0.04,-0.117 0.098,-0.254 0.176,-0.41 z m 7.148,0 a 9.114,9.114 0 0 1 -1.875,3.34 l 0.703,0.761 0.586,-0.703 a 6.784,6.784 0 0 0 1.23,1.524 c -0.625,0.508 -1.367,0.957 -2.226,1.347 l 0.82,0.88 a 14.66,14.66 0 0 0 2.227,-1.466 14.006,14.006 0 0 0 2.344,1.465 l 0.761,-0.937 c -0.937,-0.39 -1.738,-0.82 -2.402,-1.29 a 6.443,6.443 0 0 0 1.406,-2.519 h 0.82 v -0.996 h -3.867 l 0.47,-1.113 z m -7.266,2.285 -0.351,1.7 h -1.172 v 0.937 h 0.996 l -0.352,1.758 h 4.395 v 0.351 h 0.996 l 0.059,-0.351 H 165 v -0.88 h -0.469 l 0.117,-0.878 h 0.938 v -0.938 h -0.82 L 165,115.75 Z m 7.325,0.117 h 2.402 c -0.195,0.664 -0.547,1.29 -1.055,1.875 a 10.674,10.674 0 0 1 -1.406,-1.758 c 0.04,-0.039 0.059,-0.078 0.059,-0.117 z m -6.446,0.703 h 0.762 c 0.195,0.235 0.39,0.528 0.586,0.88 h -1.524 z m 1.7,0 h 1.464 l -0.117,0.88 h -0.762 l -0.586,-0.88 z m -1.993,1.817 h 0.762 c 0.195,0.234 0.41,0.527 0.645,0.879 h -1.583 l 0.176,-0.88 z m 1.758,0 h 1.465 l -0.176,0.879 h -0.762 a 6.542,6.542 0 0 0 -0.527,-0.88 z m 5.684,1.933 c -1.25,0.742 -2.11,1.153 -2.578,1.23 -0.704,0.118 -1.954,0.196 -3.75,0.235 a 8.109,8.109 0 0 0 1.875,-0.879 l -0.762,-0.527 c -0.781,0.547 -1.758,0.976 -2.93,1.289 l 0.117,0.82 c 1.172,0 2.364,-0.039 3.575,-0.117 -1.25,0.469 -2.774,0.879 -4.57,1.23 l 0.175,0.938 c 1.758,0 3.535,-0.059 5.332,-0.176 v 1.23 c 0,0.313 -0.117,0.47 -0.351,0.47 -0.43,0 -0.86,-0.06 -1.29,-0.176 l 0.176,1.054 c 0.352,0.079 0.723,0.118 1.114,0.118 0.625,0 1.035,-0.098 1.23,-0.293 0.195,-0.196 0.293,-0.528 0.293,-0.996 v -1.524 a 69.146,69.146 0 0 0 3.984,-0.469 c 0.313,0.313 0.586,0.645 0.82,0.996 l 1.114,-0.527 a 14.92,14.92 0 0 0 -2.813,-2.578 l -1.054,0.469 c 0.43,0.273 0.82,0.586 1.172,0.937 -1.563,0.313 -3.965,0.528 -7.207,0.645 2.617,-0.586 5.039,-1.504 7.265,-2.754 z m -0.88,4.278 -0.468,0.937 c 1.29,0.313 2.578,0.742 3.867,1.29 l 0.469,-0.997 c -1.211,-0.469 -2.5,-0.879 -3.867,-1.23 z m -4.687,0.117 c -1.133,0.469 -2.383,0.84 -3.75,1.113 l 0.703,0.996 c 1.485,-0.39 2.754,-0.898 3.809,-1.523 z M 157,128 v 1 h 16 v -1 z"
       id="path158"
       style="fill:#323232;fill-opacity:1" />
  </g>
  <g
     id="fcitx-remind-active">
    <path
       inkscape:connector-curvature="0"
       d="m 209,91 c -1.1196,0 -2.1645,0.31337 -3.0625,0.84961 A 3.5,3.5 0 0 1 206,92.5 3.5,3.5 0 0 1 203.0996,95.9492 C 203.0388,96.29115 203,96.64085 203,97 c -4.2e-4,0.01902 2e-4,0.03769 0.002,0.05664 0.014,2.321 0.85914,3.5095 1.6191,4.3945 0.764,0.893 1.3789,1.4418 1.3789,3.0488 v 2.5 h 2 v 1 h 2 v -1 h 2 v -2.5 c 0,-1.607 0.63462,-2.304 1.3906,-3.25 0.75,-0.936 1.5885,-2.1035 1.6055,-4.1875 0.003,-0.02056 0.004,-0.04177 0.004,-0.0625 0,-3.308 -2.692,-6 -6,-6 z m -1.8535,6.1465 h 0.70704 l 1.1465,1.1465 1.1465,-1.1465 h 0.70704 l 1.5,1.5 -0.70704,0.70703 -1.1465,-1.1465 -1.1465,1.1465 h -0.70704 l -1.1465,-1.1465 -1.1465,1.1465 -0.70704,-0.70703 1.5,-1.5 z"
       id="path161"
       style="color:#dfdfdf;fill:#323232;fill-opacity:1" />
    <path
       style="fill:none"
       inkscape:connector-curvature="0"
       d="m 198,88 h 22 v 22 h -22 z"
       id="path163" />
    <circle
       style="fill:#42d15b;stroke-linecap:round"
       r="2.5"
       cx="202.5"
       cy="92.5"
       id="ellipse165" />
  </g>
  <g
     id="fcitx-handwriting-active">
    <path
       inkscape:connector-curvature="0"
       class="ColorScheme-Text"
       d="m 213.14,112.57 -3.272,12.207 1.07,3.739 2.795,-2.703 3.27,-12.207 -0.482,-0.131 z m 0.707,1.223 1.931,0.518 -0.26,0.968 -1.931,-0.52 z m -11.522,5.66 c -0.21558,0.007 -0.4306,0.0257 -0.644,0.057 -0.66133,0.0907 -0.52533,1.0827 0.136,0.992 0.42,-0.058 0.71,-0.056 0.872,-0.03 0.16,0.027 0.164,0.058 0.152,0.042 -0.012,-0.017 0.006,-0.01 -0.006,0.092 -0.0266,0.15379 -0.0685,0.30454 -0.125,0.45 -0.134,0.374 -0.351,0.824 -0.41,1.327 -0.03,0.251 -0.015,0.54 0.133,0.806 0.147,0.268 0.42,0.468 0.738,0.575 0.153,0.05 0.213,0.04 0.309,0.045 0.095,0.004 0.2,0.005 0.316,0.005 0.231,0 0.504,-0.003 0.758,0.004 0.032,0.001 0.047,0.006 0.078,0.008 -0.09,0.056 -0.146,0.098 -0.252,0.158 -0.533,0.301 -1.218,0.645 -1.781,1.022 -0.282,0.188 -0.536,0.383 -0.737,0.621 -0.2,0.238 -0.37,0.576 -0.287,0.95 0.083,0.372 0.37,0.631 0.73,0.825 0.361,0.195 0.834,0.352 1.481,0.498 1.051,0.238 2.36,0.169 3.543,0.221 1.183,0.052 2.169,0.26 2.553,0.703 0.43478,0.53533 1.224,-0.15134 0.754,-0.656 -0.756,-0.871 -2.016,-0.992 -3.262,-1.047 -1.246,-0.055 -2.55,-0.01 -3.367,-0.195 -0.596,-0.135 -1,-0.28 -1.227,-0.403 -0.227,-0.122 -0.235,-0.195 -0.228,-0.162 0.007,0.033 -0.019,0.023 0.076,-0.09 0.15702,-0.16564 0.33405,-0.3111 0.527,-0.433 0.482,-0.322 1.152,-0.663 1.717,-0.982 0.26187,-0.14135 0.51319,-0.30144 0.752,-0.479 0.214,-0.166 0.466,-0.33 0.477,-0.752 0.006,-0.246 -0.165,-0.47 -0.305,-0.564 -0.12064,-0.0787 -0.2555,-0.13305 -0.397,-0.16 -0.26932,-0.0542 -0.54328,-0.082 -0.818,-0.083 -0.282,-0.008 -0.562,-0.004 -0.783,-0.004 -0.11,0 -0.206,0 -0.272,-0.003 -0.0215,-0.001 -0.0429,-0.004 -0.064,-0.008 0.012,0.004 0.013,0.007 0.027,0.011 -0.05,-0.016 -0.047,-0.015 -0.027,-0.011 -0.114,-0.043 -0.142,-0.077 -0.154,-0.098 -0.013,-0.023 -0.03,-0.08 -0.016,-0.205 0.03,-0.25 0.206,-0.675 0.36,-1.105 0.076,-0.216 0.148,-0.436 0.175,-0.678 0.028,-0.242 0.006,-0.535 -0.176,-0.787 -0.181,-0.252 -0.478,-0.39 -0.798,-0.444 -0.17458,-0.0275 -0.35136,-0.0385 -0.528,-0.033 z"
       id="path168"
       style="color:#dfdfdf;fill:#323232;fill-opacity:1" />
    <g
       style="stroke-linecap:round"
       id="g176">
      <path
         style="fill:none"
         inkscape:connector-curvature="0"
         d="m 198,110 h 22 v 22 h -22 z"
         id="path170" />
      <path
         style="fill:none"
         inkscape:connector-curvature="0"
         d="m 198,110 h 22 v 22 h -22 z"
         id="path172" />
      <circle
         style="fill:#42d15b"
         r="2.5"
         cx="202.5"
         cy="114.5"
         id="ellipse174" />
    </g>
  </g>
  <g
     id="fcitx-handwriting-inactive"
     transform="translate(22)">
    <path
       inkscape:connector-curvature="0"
       class="ColorScheme-Text"
       transform="translate(-22)"
       d="m 235.14,112.57 -3.272,12.207 1.07,3.739 2.795,-2.703 3.27,-12.207 -0.482,-0.131 z m 0.707,1.223 1.931,0.518 -0.26,0.968 -1.931,-0.52 z m -11.522,5.66 c -0.21558,0.007 -0.4306,0.0257 -0.644,0.057 -0.66267,0.0767 -0.54767,1.0707 0.115,0.994 0.007,-5.2e-4 0.014,-0.001 0.021,-0.002 0.42,-0.058 0.71,-0.056 0.872,-0.03 0.16,0.027 0.164,0.058 0.152,0.042 -0.012,-0.017 0.006,-0.01 -0.006,0.092 -0.0266,0.15379 -0.0685,0.30454 -0.125,0.45 -0.134,0.374 -0.351,0.824 -0.41,1.327 -0.03,0.251 -0.015,0.54 0.133,0.806 0.147,0.268 0.42,0.468 0.738,0.575 0.153,0.05 0.213,0.04 0.309,0.045 0.095,0.004 0.2,0.005 0.316,0.005 0.231,0 0.504,-0.003 0.758,0.004 0.032,0.001 0.047,0.006 0.078,0.008 -0.09,0.056 -0.146,0.098 -0.252,0.158 -0.533,0.301 -1.218,0.645 -1.781,1.022 -0.282,0.188 -0.536,0.383 -0.737,0.621 -0.2,0.238 -0.37,0.576 -0.287,0.95 0.083,0.372 0.37,0.631 0.73,0.825 0.361,0.195 0.834,0.352 1.481,0.498 1.051,0.238 2.36,0.169 3.543,0.221 1.183,0.052 2.169,0.26 2.553,0.703 0.43478,0.53533 1.224,-0.15134 0.754,-0.656 -0.756,-0.871 -2.016,-0.992 -3.262,-1.047 -1.246,-0.055 -2.55,-0.01 -3.367,-0.195 -0.596,-0.135 -1,-0.28 -1.227,-0.403 -0.227,-0.122 -0.235,-0.195 -0.228,-0.162 0.007,0.033 -0.019,0.023 0.076,-0.09 0.15702,-0.16564 0.33405,-0.3111 0.527,-0.433 0.482,-0.322 1.152,-0.663 1.717,-0.982 0.26187,-0.14135 0.51319,-0.30144 0.752,-0.479 0.214,-0.166 0.466,-0.33 0.477,-0.752 0.006,-0.246 -0.165,-0.47 -0.305,-0.564 -0.12064,-0.0787 -0.2555,-0.13305 -0.397,-0.16 -0.26932,-0.0542 -0.54328,-0.082 -0.818,-0.083 -0.282,-0.008 -0.562,-0.004 -0.783,-0.004 -0.11,0 -0.206,0 -0.272,-0.003 -0.0215,-0.001 -0.0429,-0.004 -0.064,-0.008 0.012,0.004 0.013,0.007 0.027,0.011 -0.05,-0.016 -0.047,-0.015 -0.027,-0.011 -0.114,-0.043 -0.142,-0.077 -0.154,-0.098 -0.013,-0.023 -0.03,-0.08 -0.016,-0.205 0.03,-0.25 0.206,-0.675 0.36,-1.105 0.076,-0.216 0.148,-0.436 0.175,-0.678 0.028,-0.242 0.006,-0.535 -0.176,-0.787 -0.181,-0.252 -0.478,-0.39 -0.798,-0.444 -0.17458,-0.0275 -0.35136,-0.0385 -0.528,-0.033 z"
       id="path179"
       style="color:#dfdfdf;fill:#323232;fill-opacity:1" />
    <path
       style="fill:none;stroke-linecap:round"
       inkscape:connector-curvature="0"
       d="m 198,110 h 22 v 22 h -22 z"
       id="path181" />
    <path
       style="fill:none;stroke-linecap:round"
       inkscape:connector-curvature="0"
       d="m 198,110 h 22 v 22 h -22 z"
       id="path183" />
  </g>
  <g
     id="fcitx"
     transform="translate(132,88)">
    <path
       style="fill:none"
       inkscape:connector-curvature="0"
       d="M 0,-22 H 22 V 0 H 0 Z"
       id="path186" />
    <path
       inkscape:connector-curvature="0"
       class="ColorScheme-Text"
       d="m 9.57,-19 c -0.937,-0.017 -1.837,0.536 -2.184,1.438 -0.414,1.077 -0.296,2.244 -0.279,3.368 0.006,0.364 -0.092,0.696 -0.24,1.009 a 3.431,3.431 0 0 1 -0.21,0.223 c -0.736,0.813 -2.565,2.95 -1.983,5.14 -0.146,0.064 -0.317,0.072 -0.503,0.093 -0.219,0.026 -0.463,0.082 -0.657,0.312 -0.173,0.2 -0.199,0.474 -0.219,0.732 -0.02,0.259 -0.035,0.506 -0.125,0.659 -0.263,0.408 -0.352,0.709 -0.293,0.955 0.06,0.246 0.266,0.4 0.515,0.519 0.497,0.238 1.217,0.381 1.71,0.824 h 10e-4 c 0.525,0.465 1.106,0.724 1.614,0.728 0.423,0.003 0.796,-0.187 1.01,-0.571 0.19,0.034 0.387,0.03 0.587,-0.027 a 4.355,4.355 0 0 1 2.08,-0.06 c 0.413,0.086 0.826,0.054 1.218,-0.065 0.167,0.316 0.45,0.53 0.793,0.623 0.496,0.133 1.11,0.025 1.697,-0.333 h 10e-4 c 0.57,-0.354 1.3,-0.323 1.827,-0.437 0.264,-0.057 0.495,-0.161 0.59,-0.396 0.095,-0.235 0.05,-0.556 -0.148,-1.038 -0.067,-0.167 -0.04,-0.416 -0.011,-0.678 0.028,-0.262 0.055,-0.543 -0.08,-0.777 -0.148,-0.268 -0.379,-0.372 -0.59,-0.442 -0.212,-0.07 -0.406,-0.115 -0.548,-0.253 C 14.987,-7.614 14.834,-7.829 14.64,-8 l -0.005,-0.005 c -0.008,-0.3 -0.057,-0.609 -0.137,-0.917 0.426,-0.566 0.858,-1.2 1.179,-1.818 h 0.003 l 0.24,-0.034 -0.063,-0.3 0.038,-0.03 0.786,-1.478 c 0.43,0.022 0.9,-0.187 1.176,-0.686 a 25.336,25.336 0 0 1 1.283,-2.058 c -1.886,0.269 -3.349,0.242 -3.43,1.686 -0.008,0.164 0.017,0.31 0.066,0.44 l -1.087,1.274 -0.01,0.042 -0.334,0.053 0.1,0.236 c -0.24,0.282 -0.472,0.595 -0.69,0.918 -0.055,-0.097 -0.11,-0.193 -0.167,-0.286 -0.318,-0.648 -0.731,-1.248 -1.137,-1.842 -0.487,-0.716 -0.575,-1.59 -0.583,-2.462 C 11.852,-17.08 11.658,-18.96 9.57,-19 Z m 0.895,2.267 c 0.165,-0.01 0.334,0.074 0.461,0.251 0.127,0.178 0.21,0.514 0.21,0.706 0.002,0.261 -0.092,0.523 -0.198,0.714 a 0.692,0.692 0 0 1 -0.096,0.13 l -0.262,-0.152 -0.06,-0.035 a 0.326,0.594 8.727 0 0 0.227,-0.475 0.326,0.594 8.727 0 0 -0.262,-0.63 0.326,0.594 8.727 0 0 -0.386,0.547 0.326,0.594 8.727 0 0 0.002,0.293 0.98,0.98 0 0 0 -0.179,-0.058 l -0.057,-0.01 a 1.439,1.439 0 0 1 -0.04,-0.25 c -0.014,-0.26 0.039,-0.427 0.145,-0.618 0.106,-0.191 0.33,-0.403 0.495,-0.413 z m -2.14,0.161 a 0.93,0.707 82.237 0 1 0.03,10e-4 0.93,0.707 82.237 0 1 0.72,0.806 0.93,0.707 82.237 0 1 -0.053,0.57 2.028,2.028 0 0 0 -0.117,0.092 1.173,1.173 0 0 1 -0.26,0.16 0.553,0.348 80.266 0 0 0.16,-0.593 0.553,0.348 80.266 0 0 -0.384,-0.473 0.553,0.348 80.266 0 0 -0.295,0.623 0.553,0.348 80.266 0 0 0.477,0.464 c -0.07,0.036 -0.15,0.077 -0.254,0.14 -0.024,0.013 -0.045,0.028 -0.066,0.043 a 0.93,0.707 82.237 0 1 -0.601,-0.786 0.93,0.707 82.237 0 1 0.644,-1.047 z m 1.384,1.208 a 0.811,0.811 0 0 1 0.192,0.018 c 0.24,0.052 0.413,0.202 0.52,0.283 0.02,0.015 0.046,0.028 0.11,0.065 l 0.3,0.173 a 0.292,0.292 0 0 1 0.152,0.322 c -0.023,0.139 -0.13,0.308 -0.342,0.468 H 10.64 c -0.13,0.104 -0.213,0.23 -0.313,0.336 a 0.712,0.712 0 0 1 -0.418,0.23 0.976,0.976 0 0 1 -0.594,-0.078 c -0.168,-0.072 -0.314,-0.167 -0.472,-0.198 -0.325,-0.06 -0.572,-0.233 -0.666,-0.417 a 0.353,0.353 0 0 1 -0.04,-0.214 c 0.06,0.01 0.138,0.042 0.23,0.088 0.11,0.056 0.24,0.132 0.383,0.206 0.284,0.15 0.618,0.297 0.96,0.28 0.34,-0.017 0.603,-0.192 0.791,-0.36 0.094,-0.085 0.17,-0.168 0.228,-0.229 0.029,-0.03 0.054,-0.056 0.072,-0.072 0.02,-0.016 0.034,-0.02 0.028,-0.02 l -0.004,-0.074 c -0.031,0.001 -0.05,0.018 -0.072,0.038 -0.023,0.02 -0.048,0.046 -0.078,0.077 -0.058,0.062 -0.132,0.143 -0.223,0.224 -0.181,0.163 -0.428,0.326 -0.746,0.342 C 9.388,-13.86 9.065,-14 8.784,-14.147 8.644,-14.221 8.514,-14.296 8.4,-14.353 a 0.94,0.94 0 0 0 -0.243,-0.094 0.52,0.52 0 0 1 0.241,-0.25 H 8.4 c 0.286,-0.172 0.416,-0.198 0.57,-0.33 0.289,-0.247 0.534,-0.332 0.74,-0.337 z m 1.262,1.133 c 0.036,0.087 0.067,0.18 0.088,0.285 0.188,0.98 0.396,1.585 1.344,3.2 0.098,0.247 0.172,0.423 0.256,0.628 a 3.772,3.772 0 0 0 -0.392,-1.185 c -0.58,-1.225 -0.002,-0.47 0.258,0.077 0.19,0.355 0.414,0.966 0.548,1.65 A 23.216,23.216 0 0 0 12.11,-7.7 0.743,0.743 0 0 0 11.983,-7.295 c 0.002,0.087 0.031,0.17 0.077,0.242 -0.516,0.38 -0.54,1.126 0.002,1.396 -0.055,0.078 -0.107,0.153 -0.16,0.233 a 5.01,5.01 0 0 0 -0.216,0.355 C 10.547,-4.26 8.728,-4.157 7.377,-5.626 7.25,-5.902 7.134,-6.165 7.091,-6.367 V -6.368 C 6.993,-6.85 6.891,-7.294 6.741,-7.653 a 2.491,2.491 0 0 0 -0.08,-0.17 C 6.767,-8.073 6.819,-8.334 6.8,-8.493 6.728,-8.916 6.416,-9.002 5.714,-8.841 5.118,-8.697 4.757,-8.413 4.906,-7.983 4.879,-7.96 4.852,-7.94 4.826,-7.919 c -0.198,-0.504 0.21,-0.837 0.896,-1.006 -0.1,-0.931 0.444,-1.876 0.962,-2.491 0.015,0.02 -0.022,0.13 -0.155,0.402 -0.294,0.504 -0.582,1.325 -0.45,2.022 0.098,-0.013 0.191,-0.023 0.272,-0.023 0.047,-0.506 0.172,-0.983 0.386,-1.367 0.409,-0.87 1.462,-2.337 1.492,-3.554 0.141,0.136 0.349,0.242 0.596,0.288 0.13,0.026 0.275,0.116 0.452,0.192 0.177,0.075 0.389,0.134 0.65,0.085 a 0.827,0.827 0 0 0 0.472,-0.26 c 0.108,-0.114 0.188,-0.235 0.302,-0.325 0.118,-0.09 0.207,-0.182 0.27,-0.275 z m 5.077,1.411 a 0.994,0.994 0 0 0 0.182,0.12 l -0.69,1.299 -0.163,0.128 c -0.054,-0.028 -0.109,-0.052 -0.164,-0.094 -0.073,-0.055 -0.093,-0.104 -0.15,-0.167 l 0.043,-0.182 z m -1.33,1.62 a 2.1,2.1 0 0 0 0.486,0.366 c -0.882,1.622 -2.581,3.44 -2.596,3.456 -0.104,0.09 -0.17,0.073 -0.172,0.075 v -0.002 c 0,-0.021 0.01,-0.082 0.067,-0.171 l 0.01,-0.015 0.007,-0.016 c 0,0 1.037,-2.277 2.198,-3.693 z m -0.422,2.54 z m -9.307,0.857 c 0.238,0.421 0.753,0.772 1.163,0.595 0.158,-0.067 0.294,-0.217 0.4,-0.396 l 0.012,0.025 c 0.14,0.336 0.242,0.77 0.339,1.25 0.08,0.371 0.326,0.822 0.521,1.269 0.195,0.446 0.329,0.88 0.231,1.172 v 0.002 C 7.502,-3.395 7.162,-3.188 6.719,-3.191 6.275,-3.194 5.729,-3.43 5.229,-3.871 4.684,-4.36 3.931,-4.506 3.474,-4.724 3.246,-4.834 3.104,-4.95 3.064,-5.116 3.023,-5.283 3.081,-5.536 3.332,-5.926 L 3.333,-5.928 V -5.929 C 3.461,-6.145 3.466,-6.417 3.486,-6.67 3.506,-6.924 3.538,-7.154 3.659,-7.293 3.814,-7.478 3.987,-7.515 4.193,-7.539 4.4,-7.563 4.636,-7.564 4.853,-7.701 l 0.002,-0.001 c 0.047,-0.032 0.09,-0.066 0.134,-0.101 z m 9.642,0.06 c 0.125,0.134 0.245,0.29 0.376,0.424 h 10e-4 l 0.001,0.002 c 0.188,0.182 0.422,0.232 0.621,0.297 0.2,0.066 0.366,0.138 0.485,0.354 v 0.001 h 0.001 c 0.095,0.165 0.083,0.404 0.055,0.662 -0.028,0.259 -0.072,0.532 0.024,0.77 0.19,0.464 0.21,0.74 0.148,0.895 -0.063,0.155 -0.213,0.23 -0.453,0.282 -0.481,0.103 -1.254,0.066 -1.888,0.46 -0.551,0.336 -1.116,0.427 -1.548,0.311 -0.431,-0.116 -0.736,-0.427 -0.8,-0.944 v -0.002 c -0.047,-0.312 0.15,-0.699 0.406,-1.087 0.06,-0.092 0.124,-0.18 0.187,-0.271 0.264,0.065 0.62,0.04 1.071,-0.131 0.896,-0.513 1.264,-1.234 1.313,-2.023 z m -1.187,0.116 z m -0.318,0.357 -0.198,0.215 z m -1.02,0.28 z"
       id="path188"
       style="fill:#323232;fill-opacity:1" />
  </g>
  <g
     id="fcitx-kbd">
    <path
       d="m 158,58 h 22 v 22 h -22 z"
       id="path191"
       inkscape:connector-curvature="0"
       style="fill:none" />
    <path
       d="m 161,63 c -0.554,0 -1,0.446 -1,1 v 10 c 0,0.554 0.446,1 1,1 h 16 c 0.554,0 1,-0.446 1,-1 V 64 c 0,-0.554 -0.446,-1 -1,-1 z m 1,2 h 2 v 2 h -2 z m 3,0 h 2 v 2 h -2 z m 3,0 h 2 v 2 h -2 z m 3,0 h 2 v 2 h -2 z m 3,0 h 2 v 2 h -2 z m -12,3 h 2 v 2 h -2 z m 3,0 h 2 v 2 h -2 z m 3,0 h 2 v 2 h -2 z m 3,0 h 2 v 2 h -2 z m 3,0 h 2 v 2 h -2 z m -12,3 h 2 v 2 h -2 z m 3,0 h 8 v 2 h -8 z m 9,0 h 2 v 2 h -2 z"
       style="fill:#323232;fill-opacity:1;fill-rule:evenodd;paint-order:fill markers stroke"
       id="path193"
       inkscape:connector-curvature="0" />
  </g>
  <g
     id="fcitx-remind-inactive"
     transform="translate(22)">
    <path
       inkscape:connector-curvature="0"
       d="m 209,91 c -3.308,0 -6,2.692 -6,6 -4.2e-4,0.01902 2e-4,0.03769 0.002,0.05664 0.014,2.321 0.85914,3.5095 1.6191,4.3945 0.764,0.893 1.3789,1.4418 1.3789,3.0488 v 2.5 h 2 v 1 h 2 v -1 h 2 v -2.5 c 0,-1.607 0.63462,-2.304 1.3906,-3.25 0.75,-0.936 1.5885,-2.1035 1.6055,-4.1875 0.003,-0.02056 0.004,-0.04177 0.004,-0.0625 0,-3.308 -2.692,-6 -6,-6 z m -1.8535,6.1465 h 0.70704 l 1.1465,1.1465 1.1465,-1.1465 h 0.70704 l 1.5,1.5 -0.70704,0.70703 -1.1465,-1.1465 -1.1465,1.1465 h -0.70704 l -1.1465,-1.1465 -1.1465,1.1465 -0.70704,-0.70703 z"
       id="path196"
       style="color:#dfdfdf;fill:#323232;fill-opacity:1" />
    <path
       style="fill:none"
       inkscape:connector-curvature="0"
       d="m 198,88 h 22 v 22 h -22 z"
       id="path198" />
  </g>
  <g
     id="fcitx-vk-active">
    <path
       d="m 185,58 h 22 v 22 h -22 z"
       id="path201"
       inkscape:connector-curvature="0"
       style="fill:none" />
    <path
       d="m 188,63 c -0.554,0 -1,0.446 -1,1 v 10 c 0,0.554 0.446,1 1,1 h 12.346 a 3.5,3.5 0 0 1 -0.34179,-1.5 3.5,3.5 0 0 1 0.99609,-2.4453 v -0.05469 h 0.0586 a 3.5,3.5 0 0 1 2.4453,-1 3.5,3.5 0 0 1 1.4961,0.33984 v -6.3398 c 0,-0.554 -0.446,-1 -1,-1 z m 1,2 h 2 v 2 h -2 z m 3,0 h 2 v 2 h -2 z m 3,0 h 2 v 2 h -2 z m 3,0 h 2 v 2 h -2 z m 3,0 h 2 v 2 h -2 z m -12,3 h 2 v 2 h -2 z m 3,0 h 2 v 2 h -2 z m 3,0 h 2 v 2 h -2 z m 3,0 h 2 v 2 h -2 z m 3,0 h 2 v 2 h -2 z m -12,3 h 2 v 2 h -2 z m 3,0 h 8 v 2 h -8 z"
       style="fill:#323232;fill-opacity:1;fill-rule:evenodd;paint-order:fill markers stroke"
       id="path203"
       inkscape:connector-curvature="0" />
    <path
       class="ColorScheme-PositiveText"
       d="M 203.5,71 A 2.5,2.5 0 0 0 201,73.5 2.5,2.5 0 0 0 203.5,76 2.5,2.5 0 0 0 206,73.5 2.5,2.5 0 0 0 203.5,71 Z"
       id="path205"
       inkscape:connector-curvature="0"
       style="fill:#42d15b" />
  </g>
  <g
     id="fcitx-vk-inactive">
    <path
       style="fill:none"
       inkscape:connector-curvature="0"
       id="path933"
       d="m 213,58 h 22 v 22 h -22 z" />
    <path
       inkscape:connector-curvature="0"
       id="path935"
       style="fill:#323232;fill-opacity:1;fill-rule:evenodd;paint-order:fill markers stroke"
       d="m 216,63 c -0.554,0 -1,0.446 -1,1 v 10 c 0,0.554 0.446,1 1,1 h 16 c 0.554,0 1,-0.446 1,-1 V 64 c 0,-0.554 -0.446,-1 -1,-1 z m 1,2 h 2 v 2 h -2 z m 3,0 h 2 v 2 h -2 z m 3,0 h 2 v 2 h -2 z m 3,0 h 2 v 2 h -2 z m 3,0 h 2 v 2 h -2 z m -12,3 h 2 v 2 h -2 z m 3,0 h 2 v 2 h -2 z m 3,0 h 2 v 2 h -2 z m 3,0 h 2 v 2 h -2 z m 3,0 h 2 v 2 h -2 z m -12,3 h 2 v 2 h -2 z m 3,0 h 8 v 2 h -8 z m 9,0 h 2 v 2 h -2 z" />
  </g>
</svg>
