<?xml version="1.0" encoding="UTF-8" standalone="no"?>
<svg
   xmlns:dc="http://purl.org/dc/elements/1.1/"
   xmlns:cc="http://creativecommons.org/ns#"
   xmlns:rdf="http://www.w3.org/1999/02/22-rdf-syntax-ns#"
   xmlns:svg="http://www.w3.org/2000/svg"
   xmlns="http://www.w3.org/2000/svg"
   xmlns:sodipodi="http://sodipodi.sourceforge.net/DTD/sodipodi-0.dtd"
   xmlns:inkscape="http://www.inkscape.org/namespaces/inkscape"
   id="svg7384"
   width="22"
   height="22"
   version="1.1"
   style="enable-background:new"
   sodipodi:docname="go.svg"
   inkscape:version="0.92.4 5da689c313, 2019-01-14">
  <metadata
     id="metadata22">
    <rdf:RDF>
      <cc:Work
         rdf:about="">
        <dc:format>image/svg+xml</dc:format>
        <dc:type
           rdf:resource="http://purl.org/dc/dcmitype/StillImage" />
      </cc:Work>
    </rdf:RDF>
  </metadata>
  <sodipodi:namedview
     pagecolor="#ffffff"
     bordercolor="#666666"
     borderopacity="1"
     objecttolerance="10"
     gridtolerance="10"
     guidetolerance="10"
     inkscape:pageopacity="0"
     inkscape:pageshadow="2"
     inkscape:window-width="1920"
     inkscape:window-height="1019"
     id="namedview20"
     showgrid="false"
     inkscape:zoom="2.6317204"
     inkscape:cx="-9.6046242"
     inkscape:cy="22.657012"
     inkscape:window-x="0"
     inkscape:window-y="36"
     inkscape:window-maximized="1"
     inkscape:current-layer="svg7384" />
  <defs
     id="defs7386">
    <style
       id="current-color-scheme"
       type="text/css">
   .ColorScheme-Text { color:#dedede; } .ColorScheme-Highlight { color:#5294e2; } .ColorScheme-ButtonBackground { color:#dedede; }
  </style>
  </defs>
  <g
     id="go-home"
     transform="translate(-465.0004,105.00336)">
    <path
       id="rect4138"
       d="m 465.0004,-105.00336 22,0 0,22.000003 -22,0 z"
       style="opacity:0;fill:currentColor;fill-opacity:0.3254902;fill-rule:nonzero;stroke:none;stroke-width:1;stroke-linecap:round;stroke-linejoin:round;stroke-miterlimit:4;stroke-dasharray:none;stroke-dashoffset:0;stroke-opacity:1" />
    <path
       id="path16259-2"
       class="ColorScheme-Text"
       d="m 468.0004,-94.00336 2,0 0,8 5,0 0,-4 2,0 0,4 5,0 0,-8 2,0 -8,-8 z"
       style="opacity:1;fill:#323232;fill-opacity:1;stroke:none" />
  </g>
  <g
     id="go-up"
     transform="translate(-465.0004,105.00336)">
    <path
       id="path4198"
       d="m 489.0004,-105.00336 0,22 22,0 0,-22 z"
       style="opacity:0;fill:currentColor;fill-opacity:0.3254902;fill-rule:nonzero;stroke:none;stroke-width:1;stroke-linecap:round;stroke-linejoin:round;stroke-miterlimit:4;stroke-dasharray:none;stroke-dashoffset:0;stroke-opacity:1" />
    <path
       id="rect4216"
       class="ColorScheme-Text"
       d="m 491.5004,-93.976987 2.11644,2.123305 4.36736,-4.379438 0,10.229758 2.99342,0 0,-10.264919 4.40439,4.414599 2.11839,-2.123305 -8,-8.026373 z"
       style="opacity:1;fill:#323232;fill-opacity:1;stroke:none;stroke-opacity:1" />
  </g>
  <g
     id="go-down"
     transform="matrix(1,0,0,-1,-441.0004,-83.00336)">
    <path
       id="path4233"
       d="m 489.0004,-105.00336 0,22 22,0 0,-22 z"
       style="opacity:0;fill:currentColor;fill-opacity:0.3254902;fill-rule:nonzero;stroke:none;stroke-width:1;stroke-linecap:round;stroke-linejoin:round;stroke-miterlimit:4;stroke-dasharray:none;stroke-dashoffset:0;stroke-opacity:1" />
    <path
       id="path4235"
       class="ColorScheme-Text"
       d="m 491.5004,-93.976987 2.11644,2.123305 4.36736,-4.379438 0,10.229758 2.99342,0 0,-10.264919 4.40439,4.414599 2.11839,-2.123305 -8,-8.026373 z"
       style="opacity:1;fill:#323232;fill-opacity:1;stroke:none;stroke-opacity:1" />
  </g>
  <g
     id="go-previous"
     transform="translate(-465.0004,105.00336)">
    <path
       id="path4239"
       d="m 537.0004,-105.00336 22,0 0,22 -22,0 z"
       style="opacity:0;fill:currentColor;fill-opacity:0.3254902;fill-rule:nonzero;stroke:none;stroke-width:1;stroke-linecap:round;stroke-linejoin:round;stroke-miterlimit:4;stroke-dasharray:none;stroke-dashoffset:0;stroke-opacity:1" />
    <path
       id="path4241"
       class="ColorScheme-Text"
       d="m 548.02677,-102.50336 2.12331,2.11644 -4.37944,4.36736 10.22976,0 0,2.99342 -10.26492,0 4.4146,4.40439 -2.12331,2.11839 -8.02637,-8 z"
       style="opacity:1;fill:#323232;fill-opacity:1;stroke:none;stroke-opacity:1" />
  </g>
  <g
     id="go-next"
     transform="matrix(-1,0,0,1,655.0004,105.00336)">
    <path
       id="path4253"
       d="m 537.0004,-105.00336 22,0 0,22 -22,0 z"
       style="opacity:0;fill:currentColor;fill-opacity:0.3254902;fill-rule:nonzero;stroke:none;stroke-width:1;stroke-linecap:round;stroke-linejoin:round;stroke-miterlimit:4;stroke-dasharray:none;stroke-dashoffset:0;stroke-opacity:1" />
    <path
       id="path4255"
       class="ColorScheme-Text"
       d="m 548.02677,-102.50336 2.12331,2.11644 -4.37944,4.36736 10.22976,0 0,2.99342 -10.26492,0 4.4146,4.40439 -2.12331,2.11839 -8.02637,-8 z"
       style="opacity:1;fill:#323232;fill-opacity:1;stroke:none;stroke-opacity:1" />
  </g>
</svg>
