<?xml version="1.0" encoding="UTF-8" standalone="no"?>
<svg
   xmlns:dc="http://purl.org/dc/elements/1.1/"
   xmlns:cc="http://creativecommons.org/ns#"
   xmlns:rdf="http://www.w3.org/1999/02/22-rdf-syntax-ns#"
   xmlns:svg="http://www.w3.org/2000/svg"
   xmlns="http://www.w3.org/2000/svg"
   xmlns:sodipodi="http://sodipodi.sourceforge.net/DTD/sodipodi-0.dtd"
   xmlns:inkscape="http://www.inkscape.org/namespaces/inkscape"
   id="svg"
   inkscape:version="0.92.4 5da689c313, 2019-01-14"
   sodipodi:docname="kdeconnect.svg"
   version="1.1"
   viewBox="0 0 22 22">
  <metadata
     id="metadata24">
    <rdf:RDF>
      <cc:Work
         rdf:about="">
        <dc:format>image/svg+xml</dc:format>
        <dc:type
           rdf:resource="http://purl.org/dc/dcmitype/StillImage" />
        <dc:title />
      </cc:Work>
    </rdf:RDF>
  </metadata>
  <sodipodi:namedview
     id="namedview21"
     bordercolor="#666666"
     borderopacity="1"
     gridtolerance="10"
     guidetolerance="10"
     inkscape:current-layer="svg"
     inkscape:cx="5.4491444"
     inkscape:cy="-9.667525"
     inkscape:pagecheckerboard="false"
     inkscape:pageopacity="0"
     inkscape:pageshadow="2"
     inkscape:window-height="1019"
     inkscape:window-maximized="1"
     inkscape:window-width="1920"
     inkscape:window-x="0"
     inkscape:window-y="36"
     inkscape:zoom="21.454545"
     objecttolerance="10"
     pagecolor="#c8c8c8"
     showgrid="true">
    <inkscape:grid
       id="grid830"
       type="xygrid" />
  </sodipodi:namedview>
  <defs
     id="defs3">
    <style
       id="current-color-scheme"
       type="text/css">.ColorScheme-Text { color:#dedede; } .ColorScheme-Highlight { color:#5294e2; }</style>
  </defs>
  <g
     id="22-22-kdeconnect">
    <rect
       id="rect836"
       x="6"
       y="2"
       width="10"
       height="18"
       rx="1"
       ry="1"
       style="opacity:0.25;fill:#dedede" />
    <path
       id="path15"
       d="M 0,0 H 22 V 22 H 0 Z"
       inkscape:connector-curvature="0"
       style="opacity:0" />
    <g
       id="g836">
      <path
         inkscape:connector-curvature="0"
         style="fill:#323232;fill-opacity:1"
         d="M 7,1 C 5.892,1 5,1.892 5,3 v 16 c 0,1.108 0.892,2 2,2 h 8 c 1.108,0 2,-0.892 2,-2 V 3 C 17,1.892 16.108,1 15,1 H 13 9 Z m 0,1 h 1 c 0,0.554 0.446,1 1,1 h 4 c 0.554,0 1,-0.446 1,-1 h 1 c 0.554,0 1,0.446 1,1 v 16 c 0,0.554 -0.446,1 -1,1 H 7 C 6.446,20 6,19.554 6,19 V 3 C 6,2.446 6.446,2 7,2 Z"
         id="rect834" />
      <path
         inkscape:connector-curvature="0"
         style="opacity:1;fill:#969696;fill-opacity:1"
         d="m 8.5,18 h 5 c 0.277,0 0.5,0.223 0.5,0.5 0,0.277 -0.223,0.5 -0.5,0.5 h -5 C 8.223,19 8,18.777 8,18.5 8,18.223 8.223,18 8.5,18 Z"
         id="rect844" />
    </g>
  </g>
  <g
     id="16-16-kdeconnect">
    <rect
       id="rect874"
       x="4"
       y="28"
       width="8"
       height="12"
       rx="1"
       ry="1"
       style="opacity:0.25;fill:#dedede" />
    <rect
       id="rect10"
       y="26"
       width="16"
       height="16"
       rx="0"
       ry="0"
       x="0"
       style="opacity:0" />
    <g
       id="g871">
      <path
         inkscape:connector-curvature="0"
         style="fill:#323232;fill-opacity:1"
         d="m 5,27 c -1.108,0 -2,0.892 -2,2 v 10 c 0,1.108 0.892,2 2,2 h 6 c 1.108,0 2,-0.892 2,-2 V 29 c 0,-1.108 -0.892,-2 -2,-2 z m 0,1 h 6 c 0.554,0 1,0.446 1,1 v 10 c 0,0.554 -0.446,1 -1,1 H 5 C 4.446,40 4,39.554 4,39 V 29 c 0,-0.554 0.446,-1 1,-1 z"
         id="rect872" />
      <rect
         style="fill:#323232;fill-opacity:1"
         ry="1"
         rx="1"
         height="2"
         width="4"
         y="27"
         x="6"
         id="rect882" />
      <path
         inkscape:connector-curvature="0"
         style="opacity:1;fill:#969696;fill-opacity:1"
         d="m 6.6375,38 h 2.7251 c 0.35315,0 0.63746,0.223 0.63746,0.5 0,0.277 -0.28431,0.5 -0.63746,0.5 H 6.6375 C 6.28435,39 6.00004,38.777 6.00004,38.5 6.00004,38.223 6.28435,38 6.6375,38 Z"
         id="rect884" />
    </g>
  </g>
  <g
     id="kdeconnect">
    <rect
       id="rect896"
       x="9"
       y="-30"
       width="14"
       height="24"
       rx="0"
       ry="1"
       style="opacity:0.25;fill:#dedede" />
    <rect
       id="rect5"
       y="-34"
       width="32"
       height="32"
       rx="0"
       ry="0"
       x="0"
       style="opacity:0" />
    <g
       id="g853">
      <path
         inkscape:connector-curvature="0"
         style="fill:#323232;fill-opacity:1"
         d="m 10,-31 c -1.108,0 -2,0.892 -2,2 v 22 c 0,1.108 0.892,2 2,2 h 12 c 1.108,0 2,-0.892 2,-2 v -22 c 0,-1.108 -0.892,-2 -2,-2 z m 0,1 h 12 c 0.554,0 1,0.446 1,1 v 22 c 0,0.554 -0.446,1 -1,1 H 10 C 9.446,-6 9,-6.446 9,-7 v -22 c 0,-0.554 0.446,-1 1,-1 z"
         id="rect894" />
      <rect
         style="fill:#323232;fill-opacity:1"
         ry="1"
         rx="1"
         height="2"
         width="6"
         y="-31"
         x="13"
         id="rect903" />
      <rect
         style="opacity:1;fill:#969696;fill-opacity:1"
         ry="1"
         rx="0.537"
         height="1"
         width="8"
         y="-8"
         x="12"
         id="rect905" />
    </g>
  </g>
</svg>
