<?xml version="1.0" encoding="UTF-8" standalone="no"?>
<svg
   xmlns:dc="http://purl.org/dc/elements/1.1/"
   xmlns:cc="http://creativecommons.org/ns#"
   xmlns:rdf="http://www.w3.org/1999/02/22-rdf-syntax-ns#"
   xmlns:svg="http://www.w3.org/2000/svg"
   xmlns="http://www.w3.org/2000/svg"
   xmlns:sodipodi="http://sodipodi.sourceforge.net/DTD/sodipodi-0.dtd"
   xmlns:inkscape="http://www.inkscape.org/namespaces/inkscape"
   id="svg7384"
   width="22"
   height="22"
   enable-background="new"
   inkscape:version="0.92.4 5da689c313, 2019-01-14"
   sodipodi:docname="kgpg.svg"
   version="1.1">
  <metadata
     id="metadata22">
    <rdf:RDF>
      <cc:Work
         rdf:about="">
        <dc:format>image/svg+xml</dc:format>
        <dc:type
           rdf:resource="http://purl.org/dc/dcmitype/StillImage" />
        <dc:title></dc:title>
      </cc:Work>
    </rdf:RDF>
  </metadata>
  <sodipodi:namedview
     id="namedview13"
     bordercolor="#666666"
     borderopacity="1"
     gridtolerance="10"
     guidetolerance="10"
     inkscape:bbox-nodes="true"
     inkscape:current-layer="svg7384"
     inkscape:cx="-18.863197"
     inkscape:cy="34.35029"
     inkscape:object-paths="true"
     inkscape:pageopacity="0"
     inkscape:pageshadow="2"
     inkscape:snap-bbox="true"
     inkscape:snap-bbox-edge-midpoints="true"
     inkscape:snap-intersection-paths="true"
     inkscape:window-height="1019"
     inkscape:window-maximized="1"
     inkscape:window-width="1920"
     inkscape:window-x="0"
     inkscape:window-y="36"
     inkscape:zoom="5.2693537"
     objecttolerance="10"
     pagecolor="#c8c8c8"
     showgrid="true">
    <inkscape:grid
       id="grid820"
       type="xygrid" />
  </sodipodi:namedview>
  <defs
     id="defs3">
    <style
       id="current-color-scheme"
       type="text/css">.ColorScheme-Text { color:#dedede; } .ColorScheme-Highlight { color:#5294e2; } .ColorScheme-ButtonBackground { color:#dedede; }</style>
  </defs>
  <g
     id="kgpg">
    <path
       inkscape:connector-curvature="0"
       id="rect836"
       d="M 5,8 C 3.892,8 3,8.892 3,10 v 7 c 0,1.108 0.892,2 2,2 h 12 c 1.108,0 2,-0.892 2,-2 V 10 C 19,8.892 18.108,8 17,8 H 15 14 8 7 Z m 6,2 a 2.0032,2.0032 0 0 1 0.1582,0.0078 2.0032,2.0032 0 0 1 0.13477,0.01563 2.0032,2.0032 0 0 1 0.06836,0.0098 2.0032,2.0032 0 0 1 0.09961,0.02344 2.0032,2.0032 0 0 1 0.11719,0.0293 2.0032,2.0032 0 0 1 0.05664,0.01953 2.0032,2.0032 0 0 1 0.11914,0.04297 2.0032,2.0032 0 0 1 0.10352,0.04687 2.0032,2.0032 0 0 1 0.06641,0.03125 2.0032,2.0032 0 0 1 0.11523,0.06641 2.0032,2.0032 0 0 1 0.06836,0.04297 2.0032,2.0032 0 0 1 0.06836,0.04883 2.0032,2.0032 0 0 1 0.0957,0.07031 2.0032,2.0032 0 0 1 0.07031,0.0625 2.0032,2.0032 0 0 1 0.07422,0.07031 2.0032,2.0032 0 0 1 0.07031,0.07422 2.0032,2.0032 0 0 1 0.0625,0.07031 2.0032,2.0032 0 0 1 0.07031,0.0957 2.0032,2.0032 0 0 1 0.04883,0.06836 2.0032,2.0032 0 0 1 0.04297,0.06836 2.0032,2.0032 0 0 1 0.06641,0.11523 2.0032,2.0032 0 0 1 0.03125,0.06641 2.0032,2.0032 0 0 1 0.04687,0.10352 2.0032,2.0032 0 0 1 0.04297,0.11914 2.0032,2.0032 0 0 1 0.01953,0.05664 2.0032,2.0032 0 0 1 0.0293,0.11719 2.0032,2.0032 0 0 1 0.02344,0.09961 2.0032,2.0032 0 0 1 0.0098,0.06836 2.0032,2.0032 0 0 1 0.01563,0.13476 2.0032,2.0032 0 0 1 0.0078,0.1582 2.0032,2.0032 0 0 1 -0.0078,0.14844 2.0032,2.0032 0 0 1 -0.0078,0.09375 2.0032,2.0032 0 0 1 -0.01758,0.10742 2.0032,2.0032 0 0 1 -0.02344,0.11133 2.0032,2.0032 0 0 1 -0.0059,0.02734 2.0032,2.0032 0 0 1 -0.0078,0.02148 2.0032,2.0032 0 0 1 -0.04297,0.14453 2.0032,2.0032 0 0 1 -0.02734,0.07422 2.0032,2.0032 0 0 1 -0.0332,0.07813 2.0032,2.0032 0 0 1 -0.05664,0.11914 2.0032,2.0032 0 0 1 -0.03516,0.06445 2.0032,2.0032 0 0 1 -0.0625,0.10156 2.0032,2.0032 0 0 1 -0.04883,0.07227 2.0032,2.0032 0 0 1 -0.06641,0.08789 2.0032,2.0032 0 0 1 -0.06055,0.07227 2.0032,2.0032 0 0 1 -0.06445,0.06836 2.0032,2.0032 0 0 1 -0.08008,0.07617 2.0032,2.0032 0 0 1 -0.06836,0.06055 2.0032,2.0032 0 0 1 -0.09375,0.07422 2.0032,2.0032 0 0 1 -0.05859,0.04102 A 2.0032,2.0032 0 0 1 12,13.736319 v 0.08594 0.02148 2.1562 c 0,0.554 -0.446,1 -1,1 -0.1385,0 -0.27091,-0.02766 -0.39062,-0.07813 C 10.25022,16.770406 10,16.415436 10,15.999936 v -2.1562 -0.02148 -0.08399 a 2.0032,2.0032 0 0 1 -0.14648,-0.0957 2.0032,2.0032 0 0 1 -0.044922,-0.0332 2.0032,2.0032 0 0 1 -0.087891,-0.06836 2.0032,2.0032 0 0 1 -0.09375,-0.08203 2.0032,2.0032 0 0 1 -0.044922,-0.04492 2.0032,2.0032 0 0 1 -0.083984,-0.08984 2.0032,2.0032 0 0 1 -0.054688,-0.0625 2.0032,2.0032 0 0 1 -0.082031,-0.10742 2.0032,2.0032 0 0 1 -0.027344,-0.04102 2.0032,2.0032 0 0 1 -0.074219,-0.11914 2.0032,2.0032 0 0 1 -0.035156,-0.06641 2.0032,2.0032 0 0 1 -0.050781,-0.10352 2.0032,2.0032 0 0 1 -0.042969,-0.10547 2.0032,2.0032 0 0 1 -0.021484,-0.05859 2.0032,2.0032 0 0 1 -0.041016,-0.13476 2.0032,2.0032 0 0 1 -0.017578,-0.07031 2.0032,2.0032 0 0 1 -0.019531,-0.09375 2.0032,2.0032 0 0 1 -0.019531,-0.11914 2.0032,2.0032 0 0 1 -0.00781,-0.08594 2.0032,2.0032 0 0 1 -0.00781,-0.15234 2.0032,2.0032 0 0 1 0.00781,-0.1582 2.0032,2.0032 0 0 1 0.015625,-0.13476 2.0032,2.0032 0 0 1 0.00977,-0.06836 2.0032,2.0032 0 0 1 0.023438,-0.09961 2.0032,2.0032 0 0 1 0.029297,-0.11719 2.0032,2.0032 0 0 1 0.019531,-0.05664 2.0032,2.0032 0 0 1 0.042969,-0.11914 2.0032,2.0032 0 0 1 0.046875,-0.10352 2.0032,2.0032 0 0 1 0.03125,-0.06641 2.0032,2.0032 0 0 1 0.066406,-0.11523 2.0032,2.0032 0 0 1 0.042969,-0.06836 2.0032,2.0032 0 0 1 0.048828,-0.06836 2.0032,2.0032 0 0 1 0.070312,-0.0957 2.0032,2.0032 0 0 1 0.0625,-0.07031 2.0032,2.0032 0 0 1 0.070312,-0.07422 2.0032,2.0032 0 0 1 0.074219,-0.07031 2.0032,2.0032 0 0 1 0.070312,-0.0625 2.0032,2.0032 0 0 1 0.095703,-0.07031 2.0032,2.0032 0 0 1 0.068359,-0.04883 2.0032,2.0032 0 0 1 0.068359,-0.04297 2.0032,2.0032 0 0 1 0.11523,-0.06641 2.0032,2.0032 0 0 1 0.06641,-0.03125 2.0032,2.0032 0 0 1 0.10352,-0.04687 2.0032,2.0032 0 0 1 0.11914,-0.04297 2.0032,2.0032 0 0 1 0.05664,-0.01953 2.0032,2.0032 0 0 1 0.11719,-0.0293 2.0032,2.0032 0 0 1 0.09961,-0.02344 2.0032,2.0032 0 0 1 0.06836,-0.0098 2.0032,2.0032 0 0 1 0.13477,-0.01563 2.0032,2.0032 0 0 1 0.1582,-0.00781 z"
       style="fill:#323232;fill-opacity:1" />
    <path
       style="opacity:0.35;fill:#dedede"
       inkscape:connector-curvature="0"
       id="path832"
       d="M 11,10 A 2.0032,2.0032 0 0 0 8.9961,12.0039 2.0032,2.0032 0 0 0 10,13.7383 V 16 c 0,0.554 0.446,1 1,1 0.554,0 1,-0.446 1,-1 V 13.7363 A 2.0032,2.0032 0 0 0 13.0039,12.0039 2.0032,2.0032 0 0 0 11,10 Z" />
    <rect
       style="opacity:0"
       id="rect4192"
       x="-4.2691999e-11"
       y="-2.6673001e-11"
       width="22"
       height="22" />
    <rect
       style="color:#bebebe;fill:none"
       id="rect5737-9"
       transform="rotate(-90)"
       x="-18.997"
       y="2.9976001"
       width="16"
       height="16" />
    <circle
       id="circle843"
       cx="11"
       cy="12.003"
       r="1.0032001"
       style="fill:#323232;fill-opacity:1" />
    <path
       inkscape:connector-curvature="0"
       id="rect858"
       d="M 11,2 C 8.23,2 6,4.23 6,7 v 3 H 8 V 7 c 0,-1.662 1.338,-3 3,-3 1.662,0 3,1.338 3,3 v 3 h 2 V 7 C 16,4.23 13.77,2 11,2 Z"
       style="opacity:0.75;fill:#323232;fill-opacity:1" />
  </g>
  <g
     id="16-16-kgpg">
    <path
       inkscape:connector-curvature="0"
       id="path65"
       d="M 42,4 C 39.784,4 38,5.8216 38,8.0625 V 10 h 2 V 8 c 0,-1.108 0.892,-2 2,-2 1.108,0 2,0.892 2,2 v 2 h 2 V 8.0625 C 46,5.8225 44.216,4 42,4 Z"
       style="color:#000000;opacity:0.75;fill:#323232;fill-opacity:1;enable-background:accumulate" />
    <rect
       style="color:#bebebe;fill:none"
       id="rect67"
       transform="rotate(-90)"
       x="-18.997"
       y="33.997002"
       width="16"
       height="16" />
    <g
       style="fill:#dedede"
       id="g18">
      <circle
         style="opacity:0.35"
         id="path883"
         cx="42"
         cy="14"
         r="2" />
      <circle
         id="circle885"
         cx="42"
         cy="14"
         r="1"
         style="fill:#323232;fill-opacity:1" />
      <path
         inkscape:connector-curvature="0"
         id="path892"
         d="m 36,10 c -0.554,0 -1,0.446 -1,1 v 6 c 0,0.554 0.446,1 1,1 h 12 c 0.554,0 1,-0.446 1,-1 v -6 c 0,-0.554 -0.446,-1 -1,-1 h -2 -2 -4 -2 z m 6,2 a 2,2 0 0 1 2,2 2,2 0 0 1 -2,2 2,2 0 0 1 -2,-2 2,2 0 0 1 2,-2 z"
         style="color:#000000;fill:#323232;fill-opacity:1;enable-background:accumulate" />
    </g>
  </g>
</svg>
