<?xml version="1.0" encoding="UTF-8" standalone="no"?>
<svg
   xmlns:dc="http://purl.org/dc/elements/1.1/"
   xmlns:cc="http://creativecommons.org/ns#"
   xmlns:rdf="http://www.w3.org/1999/02/22-rdf-syntax-ns#"
   xmlns:svg="http://www.w3.org/2000/svg"
   xmlns="http://www.w3.org/2000/svg"
   xmlns:sodipodi="http://sodipodi.sourceforge.net/DTD/sodipodi-0.dtd"
   xmlns:inkscape="http://www.inkscape.org/namespaces/inkscape"
   width="22"
   height="22"
   version="1.1"
   id="svg10"
   sodipodi:docname="kopete.svg"
   inkscape:version="0.92.4 5da689c313, 2019-01-14">
  <metadata
     id="metadata14">
    <rdf:RDF>
      <cc:Work
         rdf:about="">
        <dc:format>image/svg+xml</dc:format>
        <dc:type
           rdf:resource="http://purl.org/dc/dcmitype/StillImage" />
      </cc:Work>
    </rdf:RDF>
  </metadata>
  <sodipodi:namedview
     pagecolor="#ffffff"
     bordercolor="#666666"
     borderopacity="1"
     objecttolerance="10"
     gridtolerance="10"
     guidetolerance="10"
     inkscape:pageopacity="0"
     inkscape:pageshadow="2"
     inkscape:window-width="1920"
     inkscape:window-height="1019"
     id="namedview12"
     showgrid="false"
     inkscape:zoom="10.727273"
     inkscape:cx="-5.9661014"
     inkscape:cy="11"
     inkscape:window-x="0"
     inkscape:window-y="36"
     inkscape:window-maximized="1"
     inkscape:current-layer="svg10" />
  <defs
     id="defs3">
    <style
       id="current-color-scheme"
       type="text/css" />
  </defs>
  <g
     id="kopete">
    <path
       inkscape:connector-curvature="0"
       d="M 4,3 C 3.446,3 3,3.446 3,4 v 10 c 0,0.554 0.446,1 1,1 h 2 v 4 l 4,-4 h 8 c 0.554,0 1,-0.446 1,-1 V 4 C 19,3.446 18.554,3 18,3 Z m 9.2344,1.5293 C 14.9284,5.37534 15.9988,7.1065 16,9 c -0.0023,1.8925 -1.0726,3.6212 -2.7656,4.4668 l -0.23828,-0.47266 c 1.2588,-0.94217 2.0011,-2.4218 2.0039,-3.9941 -0.0028,-1.5724 -0.74506,-3.052 -2.0039,-3.9941 L 13.2344,4.52938 Z M 6,5 H 8 V 7 H 6 Z m 3,3 h 4 v 2 H 9 Z m -3,3 h 2 v 2 H 6 Z"
       id="path5"
       style="color:#dfdfdf;fill:#323232;fill-opacity:1" />
    <path
       style="fill:none"
       inkscape:connector-curvature="0"
       d="M 0,0 H 22 V 22 H 0 Z"
       id="path7" />
  </g>
</svg>
