<?xml version="1.0" encoding="UTF-8" standalone="no"?>
<svg
   xmlns:dc="http://purl.org/dc/elements/1.1/"
   xmlns:cc="http://creativecommons.org/ns#"
   xmlns:rdf="http://www.w3.org/1999/02/22-rdf-syntax-ns#"
   xmlns:svg="http://www.w3.org/2000/svg"
   xmlns="http://www.w3.org/2000/svg"
   xmlns:sodipodi="http://sodipodi.sourceforge.net/DTD/sodipodi-0.dtd"
   xmlns:inkscape="http://www.inkscape.org/namespaces/inkscape"
   id="svg2"
   version="1.1"
   viewBox="0 0 22 22"
   sodipodi:docname="kruler.svg"
   inkscape:version="0.92.4 5da689c313, 2019-01-14">
  <metadata
     id="metadata10">
    <rdf:RDF>
      <cc:Work
         rdf:about="">
        <dc:format>image/svg+xml</dc:format>
        <dc:type
           rdf:resource="http://purl.org/dc/dcmitype/StillImage" />
      </cc:Work>
    </rdf:RDF>
  </metadata>
  <sodipodi:namedview
     pagecolor="#ffffff"
     bordercolor="#666666"
     borderopacity="1"
     objecttolerance="10"
     gridtolerance="10"
     guidetolerance="10"
     inkscape:pageopacity="0"
     inkscape:pageshadow="2"
     inkscape:window-width="1920"
     inkscape:window-height="1019"
     id="namedview8"
     showgrid="false"
     inkscape:zoom="10.727273"
     inkscape:cx="11"
     inkscape:cy="11"
     inkscape:window-x="0"
     inkscape:window-y="36"
     inkscape:window-maximized="1"
     inkscape:current-layer="svg2" />
  <defs
     id="defs3051">
    <style
       id="current-color-scheme"
       type="text/css">
   .ColorScheme-Text { color:#dedede; } .ColorScheme-Highlight { color:#5294e2; } .ColorScheme-ButtonBackground { color:#dedede; }
  </style>
  </defs>
  <g
     id="kruler"
     transform="translate(-326,-534.3622)">
    <rect
       id="rect4165"
       width="22"
       height="22"
       x="326"
       y="534.36"
       style="opacity:1;fill:none;fill-opacity:1;stroke:none" />
    <path
       id="path6"
       class="ColorScheme-Text"
       d="m 328,538.3622 0,3 0,11 2,0 16,0 0,-2 -16,0 0,-9 16,0 0,-3 z m 3,4 0,3 1,0 0,-3 z m 2,0 0,3 1,0 0,-3 z m 2,0 0,6 1,0 0,-6 z m 2,0 0,3 1,0 0,-3 z m 2,0 0,3 1,0 0,-3 z m 2,0 0,6 1,0 0,-6 z m 2,0 0,3 1,0 0,-3 z"
       style="opacity:1;fill:#323232;fill-opacity:1;stroke:none" />
  </g>
</svg>
