<?xml version="1.0" encoding="UTF-8" standalone="no"?>
<svg
   xmlns:dc="http://purl.org/dc/elements/1.1/"
   xmlns:cc="http://creativecommons.org/ns#"
   xmlns:rdf="http://www.w3.org/1999/02/22-rdf-syntax-ns#"
   xmlns:svg="http://www.w3.org/2000/svg"
   xmlns="http://www.w3.org/2000/svg"
   xmlns:sodipodi="http://sodipodi.sourceforge.net/DTD/sodipodi-0.dtd"
   xmlns:inkscape="http://www.inkscape.org/namespaces/inkscape"
   width="22"
   height="22"
   version="1.1"
   id="svg10"
   sodipodi:docname="kteatime.svg"
   inkscape:version="0.92.4 5da689c313, 2019-01-14">
  <metadata
     id="metadata14">
    <rdf:RDF>
      <cc:Work
         rdf:about="">
        <dc:format>image/svg+xml</dc:format>
        <dc:type
           rdf:resource="http://purl.org/dc/dcmitype/StillImage" />
      </cc:Work>
    </rdf:RDF>
  </metadata>
  <sodipodi:namedview
     pagecolor="#ffffff"
     bordercolor="#666666"
     borderopacity="1"
     objecttolerance="10"
     gridtolerance="10"
     guidetolerance="10"
     inkscape:pageopacity="0"
     inkscape:pageshadow="2"
     inkscape:window-width="1920"
     inkscape:window-height="1019"
     id="namedview12"
     showgrid="false"
     inkscape:zoom="10.727273"
     inkscape:cx="11"
     inkscape:cy="11"
     inkscape:window-x="0"
     inkscape:window-y="36"
     inkscape:window-maximized="1"
     inkscape:current-layer="svg10" />
  <defs
     id="defs3">
    <style
       id="current-color-scheme"
       type="text/css" />
  </defs>
  <g
     id="kteatime"
     transform="translate(-30)">
    <path
       style="fill-opacity:0"
       inkscape:connector-curvature="0"
       d="M 30,0 H 52 V 22 H 30 Z"
       id="path5" />
    <path
       inkscape:connector-curvature="0"
       d="m 40,2 v 2 h 1 V 2 Z m -3,1 v 1 h 1 V 3 Z m 6,0 v 1 h 1 V 3 Z m -8,2 v 11 c 0,0.4714 0.5286,1 1,1 h 10 c 0.4714,0 1,-0.5286 1,-1 v -2 h 1 c 1.108,0 2,-0.892 2,-2 V 8 C 50,6.892 49.108,6 48,6 H 47 V 5 Z m 12,2 h 1 c 0.554,0 1,0.446 1,1 v 4 c 0,0.554 -0.446,1 -1,1 h -1 z m -9,2 h 3 v 4 h -3 z m -5,9 v 1 h 16 v -1 z"
       id="path7"
       style="color:#dfdfdf;fill:#323232;fill-opacity:1" />
  </g>
</svg>
