<?xml version="1.0" encoding="UTF-8" standalone="no"?>
<svg
   xmlns:dc="http://purl.org/dc/elements/1.1/"
   xmlns:cc="http://creativecommons.org/ns#"
   xmlns:rdf="http://www.w3.org/1999/02/22-rdf-syntax-ns#"
   xmlns:svg="http://www.w3.org/2000/svg"
   xmlns="http://www.w3.org/2000/svg"
   xmlns:sodipodi="http://sodipodi.sourceforge.net/DTD/sodipodi-0.dtd"
   xmlns:inkscape="http://www.inkscape.org/namespaces/inkscape"
   id="svg"
   version="1.1"
   viewBox="0 0 22 22"
   sodipodi:docname="notification.svg"
   inkscape:version="0.92.4 5da689c313, 2019-01-14">
  <metadata
     id="metadata46">
    <rdf:RDF>
      <cc:Work
         rdf:about="">
        <dc:format>image/svg+xml</dc:format>
        <dc:type
           rdf:resource="http://purl.org/dc/dcmitype/StillImage" />
      </cc:Work>
    </rdf:RDF>
  </metadata>
  <sodipodi:namedview
     pagecolor="#ffffff"
     bordercolor="#666666"
     borderopacity="1"
     objecttolerance="10"
     gridtolerance="10"
     guidetolerance="10"
     inkscape:pageopacity="0"
     inkscape:pageshadow="2"
     inkscape:window-width="1920"
     inkscape:window-height="1019"
     id="namedview44"
     showgrid="false"
     inkscape:zoom="5.3636364"
     inkscape:cx="12.210956"
     inkscape:cy="9.0073648"
     inkscape:window-x="0"
     inkscape:window-y="36"
     inkscape:window-maximized="1"
     inkscape:current-layer="svg" />
  <defs
     id="defs3">
    <style
       id="current-color-scheme"
       type="text/css">.ColorScheme-Text { color:#dedede; } .ColorScheme-Highlight { color:#5294e2; } .ColorScheme-ButtonBackground { color:#dedede; }</style>
  </defs>
  <g
     id="notification-active">
    <rect
       style="opacity:0"
       x="0"
       y="40"
       width="22"
       height="22"
       id="rect5" />
    <path
       inkscape:connector-curvature="0"
       class="ColorScheme-Highlight"
       d="m 11,43 c -4.4183,0 -8,3.5817 -8,8 0,4.4183 3.5817,8 8,8 4.4183,0 8,-3.5817 8,-8 0,-4.4183 -3.5817,-8 -8,-8 z"
       id="path7"
       style="color:#5294e2;fill:#1e64eb;fill-opacity:1" />
    <path
       style="color:#dedede;fill:#ffffff;fill-opacity:0.94118"
       inkscape:connector-curvature="0"
       class="ColorScheme-Text"
       d="m 10,47 v 6 h 2 v -6 z m 1,7 c -0.45315,0 -1,0.51843 -1,0.98047 0,0.46204 0.54685,1.0195 1,1.0195 0.45315,0 1,-0.55749 1,-1.0195 C 12,54.51843 11.45315,54 11,54 Z"
       id="path9" />
  </g>
  <g
     style="fill:currentColor"
     id="g16">
    <path
       style="color:#dedede"
       inkscape:connector-curvature="0"
       id="expander-bottom"
       class="ColorScheme-Text"
       d="m -18,23 2,-2 2,2 z" />
    <path
       style="color:#dedede"
       inkscape:connector-curvature="0"
       id="expander-top"
       class="ColorScheme-Text"
       d="m -18,17 2,2 2,-2 z" />
    <path
       style="color:#dedede"
       inkscape:connector-curvature="0"
       id="expander-right"
       class="ColorScheme-Text"
       d="m -13,18 -2,2 2,2 z" />
    <path
       style="color:#dedede"
       inkscape:connector-curvature="0"
       id="expander-left"
       class="ColorScheme-Text"
       d="m -19,18 2,2 -2,2 z" />
  </g>
  <g
     id="notification-inactive">
    <rect
       style="color:#dedede;fill-opacity:0"
       y="0"
       x="0"
       class="ColorScheme-Text"
       width="22"
       height="22"
       id="rect18" />
    <path
       inkscape:connector-curvature="0"
       class="ColorScheme-Text"
       d="m 11,3 a 8,8 0 0 0 -8,8 8,8 0 0 0 8,8 8,8 0 0 0 8,-8 8,8 0 0 0 -8,-8 z m 0,2 a 6,6 0 0 1 6,6 6,6 0 0 1 -6,6 6,6 0 0 1 -6,-6 6,6 0 0 1 6,-6 z m -1,1 v 6 h 2 V 6 Z m 1,7 c -0.45315,0 -1,0.51843 -1,0.98047 0,0.46204 0.54685,1.0195 1,1.0195 0.45315,0 1,-0.55749 1,-1.0195 C 12,13.51843 11.45315,13 11,13 Z"
       id="path20"
       style="color:#dedede;fill:#323232;fill-opacity:1" />
  </g>
  <g
     id="notification-disabled">
    <rect
       style="opacity:0"
       x="0"
       y="-40"
       width="22"
       height="22"
       id="rect23" />
    <path
       inkscape:connector-curvature="0"
       class="ColorScheme-Text"
       d="m 11,-37 a 8,8 0 0 0 -8,8 8,8 0 0 0 8,8 8,8 0 0 0 8,-8 8,8 0 0 0 -8,-8 z m 0,2 a 6,6 0 0 1 6,6 6,6 0 0 1 -6,6 6,6 0 0 1 -6,-6 6,6 0 0 1 6,-6 z m -1,1 v 6 h 2 v -6 z m 1,7 c -0.45315,0 -1,0.51843 -1,0.98047 0,0.46204 0.54685,1.0195 1,1.0195 0.45315,0 1,-0.55749 1,-1.0195 C 12,-26.48157 11.45315,-27 11,-27 Z"
       id="path25"
       style="color:#dedede;opacity:0.3;fill:#323232;fill-opacity:1" />
  </g>
  <g
     id="notification-empty">
    <rect
       style="opacity:0"
       x="40"
       y="-40"
       width="22"
       height="22"
       id="rect28" />
    <path
       inkscape:connector-curvature="0"
       class="ColorScheme-Text"
       d="m 51,-37 a 8,8 0 0 0 -8,8 8,8 0 0 0 8,8 8,8 0 0 0 8,-8 8,8 0 0 0 -8,-8 z m 0,2 a 6,6 0 0 1 6,6 6,6 0 0 1 -6,6 6,6 0 0 1 -6,-6 6,6 0 0 1 6,-6 z"
       id="path30"
       style="color:#dedede;fill:#323232;fill-opacity:1" />
  </g>
  <g
     id="notification-progress-active">
    <rect
       style="opacity:0"
       y="0"
       x="40"
       width="22"
       height="22"
       id="rect33" />
    <path
       inkscape:connector-curvature="0"
       class="ColorScheme-Highlight"
       d="m 51,3 c -4.4183,0 -8,3.5817 -8,8 0,4.4183 3.5817,8 8,8 4.4183,0 8,-3.5817 8,-8 0,-4.4183 -3.5817,-8 -8,-8 z"
       id="path35"
       style="color:#5294e2;fill:#1e64eb;fill-opacity:1" />
  </g>
  <g
     id="notification-progress-inactive">
    <rect
       style="opacity:0"
       x="40"
       y="40"
       width="22"
       height="22"
       id="rect38" />
    <path
       inkscape:connector-curvature="0"
       class="ColorScheme-Text"
       d="m 51,45 c -3.3137,0 -6,2.6863 -6,6 0,3.3137 2.6863,6 6,6 3.3137,0 6,-2.6863 6,-6 0,-3.3137 -2.6863,-6 -6,-6 z"
       id="path40"
       style="color:#dedede;opacity:0.3;fill:#323232;fill-opacity:1" />
  </g>
</svg>
