<?xml version="1.0" encoding="UTF-8" standalone="no"?>
<svg
   xmlns:dc="http://purl.org/dc/elements/1.1/"
   xmlns:cc="http://creativecommons.org/ns#"
   xmlns:rdf="http://www.w3.org/1999/02/22-rdf-syntax-ns#"
   xmlns:svg="http://www.w3.org/2000/svg"
   xmlns="http://www.w3.org/2000/svg"
   xmlns:sodipodi="http://sodipodi.sourceforge.net/DTD/sodipodi-0.dtd"
   xmlns:inkscape="http://www.inkscape.org/namespaces/inkscape"
   id="svg7384"
   width="22"
   height="22"
   enable-background="new"
   inkscape:version="0.92.4 5da689c313, 2019-01-14"
   sodipodi:docname="printer.svg"
   version="1.1">
  <metadata
     id="metadata16">
    <rdf:RDF>
      <cc:Work
         rdf:about="">
        <dc:format>image/svg+xml</dc:format>
        <dc:type
           rdf:resource="http://purl.org/dc/dcmitype/StillImage" />
        <dc:title></dc:title>
      </cc:Work>
    </rdf:RDF>
  </metadata>
  <sodipodi:namedview
     id="namedview10"
     bordercolor="#666666"
     borderopacity="1"
     gridtolerance="10"
     guidetolerance="10"
     inkscape:current-layer="svg7384"
     inkscape:cx="-2.1483406"
     inkscape:cy="11.570246"
     inkscape:pageopacity="0"
     inkscape:pageshadow="2"
     inkscape:window-height="1019"
     inkscape:window-maximized="1"
     inkscape:window-width="1920"
     inkscape:window-x="0"
     inkscape:window-y="36"
     inkscape:zoom="14.903983"
     objecttolerance="10"
     pagecolor="#c8c8c8"
     showgrid="true">
    <inkscape:grid
       id="grid820"
       type="xygrid" />
  </sodipodi:namedview>
  <defs
     id="defs7386">
    <style
       id="current-color-scheme"
       type="text/css">.ColorScheme-Text { color:#dedede; } .ColorScheme-Highlight { color:#5294e2; } .ColorScheme-ButtonBackground { color:#dedede; }</style>
  </defs>
  <g
     id="printer">
    <g
       style="fill:#dedede"
       id="g9">
      <path
         inkscape:connector-curvature="0"
         id="rect822"
         d="M 8,2 C 6.892,2 6,2.892 6,4 v 1 h 0.27539 9.4492 0.27539 V 4 c 0,-1.108 -0.892,-2 -2,-2 h -6 z"
         style="opacity:0.75;fill:#323232;fill-opacity:1" />
      <rect
         id="rect832"
         x="5"
         y="5"
         width="12"
         height="1"
         ry="0"
         style="fill:#323232;fill-opacity:1" />
      <path
         inkscape:connector-curvature="0"
         id="rect830"
         d="m 7,11 c -0.554,0 -1,0.446 -1,1 v 7 c 0,0.554 0.446,1 1,1 v -8 h 8 v 8 c 0.554,0 1,-0.446 1,-1 v -7 c 0,-0.554 -0.446,-1 -1,-1 z"
         style="fill:#323232;fill-opacity:1" />
    </g>
    <rect
       style="opacity:0"
       id="rect4140"
       x="-0.00060000003"
       y="-0.0032821"
       width="22"
       height="22" />
    <path
       id="rect824"
       d="M 4,7 C 2.892,7 2,7.892 2,9 v 4 c 0,1.108 0.892,2 2,2 h 1 v -3 c 0,-1.108 0.892,-2 2,-2 h 8 c 1.108,0 2,0.892 2,2 v 3 h 1 c 1.108,0 2,-0.892 2,-2 V 9 C 20,7.892 19.108,7 18,7 Z m 14,1 a 1,1 0 0 1 1,1 1,1 0 0 1 -1,1 1,1 0 0 1 -1,-1 1,1 0 0 1 1,-1 z"
       inkscape:connector-curvature="0"
       style="fill:#323232;fill-opacity:1" />
    <rect
       id="rect847"
       x="7"
       y="12"
       width="8"
       height="8"
       ry="0"
       style="opacity:0.5;fill:#323232;fill-opacity:1" />
  </g>
</svg>
