<?xml version="1.0" encoding="UTF-8" standalone="no"?>
<svg
   xmlns:dc="http://purl.org/dc/elements/1.1/"
   xmlns:cc="http://creativecommons.org/ns#"
   xmlns:rdf="http://www.w3.org/1999/02/22-rdf-syntax-ns#"
   xmlns:svg="http://www.w3.org/2000/svg"
   xmlns="http://www.w3.org/2000/svg"
   xmlns:sodipodi="http://sodipodi.sourceforge.net/DTD/sodipodi-0.dtd"
   xmlns:inkscape="http://www.inkscape.org/namespaces/inkscape"
   width="22"
   height="22"
   version="1.1"
   id="svg12"
   sodipodi:docname="start.svg"
   inkscape:version="0.92.4 5da689c313, 2019-01-14">
  <metadata
     id="metadata16">
    <rdf:RDF>
      <cc:Work
         rdf:about="">
        <dc:format>image/svg+xml</dc:format>
        <dc:type
           rdf:resource="http://purl.org/dc/dcmitype/StillImage" />
        <dc:title />
      </cc:Work>
    </rdf:RDF>
  </metadata>
  <sodipodi:namedview
     pagecolor="#c8c8c8"
     bordercolor="#666666"
     borderopacity="1"
     objecttolerance="10"
     gridtolerance="10"
     guidetolerance="10"
     inkscape:pageopacity="0"
     inkscape:pageshadow="2"
     inkscape:window-width="1920"
     inkscape:window-height="1011"
     id="namedview14"
     showgrid="true"
     inkscape:zoom="7.5853273"
     inkscape:cx="-42.876914"
     inkscape:cy="15.827886"
     inkscape:window-x="0"
     inkscape:window-y="0"
     inkscape:window-maximized="1"
     inkscape:current-layer="svg12"
     inkscape:snap-bbox="true"
     inkscape:bbox-nodes="true"
     inkscape:snap-bbox-edge-midpoints="true">
    <inkscape:grid
       type="xygrid"
       id="grid4539" />
  </sodipodi:namedview>
  <defs
     id="defs7386">
    <style
       id="current-color-scheme"
       type="text/css">
   .ColorScheme-Text { color:#dedede; } .ColorScheme-Highlight { color:#5294e2; } .ColorScheme-ButtonBackground { color:#dedede; }
  </style>
    <style
       id="style823"
       type="text/css" />
  </defs>
  <g
     id="22-22-start-here-kde">
    <circle
       r="11"
       cy="11"
       cx="11"
       id="path822"
       style="opacity:0;fill:#ffffff;fill-opacity:1;stroke:none;stroke-width:1.24874103;stroke-linecap:round;stroke-linejoin:round;stroke-miterlimit:4;stroke-dasharray:none;stroke-opacity:1;paint-order:normal" />
    <path
       style="fill:#191919;fill-opacity:1;stroke-width:0.01953126;opacity:0.8"
       inkscape:connector-curvature="0"
       d="M 11,21 C 5.4791664,21 1,16.520836 1,11 1,5.4791636 5.4791664,1 11,1 c 5.520833,0 10,4.4791636 10,10 0,5.520836 -4.479167,10 -10,10 z m 5.020833,-8.833336 c -0.125,-0.375 -0.270833,-0.8125 -0.4375,-1.229164 L 15,9.479164 V 9.020836 c 0,-2.4791724 -1.166667,-4.9791724 -4.020833,-4.9791724 -2.854167,0 -4.0208334,2.5 -4.0208334,4.9791724 V 9.479164 L 6.375,10.9375 c -0.1666664,0.416664 -0.3125,0.854164 -0.4375,1.229164 -0.5416673,1.770836 -0.375,2.5 -0.2291664,2.520836 0.2916664,0.04164 1.125,-1.333336 1.125,-1.333336 0,0.791672 0.3958328,1.833336 1.2708337,2.5625 C 7.7708327,16.020836 7.375,16.166664 7.125,16.375 c -0.2291664,0.166664 -0.2083336,0.354164 -0.1666664,0.416664 0.1875,0.3125 3.1458334,0.208336 3.9999994,0.104172 0.854167,0.104164 3.8125,0.208328 4,-0.104172 0.04166,-0.06245 0.0625,-0.25 -0.166666,-0.416664 -0.25,-0.1875 -0.666667,-0.354164 -0.979167,-0.458336 0.875,-0.75 1.270833,-1.770828 1.270833,-2.5625 0,0 0.833334,1.375 1.125,1.333336 0.166667,-0.02082 0.354167,-0.75 -0.1875,-2.520836 z"
       p-id="91145"
       id="path827" />
  </g>
  <g
     id="start-here-kde"
     transform="translate(-30.025)">
    <rect
       style="color:#bebebe;display:inline;overflow:visible;visibility:visible;fill:none;stroke:none;stroke-width:1;marker:none"
       id="rect6336-6"
       width="32"
       height="32"
       x="-5"
       y="-5" />
    <path
       id="path847"
       p-id="91145"
       d="M 11,23 C 4.374999,23 -1,17.625003 -1,11 -1,4.3749964 4.374999,-1.0000002 11,-1.0000002 c 6.625,0 12,5.3749966 12,12.0000002 0,6.625003 -5.375,12 -12,12 z m 6.025,-10.600003 c -0.15,-0.45 -0.325,-0.975 -0.525,-1.474997 L 15.8,9.1749962 V 8.6250031 c 0,-2.9750067 -1.4,-5.9750067 -4.825,-5.9750067 -3.425,0 -4.824999,3 -4.824999,5.9750067 V 9.1749962 L 5.45,10.925 c -0.199999,0.499997 -0.375,1.024997 -0.525,1.474997 -0.65,2.125003 -0.45,3 -0.274999,3.025003 0.349999,0.04997 1.35,-1.600003 1.35,-1.600003 0,0.950006 0.474998,2.200002 1.524999,3.074999 -0.4,0.125006 -0.875,0.3 -1.175,0.550003 -0.274999,0.199997 -0.250001,0.424997 -0.199999,0.499997 0.225,0.375 3.774999,0.250003 4.799999,0.125006 1.025,0.124997 4.575,0.249994 4.8,-0.125006 0.04999,-0.07494 0.075,-0.3 -0.2,-0.499997 -0.3,-0.225 -0.8,-0.424997 -1.175,-0.550003 1.05,-0.9 1.525,-2.124993 1.525,-3.075 0,0 1,1.65 1.35,1.600004 0.2,-0.02498 0.425,-0.9 -0.225,-3.025003 z"
       inkscape:connector-curvature="0"
       style="fill:#191919;fill-opacity:1;stroke-width:0.02343751;opacity:0.8" />
  </g>
</svg>
