<?xml version="1.0" encoding="UTF-8" standalone="no"?>
<svg
   xmlns:dc="http://purl.org/dc/elements/1.1/"
   xmlns:cc="http://creativecommons.org/ns#"
   xmlns:rdf="http://www.w3.org/1999/02/22-rdf-syntax-ns#"
   xmlns:svg="http://www.w3.org/2000/svg"
   xmlns="http://www.w3.org/2000/svg"
   xmlns:xlink="http://www.w3.org/1999/xlink"
   xmlns:sodipodi="http://sodipodi.sourceforge.net/DTD/sodipodi-0.dtd"
   xmlns:inkscape="http://www.inkscape.org/namespaces/inkscape"
   width="22"
   height="22"
   version="1.1"
   id="svg12"
   sodipodi:docname="start.svg"
   inkscape:version="0.92.4 5da689c313, 2019-01-14">
  <metadata
     id="metadata16">
    <rdf:RDF>
      <cc:Work
         rdf:about="">
        <dc:format>image/svg+xml</dc:format>
        <dc:type
           rdf:resource="http://purl.org/dc/dcmitype/StillImage" />
        <dc:title />
      </cc:Work>
    </rdf:RDF>
  </metadata>
  <sodipodi:namedview
     pagecolor="#c8c8c8"
     bordercolor="#666666"
     borderopacity="1"
     objecttolerance="10"
     gridtolerance="10"
     guidetolerance="10"
     inkscape:pageopacity="0"
     inkscape:pageshadow="2"
     inkscape:window-width="1920"
     inkscape:window-height="1019"
     id="namedview14"
     showgrid="true"
     inkscape:zoom="10.727273"
     inkscape:cx="-15.11821"
     inkscape:cy="2.602427"
     inkscape:window-x="0"
     inkscape:window-y="36"
     inkscape:window-maximized="1"
     inkscape:current-layer="svg12"
     inkscape:snap-bbox="true"
     inkscape:bbox-nodes="true"
     inkscape:snap-bbox-edge-midpoints="true">
    <inkscape:grid
       type="xygrid"
       id="grid4539" />
  </sodipodi:namedview>
  <defs
     id="defs7386">
    <linearGradient
       inkscape:collect="always"
       id="linearGradient843">
      <stop
         style="stop-color:#7346ff;stop-opacity:1"
         offset="0"
         id="stop839" />
      <stop
         style="stop-color:#4187ff;stop-opacity:1"
         offset="1"
         id="stop841" />
    </linearGradient>
    <style
       id="current-color-scheme"
       type="text/css">
   .ColorScheme-Text { color:#dedede; } .ColorScheme-Highlight { color:#5294e2; } .ColorScheme-ButtonBackground { color:#dedede; }
  </style>
    <style
       id="style823"
       type="text/css" />
    <linearGradient
       inkscape:collect="always"
       xlink:href="#linearGradient843"
       id="linearGradient845"
       x1="14"
       y1="54"
       x2="36"
       y2="32"
       gradientUnits="userSpaceOnUse"
       gradientTransform="translate(-14,-32)" />
    <linearGradient
       inkscape:collect="always"
       xlink:href="#linearGradient843"
       id="linearGradient849"
       gradientUnits="userSpaceOnUse"
       gradientTransform="matrix(1.1818182,0,0,1.1818182,-52.645455,-39.829639)"
       x1="14"
       y1="54"
       x2="36"
       y2="32" />
  </defs>
  <g
     id="22-22-start-here-kde">
    <circle
       r="11"
       cy="11"
       cx="11"
       id="path822"
       style="opacity:0;fill:#ffffff;fill-opacity:1;stroke:none;stroke-width:1.24874103;stroke-linecap:round;stroke-linejoin:round;stroke-miterlimit:4;stroke-dasharray:none;stroke-opacity:1;paint-order:normal" />
    <path
       style="fill:url(#linearGradient845);fill-opacity:1;stroke-width:0.02148438"
       inkscape:connector-curvature="0"
       d="M 11,22 C 4.927083,22 0,17.07292 0,11 0,4.92708 4.927083,0 11,0 c 6.072916,0 11,4.92708 11,11 0,6.07292 -4.927084,11 -11,11 z m 5.522916,-9.71667 c -0.1375,-0.4125 -0.297916,-0.89375 -0.48125,-1.35208 L 15.4,9.32708 V 8.82292 c 0,-2.72709 -1.283334,-5.47709 -4.422916,-5.47709 -3.139584,0 -4.422917,2.75 -4.422917,5.47709 V 9.32708 L 5.9125,10.93125 c -0.183333,0.45833 -0.34375,0.93958 -0.48125,1.35208 -0.595834,1.94792 -0.4125,2.75 -0.252083,2.77292 0.320833,0.0458 1.2375,-1.46667 1.2375,-1.46667 0,0.87084 0.435416,2.01667 1.397917,2.81875 -0.366668,0.11459 -0.802084,0.275 -1.077084,0.50417 -0.252083,0.18333 -0.229167,0.38958 -0.183333,0.45833 0.20625,0.34375 3.460417,0.22917 4.399999,0.11459 0.939584,0.11458 4.19375,0.22916 4.4,-0.11459 0.04583,-0.0687 0.06875,-0.275 -0.183332,-0.45833 -0.275,-0.20625 -0.733334,-0.38958 -1.077084,-0.50417 0.9625,-0.825 1.397916,-1.94791 1.397916,-2.81875 0,0 0.916668,1.5125 1.2375,1.46667 0.183334,-0.0229 0.389584,-0.825 -0.20625,-2.77292 z"
       p-id="91145"
       id="path827" />
  </g>
  <g
     id="start-here-kde">
    <rect
       style="color:#bebebe;display:inline;overflow:visible;visibility:visible;fill:none;stroke:none;stroke-width:1;marker:none"
       id="rect6336-6"
       width="32"
       height="32"
       x="-39.099998"
       y="-5.0114565" />
    <path
       id="path847"
       p-id="91145"
       d="m -23.1,23.988544 c -7.177084,0 -13,-5.822913 -13,-13 0,-7.1770875 5.822916,-13.0000005 13,-13.0000005 7.177083,0 13,5.822913 13,13.0000005 0,7.177087 -5.822917,13 -13,13 z m 6.527083,-11.483337 c -0.1625,-0.4875 -0.352083,-1.05625 -0.56875,-1.597913 L -17.9,9.0114565 v -0.595826 c 0,-3.222924 -1.516667,-6.472924 -5.227083,-6.472924 -3.710417,0 -5.227083,3.25 -5.227083,6.472924 v 0.595826 L -29.1125,10.907294 c -0.216666,0.541663 -0.40625,1.110413 -0.56875,1.597913 -0.704167,2.302087 -0.4875,3.25 -0.297916,3.277087 0.379166,0.05413 1.4625,-1.733337 1.4625,-1.733337 0,1.029174 0.514582,2.383336 1.652083,3.331249 -0.433334,0.135424 -0.947917,0.325 -1.272917,0.595837 -0.297916,0.216663 -0.270834,0.460413 -0.216666,0.541663 0.24375,0.40625 4.089583,0.270837 5.199999,0.135424 1.110417,0.135413 4.95625,0.270826 5.2,-0.135424 0.05416,-0.08119 0.08125,-0.325 -0.216666,-0.541663 -0.325,-0.24375 -0.866667,-0.460413 -1.272917,-0.595837 1.1375,-0.975 1.652083,-2.302075 1.652083,-3.33125 0,0 1.083334,1.7875 1.4625,1.733338 0.216667,-0.02706 0.460417,-0.975 -0.24375,-3.277087 z"
       inkscape:connector-curvature="0"
       style="fill:url(#linearGradient849);fill-opacity:1;stroke-width:0.02539063" />
  </g>
</svg>
