<?xml version="1.0" encoding="UTF-8" standalone="no"?>
<svg
   xmlns:dc="http://purl.org/dc/elements/1.1/"
   xmlns:cc="http://creativecommons.org/ns#"
   xmlns:rdf="http://www.w3.org/1999/02/22-rdf-syntax-ns#"
   xmlns:svg="http://www.w3.org/2000/svg"
   xmlns="http://www.w3.org/2000/svg"
   xmlns:sodipodi="http://sodipodi.sourceforge.net/DTD/sodipodi-0.dtd"
   xmlns:inkscape="http://www.inkscape.org/namespaces/inkscape"
   width="32"
   height="32"
   version="1.1"
   id="svg12"
   sodipodi:docname="start.svg"
   inkscape:version="0.92.4 5da689c313, 2019-01-14">
  <metadata
     id="metadata16">
    <rdf:RDF>
      <cc:Work
         rdf:about="">
        <dc:format>image/svg+xml</dc:format>
        <dc:type
           rdf:resource="http://purl.org/dc/dcmitype/StillImage" />
        <dc:title></dc:title>
      </cc:Work>
    </rdf:RDF>
  </metadata>
  <sodipodi:namedview
     pagecolor="#c8c8c8"
     bordercolor="#666666"
     borderopacity="1"
     objecttolerance="10"
     gridtolerance="10"
     guidetolerance="10"
     inkscape:pageopacity="0"
     inkscape:pageshadow="2"
     inkscape:window-width="1920"
     inkscape:window-height="981"
     id="namedview14"
     showgrid="true"
     inkscape:zoom="10.727273"
     inkscape:cx="11.7333"
     inkscape:cy="26.060115"
     inkscape:window-x="0"
     inkscape:window-y="28"
     inkscape:window-maximized="1"
     inkscape:current-layer="svg12"
     inkscape:snap-bbox="true"
     inkscape:bbox-nodes="true"
     inkscape:snap-bbox-edge-midpoints="true">
    <inkscape:grid
       type="xygrid"
       id="grid4539" />
  </sodipodi:namedview>
  <defs
     id="defs7386">
    <style
       id="current-color-scheme"
       type="text/css">
   .ColorScheme-Text { color:#dedede; } .ColorScheme-Highlight { color:#5294e2; } .ColorScheme-ButtonBackground { color:#dedede; }
  </style>
    <style
       id="style823"
       type="text/css" />
  </defs>
  <g
     id="22-22-start-here-kde"
     transform="translate(35,10)">
    <circle
       r="11"
       cy="11"
       cx="11"
       id="path822"
       style="opacity:0;fill:#ffffff;fill-opacity:1;stroke:none;stroke-width:1.24874103;stroke-linecap:round;stroke-linejoin:round;stroke-miterlimit:4;stroke-dasharray:none;stroke-opacity:1;paint-order:normal" />
    <path
       style="opacity:1;fill:#323232;fill-opacity:1;stroke-width:0.01953126"
       inkscape:connector-curvature="0"
       d="M 11,21 C 5.4791664,21 1,16.520836 1,11 1,5.4791636 5.4791664,1 11,1 c 5.520833,0 10,4.4791636 10,10 0,5.520836 -4.479167,10 -10,10 z m 5.020833,-8.833336 c -0.125,-0.375 -0.270833,-0.8125 -0.4375,-1.229164 L 15,9.479164 V 9.020836 c 0,-2.4791724 -1.166667,-4.9791724 -4.020833,-4.9791724 -2.854167,0 -4.0208334,2.5 -4.0208334,4.9791724 V 9.479164 L 6.375,10.9375 c -0.1666664,0.416664 -0.3125,0.854164 -0.4375,1.229164 -0.5416673,1.770836 -0.375,2.5 -0.2291664,2.520836 0.2916664,0.04164 1.125,-1.333336 1.125,-1.333336 0,0.791672 0.3958328,1.833336 1.2708337,2.5625 C 7.7708327,16.020836 7.375,16.166664 7.125,16.375 c -0.2291664,0.166664 -0.2083336,0.354164 -0.1666664,0.416664 0.1875,0.3125 3.1458334,0.208336 3.9999994,0.104172 0.854167,0.104164 3.8125,0.208328 4,-0.104172 0.04166,-0.06245 0.0625,-0.25 -0.166666,-0.416664 -0.25,-0.1875 -0.666667,-0.354164 -0.979167,-0.458336 0.875,-0.75 1.270833,-1.770828 1.270833,-2.5625 0,0 0.833334,1.375 1.125,1.333336 0.166667,-0.02082 0.354167,-0.75 -0.1875,-2.520836 z"
       p-id="91145"
       id="path827" />
  </g>
  <g
     id="start-here-kde"
     transform="translate(5,5)">
    <rect
       style="color:#bebebe;display:inline;overflow:visible;visibility:visible;fill:none;stroke:none;stroke-width:1;marker:none"
       id="rect6336-6"
       width="32"
       height="32"
       x="-5"
       y="-5" />
    <path
       id="path847"
       p-id="91145"
       d="M 11,25 C 3.2708321,25 -3,18.72917 -3,11 -3,3.2708293 3.2708321,-3 11,-3 c 7.729167,0 14,6.2708293 14,14 0,7.72917 -6.270833,14 -14,14 z m 7.029167,-12.36667 c -0.175,-0.525 -0.379167,-1.1375 -0.6125,-1.72083 L 16.6,8.8708291 V 8.2291705 c 0,-3.4708413 -1.633333,-6.9708413 -5.629167,-6.9708413 -3.995833,0 -5.6291651,3.5 -5.6291651,6.9708413 V 8.8708291 L 4.525,10.9125 c -0.2333321,0.58333 -0.4375,1.19583 -0.6125,1.72083 -0.7583333,2.47917 -0.525,3.5 -0.3208322,3.52917 0.4083322,0.0583 1.575,-1.86667 1.575,-1.86667 0,1.10834 0.5541644,2.566669 1.7791655,3.587499 -0.4666666,0.14584 -1.0208333,0.35 -1.3708333,0.64167 -0.3208322,0.23333 -0.2916679,0.49583 -0.2333322,0.58333 0.2625,0.4375 4.4041655,0.29167 5.5999992,0.14584 1.195833,0.14583 5.3375,0.29166 5.6,-0.14584 0.05832,-0.08743 0.0875,-0.35 -0.233334,-0.58333 -0.35,-0.2625 -0.933333,-0.49583 -1.370833,-0.64167 1.225,-1.05 1.779167,-2.479159 1.779167,-3.5875 0,0 1.166666,1.925 1.575,1.866671 0.233333,-0.02914 0.495833,-1.05 -0.2625,-3.52917 z"
       inkscape:connector-curvature="0"
       style="opacity:1;fill:#323232;fill-opacity:1;stroke-width:0.02734376" />
  </g>
</svg>
