<?xml version="1.0" encoding="UTF-8" standalone="no"?>
<svg
   xmlns:dc="http://purl.org/dc/elements/1.1/"
   xmlns:cc="http://creativecommons.org/ns#"
   xmlns:rdf="http://www.w3.org/1999/02/22-rdf-syntax-ns#"
   xmlns:svg="http://www.w3.org/2000/svg"
   xmlns="http://www.w3.org/2000/svg"
   xmlns:sodipodi="http://sodipodi.sourceforge.net/DTD/sodipodi-0.dtd"
   xmlns:inkscape="http://www.inkscape.org/namespaces/inkscape"
   id="svg2"
   width="32"
   height="32"
   version="1.1"
   viewBox="0 0 32 32"
   sodipodi:docname="system.svg"
   inkscape:version="0.92.4 5da689c313, 2019-01-14">
  <metadata
     id="metadata59">
    <rdf:RDF>
      <cc:Work
         rdf:about="">
        <dc:format>image/svg+xml</dc:format>
        <dc:type
           rdf:resource="http://purl.org/dc/dcmitype/StillImage" />
        <dc:title />
      </cc:Work>
    </rdf:RDF>
  </metadata>
  <sodipodi:namedview
     pagecolor="#c8c8c8"
     bordercolor="#666666"
     borderopacity="1"
     objecttolerance="10"
     gridtolerance="10"
     guidetolerance="10"
     inkscape:pageopacity="0"
     inkscape:pageshadow="2"
     inkscape:window-width="1920"
     inkscape:window-height="1011"
     id="namedview57"
     showgrid="true"
     inkscape:zoom="2.8284271"
     inkscape:cx="-42.224761"
     inkscape:cy="16.304239"
     inkscape:window-x="0"
     inkscape:window-y="0"
     inkscape:window-maximized="1"
     inkscape:current-layer="svg2"
     inkscape:snap-bbox="true"
     inkscape:bbox-nodes="true"
     inkscape:snap-nodes="true"
     inkscape:snap-smooth-nodes="false"
     inkscape:snap-global="true"
     inkscape:snap-bbox-edge-midpoints="true"
     inkscape:snap-bbox-midpoints="false"
     inkscape:object-nodes="false">
    <inkscape:grid
       type="xygrid"
       id="grid862" />
  </sodipodi:namedview>
  <defs
     id="defs87">
    <style
       id="current-color-scheme"
       type="text/css">
   .ColorScheme-Text { color:#dedede; } .ColorScheme-Highlight { color:#5294e2; } .ColorScheme-ButtonBackground { color:#dedede; }
  </style>
    <style
       id="current-color-scheme-6"
       type="text/css" />
    <linearGradient
       id="a">
      <stop
         id="stop945"
         stop-color="#fff"
         offset="0" />
      <stop
         id="stop947"
         stop-opacity=".235"
         stop-color="#fff"
         offset=".508" />
      <stop
         id="stop949"
         stop-opacity=".157"
         stop-color="#fff"
         offset=".835" />
      <stop
         id="stop951"
         stop-opacity=".392"
         stop-color="#fff"
         offset="1" />
    </linearGradient>
    <linearGradient
       id="c">
      <stop
         id="stop954"
         stop-color="#3d3d3d"
         offset="0" />
      <stop
         id="stop956"
         stop-opacity=".498"
         stop-color="#686868"
         offset=".5" />
      <stop
         id="stop958"
         stop-opacity="0"
         stop-color="#686868"
         offset="1" />
    </linearGradient>
    <linearGradient
       id="b">
      <stop
         id="stop961"
         stop-color="#919caf"
         offset="0" />
      <stop
         id="stop963"
         stop-color="#68758e"
         offset=".262" />
      <stop
         id="stop965"
         stop-color="#485a6c"
         offset=".705" />
      <stop
         id="stop967"
         stop-color="#444c5c"
         offset="1" />
    </linearGradient>
    <style
       id="style924"
       type="text/css" />
    <style
       id="style941"
       type="text/css" />
    <style
       id="style963"
       type="text/css" />
    <style
       id="style990"
       type="text/css" />
    <style
       id="style946"
       type="text/css" />
    <style
       id="style968"
       type="text/css" />
    <style
       id="style987"
       type="text/css" />
    <style
       id="style1014"
       type="text/css" />
  </defs>
  <g
     id="22-22-system-suspend"
     transform="translate(-21.999999,-988.36218)">
    <rect
       id="rect4222"
       width="22"
       height="22"
       x="0"
       y="1030.36"
       style="opacity:0.001;fill:currentColor;fill-opacity:1;stroke:none;stroke-width:2;stroke-linecap:round;stroke-linejoin:round;stroke-miterlimit:4;stroke-dasharray:none;stroke-opacity:1" />
    <g
       id="g4380"
       transform="matrix(1.0009385,0,0,0.99883233,-322.31608,1012.4029)"
       style="display:inline;opacity:1;fill:currentColor;fill-opacity:1">
      <path
         id="path4398"
         class="ColorScheme-Text"
         d="M 8.0449219,2 C 5.4709885,1.9800034 3.1612109,3.6075004 2.3203125,6.0351562 2.0969331,6.6800174 1.9985687,7.3426625 2,8 1.9989991,8.6573375 2.0969831,9.3199826 2.3203125,9.9648438 3.1612109,12.3925 5.4709885,14.02 8.0449219,14 10.618845,13.980003 12.900212,12.315429 13.703125,9.875 13.906195,9.2577756 14.001361,8.6263907 14,8 14.001001,7.3736093 13.906205,6.7422244 13.703125,6.125 12.900212,3.684571 10.618845,2.0199966 8.0449219,2 Z M 8.0292969,3.9980469 C 9.7515617,4.0114312 11.263538,5.1131547 11.800781,6.7460938 11.936599,7.1589011 12.00029,7.582557 12,8 12.00029,8.417443 11.936639,8.8410989 11.800781,9.2539062 11.263538,10.886845 9.7515617,11.988573 8.0292969,12.001953 6.307032,12.015337 4.7736051,10.936893 4.2109375,9.3125 4.0615674,8.8812761 3.9955932,8.4378711 3.9960938,8 3.9955932,7.5621289 4.0615574,7.1187239 4.2109375,6.6875 4.7736051,5.0631071 6.307032,3.9846625 8.0292969,3.9980469 Z M 5.8554688,7 C 5.3807835,7 5,7.446 5,8 5,8.554 5.3807835,9 5.8554688,9 L 10.142578,9 C 10.61726,9 11,8.554 11,8 11,7.446 10.61726,7 10.142578,7 L 5.8554688,7 Z"
         transform="matrix(0.99906238,0,0,1.001169,325.01106,20.983802)"
         style="fill:#191919;fill-opacity:1;opacity:0.8" />
    </g>
  </g>
  <g
     id="22-22-system-switch-user"
     transform="translate(1e-6,-988.36218)">
    <rect
       id="rect4220"
       width="22"
       height="22"
       x="0"
       y="1030.36"
       style="opacity:0.001;fill:currentColor;fill-opacity:1;stroke:none;stroke-width:2;stroke-linecap:round;stroke-linejoin:round;stroke-miterlimit:4;stroke-dasharray:none;stroke-opacity:1" />
    <path
       id="path4481"
       class="ColorScheme-Text"
       d="m 10.9943,1035.362 c -1.8700303,0 -3.3939153,1.5345 -3.4492153,3.4512 -0.0459,0.012 -0.0915,0.033 -0.13476,0.055 -0.43005,0.227 -0.54034,0.9343 -0.2461,1.5899 0.23672,0.5274 0.65753,0.8538 1.03906,0.8437 0.28723,1.7528 1.430425,3.0606 2.7910153,3.0606 l 0.0117,0 c 1.36059,0 2.5038,-1.3078 2.79102,-3.0606 0.38154,0.01 0.80234,-0.3163 1.03906,-0.8437 0.29424,-0.6556 0.18394,-1.3629 -0.24609,-1.5899 -0.0433,-0.023 -0.0888,-0.044 -0.13477,-0.055 -0.0553,-1.9167 -1.57919,-3.4512 -3.44922,-3.4512 l -0.0117,0 z m 2.40039,8 c -0.28889,0.7005 -1.27408,1.2246 -2.44922,1.2246 -1.1698503,0 -2.1455953,-0.5173 -2.4394453,-1.2129 -2.46908,0.2581 -4.26818,0.8896 -4.48438,1.6367 -0.003,0.01 0.002,0.016 0,0.024 -0.007,0.026 -0.007,0.049 -0.01,0.076 -10e-4,0.012 -0.0117,0.021 -0.0117,0.035 -9e-5,0 0,0.011 0,0.012 l 0,1.8477 c 0,0.1976 0.15571,0.3574 0.34961,0.3574 l 13.3007853,0 c 0.1939,0 0.3496,-0.1598 0.3496,-0.3574 l 0,-1.8477 c 0,-0.01 3.5e-4,-0.015 0,-0.023 -0.002,-0.043 -0.0208,-0.081 -0.0332,-0.123 -0.22075,-0.7563 -2.05842,-1.3964 -4.57226,-1.6484 z"
       style="fill:#191919;fill-opacity:1;opacity:0.8" />
  </g>
  <g
     id="22-22-system-shutdown"
     transform="translate(-43.999999,-988.36218)">
    <rect
       id="rect4229"
       width="22"
       height="22"
       x="0"
       y="1030.36"
       style="opacity:0.001;fill:currentColor;fill-opacity:1;stroke:none;stroke-width:2;stroke-linecap:round;stroke-linejoin:round;stroke-miterlimit:4;stroke-dasharray:none;stroke-opacity:1" />
    <path
       id="rect4324"
       class="ColorScheme-Text"
       d="m 11.000336,1034.362 c -0.553987,0 -0.99995,0.4462 -0.99995,1 l 0,5.0019 c 0,0.5538 0.445963,0.9981 0.99995,0.9981 0.553988,0 0.99995,-0.4443 0.99995,-0.9981 l 0,-5.0019 c 0,-0.5538 -0.445962,-1 -0.99995,-1 z m 2.939305,1.9902 a 1.000176,0.99982748 0 0 0 -0.542942,1.8086 c 1.377976,1.0304 1.941017,2.8148 1.404226,4.4492 -0.536779,1.6344 -2.050513,2.7386 -3.771293,2.752 -1.7207811,0.013 -3.2501263,-1.0675 -3.8123083,-2.6934 -0.562183,-1.6258 -0.02587,-3.419 1.335869,-4.4707 a 1.000176,0.99982748 0 1 0 -1.222594,-1.582 c -2.035135,1.5718 -2.842036,4.2772 -2.001852,6.707 0.840173,2.4298 3.144793,4.0591 5.7165093,4.0391 2.571705,-0.02 4.853744,-1.6863 5.655965,-4.1289 0.80223,-2.4426 -0.04794,-5.1339 -2.107316,-6.6739 a 1.000176,0.99982748 0 0 0 -0.654264,-0.207 z"
       style="fill:#191919;fill-opacity:1;opacity:0.8" />
  </g>
  <g
     id="22-22-system-reboot"
     transform="matrix(0,-1,1,0,-1096.3623,64)">
    <rect
       id="rect4235"
       width="22"
       height="22"
       x="0"
       y="1030.36"
       style="opacity:0.001;fill:currentColor;fill-opacity:1;stroke:none;stroke-width:2;stroke-linecap:round;stroke-linejoin:round;stroke-miterlimit:4;stroke-dasharray:none;stroke-opacity:1" />
    <g
       id="layer12"
       transform="matrix(1.0009385,0,0,0.99883233,-322.31609,1012.4029)"
       style="display:inline;opacity:1;fill:currentColor;fill-opacity:1">
      <path
         id="path6796"
         class="ColorScheme-Text"
         d="M 8.0449219,2 C 5.4709885,1.98 3.161211,3.6075002 2.3203125,6.0351562 2.0969411,6.6800174 1.998566,7.342662 2,8 1.998566,8.657338 2.0969411,9.3199826 2.3203125,9.9648438 3.161211,12.3925 5.4709885,14.02 8.0449219,14 10.618845,13.980003 12.900212,12.315429 13.703125,9.875 13.906197,9.2577753 14.001356,8.626391 14,8 14.001356,7.373609 13.906197,6.7422247 13.703125,6.125 12.900212,3.6845712 10.618845,2.019997 8.0449219,2 Z M 8.0292969,3.9980469 C 9.7515617,4.0114279 11.263537,5.1131547 11.800781,6.7460938 11.9366,7.1589017 12.00029,7.5825571 12,8 12.00029,8.4174429 11.936599,8.8410983 11.800781,9.2539062 11.263537,10.886845 9.7515617,11.988572 8.0292969,12.001953 6.307032,12.015337 4.773605,10.936893 4.2109375,9.3125 4.0615674,8.881276 3.995597,8.4378713 3.9960938,8 3.995597,7.5621287 4.0615674,7.118724 4.2109375,6.6875 4.773605,5.0631072 6.307032,3.9846629 8.0292969,3.9980469 Z M 6.4746094,6 A 0.4736353,0.52746185 0 0 0 6.0625,6.7890625 L 7.5898438,9.734375 A 0.4736353,0.52746185 0 0 0 7.9746094,10 0.4736353,0.52746185 0 0 0 8.0234375,10 0.4736353,0.52746185 0 0 0 8.4101562,9.734375 L 9.9375,6.7890625 A 0.4736353,0.52746185 0 0 0 9.5273438,6 L 6.4746094,6 Z"
         transform="matrix(0.99906238,0,0,1.001169,325.01107,20.983802)"
         style="fill:#191919;fill-opacity:1;opacity:0.8" />
    </g>
  </g>
  <g
     id="22-22-system-log-out"
     transform="matrix(-1,0,0,1,-65.999999,-988.36218)"
     inkscape:label="#22-22-system-log-out">
    <rect
       id="rect4242"
       width="22"
       height="22"
       x="0"
       y="1030.36"
       style="opacity:0.001;fill:currentColor;fill-opacity:1;stroke:none;stroke-width:2;stroke-linecap:round;stroke-linejoin:round;stroke-miterlimit:4;stroke-dasharray:none;stroke-opacity:1" />
    <path
       id="path4360"
       class="ColorScheme-Text"
       d="m 11.475393,1035.3621 a 0.4736353,0.52746183 0 0 0 -0.412109,0.7891 l 1.527343,2.9453 a 0.4736353,0.52746183 0 0 0 0.384766,0.2656 0.4736353,0.52746183 0 0 0 0.04883,0 0.4736353,0.52746183 0 0 0 0.386718,-0.2656 l 0.326172,-0.6289 c 1.12174,1.0534 1.553588,2.6586 1.064453,4.1465 -0.536781,1.6327 -2.050703,2.7366 -3.771484,2.75 -1.7207807,0.013 -3.2503167,-1.0672 -3.8124997,-2.6915 -0.562183,-1.6242 -0.02584,-3.4141 1.335938,-4.4648 a 1.0005526,0.99921387 0 1 0 -1.222657,-1.582 c -2.035134,1.5702 -2.842137,4.2737 -2.001953,6.7011 0.840174,2.4275 3.145082,4.0552 5.7167967,4.0352 2.571705,-0.02 4.854029,-1.6848 5.65625,-4.125 0.789982,-2.4029 -0.02804,-5.0426 -2.019531,-6.5918 l 0.255859,-0.4941 a 0.4736353,0.52746183 0 0 0 -0.410156,-0.7891 l -3.052734,0 z"
       style="fill:#191919;fill-opacity:1;opacity:0.8" />
  </g>
  <g
     id="22-22-system-suspend-hibernate"
     transform="translate(-110,-988.36218)">
    <rect
       id="rect4248"
       width="22"
       height="22"
       x="0"
       y="1030.36"
       style="opacity:0.001;fill:currentColor;fill-opacity:1;stroke:none;stroke-width:2;stroke-linecap:round;stroke-linejoin:round;stroke-miterlimit:4;stroke-dasharray:none;stroke-opacity:1" />
    <g
       id="g4447"
       transform="matrix(1.0009385,0,0,0.99883233,-322.31607,1012.4029)"
       style="display:inline;opacity:1;fill:currentColor;fill-opacity:1">
      <path
         id="path4455"
         class="ColorScheme-Text"
         d="M 80.044922,2 C 77.470989,1.9800034 75.161212,3.6075014 74.320312,6.0351562 74.096933,6.6800174 73.998569,7.3426625 74,8 73.999,8.6573375 74.09698,9.3199826 74.320312,9.9648438 75.161212,12.3925 77.470989,14.02 80.044922,14 82.618845,13.98 84.900212,12.315429 85.703125,9.875 85.906195,9.2577756 86.001361,8.6263907 86,8 86.001001,7.3736093 85.906205,6.7422244 85.703125,6.125 84.900212,3.684571 82.618845,2.0199966 80.044922,2 Z m -0.01563,1.9980469 c 1.722265,0.013384 3.234241,1.1151078 3.771484,2.7480469 C 83.936599,7.1589011 84.00029,7.582557 84,8 84.00029,8.417443 83.936639,8.8410989 83.800781,9.2539062 83.263538,10.886845 81.751562,11.988574 80.029297,12.001953 78.307032,12.015337 76.773605,10.936893 76.210938,9.3125 76.061566,8.8812761 75.995593,8.4378711 75.996094,8 75.995593,7.5621289 76.061556,7.1187239 76.210938,6.6875 76.773605,5.0631071 78.307032,3.9846625 80.029297,3.9980469 Z M 80,6 a 2,2 0 0 0 -2,2 2,2 0 0 0 2,2 2,2 0 0 0 2,-2 2,2 0 0 0 -2,-2 z"
         transform="matrix(0.99906238,0,0,1.001169,253.07856,20.983802)"
         style="fill:#191919;fill-opacity:1;opacity:0.8" />
    </g>
  </g>
  <g
     id="22-22-system-lock-screen"
     transform="translate(22.000001,-988.36218)">
    <rect
       id="rect4255"
       width="22"
       height="22"
       x="0"
       y="1030.36"
       style="opacity:0.001;fill:currentColor;fill-opacity:1;stroke:none;stroke-width:2;stroke-linecap:round;stroke-linejoin:round;stroke-miterlimit:4;stroke-dasharray:none;stroke-opacity:1" />
    <path
       id="path5975"
       class="ColorScheme-Text"
       d="m 11,1034.3622 c -2.216,0 -4,1.8216 -4,4.0625 l 0,1.9375 -1,0 c -0.554,0 -1,0.446 -1,1 l 0,6 c 0,0.554 0.446,1 1,1 l 10,0 c 0.554,0 1,-0.446 1,-1 l 0,-6 c 0,-0.554 -0.446,-1 -1,-1 l -1,0 0,-1.9375 c 0,-2.24 -1.784,-4.0625 -4,-4.0625 z m 0,2 c 1.108,0 2,0.892 2,2 l 0,2 -4,0 0,-2 c 0,-1.108 0.892,-2 2,-2 z"
       style="fill:#191919;fill-opacity:1;opacity:0.8" />
  </g>
  <g
     id="g1109"
     transform="translate(0,1.0000005)" />
  <g
     id="system-reboot">
    <rect
       style="opacity:0;fill:#000000;fill-opacity:1;fill-rule:evenodd;stroke:none;stroke-width:2;stroke-linecap:round;stroke-linejoin:round;stroke-miterlimit:4;stroke-dasharray:none;stroke-opacity:1;paint-order:fill markers stroke"
       id="rect1129-7"
       width="32"
       height="32"
       x="-122.62305"
       y="1.1025606e-07"
       rx="0"
       ry="0" />
    <path
       style="opacity:0.8;fill:#191919;fill-opacity:1;stroke-width:0.02629277"
       inkscape:connector-curvature="0"
       d="m -95.194879,14.930282 a 1.0711276,1.0712368 0 1 1 0,2.142473 h -4.286437 a 1.0711276,1.0712368 0 1 1 0,-2.142473 z m -5.618141,-3.222365 a 1.0730507,1.07316 0 0 1 -1.51726,-1.516463 l 3.030694,-3.0290805 a 1.0720891,1.0721984 0 0 1 1.51631,1.515503 l -3.029744,3.0290785 z m -5.81043,10.366186 a 1.0701661,1.0702751 0 0 1 1.07305,1.071238 v 4.284947 a 1.0720893,1.0721985 0 0 1 -2.14417,0 v -4.283986 a 1.0672816,1.0673904 0 0 1 1.07112,-1.072199 z m 0,-18.5735513 a 1.0711276,1.0712368 0 0 1 1.07305,1.0712375 v 4.2849463 a 1.0720893,1.0721985 0 0 1 -2.14417,0 V 4.5717892 a 1.0711276,1.0712368 0 0 1 1.07112,-1.0712375 z m -7.3229,3.6618218 3.02974,3.0329275 a 1.0711276,1.0712368 0 0 1 -1.51343,1.513578 l -3.03165,-3.0310025 a 1.0730507,1.07316 0 0 1 1.51534,-1.515503 z m 1.25189,8.8372215 a 1.0672816,1.0673904 0 0 1 -1.07112,1.072199 h -4.28644 a 1.0711278,1.071237 0 1 1 0,-2.142474 h 4.28548 c 0.59133,0 1.07113,0.478883 1.07208,1.071237 z m 0.2625,4.295526 a 1.0711737,1.0712829 0 0 1 1.51439,1.515501 l -3.02974,3.02908 a 1.0730507,1.07316 0 0 1 -1.5163,-1.515501 z m 11.61894,0 3.028784,3.02908 a 1.0720891,1.0721984 0 1 1 -1.51535,1.516463 l -3.028774,-3.030042 a 1.0720891,1.0721984 0 1 1 1.51534,-1.515501 z"
       p-id="115499"
       id="path945" />
  </g>
  <g
     id="system-shutdown">
    <rect
       ry="0"
       rx="0"
       y="5e-07"
       x="-82.623047"
       height="32"
       width="32"
       id="rect1086"
       style="opacity:0;fill:#000000;fill-opacity:1;fill-rule:evenodd;stroke:none;stroke-width:2;stroke-linecap:round;stroke-linejoin:round;stroke-miterlimit:4;stroke-dasharray:none;stroke-opacity:1;paint-order:fill markers stroke" />
    <g
       style="opacity:0.8;fill:#191919;fill-opacity:1"
       transform="matrix(0.02640473,0,0,0.02640473,-80.142269,2.3751598)"
       id="g980">
      <path
         style="fill:#191919;fill-opacity:1"
         inkscape:connector-curvature="0"
         d="M 512,989.4 C 388.9,989.4 273.1,941.5 186,854.4 98.9,767.3 51,651.5 51,528.4 c 0,-123.1 47.9,-238.9 135,-326 17,-17 44.6,-17 61.6,0 17,17 17,44.6 0,61.6 -70.6,70.7 -109.5,164.6 -109.5,264.4 0,99.9 38.9,193.8 109.5,264.4 70.6,70.6 164.5,109.5 264.4,109.5 99.9,0 193.8,-38.9 264.4,-109.5 C 847,722.2 885.9,628.3 885.9,528.4 885.9,428.5 847,334.6 776.4,264 c -17,-17 -17,-44.6 0,-61.6 17,-17 44.6,-17 61.6,0 87.1,87.1 135,202.8 135,326 0,123.1 -47.9,238.9 -135,326 -87.1,87.1 -202.9,135 -326,135 z"
         p-id="121516"
         id="path967" />
      <path
         style="fill:#191919;fill-opacity:1"
         inkscape:connector-curvature="0"
         d="m 512,554.7 c -23.6,0 -42.7,-19.1 -42.7,-42.7 V 85.3 c 0,-23.6 19.1,-42.7 42.7,-42.7 23.6,0 42.7,19.1 42.7,42.7 V 512 c 0,23.6 -19.1,42.7 -42.7,42.7 z"
         p-id="121517"
         id="path969" />
    </g>
  </g>
  <g
     id="system-suspend">
    <rect
       ry="0"
       rx="0"
       y="1.1181641e-07"
       x="-162.92671"
       height="32"
       width="32"
       id="rect964"
       style="opacity:0;fill:#000000;fill-opacity:1;fill-rule:evenodd;stroke:none;stroke-width:2;stroke-linecap:round;stroke-linejoin:round;stroke-miterlimit:4;stroke-dasharray:none;stroke-opacity:1;paint-order:fill markers stroke" />
    <g
       style="opacity:0.8;fill:#191919;fill-opacity:1"
       transform="matrix(0.02924813,0,0,0.02927359,-161.90175,1.0105044)"
       id="g1007">
      <path
         style="fill:#191919;fill-opacity:1"
         inkscape:connector-curvature="0"
         d="m 511.93535,939.05454 c -114.16565,0 -221.47878,-44.47676 -302.15757,-125.15555 C 129.09899,733.09091 84.622222,625.77778 84.622222,511.74141 c 0,-227.03838 177.389898,-414.383834 403.911108,-426.666663 7.88687,-0.387879 15.51515,2.715152 20.68687,8.662627 5.17172,5.947475 7.49899,13.834346 6.20606,21.591916 -4.00808,24.04849 -6.07677,48.74344 -6.07677,73.43839 0,126.31919 29.22021,221.73737 84.55758,275.78181 39.56364,38.65859 93.99596,57.40607 161.61616,55.85455 51.3293,-1.16364 99.55556,-21.20404 139.37778,-57.79394 7.2404,-6.72323 17.84242,-8.66263 27.02222,-5.04242 9.1798,3.6202 15.51515,12.28282 16.29091,22.10909 0.77576,10.60202 1.16364,21.46262 1.16364,32.06464 0,114.16566 -44.47677,221.47879 -125.15556,302.15758 -80.80808,80.67879 -188.12121,125.15556 -302.28687,125.15555 z M 459.9596,139.63636 c -183.85455,25.34142 -323.62021,183.07879 -323.62021,372.10505 0,207.12728 168.46869,375.59596 375.59596,375.59596 199.88687,0 363.83031,-156.96161 374.9495,-354.13333 -39.56364,24.43636 -83.78182,37.75353 -130.32727,38.78788 -82.10101,1.93939 -149.07475,-21.85051 -198.98182,-70.59394 -34.90909,-34.13333 -61.15556,-80.4202 -77.83435,-137.43838 -14.73939,-50.29495 -22.23838,-109.38182 -22.23838,-175.32122 0.12929,-16.4202 0.90505,-32.71111 2.45657,-49.00202 z m 296.0808,406.49697 z"
         p-id="13990"
         id="path994" />
      <path
         style="fill:#191919;fill-opacity:1"
         inkscape:connector-curvature="0"
         d="M 848.09697,367.70909 H 631.7899 c -10.47273,0 -19.91111,-6.33535 -23.91919,-16.03232 -4.00808,-9.69697 -1.68081,-20.94546 5.81818,-28.18586 L 751.12727,188.3798 H 629.46263 c -14.22223,0 -25.85859,-11.63637 -25.85859,-25.85859 0,-14.22222 11.63636,-25.85858 25.85859,-25.85858 h 184.88889 c 10.47272,0 19.91111,6.33535 23.91919,16.03232 4.00808,9.69697 1.6808,20.94545 -5.81818,28.18586 L 695.01414,315.99192 h 153.08283 c 14.22222,0 25.85859,11.63636 25.85859,25.85858 0,14.22223 -11.63637,25.85859 -25.85859,25.85859 z"
         p-id="13991"
         id="path996" />
    </g>
  </g>
  <g
     id="system-suspend-hibernate">
    <rect
       style="opacity:0;fill:#000000;fill-opacity:1;fill-rule:evenodd;stroke:none;stroke-width:2;stroke-linecap:round;stroke-linejoin:round;stroke-miterlimit:4;stroke-dasharray:none;stroke-opacity:1;paint-order:fill markers stroke"
       id="rect887"
       width="32"
       height="32"
       x="-39.988354"
       y="5.1477053e-07"
       rx="0"
       ry="0" />
    <g
       transform="translate(-81.496211,46.507858)"
       id="g944">
      <g
         id="g955"
         transform="matrix(0.83377,0,0,0.83377,7.4816561,-2.9934462)">
        <path
           style="color:#000000;font-style:normal;font-variant:normal;font-weight:normal;font-stretch:normal;font-size:medium;line-height:normal;font-family:sans-serif;font-variant-ligatures:normal;font-variant-position:normal;font-variant-caps:normal;font-variant-numeric:normal;font-variant-alternates:normal;font-feature-settings:normal;text-indent:0;text-align:start;text-decoration:none;text-decoration-line:none;text-decoration-style:solid;text-decoration-color:#000000;letter-spacing:normal;word-spacing:normal;text-transform:none;writing-mode:lr-tb;direction:ltr;text-orientation:mixed;dominant-baseline:auto;baseline-shift:baseline;text-anchor:start;white-space:normal;shape-padding:0;clip-rule:nonzero;display:inline;overflow:visible;visibility:visible;opacity:0.8;isolation:auto;mix-blend-mode:normal;color-interpolation:sRGB;color-interpolation-filters:linearRGB;solid-color:#000000;solid-opacity:1;vector-effect:none;fill:#191919;fill-opacity:1;fill-rule:evenodd;stroke:none;stroke-width:2.08433294;stroke-linecap:round;stroke-linejoin:miter;stroke-miterlimit:4;stroke-dasharray:none;stroke-dashoffset:3;stroke-opacity:1;paint-order:stroke fill markers;color-rendering:auto;image-rendering:auto;shape-rendering:auto;text-rendering:auto;enable-background:accumulate"
           d="M -23.988281 3.5 C -27.191169 3.5 -30.39434 4.7185583 -32.832031 7.15625 C -37.707415 12.031633 -37.707415 19.968367 -32.832031 24.84375 C -27.956649 29.719133 -20.019914 29.719133 -15.144531 24.84375 C -10.269148 19.968367 -10.269148 12.031633 -15.144531 7.15625 C -17.582223 4.7185583 -20.785394 3.5 -23.988281 3.5 z M -23.988281 5.5703125 C -21.612021 5.5703124 -19.239415 6.386444 -17.306641 8.0078125 L -31.980469 22.681641 C -35.419508 18.581198 -35.215004 12.488442 -31.357422 8.6308594 C -29.317993 6.5914309 -26.653344 5.5703126 -23.988281 5.5703125 z M -16.005859 9.3066406 C -12.557521 13.407172 -12.758219 19.50822 -16.619141 23.369141 C -20.480012 27.230012 -26.579157 27.430621 -30.679688 23.982422 L -16.005859 9.3066406 z "
           transform="matrix(1.1993715,0,0,1.1993715,88.77095,-52.189947)"
           id="path912" />
      </g>
    </g>
  </g>
  <g
     id="system-log-out"
     transform="translate(-82.623047)">
    <rect
       ry="0"
       rx="0"
       y="1.1e-07"
       x="82.623047"
       height="32"
       width="32"
       id="rect950"
       style="opacity:0;fill:#000000;fill-opacity:1;fill-rule:evenodd;stroke:none;stroke-width:2;stroke-linecap:round;stroke-linejoin:round;stroke-miterlimit:4;stroke-dasharray:none;stroke-opacity:1;paint-order:fill markers stroke" />
    <path
       style="fill:#191919;fill-opacity:1;stroke-width:0.02441407;opacity:0.8"
       inkscape:connector-curvature="0"
       d="m 98.726678,6.9239263 h 0.3249 V 4.3747246 c 0.0125,-0.4873475 0.412375,-0.8747259 0.89972,-0.8747259 0.174952,0 0.337402,0.049983 0.487352,0.1499534 l 9.2596,6.2230501 c 0.39988,0.2749138 0.49984,0.8122468 0.22493,1.2121198 -0.0625,0.08747 -0.13745,0.174945 -0.22493,0.22493 l -9.2596,6.22305 c -0.39988,0.274914 -0.962205,0.16245 -1.224622,-0.237425 -0.09997,-0.137458 -0.14995,-0.312403 -0.14995,-0.487348 v -2.574193 c -4.211183,-0.28741 -7.885029,2.811618 -8.334887,7.010304 -0.05,3.111525 1.861916,5.910649 4.773496,7.010304 0.0625,0.02499 0.112466,0.08747 0.112466,0.16245 -0.0125,0.06248 -0.075,0.09997 -0.137458,0.07498 h -0.0125 C 90.766674,27.255056 87.417724,23.118852 87.167799,18.270371 87.230299,11.934854 92.403666,6.8614455 98.726678,6.9239263 Z"
       p-id="173433"
       id="path950" />
  </g>
  <g
     id="system-lock-screen">
    <rect
       style="opacity:0;fill:#000000;fill-opacity:1;fill-rule:evenodd;stroke:none;stroke-width:2;stroke-linecap:round;stroke-linejoin:round;stroke-miterlimit:4;stroke-dasharray:none;stroke-opacity:1;paint-order:fill markers stroke"
       id="rect1067"
       width="32"
       height="32"
       x="40.376953"
       y="4.7683716e-07"
       rx="0"
       ry="0" />
    <g
       style="opacity:0.8;fill:#191919;fill-opacity:1"
       transform="matrix(0.02465949,0,0,0.02465949,43.883864,3.3749381)"
       id="g1004">
      <path
         style="fill:#191919;fill-opacity:1"
         inkscape:connector-curvature="0"
         d="m 805.376,338.944 h -20.992 l 0.512,-55.808 C 784.384,151.552 706.048,46.08 585.216,14.336 561.152,8.192 535.552,4.608 508.928,5.12 431.616,5.12 361.984,34.816 312.32,88.064 263.68,139.776 237.056,209.92 237.568,285.184 l -2.048,53.76 h -27.648 c -77.824,0 -140.8,62.976 -140.8,140.8 V 878.08 c 0,77.824 62.976,140.8 140.8,140.8 h 597.504 c 77.824,0 140.8,-62.976 140.8,-140.8 V 479.744 c 0,-77.824 -63.488,-140.8 -140.8,-140.8 z M 563.2,94.208 c 83.968,22.016 138.752,96.256 138.752,189.44 l -0.512,55.296 H 317.952 L 320,285.696 c 0,-55.296 18.432,-105.472 53.248,-141.824 34.304,-35.84 82.432,-55.808 135.68,-56.32 18.944,-0.512 36.864,2.048 54.272,6.656 z M 863.744,479.744 V 878.08 c 0,32.256 -26.112,58.368 -58.368,58.368 H 207.872 c -32.256,0 -58.368,-26.112 -58.368,-58.368 V 479.744 c 0,-32.256 26.112,-58.368 58.368,-58.368 h 597.504 c 32.256,0 58.368,26.112 58.368,58.368 z"
         p-id="193382"
         id="path991" />
      <path
         style="fill:#191919;fill-opacity:1"
         inkscape:connector-curvature="0"
         d="m 506.368,538.112 c -40.96,0 -74.24,33.28 -74.24,74.24 0,24.576 12.8,48.128 33.28,61.952 V 778.24 c 0,22.528 18.432,41.472 41.472,41.472 22.528,0 41.472,-18.432 41.472,-41.472 V 674.304 c 20.48,-13.824 33.28,-37.376 33.28,-61.952 -0.512,-40.96 -33.792,-74.24 -75.264,-74.24 z"
         p-id="193383"
         id="path993" />
    </g>
  </g>
  <g
     id="system-switch-user">
    <rect
       ry="0"
       rx="0"
       y="4.9813315e-07"
       x="80.591965"
       height="32"
       width="32"
       id="rect956"
       style="opacity:0;fill:#000000;fill-opacity:1;fill-rule:evenodd;stroke:none;stroke-width:2;stroke-linecap:round;stroke-linejoin:round;stroke-miterlimit:4;stroke-dasharray:none;stroke-opacity:1;paint-order:fill markers stroke" />
    <path
       style="opacity:0.8;fill:#191919;fill-opacity:1;stroke-width:0.02458193"
       inkscape:connector-curvature="0"
       d="m 106.68457,16.917434 h -6.7598 a 2.4094925,2.4109251 0 0 0 -2.408464,2.408836 v 6.770104 a 2.3969102,2.3983355 0 0 0 2.408464,2.403599 h 6.7598 a 2.4084358,2.4098679 0 0 0 2.40737,-2.408836 V 19.32627 a 2.4084358,2.4098679 0 0 0 -2.40737,-2.408811 z M 93.515139,3.5000244 H 86.754348 A 2.4084358,2.4098679 0 0 0 84.34694,5.9088361 V 12.67894 c 0,0.644189 0.25165,1.247437 0.706691,1.703813 a 2.3874736,2.3888931 0 0 0 1.700717,0.699785 h 6.760791 a 2.4084358,2.4098679 0 0 0 2.407409,-2.408836 V 5.9088102 A 2.4115813,2.4130152 0 0 0 93.515139,3.5000003 Z m 0.120592,8.9134996 a 0.38061173,0.38083805 0 0 1 -0.380608,0.382928 h -6.245992 a 0.36697282,0.36719102 0 0 1 -0.268425,-0.11434 0.36279513,0.36301085 0 0 1 -0.109033,-0.265441 V 6.1668994 c 0,-0.2129675 0.170892,-0.3839858 0.380608,-0.3839858 h 6.243917 c 0.2097,0 0.380616,0.1710183 0.380616,0.3839858 V 12.413499 Z M 108.09372,6.4827236 H 107.991 a 1.0023988,1.0029948 0 0 0 -0.99926,0.99879 V 9.0457818 C 104.9681,6.7072477 102.21365,5.1628969 99.160373,4.5774769 a 1.0925631,1.0932127 0 0 0 -0.382717,-0.094423 c -0.02833,-0.00525 -0.05658,-0.016767 -0.08387,-0.019917 v 0.00839 a 1.0799809,1.0806231 0 0 0 0,2.1591333 v 0.011558 c 3.578574,0.6567542 6.673794,2.9039879 8.346194,6.2507548 a 1.0160132,1.0166173 0 0 0 0.40052,0.411279 0.97197541,0.97255332 0 0 0 0.55047,0.190936 h 0.10278 c 0.54836,0 0.99818,-0.451139 0.99818,-0.99879 V 7.4867344 A 1.0034309,1.0040276 0 0 0 108.09374,6.4827069 Z M 94.756581,25.677816 c -0.005,0 -0.0083,0.0031 -0.0115,0.0031 -3.670833,-0.562355 -6.880333,-2.79282 -8.625083,-6.163685 a 0.99608316,0.99667541 0 0 0 -0.9258,-0.636861 h -0.102767 a 0.99293757,0.99352799 0 0 0 -0.939466,0.705023 c -0.02725,0.06924 -0.03358,0.145814 -0.04408,0.221377 -0.0033,0.02412 -0.01367,0.04721 -0.01367,0.07133 v 0.05139 c 0,0.04933 -0.005,0.0976 0,0.147955 v 4.812408 c 0,0.547651 0.449816,0.998765 0.9982,0.998765 h 0.1038 c 0.548383,0 0.9982,-0.451114 0.9982,-0.998765 v -1.550647 c 2.102258,2.373156 4.962624,3.899656 8.114466,4.411653 0.136317,0.06504 0.315608,0.06504 0.478125,0.06504 0.005,0 0.0084,-0.0032 0.01158,-0.0032 h 0.005 v -0.0021 c 0.592395,-0.01152 1.04327,-0.451099 1.04327,-1.043872 a 1.0904497,1.0910981 0 0 0 -1.09045,-1.089009 z"
       p-id="202608"
       id="path1018" />
  </g>
</svg>
