<?xml version="1.0" encoding="UTF-8" standalone="no"?>
<svg
   xmlns:dc="http://purl.org/dc/elements/1.1/"
   xmlns:cc="http://creativecommons.org/ns#"
   xmlns:rdf="http://www.w3.org/1999/02/22-rdf-syntax-ns#"
   xmlns:svg="http://www.w3.org/2000/svg"
   xmlns="http://www.w3.org/2000/svg"
   xmlns:xlink="http://www.w3.org/1999/xlink"
   xmlns:sodipodi="http://sodipodi.sourceforge.net/DTD/sodipodi-0.dtd"
   xmlns:inkscape="http://www.inkscape.org/namespaces/inkscape"
   id="svg2"
   width="32"
   height="32"
   version="1.1"
   viewBox="0 0 32 32"
   sodipodi:docname="system.svg"
   inkscape:version="0.92.4 5da689c313, 2019-01-14">
  <metadata
     id="metadata59">
    <rdf:RDF>
      <cc:Work
         rdf:about="">
        <dc:format>image/svg+xml</dc:format>
        <dc:type
           rdf:resource="http://purl.org/dc/dcmitype/StillImage" />
        <dc:title />
      </cc:Work>
    </rdf:RDF>
  </metadata>
  <sodipodi:namedview
     pagecolor="#c8c8c8"
     bordercolor="#666666"
     borderopacity="1"
     objecttolerance="10"
     gridtolerance="10"
     guidetolerance="10"
     inkscape:pageopacity="0"
     inkscape:pageshadow="2"
     inkscape:window-width="1920"
     inkscape:window-height="1019"
     id="namedview57"
     showgrid="true"
     inkscape:zoom="4"
     inkscape:cx="-24.695272"
     inkscape:cy="38.749959"
     inkscape:window-x="0"
     inkscape:window-y="36"
     inkscape:window-maximized="1"
     inkscape:current-layer="svg2"
     inkscape:snap-bbox="true"
     inkscape:bbox-nodes="true"
     inkscape:snap-nodes="true"
     inkscape:snap-smooth-nodes="false"
     inkscape:snap-global="true"
     inkscape:snap-bbox-edge-midpoints="true"
     inkscape:snap-bbox-midpoints="false"
     inkscape:object-nodes="false">
    <inkscape:grid
       type="xygrid"
       id="grid862" />
  </sodipodi:namedview>
  <defs
     id="defs87">
    <linearGradient
       inkscape:collect="always"
       id="linearGradient1146">
      <stop
         style="stop-color:#7346ff;stop-opacity:1"
         offset="0"
         id="stop1142" />
      <stop
         style="stop-color:#4187ff;stop-opacity:1"
         offset="1"
         id="stop1144" />
    </linearGradient>
    <linearGradient
       inkscape:collect="always"
       id="linearGradient1138">
      <stop
         style="stop-color:#7346ff;stop-opacity:1"
         offset="0"
         id="stop1134" />
      <stop
         style="stop-color:#4187ff;stop-opacity:1"
         offset="1"
         id="stop1136" />
    </linearGradient>
    <linearGradient
       inkscape:collect="always"
       id="linearGradient1130">
      <stop
         style="stop-color:#7346ff;stop-opacity:1"
         offset="0"
         id="stop1126" />
      <stop
         style="stop-color:#4187ff;stop-opacity:1"
         offset="1"
         id="stop1128" />
    </linearGradient>
    <linearGradient
       inkscape:collect="always"
       id="linearGradient1122">
      <stop
         style="stop-color:#7346ff;stop-opacity:1"
         offset="0"
         id="stop1118" />
      <stop
         style="stop-color:#4187ff;stop-opacity:1"
         offset="1"
         id="stop1120" />
    </linearGradient>
    <linearGradient
       inkscape:collect="always"
       id="linearGradient1114">
      <stop
         style="stop-color:#7346ff;stop-opacity:1"
         offset="0"
         id="stop1110" />
      <stop
         style="stop-color:#4187ff;stop-opacity:1"
         offset="1"
         id="stop1112" />
    </linearGradient>
    <linearGradient
       inkscape:collect="always"
       id="linearGradient1106">
      <stop
         style="stop-color:#4187ff;stop-opacity:1"
         offset="0"
         id="stop1102" />
      <stop
         style="stop-color:#7346ff;stop-opacity:1"
         offset="1"
         id="stop1104" />
    </linearGradient>
    <linearGradient
       inkscape:collect="always"
       id="linearGradient1098">
      <stop
         style="stop-color:#7346ff;stop-opacity:1"
         offset="0"
         id="stop1094" />
      <stop
         style="stop-color:#4187ff;stop-opacity:1"
         offset="1"
         id="stop1096" />
    </linearGradient>
    <linearGradient
       inkscape:collect="always"
       id="linearGradient1032">
      <stop
         style="stop-color:#7346ff;stop-opacity:1"
         offset="0"
         id="stop1028" />
      <stop
         style="stop-color:#4187ff;stop-opacity:1"
         offset="1"
         id="stop1030" />
    </linearGradient>
    <linearGradient
       inkscape:collect="always"
       id="linearGradient1010">
      <stop
         style="stop-color:#7346ff;stop-opacity:1"
         offset="0"
         id="stop1006" />
      <stop
         style="stop-color:#4187ff;stop-opacity:1"
         offset="1"
         id="stop1008" />
    </linearGradient>
    <linearGradient
       inkscape:collect="always"
       id="linearGradient964">
      <stop
         style="stop-color:#7346ff;stop-opacity:1"
         offset="0"
         id="stop960" />
      <stop
         style="stop-color:#4187ff;stop-opacity:1"
         offset="1"
         id="stop962" />
    </linearGradient>
    <linearGradient
       inkscape:collect="always"
       id="linearGradient932">
      <stop
         style="stop-color:#7346ff;stop-opacity:1;"
         offset="0"
         id="stop928" />
      <stop
         style="stop-color:#4187ff;stop-opacity:1"
         offset="1"
         id="stop930" />
    </linearGradient>
    <linearGradient
       inkscape:collect="always"
       id="linearGradient1013">
      <stop
         style="stop-color:#7346ff;stop-opacity:1"
         offset="0"
         id="stop1009" />
      <stop
         style="stop-color:#4187ff;stop-opacity:1"
         offset="1"
         id="stop1011" />
    </linearGradient>
    <linearGradient
       inkscape:collect="always"
       id="linearGradient986">
      <stop
         style="stop-color:#7346ff;stop-opacity:1"
         offset="0"
         id="stop982" />
      <stop
         style="stop-color:#4187ff;stop-opacity:1"
         offset="1"
         id="stop984" />
    </linearGradient>
    <linearGradient
       inkscape:collect="always"
       id="linearGradient959">
      <stop
         style="stop-color:#7346ff;stop-opacity:1"
         offset="0"
         id="stop955" />
      <stop
         style="stop-color:#4187ff;stop-opacity:1"
         offset="1"
         id="stop957" />
    </linearGradient>
    <style
       id="current-color-scheme"
       type="text/css">
   .ColorScheme-Text { color:#dedede; } .ColorScheme-Highlight { color:#5294e2; } .ColorScheme-ButtonBackground { color:#dedede; }
  </style>
    <style
       id="current-color-scheme-6"
       type="text/css" />
    <linearGradient
       id="a">
      <stop
         id="stop945"
         stop-color="#fff"
         offset="0" />
      <stop
         id="stop947"
         stop-opacity=".235"
         stop-color="#fff"
         offset=".508" />
      <stop
         id="stop949"
         stop-opacity=".157"
         stop-color="#fff"
         offset=".835" />
      <stop
         id="stop951"
         stop-opacity=".392"
         stop-color="#fff"
         offset="1" />
    </linearGradient>
    <linearGradient
       id="c">
      <stop
         id="stop954"
         stop-color="#3d3d3d"
         offset="0" />
      <stop
         id="stop956"
         stop-opacity=".498"
         stop-color="#686868"
         offset=".5" />
      <stop
         id="stop958"
         stop-opacity="0"
         stop-color="#686868"
         offset="1" />
    </linearGradient>
    <linearGradient
       id="b">
      <stop
         id="stop961"
         stop-color="#919caf"
         offset="0" />
      <stop
         id="stop963"
         stop-color="#68758e"
         offset=".262" />
      <stop
         id="stop965"
         stop-color="#485a6c"
         offset=".705" />
      <stop
         id="stop967"
         stop-color="#444c5c"
         offset="1" />
    </linearGradient>
    <style
       id="style924"
       type="text/css" />
    <style
       id="style941"
       type="text/css" />
    <linearGradient
       inkscape:collect="always"
       xlink:href="#linearGradient959"
       id="linearGradient961"
       x1="-50.608551"
       y1="-14.212791"
       x2="-20.608061"
       y2="-44.212791"
       gradientUnits="userSpaceOnUse"
       gradientTransform="translate(11.608305,45.212791)" />
    <style
       id="style963"
       type="text/css" />
    <linearGradient
       inkscape:collect="always"
       xlink:href="#linearGradient986"
       id="linearGradient988"
       x1="51"
       y1="989.40002"
       x2="957.22003"
       y2="55.000019"
       gradientUnits="userSpaceOnUse" />
    <style
       id="style990"
       type="text/css" />
    <linearGradient
       inkscape:collect="always"
       xlink:href="#linearGradient1013"
       id="linearGradient1015"
       x1="84.622223"
       y1="939.05457"
       x2="939.37781"
       y2="85.042313"
       gradientUnits="userSpaceOnUse" />
    <linearGradient
       inkscape:collect="always"
       xlink:href="#linearGradient1013"
       id="linearGradient1017"
       gradientUnits="userSpaceOnUse"
       x1="84.622223"
       y1="939.05457"
       x2="939.37781"
       y2="85.042313" />
    <linearGradient
       inkscape:collect="always"
       xlink:href="#linearGradient1013"
       id="linearGradient1019"
       gradientUnits="userSpaceOnUse"
       x1="84.622223"
       y1="939.05457"
       x2="939.37781"
       y2="85.042313" />
    <linearGradient
       inkscape:collect="always"
       xlink:href="#linearGradient932"
       id="linearGradient936"
       gradientUnits="userSpaceOnUse"
       x1="45"
       y1="-18"
       x2="75"
       y2="-48"
       gradientTransform="translate(5.7609305,52.091883)" />
    <linearGradient
       inkscape:collect="always"
       xlink:href="#linearGradient932"
       id="linearGradient938"
       gradientUnits="userSpaceOnUse"
       x1="45"
       y1="-18"
       x2="75"
       y2="-48"
       gradientTransform="translate(5.7609305,52.091883)" />
    <style
       id="style946"
       type="text/css" />
    <linearGradient
       inkscape:collect="always"
       xlink:href="#linearGradient964"
       id="linearGradient966"
       x1="90.724464"
       y1="-20.880966"
       x2="118.21706"
       y2="-50.880966"
       gradientUnits="userSpaceOnUse"
       gradientTransform="translate(-5.8477133,51.880965)" />
    <style
       id="style968"
       type="text/css" />
    <style
       id="style987"
       type="text/css" />
    <linearGradient
       inkscape:collect="always"
       xlink:href="#linearGradient1010"
       id="linearGradient1012"
       x1="67.071999"
       y1="1018.88"
       x2="946.17603"
       y2="5.0716181"
       gradientUnits="userSpaceOnUse" />
    <style
       id="style1014"
       type="text/css" />
    <linearGradient
       inkscape:collect="always"
       xlink:href="#linearGradient1032"
       id="linearGradient1034"
       x1="172.52031"
       y1="-22.777815"
       x2="202.52023"
       y2="-52.777817"
       gradientUnits="userSpaceOnUse"
       gradientTransform="translate(-8.3052601,53.723134)" />
    <linearGradient
       inkscape:collect="always"
       xlink:href="#linearGradient986"
       id="linearGradient1052"
       gradientUnits="userSpaceOnUse"
       x1="51"
       y1="989.40002"
       x2="957.22003"
       y2="55.000019" />
    <linearGradient
       inkscape:collect="always"
       xlink:href="#linearGradient986"
       id="linearGradient1054"
       gradientUnits="userSpaceOnUse"
       x1="51"
       y1="989.40002"
       x2="957.22003"
       y2="55.000019" />
    <linearGradient
       inkscape:collect="always"
       xlink:href="#linearGradient1010"
       id="linearGradient1078"
       gradientUnits="userSpaceOnUse"
       x1="67.071999"
       y1="1018.88"
       x2="946.17603"
       y2="5.0716181" />
    <linearGradient
       inkscape:collect="always"
       xlink:href="#linearGradient1010"
       id="linearGradient1080"
       gradientUnits="userSpaceOnUse"
       x1="67.071999"
       y1="1018.88"
       x2="946.17603"
       y2="5.0716181" />
    <linearGradient
       inkscape:collect="always"
       xlink:href="#linearGradient1098"
       id="linearGradient1100"
       x1="73.999992"
       y1="13.999981"
       x2="85.999992"
       y2="1.9999802"
       gradientUnits="userSpaceOnUse" />
    <linearGradient
       inkscape:collect="always"
       xlink:href="#linearGradient1106"
       id="linearGradient1108"
       x1="5.000001"
       y1="1035.3622"
       x2="17.000002"
       y2="1047.3622"
       gradientUnits="userSpaceOnUse" />
    <linearGradient
       inkscape:collect="always"
       xlink:href="#linearGradient1114"
       id="linearGradient1116"
       x1="1.9999971"
       y1="2.0001001"
       x2="13.999997"
       y2="14.000101"
       gradientUnits="userSpaceOnUse" />
    <linearGradient
       inkscape:collect="always"
       xlink:href="#linearGradient1122"
       id="linearGradient1124"
       x1="4.999999"
       y1="1047.3622"
       x2="16.999998"
       y2="1034.3622"
       gradientUnits="userSpaceOnUse" />
    <linearGradient
       inkscape:collect="always"
       xlink:href="#linearGradient1130"
       id="linearGradient1132"
       x1="1.9999961"
       y1="13.999981"
       x2="13.999996"
       y2="1.9999802"
       gradientUnits="userSpaceOnUse" />
    <linearGradient
       inkscape:collect="always"
       xlink:href="#linearGradient1138"
       id="linearGradient1140"
       x1="4.3495545"
       y1="1047.3625"
       x2="17.999998"
       y2="1035.3622"
       gradientUnits="userSpaceOnUse" />
    <linearGradient
       inkscape:collect="always"
       xlink:href="#linearGradient1146"
       id="linearGradient1148"
       x1="4.999999"
       y1="1048.3622"
       x2="16.999998"
       y2="1034.3622"
       gradientUnits="userSpaceOnUse" />
  </defs>
  <g
     id="22-22-system-suspend"
     transform="translate(-21.999999,-988.36218)">
    <rect
       id="rect4222"
       width="22"
       height="22"
       x="0"
       y="1030.36"
       style="opacity:0.001;fill:currentColor;fill-opacity:1;stroke:none;stroke-width:2;stroke-linecap:round;stroke-linejoin:round;stroke-miterlimit:4;stroke-dasharray:none;stroke-opacity:1" />
    <g
       id="g4380"
       transform="matrix(1.0009385,0,0,0.99883233,-322.31608,1012.4029)"
       style="display:inline;opacity:1;fill:currentColor;fill-opacity:1">
      <path
         id="path4398"
         class="ColorScheme-Text"
         d="M 8.0449219,2 C 5.4709885,1.9800034 3.1612109,3.6075004 2.3203125,6.0351562 2.0969331,6.6800174 1.9985687,7.3426625 2,8 1.9989991,8.6573375 2.0969831,9.3199826 2.3203125,9.9648438 3.1612109,12.3925 5.4709885,14.02 8.0449219,14 10.618845,13.980003 12.900212,12.315429 13.703125,9.875 13.906195,9.2577756 14.001361,8.6263907 14,8 14.001001,7.3736093 13.906205,6.7422244 13.703125,6.125 12.900212,3.684571 10.618845,2.0199966 8.0449219,2 Z M 8.0292969,3.9980469 C 9.7515617,4.0114312 11.263538,5.1131547 11.800781,6.7460938 11.936599,7.1589011 12.00029,7.582557 12,8 12.00029,8.417443 11.936639,8.8410989 11.800781,9.2539062 11.263538,10.886845 9.7515617,11.988573 8.0292969,12.001953 6.307032,12.015337 4.7736051,10.936893 4.2109375,9.3125 4.0615674,8.8812761 3.9955932,8.4378711 3.9960938,8 3.9955932,7.5621289 4.0615574,7.1187239 4.2109375,6.6875 4.7736051,5.0631071 6.307032,3.9846625 8.0292969,3.9980469 Z M 5.8554688,7 C 5.3807835,7 5,7.446 5,8 5,8.554 5.3807835,9 5.8554688,9 L 10.142578,9 C 10.61726,9 11,8.554 11,8 11,7.446 10.61726,7 10.142578,7 L 5.8554688,7 Z"
         transform="matrix(0.99906238,0,0,1.001169,325.01106,20.983802)"
         style="fill:url(#linearGradient1132);fill-opacity:1" />
    </g>
  </g>
  <g
     id="22-22-system-switch-user"
     transform="translate(1e-6,-988.36218)">
    <rect
       id="rect4220"
       width="22"
       height="22"
       x="0"
       y="1030.36"
       style="opacity:0.001;fill:currentColor;fill-opacity:1;stroke:none;stroke-width:2;stroke-linecap:round;stroke-linejoin:round;stroke-miterlimit:4;stroke-dasharray:none;stroke-opacity:1" />
    <path
       id="path4481"
       class="ColorScheme-Text"
       d="m 10.9943,1035.362 c -1.8700303,0 -3.3939153,1.5345 -3.4492153,3.4512 -0.0459,0.012 -0.0915,0.033 -0.13476,0.055 -0.43005,0.227 -0.54034,0.9343 -0.2461,1.5899 0.23672,0.5274 0.65753,0.8538 1.03906,0.8437 0.28723,1.7528 1.430425,3.0606 2.7910153,3.0606 l 0.0117,0 c 1.36059,0 2.5038,-1.3078 2.79102,-3.0606 0.38154,0.01 0.80234,-0.3163 1.03906,-0.8437 0.29424,-0.6556 0.18394,-1.3629 -0.24609,-1.5899 -0.0433,-0.023 -0.0888,-0.044 -0.13477,-0.055 -0.0553,-1.9167 -1.57919,-3.4512 -3.44922,-3.4512 l -0.0117,0 z m 2.40039,8 c -0.28889,0.7005 -1.27408,1.2246 -2.44922,1.2246 -1.1698503,0 -2.1455953,-0.5173 -2.4394453,-1.2129 -2.46908,0.2581 -4.26818,0.8896 -4.48438,1.6367 -0.003,0.01 0.002,0.016 0,0.024 -0.007,0.026 -0.007,0.049 -0.01,0.076 -10e-4,0.012 -0.0117,0.021 -0.0117,0.035 -9e-5,0 0,0.011 0,0.012 l 0,1.8477 c 0,0.1976 0.15571,0.3574 0.34961,0.3574 l 13.3007853,0 c 0.1939,0 0.3496,-0.1598 0.3496,-0.3574 l 0,-1.8477 c 0,-0.01 3.5e-4,-0.015 0,-0.023 -0.002,-0.043 -0.0208,-0.081 -0.0332,-0.123 -0.22075,-0.7563 -2.05842,-1.3964 -4.57226,-1.6484 z"
       style="fill:url(#linearGradient1140);fill-opacity:1" />
  </g>
  <g
     id="22-22-system-shutdown"
     transform="translate(-43.999999,-988.36218)">
    <rect
       id="rect4229"
       width="22"
       height="22"
       x="0"
       y="1030.36"
       style="opacity:0.001;fill:currentColor;fill-opacity:1;stroke:none;stroke-width:2;stroke-linecap:round;stroke-linejoin:round;stroke-miterlimit:4;stroke-dasharray:none;stroke-opacity:1" />
    <path
       id="rect4324"
       class="ColorScheme-Text"
       d="m 11.000336,1034.362 c -0.553987,0 -0.99995,0.4462 -0.99995,1 l 0,5.0019 c 0,0.5538 0.445963,0.9981 0.99995,0.9981 0.553988,0 0.99995,-0.4443 0.99995,-0.9981 l 0,-5.0019 c 0,-0.5538 -0.445962,-1 -0.99995,-1 z m 2.939305,1.9902 a 1.000176,0.99982748 0 0 0 -0.542942,1.8086 c 1.377976,1.0304 1.941017,2.8148 1.404226,4.4492 -0.536779,1.6344 -2.050513,2.7386 -3.771293,2.752 -1.7207811,0.013 -3.2501263,-1.0675 -3.8123083,-2.6934 -0.562183,-1.6258 -0.02587,-3.419 1.335869,-4.4707 a 1.000176,0.99982748 0 1 0 -1.222594,-1.582 c -2.035135,1.5718 -2.842036,4.2772 -2.001852,6.707 0.840173,2.4298 3.144793,4.0591 5.7165093,4.0391 2.571705,-0.02 4.853744,-1.6863 5.655965,-4.1289 0.80223,-2.4426 -0.04794,-5.1339 -2.107316,-6.6739 a 1.000176,0.99982748 0 0 0 -0.654264,-0.207 z"
       style="fill:url(#linearGradient1124);fill-opacity:1" />
  </g>
  <g
     id="22-22-system-reboot"
     transform="matrix(0,-1,1,0,-1096.3623,64)">
    <rect
       id="rect4235"
       width="22"
       height="22"
       x="0"
       y="1030.36"
       style="opacity:0.001;fill:currentColor;fill-opacity:1;stroke:none;stroke-width:2;stroke-linecap:round;stroke-linejoin:round;stroke-miterlimit:4;stroke-dasharray:none;stroke-opacity:1" />
    <g
       id="layer12"
       transform="matrix(1.0009385,0,0,0.99883233,-322.31609,1012.4029)"
       style="display:inline;opacity:1;fill:currentColor;fill-opacity:1">
      <path
         id="path6796"
         class="ColorScheme-Text"
         d="M 8.0449219,2 C 5.4709885,1.98 3.161211,3.6075002 2.3203125,6.0351562 2.0969411,6.6800174 1.998566,7.342662 2,8 1.998566,8.657338 2.0969411,9.3199826 2.3203125,9.9648438 3.161211,12.3925 5.4709885,14.02 8.0449219,14 10.618845,13.980003 12.900212,12.315429 13.703125,9.875 13.906197,9.2577753 14.001356,8.626391 14,8 14.001356,7.373609 13.906197,6.7422247 13.703125,6.125 12.900212,3.6845712 10.618845,2.019997 8.0449219,2 Z M 8.0292969,3.9980469 C 9.7515617,4.0114279 11.263537,5.1131547 11.800781,6.7460938 11.9366,7.1589017 12.00029,7.5825571 12,8 12.00029,8.4174429 11.936599,8.8410983 11.800781,9.2539062 11.263537,10.886845 9.7515617,11.988572 8.0292969,12.001953 6.307032,12.015337 4.773605,10.936893 4.2109375,9.3125 4.0615674,8.881276 3.995597,8.4378713 3.9960938,8 3.995597,7.5621287 4.0615674,7.118724 4.2109375,6.6875 4.773605,5.0631072 6.307032,3.9846629 8.0292969,3.9980469 Z M 6.4746094,6 A 0.4736353,0.52746185 0 0 0 6.0625,6.7890625 L 7.5898438,9.734375 A 0.4736353,0.52746185 0 0 0 7.9746094,10 0.4736353,0.52746185 0 0 0 8.0234375,10 0.4736353,0.52746185 0 0 0 8.4101562,9.734375 L 9.9375,6.7890625 A 0.4736353,0.52746185 0 0 0 9.5273438,6 L 6.4746094,6 Z"
         transform="matrix(0.99906238,0,0,1.001169,325.01107,20.983802)"
         style="fill:url(#linearGradient1116);fill-opacity:1" />
    </g>
  </g>
  <g
     id="22-22-system-log-out"
     transform="matrix(-1,0,0,1,-65.999999,-988.36218)"
     inkscape:label="#22-22-system-log-out">
    <rect
       id="rect4242"
       width="22"
       height="22"
       x="0"
       y="1030.36"
       style="opacity:0.001;fill:currentColor;fill-opacity:1;stroke:none;stroke-width:2;stroke-linecap:round;stroke-linejoin:round;stroke-miterlimit:4;stroke-dasharray:none;stroke-opacity:1" />
    <path
       id="path4360"
       class="ColorScheme-Text"
       d="m 11.475393,1035.3621 a 0.4736353,0.52746183 0 0 0 -0.412109,0.7891 l 1.527343,2.9453 a 0.4736353,0.52746183 0 0 0 0.384766,0.2656 0.4736353,0.52746183 0 0 0 0.04883,0 0.4736353,0.52746183 0 0 0 0.386718,-0.2656 l 0.326172,-0.6289 c 1.12174,1.0534 1.553588,2.6586 1.064453,4.1465 -0.536781,1.6327 -2.050703,2.7366 -3.771484,2.75 -1.7207807,0.013 -3.2503167,-1.0672 -3.8124997,-2.6915 -0.562183,-1.6242 -0.02584,-3.4141 1.335938,-4.4648 a 1.0005526,0.99921387 0 1 0 -1.222657,-1.582 c -2.035134,1.5702 -2.842137,4.2737 -2.001953,6.7011 0.840174,2.4275 3.145082,4.0552 5.7167967,4.0352 2.571705,-0.02 4.854029,-1.6848 5.65625,-4.125 0.789982,-2.4029 -0.02804,-5.0426 -2.019531,-6.5918 l 0.255859,-0.4941 a 0.4736353,0.52746183 0 0 0 -0.410156,-0.7891 l -3.052734,0 z"
       style="fill:url(#linearGradient1108);fill-opacity:1" />
  </g>
  <g
     id="22-22-system-suspend-hibernate"
     transform="translate(-110,-988.36218)">
    <rect
       id="rect4248"
       width="22"
       height="22"
       x="0"
       y="1030.36"
       style="opacity:0.001;fill:currentColor;fill-opacity:1;stroke:none;stroke-width:2;stroke-linecap:round;stroke-linejoin:round;stroke-miterlimit:4;stroke-dasharray:none;stroke-opacity:1" />
    <g
       id="g4447"
       transform="matrix(1.0009385,0,0,0.99883233,-322.31607,1012.4029)"
       style="display:inline;opacity:1;fill:currentColor;fill-opacity:1">
      <path
         id="path4455"
         class="ColorScheme-Text"
         d="M 80.044922,2 C 77.470989,1.9800034 75.161212,3.6075014 74.320312,6.0351562 74.096933,6.6800174 73.998569,7.3426625 74,8 73.999,8.6573375 74.09698,9.3199826 74.320312,9.9648438 75.161212,12.3925 77.470989,14.02 80.044922,14 82.618845,13.98 84.900212,12.315429 85.703125,9.875 85.906195,9.2577756 86.001361,8.6263907 86,8 86.001001,7.3736093 85.906205,6.7422244 85.703125,6.125 84.900212,3.684571 82.618845,2.0199966 80.044922,2 Z m -0.01563,1.9980469 c 1.722265,0.013384 3.234241,1.1151078 3.771484,2.7480469 C 83.936599,7.1589011 84.00029,7.582557 84,8 84.00029,8.417443 83.936639,8.8410989 83.800781,9.2539062 83.263538,10.886845 81.751562,11.988574 80.029297,12.001953 78.307032,12.015337 76.773605,10.936893 76.210938,9.3125 76.061566,8.8812761 75.995593,8.4378711 75.996094,8 75.995593,7.5621289 76.061556,7.1187239 76.210938,6.6875 76.773605,5.0631071 78.307032,3.9846625 80.029297,3.9980469 Z M 80,6 a 2,2 0 0 0 -2,2 2,2 0 0 0 2,2 2,2 0 0 0 2,-2 2,2 0 0 0 -2,-2 z"
         transform="matrix(0.99906238,0,0,1.001169,253.07856,20.983802)"
         style="fill:url(#linearGradient1100);fill-opacity:1" />
    </g>
  </g>
  <g
     id="22-22-system-lock-screen"
     transform="translate(22.000001,-988.36218)">
    <rect
       id="rect4255"
       width="22"
       height="22"
       x="0"
       y="1030.36"
       style="opacity:0.001;fill:currentColor;fill-opacity:1;stroke:none;stroke-width:2;stroke-linecap:round;stroke-linejoin:round;stroke-miterlimit:4;stroke-dasharray:none;stroke-opacity:1" />
    <path
       id="path5975"
       class="ColorScheme-Text"
       d="m 11,1034.3622 c -2.216,0 -4,1.8216 -4,4.0625 l 0,1.9375 -1,0 c -0.554,0 -1,0.446 -1,1 l 0,6 c 0,0.554 0.446,1 1,1 l 10,0 c 0.554,0 1,-0.446 1,-1 l 0,-6 c 0,-0.554 -0.446,-1 -1,-1 l -1,0 0,-1.9375 c 0,-2.24 -1.784,-4.0625 -4,-4.0625 z m 0,2 c 1.108,0 2,0.892 2,2 l 0,2 -4,0 0,-2 c 0,-1.108 0.892,-2 2,-2 z"
       style="fill:url(#linearGradient1148);fill-opacity:1" />
  </g>
  <g
     id="g1109"
     transform="translate(0,1.0000005)" />
  <g
     id="system-reboot"
     transform="translate(-82.623047)">
    <rect
       style="opacity:0;fill:#000000;fill-opacity:1;fill-rule:evenodd;stroke:none;stroke-width:2;stroke-linecap:round;stroke-linejoin:round;stroke-miterlimit:4;stroke-dasharray:none;stroke-opacity:1;paint-order:fill markers stroke"
       id="rect1129-7"
       width="32"
       height="32"
       x="-40"
       y="1.1025606e-07"
       rx="0"
       ry="0" />
    <path
       style="fill:url(#linearGradient961);fill-opacity:1;stroke-width:0.03155132"
       inkscape:connector-curvature="0"
       d="m -10.285615,14.715679 a 1.2853531,1.2854841 0 1 1 0,2.570968 h -5.14372 a 1.2853531,1.2854841 0 1 1 0,-2.570968 z m -6.74176,-3.866838 a 1.2876608,1.287792 0 0 1 -1.82072,-1.8197556 l 3.63683,-3.634897 a 1.2865069,1.286638 0 0 1 1.81957,1.818603 l -3.63568,3.6348956 z m -6.97252,12.439423 a 1.2841993,1.2843301 0 0 1 1.28766,1.285486 v 5.141936 a 1.2865071,1.2866382 0 0 1 -2.57301,0 v -5.140783 a 1.2807379,1.2808684 0 0 1 1.28535,-1.286639 z m 0,-22.2882616 a 1.2853531,1.2854841 0 0 1 1.28766,1.285485 v 5.141935 a 1.2865071,1.2866382 0 0 1 -2.57301,0 v -5.141935 a 1.2853531,1.2854841 0 0 1 1.28535,-1.285485 z m -8.78748,4.394186 3.63568,3.639513 a 1.2853531,1.2854841 0 0 1 -1.81611,1.8162936 l -3.63798,-3.6372036 a 1.2876608,1.287792 0 0 1 1.81841,-1.818603 z m 1.50227,10.6046666 a 1.2807379,1.2808684 0 0 1 -1.28535,1.286638 h -5.14372 a 1.2853532,1.2854842 0 1 1 0,-2.570968 h 5.14257 c 0.70959,0 1.28535,0.574659 1.2865,1.285484 z m 0.315,5.15463 a 1.2854071,1.2855381 0 0 1 1.81726,1.818602 l -3.63568,3.634896 a 1.2876608,1.287792 0 0 1 -1.81957,-1.818601 z m 13.94273,0 3.63453,3.634897 a 1.2865069,1.286638 0 1 1 -1.81842,1.819755 l -3.63453,-3.63605 a 1.2865069,1.286638 0 1 1 1.81842,-1.818602 z"
       p-id="115499"
       id="path945" />
  </g>
  <g
     id="system-shutdown"
     transform="translate(-82.623047)">
    <rect
       ry="0"
       rx="0"
       y="5e-07"
       x="6.2499998e-07"
       height="32"
       width="32"
       id="rect1086"
       style="opacity:0;fill:#000000;fill-opacity:1;fill-rule:evenodd;stroke:none;stroke-width:2;stroke-linecap:round;stroke-linejoin:round;stroke-miterlimit:4;stroke-dasharray:none;stroke-opacity:1;paint-order:fill markers stroke" />
    <g
       style="fill:url(#linearGradient988);fill-opacity:1"
       transform="matrix(0.03168568,0,0,0.03168568,-0.22306754,-0.34981038)"
       id="g980">
      <path
         style="fill:url(#linearGradient1052);fill-opacity:1"
         inkscape:connector-curvature="0"
         d="M 512,989.4 C 388.9,989.4 273.1,941.5 186,854.4 98.9,767.3 51,651.5 51,528.4 c 0,-123.1 47.9,-238.9 135,-326 17,-17 44.6,-17 61.6,0 17,17 17,44.6 0,61.6 -70.6,70.7 -109.5,164.6 -109.5,264.4 0,99.9 38.9,193.8 109.5,264.4 70.6,70.6 164.5,109.5 264.4,109.5 99.9,0 193.8,-38.9 264.4,-109.5 C 847,722.2 885.9,628.3 885.9,528.4 885.9,428.5 847,334.6 776.4,264 c -17,-17 -17,-44.6 0,-61.6 17,-17 44.6,-17 61.6,0 87.1,87.1 135,202.8 135,326 0,123.1 -47.9,238.9 -135,326 -87.1,87.1 -202.9,135 -326,135 z"
         p-id="121516"
         id="path967" />
      <path
         style="fill:url(#linearGradient1054);fill-opacity:1"
         inkscape:connector-curvature="0"
         d="m 512,554.7 c -23.6,0 -42.7,-19.1 -42.7,-42.7 V 85.3 c 0,-23.6 19.1,-42.7 42.7,-42.7 23.6,0 42.7,19.1 42.7,42.7 V 512 c 0,23.6 -19.1,42.7 -42.7,42.7 z"
         p-id="121517"
         id="path969" />
    </g>
  </g>
  <g
     id="system-suspend"
     transform="translate(-82.623047)">
    <rect
       ry="0"
       rx="0"
       y="1.1181641e-07"
       x="-80.303658"
       height="32"
       width="32"
       id="rect964"
       style="opacity:0;fill:#000000;fill-opacity:1;fill-rule:evenodd;stroke:none;stroke-width:2;stroke-linecap:round;stroke-linejoin:round;stroke-miterlimit:4;stroke-dasharray:none;stroke-opacity:1;paint-order:fill markers stroke" />
    <g
       style="fill:url(#linearGradient1015);fill-opacity:1"
       transform="matrix(0.03509775,0,0,0.0351283,-82.273707,-1.9873906)"
       id="g1007">
      <path
         style="fill:url(#linearGradient1017);fill-opacity:1"
         inkscape:connector-curvature="0"
         d="m 511.93535,939.05454 c -114.16565,0 -221.47878,-44.47676 -302.15757,-125.15555 C 129.09899,733.09091 84.622222,625.77778 84.622222,511.74141 c 0,-227.03838 177.389898,-414.383834 403.911108,-426.666663 7.88687,-0.387879 15.51515,2.715152 20.68687,8.662627 5.17172,5.947475 7.49899,13.834346 6.20606,21.591916 -4.00808,24.04849 -6.07677,48.74344 -6.07677,73.43839 0,126.31919 29.22021,221.73737 84.55758,275.78181 39.56364,38.65859 93.99596,57.40607 161.61616,55.85455 51.3293,-1.16364 99.55556,-21.20404 139.37778,-57.79394 7.2404,-6.72323 17.84242,-8.66263 27.02222,-5.04242 9.1798,3.6202 15.51515,12.28282 16.29091,22.10909 0.77576,10.60202 1.16364,21.46262 1.16364,32.06464 0,114.16566 -44.47677,221.47879 -125.15556,302.15758 -80.80808,80.67879 -188.12121,125.15556 -302.28687,125.15555 z M 459.9596,139.63636 c -183.85455,25.34142 -323.62021,183.07879 -323.62021,372.10505 0,207.12728 168.46869,375.59596 375.59596,375.59596 199.88687,0 363.83031,-156.96161 374.9495,-354.13333 -39.56364,24.43636 -83.78182,37.75353 -130.32727,38.78788 -82.10101,1.93939 -149.07475,-21.85051 -198.98182,-70.59394 -34.90909,-34.13333 -61.15556,-80.4202 -77.83435,-137.43838 -14.73939,-50.29495 -22.23838,-109.38182 -22.23838,-175.32122 0.12929,-16.4202 0.90505,-32.71111 2.45657,-49.00202 z m 296.0808,406.49697 z"
         p-id="13990"
         id="path994" />
      <path
         style="fill:url(#linearGradient1019);fill-opacity:1"
         inkscape:connector-curvature="0"
         d="M 848.09697,367.70909 H 631.7899 c -10.47273,0 -19.91111,-6.33535 -23.91919,-16.03232 -4.00808,-9.69697 -1.68081,-20.94546 5.81818,-28.18586 L 751.12727,188.3798 H 629.46263 c -14.22223,0 -25.85859,-11.63637 -25.85859,-25.85859 0,-14.22222 11.63636,-25.85858 25.85859,-25.85858 h 184.88889 c 10.47272,0 19.91111,6.33535 23.91919,16.03232 4.00808,9.69697 1.6808,20.94545 -5.81818,28.18586 L 695.01414,315.99192 h 153.08283 c 14.22222,0 25.85859,11.63636 25.85859,25.85858 0,14.22223 -11.63637,25.85859 -25.85859,25.85859 z"
         p-id="13991"
         id="path996" />
    </g>
  </g>
  <g
     id="system-suspend-hibernate"
     transform="translate(-82.623047,1.357451)">
    <rect
       style="opacity:0;fill:#000000;fill-opacity:1;fill-rule:evenodd;stroke:none;stroke-width:2;stroke-linecap:round;stroke-linejoin:round;stroke-miterlimit:4;stroke-dasharray:none;stroke-opacity:1;paint-order:fill markers stroke"
       id="rect887"
       width="32"
       height="32"
       x="42.634693"
       y="-1.3574505"
       rx="0"
       ry="0" />
    <g
       transform="translate(-1.365308,47.642551)"
       id="g944">
      <circle
         style="opacity:1;fill:none;fill-opacity:1;fill-rule:evenodd;stroke:url(#linearGradient936);stroke-width:2.49988961;stroke-linecap:round;stroke-linejoin:miter;stroke-miterlimit:4;stroke-dasharray:none;stroke-dashoffset:3;stroke-opacity:1;paint-order:stroke fill markers"
         id="path912"
         cx="65.760933"
         cy="19.091883"
         r="13.750055"
         transform="rotate(-45)" />
      <rect
         style="opacity:1;fill:none;fill-opacity:1;fill-rule:evenodd;stroke:url(#linearGradient938);stroke-width:1.6544174;stroke-linecap:round;stroke-linejoin:miter;stroke-miterlimit:4;stroke-dasharray:none;stroke-dashoffset:3;stroke-opacity:1;paint-order:stroke fill markers"
         id="rect922"
         width="28.345583"
         height="0.55619526"
         x="51.588139"
         y="18.804934"
         ry="0.27809763"
         transform="rotate(-45)" />
    </g>
  </g>
  <g
     id="system-log-out"
     transform="translate(-82.623047)">
    <rect
       ry="0"
       rx="0"
       y="1.1e-07"
       x="82.623047"
       height="32"
       width="32"
       id="rect950"
       style="opacity:0;fill:#000000;fill-opacity:1;fill-rule:evenodd;stroke:none;stroke-width:2;stroke-linecap:round;stroke-linejoin:round;stroke-miterlimit:4;stroke-dasharray:none;stroke-opacity:1;paint-order:fill markers stroke" />
    <path
       style="fill:url(#linearGradient966);fill-opacity:1;stroke-width:0.02929688"
       inkscape:connector-curvature="0"
       d="m 98.747407,5.1087133 h 0.38988 v -3.059042 c 0.015,-0.584817 0.49485,-1.049671 1.079663,-1.049671 0.20994,0 0.40488,0.05998 0.58482,0.179944 l 11.11152,7.46766 c 0.47985,0.329897 0.59981,0.974696 0.26991,1.4545437 -0.075,0.104967 -0.16494,0.209934 -0.26991,0.269916 l -11.11152,7.46766 c -0.47985,0.329897 -1.154643,0.19494 -1.469543,-0.28491 -0.11996,-0.164949 -0.17994,-0.374883 -0.17994,-0.584817 v -3.089032 c -5.05342,-0.344892 -9.462035,3.373942 -10.001865,8.412365 -0.06,3.73383 2.2343,7.092778 5.728195,8.412364 0.075,0.02999 0.13496,0.104969 0.13496,0.19494 -0.015,0.07498 -0.09,0.119963 -0.16495,0.08997 h -0.015 c -5.638225,-1.484535 -9.656965,-6.44798 -9.956875,-12.266157 0.075,-7.60262 6.28304,-13.6907107 13.870655,-13.6157337 z"
       p-id="173433"
       id="path950" />
  </g>
  <g
     id="system-lock-screen"
     transform="translate(-82.623047,1.5)">
    <rect
       style="opacity:0;fill:#000000;fill-opacity:1;fill-rule:evenodd;stroke:none;stroke-width:2;stroke-linecap:round;stroke-linejoin:round;stroke-miterlimit:4;stroke-dasharray:none;stroke-opacity:1;paint-order:fill markers stroke"
       id="rect1067"
       width="32"
       height="32"
       x="123"
       y="-1.4999995"
       rx="0"
       ry="0" />
    <g
       style="fill:url(#linearGradient1012);fill-opacity:1"
       transform="matrix(0.02959139,0,0,0.02959139,124.00829,-0.65007537)"
       id="g1004">
      <path
         style="fill:url(#linearGradient1078);fill-opacity:1"
         inkscape:connector-curvature="0"
         d="m 805.376,338.944 h -20.992 l 0.512,-55.808 C 784.384,151.552 706.048,46.08 585.216,14.336 561.152,8.192 535.552,4.608 508.928,5.12 431.616,5.12 361.984,34.816 312.32,88.064 263.68,139.776 237.056,209.92 237.568,285.184 l -2.048,53.76 h -27.648 c -77.824,0 -140.8,62.976 -140.8,140.8 V 878.08 c 0,77.824 62.976,140.8 140.8,140.8 h 597.504 c 77.824,0 140.8,-62.976 140.8,-140.8 V 479.744 c 0,-77.824 -63.488,-140.8 -140.8,-140.8 z M 563.2,94.208 c 83.968,22.016 138.752,96.256 138.752,189.44 l -0.512,55.296 H 317.952 L 320,285.696 c 0,-55.296 18.432,-105.472 53.248,-141.824 34.304,-35.84 82.432,-55.808 135.68,-56.32 18.944,-0.512 36.864,2.048 54.272,6.656 z M 863.744,479.744 V 878.08 c 0,32.256 -26.112,58.368 -58.368,58.368 H 207.872 c -32.256,0 -58.368,-26.112 -58.368,-58.368 V 479.744 c 0,-32.256 26.112,-58.368 58.368,-58.368 h 597.504 c 32.256,0 58.368,26.112 58.368,58.368 z"
         p-id="193382"
         id="path991" />
      <path
         style="fill:url(#linearGradient1080);fill-opacity:1"
         inkscape:connector-curvature="0"
         d="m 506.368,538.112 c -40.96,0 -74.24,33.28 -74.24,74.24 0,24.576 12.8,48.128 33.28,61.952 V 778.24 c 0,22.528 18.432,41.472 41.472,41.472 22.528,0 41.472,-18.432 41.472,-41.472 V 674.304 c 20.48,-13.824 33.28,-37.376 33.28,-61.952 -0.512,-40.96 -33.792,-74.24 -75.264,-74.24 z"
         p-id="193383"
         id="path993" />
    </g>
  </g>
  <g
     id="system-switch-user"
     transform="translate(-82.623047,0.05468244)">
    <rect
       ry="0"
       rx="0"
       y="-0.054681942"
       x="163.21501"
       height="32"
       width="32"
       id="rect956"
       style="opacity:0;fill:#000000;fill-opacity:1;fill-rule:evenodd;stroke:none;stroke-width:2;stroke-linecap:round;stroke-linejoin:round;stroke-miterlimit:4;stroke-dasharray:none;stroke-opacity:1;paint-order:fill markers stroke" />
    <path
       style="fill:url(#linearGradient1034);fill-opacity:1;stroke-width:0.02949832"
       inkscape:connector-curvature="0"
       d="m 191.32613,17.046239 h -8.11175 a 2.891391,2.8931102 0 0 0 -2.89016,2.890603 v 8.124125 a 2.8762923,2.8780026 0 0 0 2.89016,2.884318 h 8.11175 a 2.890123,2.8918415 0 0 0 2.88885,-2.890603 v -8.11784 a 2.890123,2.8918415 0 0 0 -2.88885,-2.890573 z M 175.52282,0.94534681 h -8.11295 a 2.890123,2.8918415 0 0 0 -2.88889,2.89057399 v 8.1241252 c 0,0.773026 0.30198,1.496924 0.84803,2.044575 a 2.8649683,2.8666718 0 0 0 2.04086,0.839742 h 8.11295 a 2.890123,2.8918415 0 0 0 2.88889,-2.890603 V 3.8358898 a 2.8938976,2.8956183 0 0 0 -2.88889,-2.89057199 z m 0.14471,10.69620019 a 0.45673408,0.45700566 0 0 1 -0.45673,0.459513 h -7.49519 a 0.44036739,0.44062923 0 0 1 -0.32211,-0.137208 0.43535416,0.43561302 0 0 1 -0.13084,-0.318529 V 4.1455968 c 0,-0.255561 0.20507,-0.460783 0.45673,-0.460783 h 7.4927 c 0.25164,0 0.45674,0.205222 0.45674,0.460783 v 7.4959202 z m 17.34958,-7.1169612 h -0.12326 a 1.2028786,1.2035938 0 0 0 -1.19911,1.198548 v 1.877122 c -2.42837,-2.806241 -5.73371,-4.659462 -9.39764,-5.361966 a 1.3110757,1.3118553 0 0 0 -0.45926,-0.113308 c -0.034,-0.0063 -0.0679,-0.02012 -0.10065,-0.0239 v 0.01007 a 1.2959771,1.2967477 0 0 0 0,2.59096 v 0.01387 c 4.29429,0.788105 8.00856,3.484785 10.01544,7.5009062 a 1.2192158,1.2199408 0 0 0 0.48062,0.493535 1.1663705,1.167064 0 0 0 0.66057,0.229123 h 0.12332 c 0.65803,0 1.19781,-0.541367 1.19781,-1.198548 V 5.7293988 a 1.2041171,1.2048331 0 0 0 -1.19781,-1.204833 z M 177.01255,27.558697 c -0.006,0 -0.01,0.0037 -0.0138,0.0037 -4.405,-0.674826 -8.2564,-3.351384 -10.3501,-7.396422 a 1.1952998,1.1960105 0 0 0 -1.11096,-0.764233 h -0.12332 a 1.1915251,1.1922336 0 0 0 -1.12736,0.846027 c -0.0327,0.08309 -0.0403,0.174977 -0.0529,0.265653 -0.004,0.02895 -0.0164,0.05665 -0.0164,0.0856 v 0.06167 c 0,0.0592 -0.006,0.117114 0,0.177545 v 5.77489 c 0,0.657181 0.53978,1.198518 1.19784,1.198518 h 0.12456 c 0.65806,0 1.19784,-0.541337 1.19784,-1.198518 v -1.860776 c 2.52271,2.847787 5.95515,4.679587 9.73736,5.293983 0.16358,0.07805 0.37873,0.07805 0.57375,0.07805 0.006,0 0.0101,-0.0038 0.0139,-0.0038 h 0.006 v -0.0025 c 0.71087,-0.01387 1.25192,-0.541366 1.25192,-1.252694 a 1.3085396,1.3093177 0 0 0 -1.30854,-1.30681 z"
       p-id="202608"
       id="path1018" />
  </g>
</svg>
