<?xml version="1.0" encoding="UTF-8" standalone="no"?>
<svg
   xmlns:dc="http://purl.org/dc/elements/1.1/"
   xmlns:cc="http://creativecommons.org/ns#"
   xmlns:rdf="http://www.w3.org/1999/02/22-rdf-syntax-ns#"
   xmlns:svg="http://www.w3.org/2000/svg"
   xmlns="http://www.w3.org/2000/svg"
   xmlns:sodipodi="http://sodipodi.sourceforge.net/DTD/sodipodi-0.dtd"
   xmlns:inkscape="http://www.inkscape.org/namespaces/inkscape"
   version="1.1"
   viewBox="0 0 22 22"
   id="svg9"
   sodipodi:docname="video-card.svg"
   inkscape:version="0.92.4 5da689c313, 2019-01-14">
  <metadata
     id="metadata15">
    <rdf:RDF>
      <cc:Work
         rdf:about="">
        <dc:format>image/svg+xml</dc:format>
        <dc:type
           rdf:resource="http://purl.org/dc/dcmitype/StillImage" />
      </cc:Work>
    </rdf:RDF>
  </metadata>
  <defs
     id="defs13" />
  <sodipodi:namedview
     pagecolor="#ffffff"
     bordercolor="#666666"
     borderopacity="1"
     objecttolerance="10"
     gridtolerance="10"
     guidetolerance="10"
     inkscape:pageopacity="0"
     inkscape:pageshadow="2"
     inkscape:window-width="1920"
     inkscape:window-height="1019"
     id="namedview11"
     showgrid="false"
     inkscape:zoom="10.727273"
     inkscape:cx="-5.9661014"
     inkscape:cy="11"
     inkscape:window-x="0"
     inkscape:window-y="36"
     inkscape:window-maximized="1"
     inkscape:current-layer="svg9" />
  <g
     id="22-22-video-card-inactive">
    <path
       style="fill:none"
       inkscape:connector-curvature="0"
       d="M 0,0 V 22 H 22 V 0 Z"
       id="path2" />
    <path
       inkscape:connector-curvature="0"
       d="M 2,2 V 20 H 4 V 2 Z M 6,4 C 5.446,4 5,4.446 5,5 v 11 c 0,0.554 0.446,1 1,1 h 1 c 0,0.554 0.446,1 1,1 h 6 c 0.554,0 1,-0.446 1,-1 h 1.1738 c -0.11432,-0.32104 -0.1731,-0.65921 -0.17383,-1 0,-1.6569 1.3431,-3 3,-3 0.3409,0.0014 0.67908,0.0608 1,0.17578 v -8.1758 c 0,-0.554 -0.446,-1 -1,-1 z m 7.4355,3 c 0.02133,-2.731e-4 0.04312,-2.731e-4 0.06445,0 1.3807,0 2.5,1.1193 2.5,2.5 -0.0021,1.1863 -0.83767,2.2081 -2,2.4453 V 8 h -2.4961 c 0.45761,-0.61075 1.1688,-0.97903 1.9316,-1 z M 8,9 h 2.0391 c -0.02527,0.1655 -0.0377,0.33259 -0.03906,0.5 0.002,1.7383 1.2795,3.2126 3,3.4609 V 14 h -5 z m 3.0508,0 H 13 v 2.9492 C 11.8358,11.71157 11.3032,10.5095 11,9.5 10.951811,9.33956 11.017364,9.16456 11.050781,9 Z"
       id="path4"
       style="color:#dfdfdf;fill:#323232;fill-opacity:1" />
    <path
       inkscape:connector-curvature="0"
       d="M 18.768,14.014 A 2,2 0 0 0 17,16 h 1 a 1,1 0 0 1 1,-1 c 0.507,0 0.935,0.395 0.994,0.898 -0.018,1.18 -0.896,1.237 -1.992,1.323 L 18,19.014 h 1 V 18 h 0.232 A 2,2 0 0 0 21,16.104 c -0.01,-0.106 -0.008,-0.196 -0.014,-0.32 A 2,2 0 0 0 19.09,14.016 Z M 18.002,20 v 1 h 1 v -1 z"
       id="path6"
       style="fill:#ffdc32;fill-opacity:1" />
  </g>
</svg>
