<?xml version="1.0" encoding="UTF-8" standalone="no"?>
<svg
   xmlns:dc="http://purl.org/dc/elements/1.1/"
   xmlns:cc="http://creativecommons.org/ns#"
   xmlns:rdf="http://www.w3.org/1999/02/22-rdf-syntax-ns#"
   xmlns:svg="http://www.w3.org/2000/svg"
   xmlns="http://www.w3.org/2000/svg"
   xmlns:sodipodi="http://sodipodi.sourceforge.net/DTD/sodipodi-0.dtd"
   xmlns:inkscape="http://www.inkscape.org/namespaces/inkscape"
   width="32"
   height="32"
   version="1.1"
   id="svg22"
   sodipodi:docname="view.svg"
   inkscape:version="0.92.4 5da689c313, 2019-01-14">
  <metadata
     id="metadata26">
    <rdf:RDF>
      <cc:Work
         rdf:about="">
        <dc:format>image/svg+xml</dc:format>
        <dc:type
           rdf:resource="http://purl.org/dc/dcmitype/StillImage" />
        <dc:title />
      </cc:Work>
    </rdf:RDF>
  </metadata>
  <sodipodi:namedview
     pagecolor="#c8c8c8"
     bordercolor="#666666"
     borderopacity="1"
     objecttolerance="10"
     gridtolerance="10"
     guidetolerance="10"
     inkscape:pageopacity="0"
     inkscape:pageshadow="2"
     inkscape:window-width="1920"
     inkscape:window-height="1011"
     id="namedview24"
     showgrid="true"
     inkscape:zoom="11.313709"
     inkscape:cx="6.7069728"
     inkscape:cy="16.730465"
     inkscape:window-x="0"
     inkscape:window-y="0"
     inkscape:window-maximized="1"
     inkscape:current-layer="svg22"
     inkscape:snap-bbox="true"
     inkscape:bbox-paths="true"
     inkscape:bbox-nodes="true"
     inkscape:snap-bbox-edge-midpoints="true"
     inkscape:snap-global="false">
    <inkscape:grid
       type="xygrid"
       id="grid851" />
  </sodipodi:namedview>
  <defs
     id="defs6">
    <style
       id="current-color-scheme"
       type="text/css">.ColorScheme-Text { color:#dedede; } .ColorScheme-Highlight { color:#5294e2; } .ColorScheme-ButtonBackground { color:#dedede; }</style>
    <filter
       id="a"
       x="-.036"
       y="-.036"
       width="1.072"
       height="1.072"
       color-interpolation-filters="sRGB">
      <feGaussianBlur
         stdDeviation="0.43466698"
         id="feGaussianBlur3" />
    </filter>
    <style
       id="style837"
       type="text/css" />
    <style
       id="style825"
       type="text/css" />
  </defs>
  <g
     id="view-refresh"
     transform="matrix(0 -1 -1 0 -218.84 494.56)"
     enable-background="new">
    <rect
       transform="scale(-1)"
       x="-481"
       y="258.97"
       width="16"
       height="16"
       color="#bebebe"
       fill="none"
       id="rect8" />
    <path
       transform="matrix(0 -1 -1 0 1079 -14.938)"
       d="m252.06 598.02-3.5625 2.9824 3.5606 3.0176v-2c2.2091 0 4 1.7909 4 4s-1.7909 4-4 4-4-1.7909-4-4c0-6e-3 -4e-3 -0.0113-4e-3 -0.0176h-1.9922c-1.1e-4 6e-3 -4e-3 0.0113-4e-3 0.0176 0 0.0333 4e-3 0.0665 8e-3 0.0996 0.0538 3.2672 2.7141 5.9004 5.9941 5.9004 3.3137 0 6-2.6863 6-6s-2.6863-6-6-6v-2z"
       fill="#eaeaea"
       id="path10"
       style="fill-opacity:1;fill:#191919;opacity:0.8" />
  </g>
  <g
     id="view-history">
    <rect
       width="32"
       height="32"
       rx="0"
       ry="0"
       style="opacity:0;stroke-width:2;paint-order:fill markers stroke"
       id="rect13"
       x="0"
       y="0" />
    <path
       style="fill:#191919;fill-opacity:1;stroke-width:0.02541738;opacity:0.8"
       inkscape:connector-curvature="0"
       d="m 23.465753,21.650683 c 0.273973,0.136984 0.41096,0.376717 0.445206,0.684934 0,0.273975 -0.136986,0.547941 -0.376711,0.719175 -0.239727,0.171233 -0.547946,0.171233 -0.787673,0.03425 l -3.253424,-1.643834 c -0.273973,-0.13699 -0.445206,-0.410961 -0.445206,-0.719181 v -3.69863 c 0,-0.445206 0.376713,-0.821917 0.821918,-0.821917 0.445205,0 0.821918,0.376711 0.821918,0.821917 v 3.219178 z M 7.4726,12.952055 c -0.239725,0 -0.47945,0.06849 -0.6506833,0.239726 -0.1369834,0.136986 -0.239725,0.376712 -0.239725,0.582191 0,0.239726 0.0685,0.445205 0.239725,0.616439 0.1712333,0.171232 0.3767166,0.239726 0.6506833,0.239726 h 3.56165 c 0.239725,0 0.47945,-0.06849 0.650683,-0.239726 0.171234,-0.171234 0.239725,-0.376713 0.239725,-0.616439 0,-0.239725 -0.0685,-0.445205 -0.239725,-0.582191 C 11.5137,13.020547 11.273975,12.952055 11.03425,12.952055 Z m 0,-4.109589 c -0.3082167,0 -0.5821917,0.171232 -0.753425,0.445205 -0.171225,0.239726 -0.171225,0.582191 0,0.821918 0.1712333,0.273973 0.4109667,0.410958 0.753425,0.410958 h 10.376716 c 0.239726,0 0.445205,-0.06849 0.616438,-0.239725 0.171233,-0.136986 0.239725,-0.376713 0.239725,-0.582192 0,-0.239726 -0.06849,-0.445206 -0.239725,-0.616438 C 18.294521,8.910959 18.089042,8.842466 17.849316,8.842466 Z M 24.972603,25.00685 c 1.232876,-1.232875 1.849315,-2.739725 1.883561,-4.520549 -0.03425,-1.883561 -0.650685,-3.390411 -1.883561,-4.589042 -1.19863,-1.198629 -2.70548,-1.849314 -4.554794,-1.917807 -1.849316,0.06849 -3.356166,0.684931 -4.554795,1.883562 -1.19863,1.198629 -1.849314,2.705478 -1.883564,4.554794 0.0685,1.849317 0.684934,3.321917 1.917812,4.554792 1.198629,1.198633 2.705478,1.815075 4.554794,1.883567 1.815067,-0.03425 3.321917,-0.650692 4.520547,-1.849317 z m 1.164384,-10.239727 c 1.506849,1.506849 2.294521,3.424657 2.363013,5.684931 -0.06849,2.260271 -0.821917,4.178079 -2.363013,5.684929 -1.506849,1.50685 -3.424658,2.294525 -5.684931,2.363017 -1.883563,-0.03425 -3.493152,-0.582192 -4.863014,-1.609592 H 5.1438333 C 4.219175,26.890408 3.5,26.136983 3.5,25.212325 V 5.1780825 C 3.5,4.2876708 4.219175,3.5 5.1438333,3.5 H 21.993151 c 0.924657,0 1.643836,0.753425 1.643836,1.6780825 v 7.8767115 c 0.924657,0.410959 1.780821,0.993151 2.5,1.712329 z m 0,0"
       p-id="209437"
       id="path829" />
  </g>
</svg>
