<?xml version="1.0" encoding="UTF-8" standalone="no"?>
<svg
   xmlns:dc="http://purl.org/dc/elements/1.1/"
   xmlns:cc="http://creativecommons.org/ns#"
   xmlns:rdf="http://www.w3.org/1999/02/22-rdf-syntax-ns#"
   xmlns:svg="http://www.w3.org/2000/svg"
   xmlns="http://www.w3.org/2000/svg"
   xmlns:xlink="http://www.w3.org/1999/xlink"
   xmlns:sodipodi="http://sodipodi.sourceforge.net/DTD/sodipodi-0.dtd"
   xmlns:inkscape="http://www.inkscape.org/namespaces/inkscape"
   width="32"
   height="32"
   version="1.1"
   id="svg22"
   sodipodi:docname="view.svg"
   inkscape:version="0.92.4 5da689c313, 2019-01-14">
  <metadata
     id="metadata26">
    <rdf:RDF>
      <cc:Work
         rdf:about="">
        <dc:format>image/svg+xml</dc:format>
        <dc:type
           rdf:resource="http://purl.org/dc/dcmitype/StillImage" />
        <dc:title></dc:title>
      </cc:Work>
    </rdf:RDF>
  </metadata>
  <sodipodi:namedview
     pagecolor="#c8c8c8"
     bordercolor="#666666"
     borderopacity="1"
     objecttolerance="10"
     gridtolerance="10"
     guidetolerance="10"
     inkscape:pageopacity="0"
     inkscape:pageshadow="2"
     inkscape:window-width="1920"
     inkscape:window-height="1019"
     id="namedview24"
     showgrid="true"
     inkscape:zoom="16"
     inkscape:cx="31.055546"
     inkscape:cy="13.828701"
     inkscape:window-x="0"
     inkscape:window-y="36"
     inkscape:window-maximized="1"
     inkscape:current-layer="svg22"
     inkscape:snap-bbox="true"
     inkscape:bbox-paths="true"
     inkscape:bbox-nodes="true"
     inkscape:snap-bbox-edge-midpoints="true"
     inkscape:snap-global="false">
    <inkscape:grid
       type="xygrid"
       id="grid851" />
  </sodipodi:namedview>
  <defs
     id="defs6">
    <linearGradient
       inkscape:collect="always"
       id="linearGradient857">
      <stop
         style="stop-color:#7346ff;stop-opacity:1"
         offset="0"
         id="stop853" />
      <stop
         style="stop-color:#4187ff;stop-opacity:1"
         offset="1"
         id="stop855" />
    </linearGradient>
    <linearGradient
       inkscape:collect="always"
       id="linearGradient843">
      <stop
         style="stop-color:#7346ff;stop-opacity:1"
         offset="0"
         id="stop839" />
      <stop
         style="stop-color:#4187ff;stop-opacity:1"
         offset="1"
         id="stop841" />
    </linearGradient>
    <style
       id="current-color-scheme"
       type="text/css">.ColorScheme-Text { color:#dedede; } .ColorScheme-Highlight { color:#5294e2; } .ColorScheme-ButtonBackground { color:#dedede; }</style>
    <filter
       id="a"
       x="-.036"
       y="-.036"
       width="1.072"
       height="1.072"
       color-interpolation-filters="sRGB">
      <feGaussianBlur
         stdDeviation="0.43466698"
         id="feGaussianBlur3" />
    </filter>
    <style
       id="style837"
       type="text/css" />
    <style
       id="style825"
       type="text/css" />
    <linearGradient
       inkscape:collect="always"
       xlink:href="#linearGradient843"
       id="linearGradient845"
       x1="-39.831257"
       y1="29.868053"
       x2="-10.096421"
       y2="0.081179507"
       gradientUnits="userSpaceOnUse"
       gradientTransform="translate(41.18481,0.98119)" />
    <linearGradient
       inkscape:collect="always"
       xlink:href="#linearGradient857"
       id="linearGradient859"
       x1="246.12041"
       y1="611.95752"
       x2="258.06"
       y2="598.08252"
       gradientUnits="userSpaceOnUse" />
  </defs>
  <g
     id="view-refresh"
     transform="matrix(0 -1 -1 0 -218.84 494.56)"
     enable-background="new">
    <rect
       transform="scale(-1)"
       x="-481"
       y="258.97"
       width="16"
       height="16"
       color="#bebebe"
       fill="none"
       id="rect8" />
    <path
       transform="matrix(0 -1 -1 0 1079 -14.938)"
       d="m252.06 598.02-3.5625 2.9824 3.5606 3.0176v-2c2.2091 0 4 1.7909 4 4s-1.7909 4-4 4-4-1.7909-4-4c0-6e-3 -4e-3 -0.0113-4e-3 -0.0176h-1.9922c-1.1e-4 6e-3 -4e-3 0.0113-4e-3 0.0176 0 0.0333 4e-3 0.0665 8e-3 0.0996 0.0538 3.2672 2.7141 5.9004 5.9941 5.9004 3.3137 0 6-2.6863 6-6s-2.6863-6-6-6v-2z"
       fill="#eaeaea"
       id="path10"
       style="fill-opacity:1;fill:url(#linearGradient859)" />
  </g>
  <g
     id="view-history">
    <rect
       width="32"
       height="32"
       rx="0"
       ry="0"
       style="opacity:0;stroke-width:2;paint-order:fill markers stroke"
       id="rect13"
       x="0"
       y="0" />
    <path
       style="fill:url(#linearGradient845);fill-opacity:1;stroke-width:0.03050086"
       inkscape:connector-curvature="0"
       d="m 24.958904,22.78082 c 0.328767,0.16438 0.493152,0.45206 0.534247,0.82192 0,0.32877 -0.164384,0.65753 -0.452054,0.86301 -0.287672,0.20548 -0.657535,0.20548 -0.945207,0.0411 l -3.904109,-1.9726 c -0.328767,-0.164388 -0.534247,-0.493154 -0.534247,-0.863017 v -4.438356 c 0,-0.534248 0.452056,-0.986301 0.986302,-0.986301 0.534246,0 0.986301,0.452053 0.986301,0.986301 V 21.09589 Z M 5.76712,12.342466 c -0.28767,0 -0.57534,0.08219 -0.78082,0.287671 -0.16438,0.164383 -0.28767,0.452055 -0.28767,0.69863 0,0.287671 0.0822,0.534246 0.28767,0.739726 0.20548,0.205479 0.45206,0.287671 0.78082,0.287671 h 4.27398 c 0.28767,0 0.57534,-0.08219 0.78082,-0.287671 0.20548,-0.20548 0.28767,-0.452055 0.28767,-0.739726 0,-0.287671 -0.0822,-0.534247 -0.28767,-0.69863 -0.20548,-0.20548 -0.49315,-0.287671 -0.78082,-0.287671 z m 0,-4.931507 c -0.36986,0 -0.69863,0.205479 -0.90411,0.534246 -0.20547,0.287672 -0.20547,0.69863 0,0.986302 0.20548,0.328767 0.49316,0.49315 0.90411,0.49315 h 12.452059 c 0.287671,0 0.534246,-0.08219 0.739726,-0.287671 0.205479,-0.164383 0.28767,-0.452055 0.28767,-0.69863 0,-0.287671 -0.08219,-0.534247 -0.28767,-0.739726 C 18.753425,7.493151 18.50685,7.410959 18.219179,7.410959 Z M 26.767124,26.80822 c 1.479451,-1.47945 2.219177,-3.28767 2.260273,-5.424659 -0.0411,-2.260273 -0.780822,-4.068493 -2.260273,-5.50685 -1.438357,-1.438355 -3.246576,-2.219177 -5.465753,-2.301369 -2.219179,0.08219 -4.027399,0.821918 -5.465754,2.260275 -1.438356,1.438355 -2.219177,3.246574 -2.260277,5.465753 0.0822,2.21918 0.821921,3.9863 2.301374,5.46575 1.438355,1.43836 3.246574,2.17809 5.465753,2.26028 2.178081,-0.0411 3.9863,-0.78083 5.424657,-2.21918 z m 1.39726,-12.287672 C 29.972603,16.328767 30.917809,18.630136 31,21.342465 30.91781,24.05479 30.013699,26.35616 28.164384,28.16438 26.356165,29.9726 24.054795,30.91781 21.342467,31 19.082192,30.9589 17.150685,30.30137 15.50685,29.06849 H 2.9726 C 1.86301,29.06849 1,28.16438 1,27.05479 V 3.013699 C 1,1.945205 1.86301,1 2.9726,1 h 20.219181 c 1.109589,0 1.972603,0.90411 1.972603,2.013699 v 9.452054 c 1.109589,0.493151 2.136986,1.191781 3,2.054795 z m 0,0"
       p-id="209437"
       id="path829" />
  </g>
</svg>
