<?xml version="1.0" encoding="UTF-8" standalone="no"?>
<svg
   xmlns:dc="http://purl.org/dc/elements/1.1/"
   xmlns:cc="http://creativecommons.org/ns#"
   xmlns:rdf="http://www.w3.org/1999/02/22-rdf-syntax-ns#"
   xmlns:svg="http://www.w3.org/2000/svg"
   xmlns="http://www.w3.org/2000/svg"
   xmlns:sodipodi="http://sodipodi.sourceforge.net/DTD/sodipodi-0.dtd"
   xmlns:inkscape="http://www.inkscape.org/namespaces/inkscape"
   id="svg"
   version="1.1"
   viewBox="0 0 22 22"
   sodipodi:docname="wallet.svg"
   inkscape:version="0.92.4 5da689c313, 2019-01-14">
  <metadata
     id="metadata18">
    <rdf:RDF>
      <cc:Work
         rdf:about="">
        <dc:format>image/svg+xml</dc:format>
        <dc:type
           rdf:resource="http://purl.org/dc/dcmitype/StillImage" />
      </cc:Work>
    </rdf:RDF>
  </metadata>
  <sodipodi:namedview
     pagecolor="#ffffff"
     bordercolor="#666666"
     borderopacity="1"
     objecttolerance="10"
     gridtolerance="10"
     guidetolerance="10"
     inkscape:pageopacity="0"
     inkscape:pageshadow="2"
     inkscape:window-width="1920"
     inkscape:window-height="1019"
     id="namedview16"
     showgrid="false"
     inkscape:zoom="10.727273"
     inkscape:cx="11"
     inkscape:cy="11"
     inkscape:window-x="0"
     inkscape:window-y="36"
     inkscape:window-maximized="1"
     inkscape:current-layer="svg" />
  <defs
     id="defs3">
    <style
       id="current-color-scheme"
       type="text/css">.ColorScheme-Text{color:#dfdfdf}</style>
  </defs>
  <g
     id="wallet-open">
    <path
       inkscape:connector-curvature="0"
       d="M 3,3 V 7 H 2 v 11 c 0,0.554 0.446,1 1,1 H 20 V 8 C 20,7.446 19.554,7 19,7 H 14 V 3 Z m 1,1 h 9 V 7 H 10.4922 C 10.02176,6.37273 9.2841,6.00251 8.5,6 7.71381,6.0006291 6.9737,6.37105 6.502,7 H 4 Z m 8,7 h 7 v 4 h -7 c -1.108,0 -2,-0.892 -2,-2 0,-1.108 0.892,-2 2,-2 z m 0,1 a 1,1 0 0 0 -1,1 1,1 0 0 0 1,1 1,1 0 0 0 1,-1 1,1 0 0 0 -1,-1 z"
       id="path5"
       style="color:#dfdfdf;fill:#323232;fill-opacity:1" />
    <path
       style="fill:none"
       inkscape:connector-curvature="0"
       d="M 0,0 H 22 V 22 H 0 Z"
       id="path7" />
  </g>
  <g
     id="wallet-closed"
     transform="translate(28)">
    <path
       inkscape:connector-curvature="0"
       transform="translate(-28)"
       d="m 30,7 v 11 c 0,0.554 0.446,1 1,1 H 48 V 8 C 48,7.446 47.554,7 47,7 H 44 42 41 38.4922 34.502 32 31 Z m 10,4 h 7 v 4 h -7 c -1.108,0 -2,-0.892 -2,-2 0,-1.108 0.892,-2 2,-2 z m 0,1 a 1,1 0 0 0 -1,1 1,1 0 0 0 1,1 1,1 0 0 0 1,-1 1,1 0 0 0 -1,-1 z"
       id="path10"
       style="color:#dfdfdf;fill:#323232;fill-opacity:1" />
    <path
       style="fill:none"
       inkscape:connector-curvature="0"
       d="M 0,0 H 22 V 22 H 0 Z"
       id="path12" />
  </g>
</svg>
