<?xml version="1.0" encoding="UTF-8" standalone="no"?>
<svg
   xmlns:dc="http://purl.org/dc/elements/1.1/"
   xmlns:cc="http://creativecommons.org/ns#"
   xmlns:rdf="http://www.w3.org/1999/02/22-rdf-syntax-ns#"
   xmlns:svg="http://www.w3.org/2000/svg"
   xmlns="http://www.w3.org/2000/svg"
   xmlns:sodipodi="http://sodipodi.sourceforge.net/DTD/sodipodi-0.dtd"
   xmlns:inkscape="http://www.inkscape.org/namespaces/inkscape"
   width="32"
   height="32"
   version="1.1"
   id="svg60"
   sodipodi:docname="computer.svg"
   inkscape:version="1.0 (4035a4fb49, 2020-05-01)">
  <metadata
     id="metadata64">
    <rdf:RDF>
      <cc:Work
         rdf:about="">
        <dc:format>image/svg+xml</dc:format>
        <dc:type
           rdf:resource="http://purl.org/dc/dcmitype/StillImage" />
        <dc:title />
      </cc:Work>
    </rdf:RDF>
  </metadata>
  <sodipodi:namedview
     pagecolor="#c8c8c8"
     bordercolor="#666666"
     borderopacity="1"
     objecttolerance="10"
     gridtolerance="10"
     guidetolerance="10"
     inkscape:pageopacity="0"
     inkscape:pageshadow="2"
     inkscape:window-width="1920"
     inkscape:window-height="1001"
     id="namedview62"
     showgrid="true"
     inkscape:snap-bbox="true"
     inkscape:bbox-nodes="true"
     inkscape:snap-bbox-edge-midpoints="true"
     inkscape:snap-nodes="true"
     inkscape:object-paths="false"
     inkscape:zoom="7.9999999"
     inkscape:cx="33.938976"
     inkscape:cy="45.497304"
     inkscape:window-x="0"
     inkscape:window-y="0"
     inkscape:window-maximized="1"
     inkscape:current-layer="svg60"
     inkscape:snap-intersection-paths="false"
     inkscape:snap-bbox-midpoints="true"
     inkscape:snap-smooth-nodes="false"
     inkscape:snap-midpoints="false"
     inkscape:object-nodes="false"
     inkscape:snap-others="false"
     inkscape:document-rotation="0">
    <inkscape:grid
       type="xygrid"
       id="grid879" />
  </sodipodi:namedview>
  <defs
     id="defs6">
    <style
       id="current-color-scheme"
       type="text/css">.ColorScheme-Text { color:#dedede; } .ColorScheme-Highlight { color:#5294e2; } .ColorScheme-ButtonBackground { color:#dedede; }</style>
    <filter
       id="a"
       x="-0.035999998"
       y="-0.035999998"
       width="1.072"
       height="1.072"
       style="color-interpolation-filters:sRGB">
      <feGaussianBlur
         stdDeviation="0.435"
         id="feGaussianBlur3" />
    </filter>
    <style
       id="style883"
       type="text/css" />
    <style
       type="text/css"
       id="current-color-scheme-5">.ColorScheme-Text { color:#dedede; } .ColorScheme-Highlight { color:#5294e2; } .ColorScheme-ButtonBackground { color:#dedede; }</style>
    <filter
       style="color-interpolation-filters:sRGB"
       height="1.072"
       width="1.072"
       y="-0.035999998"
       x="-0.035999998"
       id="a-6">
      <feGaussianBlur
         id="feGaussianBlur3-2"
         stdDeviation="0.435" />
    </filter>
    <style
       type="text/css"
       id="style883-9" />
    <style
       type="text/css"
       id="style860" />
    <style
       type="text/css"
       id="style862" />
    <linearGradient
       id="linearGradient851"
       x1="8.2021"
       x2="8.2021"
       y1="293.56"
       y2="291.71"
       gradientTransform="matrix(7.5589094,0,0,2.1597098,-47.000003,-633.02145)"
       gradientUnits="userSpaceOnUse">
      <stop
         stop-color="#323232"
         offset="0"
         id="stop864" />
      <stop
         offset="1"
         id="stop866" />
    </linearGradient>
    <linearGradient
       id="linearGradient865"
       x1="8.2021"
       x2="8.2021"
       y1="293.39"
       y2="294.09"
       gradientTransform="matrix(1.1338458,0,0,1.8898049,6.3998286,-553.78466)"
       gradientUnits="userSpaceOnUse">
      <stop
         stop-color="#323232"
         offset="0"
         id="stop869" />
      <stop
         offset="1"
         id="stop871" />
    </linearGradient>
    <linearGradient
       id="linearGradient1458"
       x1="75"
       x2="135"
       y1="-21"
       y2="14"
       gradientTransform="matrix(0.46667002,0,0,0.51427827,-33.000002,-11.200115)"
       gradientUnits="userSpaceOnUse">
      <stop
         stop-color="#32b4ff"
         offset="0"
         id="stop874" />
      <stop
         stop-color="#2db4ff"
         offset=".2964"
         id="stop876" />
      <stop
         stop-color="#5087e1"
         offset=".72739"
         id="stop878" />
      <stop
         stop-color="#5a7dd2"
         offset="1"
         id="stop880" />
    </linearGradient>
    <linearGradient
       gradientTransform="matrix(0.49999998,0,0,0.57142859,3.7924731e-8,-32.142858)"
       id="linearGradient920"
       x1="2"
       x2="62"
       y1="16"
       y2="51"
       gradientUnits="userSpaceOnUse">
      <stop
         stop-color="#3c3c3c"
         offset="0"
         id="stop883" />
      <stop
         stop-color="#1e1e1e"
         offset="1"
         id="stop885" />
    </linearGradient>
  </defs>
  <g
     id="22-22-computer">
    <rect
       style="color:#bebebe;opacity:0;stroke-width:2"
       y="37.983051"
       id="rect23"
       transform="scale(-1,1)"
       x="-27"
       width="22"
       height="22" />
    <g
       transform="translate(26,-1.0169487)"
       id="g1030">
      <path
         id="rect921"
         style="opacity:1;fill:#eaeaea;fill-opacity:1;stroke:none;stroke-width:0.6794576;stroke-miterlimit:4;stroke-dasharray:none;stroke-opacity:1"
         d="M 7 40 C 6.446 40 6 40.446 6 41 L 6 54 C 6 54.554 6.446 55 7 55 L 24 55 C 24.554 55 25 54.554 25 54 L 25 41 C 25 40.446 24.554 40 24 40 L 7 40 z M 7 41 L 24 41 L 24 53 L 24 54 L 7 54 L 7 53 L 7 41 z "
         transform="translate(-26,1.0169487)" />
      <g
         id="g996"
         transform="translate(0.5)">
        <rect
           y="56.016949"
           x="-12.5"
           height="2"
           width="2"
           id="rect986"
           style="opacity:1;fill:#eaeaea;fill-opacity:1;stroke:none;stroke-width:1.41421;stroke-miterlimit:4;stroke-dasharray:none;stroke-opacity:1" />
        <rect
           style="opacity:1;fill:#eaeaea;fill-opacity:1;stroke:none;stroke-width:1;stroke-miterlimit:4;stroke-dasharray:none;stroke-opacity:1"
           id="rect990"
           width="1"
           height="2"
           x="-10.5"
           y="56.016949" />
      </g>
      <rect
         style="opacity:1;fill:#eaeaea;fill-opacity:1;stroke:none;stroke-width:1.61245;stroke-miterlimit:4;stroke-dasharray:none;stroke-opacity:1"
         id="rect992"
         width="13"
         height="1"
         x="-17"
         y="58.016949" />
    </g>
    <rect
       y="41"
       x="7"
       height="13"
       width="17"
       id="rect880"
       style="opacity:0.5;fill:#eaeaea;fill-opacity:1;stroke:none;stroke-width:2.08167;stroke-miterlimit:4;stroke-dasharray:none;stroke-opacity:1" />
  </g>
  <g
     id="16-16-computer">
    <rect
       style="color:#bebebe;fill:none"
       id="rect16"
       transform="scale(-1,1)"
       x="-24"
       y="65.991524"
       width="16"
       height="16" />
    <rect
       style="color:#bebebe;opacity:0;stroke-width:3"
       id="rect18"
       transform="scale(-1,1)"
       x="-24"
       y="65.991524"
       width="16"
       height="16" />
    <g
       transform="translate(19)"
       id="g1067">
      <path
         id="rect982"
         style="opacity:1;fill:#eaeaea;fill-opacity:1;stroke:none;stroke-width:0.53997815;stroke-miterlimit:4;stroke-dasharray:none;stroke-opacity:1"
         d="M 9.9824219 67 C 9.4378116 67 9 67.437812 9 67.982422 L 9 78.017578 C 9 78.562188 9.4378116 79 9.9824219 79 L 23.017578 79 C 23.562188 79 24 78.562188 24 78.017578 L 24 67.982422 C 24 67.437812 23.562188 67 23.017578 67 L 9.9824219 67 z M 10 68 L 23 68 L 23 77 L 23 78 L 10 78 L 10 77 L 10 68 z "
         transform="translate(-19)" />
      <g
         id="g1060">
        <rect
           y="79"
           x="-4"
           height="2"
           width="2"
           id="rect1052"
           style="opacity:1;fill:#eaeaea;fill-opacity:1;stroke:none;stroke-width:1.41421;stroke-miterlimit:4;stroke-dasharray:none;stroke-opacity:1" />
        <rect
           y="79"
           x="-2"
           height="2"
           width="1"
           id="rect1054"
           style="opacity:1;fill:#eaeaea;fill-opacity:1;stroke:none;stroke-width:1;stroke-miterlimit:4;stroke-dasharray:none;stroke-opacity:1" />
      </g>
      <rect
         style="opacity:1;fill:#eaeaea;fill-opacity:1;stroke:none;stroke-width:1.48324;stroke-miterlimit:4;stroke-dasharray:none;stroke-opacity:1"
         id="rect1056"
         width="11"
         height="1"
         x="-8"
         y="81" />
    </g>
    <rect
       y="68"
       x="10"
       height="10"
       width="13"
       id="rect882"
       style="opacity:0.5;fill:#eaeaea;fill-opacity:1;stroke:none;stroke-width:2.10819;stroke-miterlimit:4;stroke-dasharray:none;stroke-opacity:1" />
  </g>
  <g
     id="22-22-computer-laptop">
    <rect
       style="color:#bebebe;opacity:0;stroke-width:2"
       y="37.983051"
       id="rect893"
       transform="scale(-1,1)"
       x="-75"
       width="22"
       height="22" />
    <g
       transform="translate(-27.5,-0.0169487)"
       id="g1113">
      <path
         id="rect1085"
         style="opacity:1;fill:#eaeaea;fill-opacity:1;stroke:none;stroke-width:0.6794576;stroke-miterlimit:4;stroke-dasharray:none;stroke-opacity:1"
         d="M 56 39.982422 C 55.446 39.982422 55 40.428422 55 40.982422 L 55 53.982422 C 55 54.536422 55.446 54.982422 56 54.982422 L 73 54.982422 C 73.554 54.982422 74 54.536422 74 53.982422 L 74 40.982422 C 74 40.428422 73.554 39.982422 73 39.982422 L 56 39.982422 z M 56 40.982422 L 73 40.982422 L 73 41 L 73 52.982422 L 73 54 L 56 54 L 56 52.982422 L 56 41 L 56 40.982422 z "
         transform="translate(27.5,0.0169487)" />
      <rect
         style="opacity:1;fill:#eaeaea;fill-opacity:1;stroke:none;stroke-width:0.71307385;stroke-miterlimit:4;stroke-dasharray:none;stroke-opacity:1"
         id="rect1109"
         width="19"
         height="1.0169487"
         x="82.5"
         y="56"
         ry="0" />
    </g>
    <rect
       y="41"
       x="56"
       height="13"
       width="17"
       id="rect884"
       style="opacity:0.5;fill:#eaeaea;fill-opacity:1;stroke:none;stroke-width:2.08167;stroke-miterlimit:4;stroke-dasharray:none;stroke-opacity:1" />
  </g>
  <g
     id="16-16-computer-laptop">
    <rect
       style="color:#bebebe;fill:none"
       id="rect922"
       transform="scale(-1,1)"
       x="-72"
       y="65.991524"
       width="16"
       height="16" />
    <rect
       style="color:#bebebe;opacity:0;stroke-width:3"
       id="rect924"
       transform="scale(-1,1)"
       x="-72"
       y="65.991524"
       width="16"
       height="16" />
    <g
       transform="translate(-18.5,0.99152374)"
       id="g1131">
      <path
         id="rect1104"
         style="opacity:1;fill:#eaeaea;fill-opacity:1;stroke:none;stroke-width:0.53997815;stroke-miterlimit:4;stroke-dasharray:none;stroke-opacity:1"
         d="M 58 66.992188 C 57.446 66.992188 57 67.438187 57 67.992188 L 57 77.992188 C 57 78.546188 57.446 78.992188 58 78.992188 L 71 78.992188 C 71.554 78.992188 72 78.546188 72 77.992188 L 72 67.992188 C 72 67.438187 71.554 66.992188 71 66.992188 L 58 66.992188 z M 58 67.992188 L 71 67.992188 L 71 68 L 71 76.992188 L 71 78 L 58 78 L 58 76.992188 L 58 68 L 58 67.992188 z "
         transform="translate(18.5,-0.99152374)" />
      <rect
         style="opacity:1;fill:#eaeaea;fill-opacity:1;stroke:none;stroke-width:1;stroke-miterlimit:4;stroke-dasharray:none;stroke-opacity:1"
         id="rect1127"
         width="15"
         height="1"
         x="75.5"
         y="79"
         ry="0" />
    </g>
    <rect
       y="68"
       x="58"
       height="10"
       width="13"
       id="rect886"
       style="opacity:0.5;fill:#eaeaea;fill-opacity:1;stroke:none;stroke-width:2.10819;stroke-miterlimit:4;stroke-dasharray:none;stroke-opacity:1" />
  </g>
  <g
     id="computer">
    <rect
       x="0"
       y="-3.0004884e-07"
       width="32"
       height="32"
       rx="0"
       ry="0"
       style="opacity:0;stroke-width:2;paint-order:fill markers stroke"
       id="rect38-7" />
    <g
       transform="translate(35)"
       id="g955">
      <circle
         style="fill:none;fill-opacity:1;stroke:#eaeaea;stroke-width:0.999997;stroke-miterlimit:4;stroke-dasharray:none;stroke-opacity:1"
         id="path6762"
         cx="-19"
         cy="16"
         r="14.5" />
      <rect
         style="fill:#eaeaea;fill-opacity:1;stroke-width:2.33276;image-rendering:optimizeSpeed"
         x="-21"
         y="21"
         width="4"
         height="2"
         ry="0"
         id="rect928" />
      <rect
         style="fill:#eaeaea;fill-opacity:1;stroke-width:1.29096;image-rendering:optimizeSpeed"
         x="-25.999998"
         y="23"
         width="13.999998"
         height="1"
         ry="0"
         id="rect930" />
      <path
         id="rect932"
         style="fill:#eaeaea;fill-opacity:1;stroke-width:0.320714;image-rendering:optimizeSpeed"
         d="M 7.9667969 9 C 7.4308069 9 7 9.4308061 7 9.9667969 L 7 20.033203 C 7 20.569193 7.4308069 21 7.9667969 21 L 24.033203 21 C 24.569193 21 25 20.569193 25 20.033203 L 25 9.9667969 C 25 9.4308061 24.569193 9 24.033203 9 L 7.9667969 9 z M 8 10 L 24 10 L 24 20 L 8 20 L 8 10 z "
         transform="translate(-35)" />
      <rect
         style="fill:#eaeaea;fill-opacity:1;stroke-width:0.289125;image-rendering:optimizeSpeed;opacity:0.5"
         x="-27"
         y="10"
         width="16"
         height="10"
         ry="0"
         id="rect934" />
    </g>
  </g>
  <g
     id="computer-laptop">
    <rect
       id="rect993"
       style="opacity:0;stroke-width:2;paint-order:fill markers stroke"
       ry="0"
       rx="0"
       height="32"
       width="32"
       y="-1.4901161e-06"
       x="48" />
    <g
       transform="translate(-40)"
       id="g1005">
      <circle
         r="14.5"
         cy="16"
         cx="104"
         id="circle974"
         style="fill:none;fill-opacity:1;stroke:#eaeaea;stroke-width:0.999997;stroke-miterlimit:4;stroke-dasharray:none;stroke-opacity:1" />
      <rect
         id="rect978"
         ry="0"
         height="1"
         width="18.000002"
         y="22"
         x="95"
         style="fill:#eaeaea;fill-opacity:1;stroke-width:1.46381;image-rendering:optimizeSpeed" />
      <path
         id="rect980"
         style="fill:#eaeaea;fill-opacity:1;stroke-width:0.320714;image-rendering:optimizeSpeed"
         d="M 55.966797 9 C 55.430807 9 55 9.4308061 55 9.9667969 L 55 20.033203 C 55 20.569193 55.430807 21 55.966797 21 L 72.033203 21 C 72.569193 21 73 20.569193 73 20.033203 L 73 9.9667969 C 73 9.4308061 72.569193 9 72.033203 9 L 55.966797 9 z M 56 10 L 72 10 L 72 20 L 56 20 L 56 10 z "
         transform="translate(40)" />
      <rect
         id="rect983"
         ry="0"
         height="10"
         width="16"
         y="10"
         x="96"
         style="fill:#eaeaea;fill-opacity:1;stroke-width:0.289125;image-rendering:optimizeSpeed;opacity:0.5" />
    </g>
  </g>
</svg>
