<?xml version="1.0" encoding="UTF-8" standalone="no"?>
<svg
   xmlns:dc="http://purl.org/dc/elements/1.1/"
   xmlns:cc="http://creativecommons.org/ns#"
   xmlns:rdf="http://www.w3.org/1999/02/22-rdf-syntax-ns#"
   xmlns:svg="http://www.w3.org/2000/svg"
   xmlns="http://www.w3.org/2000/svg"
   xmlns:xlink="http://www.w3.org/1999/xlink"
   xmlns:sodipodi="http://sodipodi.sourceforge.net/DTD/sodipodi-0.dtd"
   xmlns:inkscape="http://www.inkscape.org/namespaces/inkscape"
   viewBox="0 0 22 22"
   version="1.1"
   sodipodi:docname="preferences.svg"
   inkscape:version="1.0 (4035a4fb49, 2020-05-01)"
   id="svg">
  <metadata
     id="metadata27">
    <rdf:RDF>
      <cc:Work
         rdf:about="">
        <dc:format>image/svg+xml</dc:format>
        <dc:type
           rdf:resource="http://purl.org/dc/dcmitype/StillImage" />
      </cc:Work>
    </rdf:RDF>
  </metadata>
  <sodipodi:namedview
     inkscape:document-rotation="0"
     showgrid="true"
     pagecolor="#383838"
     objecttolerance="10"
     inkscape:zoom="5.3636366"
     inkscape:window-y="0"
     inkscape:window-x="0"
     inkscape:window-width="1920"
     inkscape:window-maximized="1"
     inkscape:window-height="1001"
     inkscape:snap-smooth-nodes="true"
     inkscape:snap-nodes="true"
     inkscape:snap-intersection-paths="true"
     inkscape:snap-bbox-edge-midpoints="true"
     inkscape:snap-bbox="true"
     inkscape:pageshadow="2"
     inkscape:pageopacity="0"
     inkscape:object-paths="true"
     inkscape:cy="64.580806"
     inkscape:cx="9.487008"
     inkscape:current-layer="svg"
     inkscape:bbox-nodes="true"
     guidetolerance="10"
     gridtolerance="10"
     borderopacity="1"
     bordercolor="#666666"
     id="namedview21">
    <inkscape:grid
       type="xygrid"
       id="grid855" />
  </sodipodi:namedview>
  <defs
     id="defs7386">
    <style
       type="text/css"
       id="current-color-scheme">.ColorScheme-Text { color:#dedede; } .ColorScheme-Highlight { color:#5294e2; } .ColorScheme-ButtonBackground { color:#dedede; }</style>
    <filter
       id="c"
       x="-.07966"
       y="-.048123"
       width="1.1593"
       height="1.0962"
       color-interpolation-filters="sRGB">
      <feGaussianBlur
         stdDeviation="0.79660366"
         id="feGaussianBlur845" />
    </filter>
    <linearGradient
       id="linearGradient1448"
       x1="3.9687"
       x2="3.9687"
       y1="16.404"
       y2="2.6458"
       gradientTransform="matrix(3.4646,0,0,3.4646,66.680927,11.651707)"
       gradientUnits="userSpaceOnUse">
      <stop
         stop-color="#1964f0"
         offset="0"
         id="stop848" />
      <stop
         stop-color="#14c3fa"
         offset="1"
         id="stop850" />
    </linearGradient>
    <filter
       id="filter861"
       x="-.027"
       y="-.027"
       width="1.054"
       height="1.054"
       color-interpolation-filters="sRGB">
      <feGaussianBlur
         stdDeviation="0.16371"
         id="feGaussianBlur853" />
    </filter>
    <linearGradient
       id="linearGradient917"
       x1="29.565"
       x2="29.728"
       y1="11.048"
       y2="53.559"
       gradientTransform="translate(-57.000498,10.864133)"
       gradientUnits="userSpaceOnUse">
      <stop
         stop-color="#fff"
         offset="0"
         id="stop856" />
      <stop
         stop-color="#dbf6f8"
         offset="1"
         id="stop858" />
    </linearGradient>
    <linearGradient
       id="a"
       gradientUnits="userSpaceOnUse"
       x1="197.88585"
       x2="183.32736"
       y1="364.75723"
       y2="12.945999">
      <stop
         offset="0"
         stop-color="#197cf1"
         id="stop2" />
      <stop
         offset="1"
         stop-color="#20bcfa"
         id="stop4" />
    </linearGradient>
    <linearGradient
       y2="12.945999"
       x2="183.32736"
       y1="364.75723"
       x1="197.88585"
       gradientUnits="userSpaceOnUse"
       id="linearGradient893"
       xlink:href="#a"
       inkscape:collect="always" />
    <linearGradient
       y2="12.945999"
       x2="183.32736"
       y1="364.75723"
       x1="197.88585"
       gradientUnits="userSpaceOnUse"
       id="linearGradient945"
       xlink:href="#a"
       inkscape:collect="always" />
    <linearGradient
       y2="12.945999"
       x2="183.32736"
       y1="364.75723"
       x1="197.88585"
       gradientUnits="userSpaceOnUse"
       id="linearGradient947"
       xlink:href="#a"
       inkscape:collect="always" />
    <linearGradient
       y2="12.945999"
       x2="183.32736"
       y1="364.75723"
       x1="197.88585"
       gradientUnits="userSpaceOnUse"
       id="linearGradient949"
       xlink:href="#a"
       inkscape:collect="always" />
    <linearGradient
       y2="12.945999"
       x2="183.32736"
       y1="364.75723"
       x1="197.88585"
       gradientUnits="userSpaceOnUse"
       id="linearGradient969"
       xlink:href="#a"
       inkscape:collect="always" />
    <linearGradient
       y2="12.945999"
       x2="183.32736"
       y1="364.75723"
       x1="197.88585"
       gradientUnits="userSpaceOnUse"
       id="linearGradient971"
       xlink:href="#a"
       inkscape:collect="always" />
    <linearGradient
       y2="12.945999"
       x2="183.32736"
       y1="364.75723"
       x1="197.88585"
       gradientUnits="userSpaceOnUse"
       id="linearGradient973"
       xlink:href="#a"
       inkscape:collect="always" />
    <linearGradient
       y2="12.945999"
       x2="183.32736"
       y1="364.75723"
       x1="197.88585"
       gradientUnits="userSpaceOnUse"
       id="linearGradient975"
       xlink:href="#a"
       inkscape:collect="always" />
  </defs>
  <g
     transform="translate(23)"
     inkscape:label="#g1013"
     id="preferences-system-bluetooth-inactive">
    <rect
       width="22"
       height="22"
       x="-23"
       y="77"
       style="opacity:0"
       id="rect906" />
    <path
       d="m -11.000152,93.76299 v -3.672 l 2.278,1.836 z m 0,-11.525 2.278,1.836 -2.278,1.836 v -3.673 z m 0.593,5.763 3.906,-3.148 a 1.002,1.002 0 0 0 0,-1.558 l -4.872,-3.926 a 1,1 0 0 0 -1.627,0.778 v 5.762 l -3.244,-2.614 a 1.0003,1.0003 0 0 0 -1.255,1.558 l 3.905,3.147 -3.905,3.147 a 1,1 0 0 0 1.255,1.557 l 3.244,-2.614 v 5.762 a 1.001,1.001 0 0 0 1,1 0.998,0.998 0 0 0 0.627,-0.221 l 4.872,-3.926 a 1.002,1.002 0 0 0 0,-1.557 l -3.906,-3.148 z"
       p-id="5683"
       id="path55"
       inkscape:connector-curvature="0"
       style="color:#dedede;fill:#eaeaea;fill-opacity:1;stroke-width:0.019531;opacity:0.5" />
  </g>
  <g
     transform="translate(-35.62936,0.57400504)"
     inkscape:label="#g1039"
     id="16-16-preferences-system-bluetooth-inactive">
    <rect
       style="opacity:0;fill:#000000;fill-opacity:1;stroke:none;stroke-width:1.43544865;stroke-linecap:round;stroke-linejoin:round;stroke-miterlimit:4;stroke-dasharray:none;stroke-opacity:1;paint-order:stroke fill markers"
       id="rect1023"
       width="16"
       height="16"
       x="63.62936"
       y="79.425995"
       ry="0.28211999" />
    <path
       d="m 72.532976,92.634307 v -3.318576 l 2.058746,1.659288 z m 0,-10.415737 2.058746,1.659288 -2.058746,1.659288 v -3.319479 z m 0.535925,5.20832 3.530053,-2.845009 a 0.90555902,0.90555902 0 0 0 0,-1.408045 l -4.403077,-3.548129 a 0.90375151,0.90375151 0 0 0 -1.470404,0.703119 v 5.207416 l -2.93177,-2.362406 a 0.90402264,0.90402264 0 0 0 -1.134208,1.408045 l 3.52915,2.844106 -3.52915,2.844106 a 0.90375151,0.90375151 0 0 0 1.134208,1.407141 l 2.93177,-2.362407 v 5.207417 a 0.90465527,0.90465527 0 0 0 0.903751,0.903751 0.90194401,0.90194401 0 0 0 0.566653,-0.199729 l 4.403077,-3.548129 a 0.90555902,0.90555902 0 0 0 0,-1.407141 l -3.530053,-2.845009 z"
       p-id="5683"
       id="path1029"
       inkscape:connector-curvature="0"
       style="color:#dedede;fill:#eaeaea;fill-opacity:1;stroke-width:0.01765117;opacity:0.5" />
  </g>
  <g
     transform="translate(42,0.74264145)"
     inkscape:label="#g1138"
     id="preferences-system-bluetooth-activated">
    <rect
       width="22"
       height="22"
       x="-42"
       y="52"
       style="opacity:0"
       id="rect1107" />
    <path
       d="m -30.000152,68.76299 v -3.672 l 2.278,1.836 z m 0,-11.525 2.278,1.836 -2.278,1.836 v -3.673 z m 0.593,5.763 3.906,-3.148 a 1.002,1.002 0 0 0 0,-1.558 l -4.872,-3.926 a 1,1 0 0 0 -1.627,0.778 v 5.762 l -3.244,-2.614 a 1.0003,1.0003 0 0 0 -1.255,1.558 l 3.905,3.147 -3.905,3.147 a 1,1 0 0 0 1.255,1.557 l 3.244,-2.614 v 5.762 a 1.001,1.001 0 0 0 1,1 0.998,0.998 0 0 0 0.627,-0.221 l 4.872,-3.926 a 1.002,1.002 0 0 0 0,-1.557 l -3.906,-3.148 z"
       p-id="5683"
       id="path1109"
       inkscape:connector-curvature="0"
       style="color:#dedede;fill:#eaeaea;fill-opacity:1;stroke-width:0.019531" />
    <circle
       r="1"
       cy="63"
       cx="-24"
       id="circle1117"
       style="fill:#3296ff;fill-opacity:1;stroke-width:0.5" />
    <circle
       style="fill:#3296ff;fill-opacity:1;stroke-width:0.5"
       id="circle1126"
       cx="-21"
       cy="63"
       r="1" />
    <circle
       style="fill:#3296ff;fill-opacity:1;stroke-width:0.5"
       id="circle1128"
       cx="-41"
       cy="63"
       r="1" />
    <circle
       r="1"
       cy="63"
       cx="-38"
       id="circle1130"
       style="fill:#3296ff;fill-opacity:1;stroke-width:0.5" />
  </g>
  <g
     transform="translate(-31,1.7426412)"
     inkscape:label="#g1171"
     id="16-16-preferences-system-bluetooth-activated">
    <rect
       style="opacity:0;fill:#000000;fill-opacity:1;stroke:none;stroke-width:1.43544865;stroke-linecap:round;stroke-linejoin:round;stroke-miterlimit:4;stroke-dasharray:none;stroke-opacity:1;paint-order:stroke fill markers"
       id="rect1140"
       width="16"
       height="16"
       x="59"
       y="54"
       ry="0.28211999" />
    <path
       d="m 67.903616,67.208312 v -3.318576 l 2.058746,1.659288 z m 0,-10.415737 2.058746,1.659288 -2.058746,1.659288 v -3.319479 z m 0.535925,5.20832 3.530053,-2.845009 a 0.90555902,0.90555902 0 0 0 0,-1.408045 l -4.403077,-3.548129 a 0.90375151,0.90375151 0 0 0 -1.470404,0.703119 v 5.207416 l -2.93177,-2.362406 a 0.90402264,0.90402264 0 0 0 -1.134208,1.408045 l 3.52915,2.844106 -3.52915,2.844106 a 0.90375151,0.90375151 0 0 0 1.134208,1.407141 l 2.93177,-2.362407 v 5.207417 A 0.90465527,0.90465527 0 0 0 66.999864,70 0.90194401,0.90194401 0 0 0 67.566517,69.800271 l 4.403077,-3.548129 a 0.90555902,0.90555902 0 0 0 0,-1.407141 l -3.530053,-2.845009 z"
       p-id="5683"
       id="path1142"
       inkscape:connector-curvature="0"
       style="color:#dedede;fill:#eaeaea;fill-opacity:1;stroke-width:0.01765117" />
    <circle
       style="fill:#5294e2;stroke-width:0.25"
       id="circle1150"
       cx="72.5075"
       cy="62"
       r="0.5" />
    <circle
       r="0.5"
       cy="62"
       cx="74.5"
       id="circle1159"
       style="fill:#5294e2;stroke-width:0.25" />
    <circle
       r="0.5"
       cy="62"
       cx="59.5075"
       id="circle1161"
       style="fill:#5294e2;stroke-width:0.25" />
    <circle
       style="fill:#5294e2;stroke-width:0.25"
       id="circle1163"
       cx="61.5"
       cy="62"
       r="0.5" />
  </g>
  <g
     inkscape:label="#preferences-desktop-notification-7"
     id="preferences-desktop-notification"
     class="ColorScheme-Text"
     style="color:#dedede;fill:currentColor"
     transform="translate(26,-40)">
    <rect
       x="-1"
       y="40"
       width="22"
       height="22"
       id="rect20"
       style="fill-opacity:0" />
    <path
       d="M 10,41 C 4.46,41 0,45.46 0,51 0,56.54 4.46,61 10,61 15.54,61 20,56.54 20,51 20,45.46 15.54,41 10,41 Z m 0,2 c 4.432,0 8,3.568 8,8 0,4.432 -3.568,8 -8,8 -4.432,0 -8,-3.568 -8,-8 0,-4.432 3.568,-8 8,-8 z"
       id="path22"
       inkscape:connector-curvature="0"
       style="fill:#eaeaea;fill-opacity:1" />
    <rect
       x="9"
       y="46"
       width="2"
       height="7"
       rx="1"
       ry="1"
       style="fill:#eaeaea;fill-opacity:1;paint-order:stroke fill markers"
       id="rect24" />
    <circle
       cx="10"
       cy="55"
       r="1"
       style="fill:#eaeaea;fill-opacity:1;paint-order:stroke fill markers"
       id="circle26" />
  </g>
  <g
     id="preferences-desktop-display-randr">
    <rect
       style="fill-opacity:0"
       height="22"
       width="22"
       y="0"
       x="0"
       id="rect3832" />
    <g
       id="g973"
       transform="translate(20,1)">
      <path
         inkscape:connector-curvature="0"
         id="rect855"
         d="M -17,3 V 15 H -1 V 3 Z m 1,1 h 14 v 10 h -14 z"
         style="opacity:1;fill:#eaeaea;fill-opacity:1;stroke:none;stroke-width:0.716498;stroke-miterlimit:4;stroke-dasharray:none;stroke-opacity:1"
         sodipodi:nodetypes="cccccccccc" />
      <g
         transform="translate(0,-1)"
         id="g938">
        <rect
           style="opacity:1;fill:#eaeaea;fill-opacity:1;stroke:none;stroke-width:1;stroke-miterlimit:4;stroke-dasharray:none;stroke-opacity:1"
           id="rect932"
           width="1"
           height="2"
           x="-11"
           y="16" />
        <rect
           style="opacity:1;fill:#eaeaea;fill-opacity:1;stroke:none;stroke-width:1;stroke-miterlimit:4;stroke-dasharray:none;stroke-opacity:1"
           id="rect934"
           width="1"
           height="2"
           x="-8"
           y="16" />
      </g>
      <rect
         y="17"
         x="-13"
         height="1"
         width="8"
         id="rect940"
         style="opacity:1;fill:#eaeaea;fill-opacity:1;stroke:none;stroke-width:1;stroke-miterlimit:4;stroke-dasharray:none;stroke-opacity:1" />
      <g
         id="g948">
        <rect
           style="opacity:1;fill:#eaeaea;fill-opacity:1;stroke:none;stroke-width:1;stroke-miterlimit:4;stroke-dasharray:none;stroke-opacity:1"
           id="rect942"
           width="1"
           height="3"
           x="-15"
           y="10" />
        <rect
           y="12"
           x="12"
           height="3"
           width="1"
           id="rect944"
           style="opacity:1;fill:#eaeaea;fill-opacity:1;stroke:none;stroke-width:1;stroke-miterlimit:4;stroke-dasharray:none;stroke-opacity:1"
           transform="rotate(90)" />
      </g>
      <g
         id="g960">
        <rect
           y="-8"
           x="3"
           height="3"
           width="1"
           id="rect950"
           style="opacity:1;fill:#eaeaea;fill-opacity:1;stroke:none;stroke-width:1;stroke-miterlimit:4;stroke-dasharray:none;stroke-opacity:1"
           transform="scale(-1)" />
        <rect
           transform="rotate(-90)"
           style="opacity:1;fill:#eaeaea;fill-opacity:1;stroke:none;stroke-width:1;stroke-miterlimit:4;stroke-dasharray:none;stroke-opacity:1"
           id="rect952"
           width="1"
           height="3"
           x="-6"
           y="-6" />
      </g>
    </g>
  </g>
  <g
     id="preferences-system-bluetooth">
    <rect
       id="rect1015"
       style="opacity:0"
       y="28.009333"
       x="0.042796083"
       height="22"
       width="22" />
    <g
       id="g17"
       transform="matrix(0.39130434,0,0,0.39130434,-148.83297,-165.9551)">
      <ellipse
         id="ellipse7"
         ry="17.1875"
         rx="11.625"
         fill-rule="evenodd"
         fill="#ffffff"
         cy="524.86047"
         cx="408.57144" />
      <g
         id="g15"
         transform="matrix(0.12777778,0,0,0.12777778,385.57143,500.798)"
         fill="url(#a)"
         style="fill:url(#linearGradient893)">
        <path
           id="path9"
           d="M 180.003,0 C 113.723,0 60,53.723 60,120 v 120 c 0,66.277 53.723,120 120.003,120 C 246.277,360 300,306.277 300,240 V 120 C 300,53.723 246.277,0 180.003,0 Z m 69.364,224.128 c 2.705,2.168 4.279,5.448 4.279,8.915 0,3.467 -1.574,6.746 -4.279,8.915 l -71.652,57.439 c -2.067,1.657 -4.597,2.511 -7.148,2.511 -1.68,0 -3.369,-0.371 -4.942,-1.125 -3.961,-1.901 -6.481,-5.906 -6.481,-10.3 v -82.024 l -34.182,27.632 c -2.114,1.709 -4.653,2.541 -7.176,2.541 -3.331,0 -6.634,-1.45 -8.892,-4.243 -3.967,-4.907 -3.204,-12.101 1.703,-16.068 l 47.385,-38.306 -47.385,-38.306 c -4.907,-3.967 -5.67,-11.161 -1.703,-16.068 3.967,-4.908 11.162,-5.669 16.068,-1.703 l 34.182,27.632 V 69.519 c 0,-4.394 2.52,-8.399 6.481,-10.3 3.962,-1.901 8.663,-1.362 12.091,1.386 l 71.652,57.441 c 2.705,2.168 4.279,5.448 4.279,8.914 0,3.466 -1.574,6.746 -4.279,8.915 L 194.322,180 Z"
           style="fill:url(#linearGradient945)" />
        <path
           id="path11"
           d="m 223.954,126.959 -41.96,-33.638 v 67.275 z"
           style="fill:url(#linearGradient947)" />
        <path
           id="path13"
           d="m 223.954,233.042 -41.96,-33.638 v 67.275 z"
           style="fill:url(#linearGradient949)" />
      </g>
    </g>
  </g>
  <g
     inkscape:label="#g1013"
     id="g955"
     transform="translate(-38.999848,-48.514717)">
    <rect
       width="22"
       height="22"
       x="-23"
       y="77"
       style="opacity:0"
       id="rect951" />
    <path
       d="m -11.000152,93.76299 v -3.672 l 2.278,1.836 z m 0,-11.525 2.278,1.836 -2.278,1.836 v -3.673 z m 0.593,5.763 3.906,-3.148 a 1.002,1.002 0 0 0 0,-1.558 l -4.872,-3.926 a 1,1 0 0 0 -1.627,0.778 v 5.762 l -3.244,-2.614 a 1.0003,1.0003 0 0 0 -1.255,1.558 l 3.905,3.147 -3.905,3.147 a 1,1 0 0 0 1.255,1.557 l 3.244,-2.614 v 5.762 a 1.001,1.001 0 0 0 1,1 0.998,0.998 0 0 0 0.627,-0.221 l 4.872,-3.926 a 1.002,1.002 0 0 0 0,-1.557 l -3.906,-3.148 z"
       p-id="5683"
       id="path953"
       inkscape:connector-curvature="0"
       style="color:#dedede;fill:#323232;fill-opacity:1;stroke-width:0.019531" />
  </g>
  <g
     id="16-16-preferences-system-bluetooth">
    <rect
       ry="0.28211999"
       y="32"
       x="28.000002"
       height="16"
       width="16"
       id="rect1041"
       style="opacity:0;fill:#000000;fill-opacity:1;stroke:none;stroke-width:1.43545;stroke-linecap:round;stroke-linejoin:round;stroke-miterlimit:4;stroke-dasharray:none;stroke-opacity:1;paint-order:stroke fill markers" />
    <g
       transform="matrix(0.35869566,0,0,0.34782608,-110.5528,-142.1906)"
       id="g967">
      <ellipse
         cx="408.57144"
         cy="524.86047"
         fill="#ffffff"
         fill-rule="evenodd"
         rx="11.625"
         ry="17.1875"
         id="ellipse957" />
      <g
         style="fill:url(#linearGradient975)"
         fill="url(#a)"
         transform="matrix(0.12777778,0,0,0.12777778,385.57143,500.798)"
         id="g965">
        <path
           style="fill:url(#linearGradient969)"
           d="M 180.003,0 C 113.723,0 60,53.723 60,120 v 120 c 0,66.277 53.723,120 120.003,120 C 246.277,360 300,306.277 300,240 V 120 C 300,53.723 246.277,0 180.003,0 Z m 69.364,224.128 c 2.705,2.168 4.279,5.448 4.279,8.915 0,3.467 -1.574,6.746 -4.279,8.915 l -71.652,57.439 c -2.067,1.657 -4.597,2.511 -7.148,2.511 -1.68,0 -3.369,-0.371 -4.942,-1.125 -3.961,-1.901 -6.481,-5.906 -6.481,-10.3 v -82.024 l -34.182,27.632 c -2.114,1.709 -4.653,2.541 -7.176,2.541 -3.331,0 -6.634,-1.45 -8.892,-4.243 -3.967,-4.907 -3.204,-12.101 1.703,-16.068 l 47.385,-38.306 -47.385,-38.306 c -4.907,-3.967 -5.67,-11.161 -1.703,-16.068 3.967,-4.908 11.162,-5.669 16.068,-1.703 l 34.182,27.632 V 69.519 c 0,-4.394 2.52,-8.399 6.481,-10.3 3.962,-1.901 8.663,-1.362 12.091,1.386 l 71.652,57.441 c 2.705,2.168 4.279,5.448 4.279,8.914 0,3.466 -1.574,6.746 -4.279,8.915 L 194.322,180 Z"
           id="path959" />
        <path
           style="fill:url(#linearGradient971)"
           d="m 223.954,126.959 -41.96,-33.638 v 67.275 z"
           id="path961" />
        <path
           style="fill:url(#linearGradient973)"
           d="m 223.954,233.042 -41.96,-33.638 v 67.275 z"
           id="path963" />
      </g>
    </g>
  </g>
  <g
     transform="translate(-102.53298,-47.940712)"
     inkscape:label="#g1039"
     id="g981">
    <rect
       style="opacity:0;fill:#000000;fill-opacity:1;stroke:none;stroke-width:1.43545;stroke-linecap:round;stroke-linejoin:round;stroke-miterlimit:4;stroke-dasharray:none;stroke-opacity:1;paint-order:stroke fill markers"
       id="rect977"
       width="16"
       height="16"
       x="63.62936"
       y="79.425995"
       ry="0.28211999" />
    <path
       d="m 72.532976,92.634307 v -3.318576 l 2.058746,1.659288 z m 0,-10.415737 2.058746,1.659288 -2.058746,1.659288 v -3.319479 z m 0.535925,5.20832 3.530053,-2.845009 a 0.90555902,0.90555902 0 0 0 0,-1.408045 l -4.403077,-3.548129 a 0.90375151,0.90375151 0 0 0 -1.470404,0.703119 v 5.207416 l -2.93177,-2.362406 a 0.90402264,0.90402264 0 0 0 -1.134208,1.408045 l 3.52915,2.844106 -3.52915,2.844106 a 0.90375151,0.90375151 0 0 0 1.134208,1.407141 l 2.93177,-2.362407 v 5.207417 a 0.90465527,0.90465527 0 0 0 0.903751,0.903751 0.90194401,0.90194401 0 0 0 0.566653,-0.199729 l 4.403077,-3.548129 a 0.90555902,0.90555902 0 0 0 0,-1.407141 l -3.530053,-2.845009 z"
       p-id="5683"
       id="path979"
       inkscape:connector-curvature="0"
       style="color:#dedede;fill:#323232;fill-opacity:1;stroke-width:0.0176512" />
  </g>
</svg>
