<?xml version="1.0" encoding="UTF-8" standalone="no"?>
<svg
   xmlns:dc="http://purl.org/dc/elements/1.1/"
   xmlns:cc="http://creativecommons.org/ns#"
   xmlns:rdf="http://www.w3.org/1999/02/22-rdf-syntax-ns#"
   xmlns:svg="http://www.w3.org/2000/svg"
   xmlns="http://www.w3.org/2000/svg"
   xmlns:sodipodi="http://sodipodi.sourceforge.net/DTD/sodipodi-0.dtd"
   xmlns:inkscape="http://www.inkscape.org/namespaces/inkscape"
   id="svg4379"
   width="200"
   height="200"
   inkscape:version="0.92.4 5da689c313, 2019-01-14"
   sodipodi:docname="kde.svg"
   version="1.1"
   viewBox="0 0 200 200">
  <metadata
     id="metadata10">
    <rdf:RDF>
      <cc:Work
         rdf:about="">
        <dc:format>image/svg+xml</dc:format>
        <dc:type
           rdf:resource="http://purl.org/dc/dcmitype/StillImage" />
      </cc:Work>
    </rdf:RDF>
  </metadata>
  <defs
     id="defs8" />
  <sodipodi:namedview
     id="namedview39"
     bordercolor="#666666"
     borderopacity="1"
     gridtolerance="10"
     guidetolerance="10"
     inkscape:current-layer="svg4379"
     inkscape:cx="-1.6053606"
     inkscape:cy="-87.479798"
     inkscape:pageopacity="0"
     inkscape:pageshadow="2"
     inkscape:window-height="1011"
     inkscape:window-maximized="1"
     inkscape:window-width="1920"
     inkscape:window-x="0"
     inkscape:window-y="0"
     inkscape:zoom="0.7062229"
     objecttolerance="10"
     pagecolor="#dfe2e4"
     showgrid="true"
     inkscape:snap-bbox="true"
     inkscape:bbox-nodes="true"
     inkscape:snap-bbox-edge-midpoints="true">
    <inkscape:grid
       id="grid839"
       type="xygrid" />
  </sodipodi:namedview>
  <g
     style="fill:#ffffff;fill-opacity:1"
     transform="matrix(0.28548771,0,0,0.28548771,-8.6708968,-44.216517)"
     id="g2317">
    <path
       style="fill:#ffffff;fill-opacity:1"
       inkscape:connector-curvature="0"
       d="m 65.4,461.8 c 1.2,-5.9 2.2,-10.9 3.3,-16.1 h 107.6 c -1.1,5.4 -2.2,10.4 -3.4,16 -11.8,0 -23.4,0.4 -34.9,-0.2 -6.1,-0.3 -7.9,2 -8.8,7.6 -4.7,28.2 -9.8,56.3 -14.7,84.4 -0.5,2.8 -1.2,5.5 -1.8,8.7 H 90.3 c 5.9,-33.3 11.7,-66.4 17.6,-100.4 z"
       p-id="4802"
       id="path2313"
       sodipodi:nodetypes="ccccccccccc" />
    <path
       style="fill:#ffffff;fill-opacity:1"
       inkscape:connector-curvature="0"
       d="m 221.1,542 c -1.1,14.7 -1.3,16.2 -17.1,19.2 -11.4,2.1 -23.8,3.2 -35.1,1.2 -25.2,-4.6 -31.4,-22.4 -26.8,-43.9 6.3,-29.3 44.5,-46.8 71.6,-33.8 15.8,7.6 17.2,26.7 12.8,39.6 -0.5,1.6 -4.5,2.8 -6.9,2.8 -16.5,0.2 -33.1,0.1 -49.6,0.1 -8.1,0 -9.9,3 -6.6,10.6 3.6,8.3 14.5,13.8 27.1,11.8 10.6,-1.6 20.8,-5.1 30.6,-7.6 z m -13.9,-27.6 c 2.3,-7.6 0.2,-13.7 -5.5,-17.6 -6.9,-4.7 -14.9,-4.3 -22.2,-0.7 -7.2,3.6 -12.6,9.1 -13.8,18.2 14.4,0.1 27.9,0.1 41.5,0.1 z M 509,540 c -0.6,16.6 -0.5,16.8 -15.7,21.3 -13.4,4 -27.3,4.6 -40.5,0.6 -23,-7 -30.9,-31.8 -18.3,-54.4 11.9,-21.3 40.7,-32.4 63.7,-24.4 15.4,5.3 24.7,28.3 16.6,42 -0.9,1.5 -4.3,2.1 -6.6,2.2 -16.8,0.2 -33.6,0.1 -50.4,0.2 -8.1,0 -9.6,2.3 -6.3,10 3.2,7.3 9.3,10.7 16.9,11.9 14.5,2.1 27.9,-1.7 40.6,-9.4 z m -55.7,-25 c 11,0 21.8,0.2 32.5,-0.1 3.4,-0.1 9.5,-1.1 9.6,-2.1 0.3,-4.1 -0.3,-8.8 -2.3,-12.4 -1.5,-2.7 -5.3,-5 -8.5,-5.8 -13.9,-3.7 -27.1,4.7 -31.3,20.4 z m -133.6,47.3 h -22.8 c 2.5,-14.4 5.3,-28.7 7.4,-43.1 2.2,-15.4 -0.7,-20.6 -12.4,-22.8 -8.8,-1.6 -23,5.2 -25.2,16.9 -2.7,14.2 -5.4,28.3 -7.7,42.5 -0.8,5.1 -2.7,7.2 -7.9,6.9 -5.1,-0.3 -10.3,-0.1 -15.9,-0.1 4.5,-27.1 8.9,-53.8 13.4,-81 1.1,0.5 2.1,0.8 2.8,1.3 9.4,6.9 17.8,12.2 29.9,2.4 8.7,-7.2 21.1,-5.6 32.1,-2.7 9.2,2.4 16.4,13 15.1,24.5 -2.2,18.5 -5.8,36.7 -8.8,55.2 z m 237.5,-68.7 c 9.9,-10.2 21.6,-13.2 34.5,-12.4 16.6,1 25.8,10.6 24.6,27.2 -0.9,12.3 -3.5,24.5 -5.5,36.7 -0.9,5.6 -2.2,11.1 -3.4,17.1 H 585 c 2.6,-14.7 5.2,-29.1 7.7,-43.5 2.5,-13.9 -3.1,-22.5 -14.8,-22.6 -11,-0.2 -21.8,8.4 -23.9,19.4 -2.9,15.4 -5.5,30.9 -8.3,46.8 h -22.5 c 4.5,-26.7 8.9,-53.2 13.4,-80.5 7,3.9 13.6,7.7 20.6,11.8 z m -140.9,45.9 c -0.8,3.1 -1.3,4.5 -1.6,6 -3.2,15.3 -3.8,15.5 -19.8,17.4 -11.7,1.4 -23,1.6 -34.3,-2.6 -21.2,-7.9 -26.8,-29.1 -18.6,-47.9 9.7,-22.3 29.5,-29.9 52.1,-31.1 10.1,-0.5 20.3,1.4 31.2,2.3 -1.4,8.2 -2.4,14.5 -3.6,21.3 -14,-11.5 -28.8,-12.2 -43.9,-3.6 -10.9,6.2 -15.8,15.9 -15.1,28.3 0.7,10.7 10.3,18.6 23.2,19.5 10.7,0.8 20.4,-1.7 30.4,-9.6 z m 279.6,-42.4 h -28.7 c -2.1,11.2 -4.2,22.2 -6.1,33.2 -1.6,9.1 -2.9,18.3 -4.9,27.4 -0.4,2 -3.3,4.6 -5.2,4.8 -5.6,0.7 -11.3,0.2 -18.1,0.2 3.8,-22.1 7.4,-43.2 11.1,-64.5 -5.2,-0.9 -10.6,-0.5 -14.2,-2.8 -3.8,-2.5 -6,-7.5 -9.8,-12.8 8.2,0 15,0.4 21.8,-0.2 2.1,-0.2 5.1,-2.8 5.7,-4.9 1.6,-5.1 2.1,-10.5 3.3,-17 15.1,12.3 29.5,23.9 45.1,36.6 z"
       p-id="4803"
       id="path2315"
       sodipodi:nodetypes="cccccccsccccccccccccccccccccccscccccccccccccccccccccccccccccccccccccccccccccccccccccc" />
  </g>
</svg>
