<?xml version="1.0" encoding="UTF-8" standalone="no"?>
<svg
   id="svg"
   version="1.1"
   viewBox="0 0 22 22"
   sodipodi:docname="slc.svg"
   inkscape:version="1.1 (c4e8f9ed74, 2021-05-24)"
   xmlns:inkscape="http://www.inkscape.org/namespaces/inkscape"
   xmlns:sodipodi="http://sodipodi.sourceforge.net/DTD/sodipodi-0.dtd"
   xmlns="http://www.w3.org/2000/svg"
   xmlns:svg="http://www.w3.org/2000/svg"
   xmlns:rdf="http://www.w3.org/1999/02/22-rdf-syntax-ns#"
   xmlns:cc="http://creativecommons.org/ns#"
   xmlns:dc="http://purl.org/dc/elements/1.1/">
  <metadata
     id="metadata23">
    <rdf:RDF>
      <cc:Work
         rdf:about="">
        <dc:format>image/svg+xml</dc:format>
        <dc:type
           rdf:resource="http://purl.org/dc/dcmitype/StillImage" />
        <dc:title />
      </cc:Work>
    </rdf:RDF>
  </metadata>
  <sodipodi:namedview
     pagecolor="#c8c8c8"
     bordercolor="#666666"
     borderopacity="1"
     objecttolerance="10"
     gridtolerance="10"
     guidetolerance="10"
     inkscape:pageopacity="0"
     inkscape:pageshadow="2"
     inkscape:window-width="1920"
     inkscape:window-height="962"
     id="namedview21"
     showgrid="true"
     inkscape:zoom="10.727273"
     inkscape:cx="6.2923727"
     inkscape:cy="-6.0127117"
     inkscape:window-x="0"
     inkscape:window-y="40"
     inkscape:window-maximized="1"
     inkscape:current-layer="svg"
     inkscape:pagecheckerboard="0">
    <inkscape:grid
       type="xygrid"
       id="grid830" />
  </sodipodi:namedview>
  <defs
     id="defs3">
    <style
       id="current-color-scheme"
       type="text/css">.ColorScheme-Text { color:#dedede; } .ColorScheme-Highlight { color:#5294e2; } .ColorScheme-ButtonBackground { color:#dedede; }</style>
  </defs>
  <g
     id="slc-like"
     transform="translate(-1,-41)">
    <rect
       class="ColorScheme-Text"
       x="1"
       y="1"
       width="22"
       height="22"
       fill-opacity="0"
       id="rect5" />
    <path
       class="ColorScheme-Text"
       d="m8 4c-2.7614 0-5 2.2386-5 5 0 5 7 9 9 11 2-2 9-6 9-11 0-2.7614-2.2386-5-5-5-1.6396 0-3.0882 0.78077-4 2-0.91181-1.2192-2.3604-2-4-2z"
       color="#dedede"
       fill="currentColor"
       id="path7"
       style="fill:#000000;fill-opacity:1" />
  </g>
  <g
     id="slc-share"
     transform="translate(39,-1)">
    <rect
       class="ColorScheme-Text"
       x="1"
       y="1"
       width="22"
       height="22"
       fill-opacity="0"
       id="rect10" />
    <path
       class="ColorScheme-Text"
       d="m18 4c-1.6569 0-3 1.3431-3 3 0 0.087383 0.02393 0.16451 0.03125 0.25l-6.75 2.8125c-0.55028-0.64728-1.3651-1.0625-2.2812-1.0625-1.6569 0-3 1.3431-3 3s1.3431 3 3 3c0.91614 0 1.731-0.41522 2.2812-1.0625l6.75 2.8125c-0.0073 0.08548-0.03125 0.16262-0.03125 0.25 0 1.6569 1.3431 3 3 3 1.6569 0 3-1.3431 3-3 0-1.6569-1.3431-3-3-3-0.91614 0-1.731 0.41522-2.2812 1.0625l-6.75-2.8125c0.00732-0.08549 0.03125-0.16262 0.03125-0.25 0-0.08739-0.023929-0.16452-0.031249-0.25l6.75-2.8125c0.55028 0.64728 1.3651 1.0625 2.2812 1.0625 1.6569 0 3-1.3431 3-3 0-1.6569-1.3431-3-3-3zm0 2c0.55229 0 1 0.44772 1 1 0 0.55228-0.44771 1-1 1-0.55228 0-1-0.44772-1-1 0-0.55228 0.44772-1 1-1zm-12 5c0.55228 0 1 0.44771 1 1 0 0.55228-0.44772 1-1 1-0.55228 0-1-0.44772-1-1 0-0.55229 0.44772-1 1-1zm12 5c0.55229 0 1 0.44771 1 1 0 0.55229-0.44771 1-1 1-0.55228 0-1-0.44771-1-1 0-0.55228 0.44772-1 1-1z"
       color="#dedede"
       fill="currentColor"
       id="path12"
       style="fill:#000000;fill-opacity:1" />
  </g>
  <g
     id="slc-connect">
    <rect
       class="ColorScheme-Text"
       x="0"
       y="0"
       width="22"
       height="22"
       fill-opacity="0"
       id="rect15" />
    <path
       style="color:#000000;fill:#000000;stroke-width:1.06894;-inkscape-stroke:none;fill-opacity:1"
       d="m 10.613109,4.1821567 c 0.652589,-1.305167 2.392077,-1.5874531 3.42382,-0.5556145 l 4.336589,4.3365036 C 19.40526,8.9948737 19.12306,10.734351 17.817882,11.38694 l -3.696935,1.848457 c -0.351254,0.175627 -0.625758,0.473968 -0.771668,0.838584 l -1.534894,3.837501 c -0.285086,0.712556 -1.205766,0.901545 -1.748393,0.358843 L 7.2757662,15.480067 3.7558592,18.999985 H 2.9999999 V 18.244136 L 6.5199069,14.724219 3.7296808,11.934067 C 3.1870433,11.391387 3.3760215,10.470697 4.0885459,10.185685 L 7.9259927,8.6507066 C 8.2906086,8.5048602 8.5890144,8.2302812 8.7646415,7.8790376 Z M 13.28108,4.3823908 C 12.765209,3.8664768 11.895411,4.0076199 11.56917,4.6602087 L 9.7207243,8.3570897 C 9.4280266,8.9424849 8.9306802,9.4001201 8.3229869,9.6431974 l -3.8374468,1.5349786 6.3363329,6.336301 1.535,-3.837394 c 0.243077,-0.607693 0.700691,-1.105071 1.286044,-1.397748 l 3.696934,-1.848488 C 17.99244,10.104552 18.13354,9.234819 17.617669,8.718905 Z"
       id="path832" />
  </g>
</svg>
